<?xml version="1.0" encoding="utf-8" standalone="no"?>
<!DOCTYPE svg PUBLIC "-//W3C//DTD SVG 1.1//EN"
  "http://www.w3.org/Graphics/SVG/1.1/DTD/svg11.dtd">
<svg xmlns:xlink="http://www.w3.org/1999/xlink" width="886.32pt" height="461.52pt" viewBox="0 0 886.32 461.52" xmlns="http://www.w3.org/2000/svg" version="1.1">
 <metadata>
  <rdf:RDF xmlns:dc="http://purl.org/dc/elements/1.1/" xmlns:cc="http://creativecommons.org/ns#" xmlns:rdf="http://www.w3.org/1999/02/22-rdf-syntax-ns#">
   <cc:Work>
    <dc:type rdf:resource="http://purl.org/dc/dcmitype/StillImage"/>
    <dc:date>2026-06-22T17:47:38.428847</dc:date>
    <dc:format>image/svg+xml</dc:format>
    <dc:creator>
     <cc:Agent>
      <dc:title>Matplotlib v3.11.0, https://matplotlib.org/</dc:title>
     </cc:Agent>
    </dc:creator>
   </cc:Work>
  </rdf:RDF>
 </metadata>
 <defs>
  <style type="text/css">*{stroke-linejoin: round; stroke-linecap: butt}</style>
 </defs>
 <g id="figure_1">
  <g id="patch_1">
   <path d="M 0 461.52 
L 886.32 461.52 
L 886.32 0 
L 0 0 
L 0 461.52 
z
" style="fill: none"/>
  </g>
  <g id="axes_1">
   <g id="patch_2">
    <path d="M 7.2 454.32 
L 879.12 454.32 
L 879.12 7.2 
L 7.2 7.2 
L 7.2 454.32 
z
" style="fill: none"/>
   </g>
   <g id="matplotlib.axis_1"/>
   <g id="matplotlib.axis_2"/>
   <g id="text_1">
    <!-- 32×32×3 -->
    <g style="fill: #e5e7eb" transform="translate(52.626206 378.232797) scale(0.11 -0.11)">
     <defs>
      <path id="DejaVuSans-Bold-16" d="M 2981 2516 
Q 3453 2394 3698 2092 
Q 3944 1791 3944 1325 
Q 3944 631 3412 270 
Q 2881 -91 1863 -91 
Q 1503 -91 1142 -33 
Q 781 25 428 141 
L 428 1069 
Q 766 900 1098 814 
Q 1431 728 1753 728 
Q 2231 728 2486 893 
Q 2741 1059 2741 1369 
Q 2741 1688 2480 1852 
Q 2219 2016 1709 2016 
L 1228 2016 
L 1228 2791 
L 1734 2791 
Q 2188 2791 2409 2933 
Q 2631 3075 2631 3366 
Q 2631 3634 2415 3781 
Q 2200 3928 1806 3928 
Q 1516 3928 1219 3862 
Q 922 3797 628 3669 
L 628 4550 
Q 984 4650 1334 4700 
Q 1684 4750 2022 4750 
Q 2931 4750 3382 4451 
Q 3834 4153 3834 3553 
Q 3834 3144 3618 2883 
Q 3403 2622 2981 2516 
z
" transform="scale(0.015625)"/>
      <path id="DejaVuSans-Bold-15" d="M 1844 884 
L 3897 884 
L 3897 0 
L 506 0 
L 506 884 
L 2209 2388 
Q 2438 2594 2547 2791 
Q 2656 2988 2656 3200 
Q 2656 3528 2436 3728 
Q 2216 3928 1850 3928 
Q 1569 3928 1234 3808 
Q 900 3688 519 3450 
L 519 4475 
Q 925 4609 1322 4679 
Q 1719 4750 2100 4750 
Q 2938 4750 3402 4381 
Q 3866 4013 3866 3353 
Q 3866 2972 3669 2642 
Q 3472 2313 2841 1759 
L 1844 884 
z
" transform="scale(0.015625)"/>
      <path id="DejaVuSans-Bold-99" d="M 4563 3359 
L 3206 2003 
L 4563 653 
L 4038 128 
L 2681 1478 
L 1325 128 
L 800 653 
L 2156 2003 
L 800 3359 
L 1325 3884 
L 2681 2528 
L 4038 3884 
L 4563 3359 
z
" transform="scale(0.015625)"/>
     </defs>
     <use xlink:href="#DejaVuSans-Bold-16"/>
     <use xlink:href="#DejaVuSans-Bold-15" transform="translate(69.578125 0)"/>
     <use xlink:href="#DejaVuSans-Bold-99" transform="translate(139.15625 0)"/>
     <use xlink:href="#DejaVuSans-Bold-16" transform="translate(222.953125 0)"/>
     <use xlink:href="#DejaVuSans-Bold-15" transform="translate(292.53125 0)"/>
     <use xlink:href="#DejaVuSans-Bold-99" transform="translate(362.109375 0)"/>
     <use xlink:href="#DejaVuSans-Bold-16" transform="translate(445.90625 0)"/>
    </g>
   </g>
   <g id="text_2">
    <!-- input -->
    <g style="fill: #94a3b8" transform="translate(66.176284 38.441672) scale(0.1 -0.1)">
     <defs>
      <path id="DejaVuSans-Bold-4c" d="M 538 3500 
L 1656 3500 
L 1656 0 
L 538 0 
L 538 3500 
z
M 538 4863 
L 1656 4863 
L 1656 3950 
L 538 3950 
L 538 4863 
z
" transform="scale(0.015625)"/>
      <path id="DejaVuSans-Bold-51" d="M 4056 2131 
L 4056 0 
L 2931 0 
L 2931 347 
L 2931 1631 
Q 2931 2084 2911 2256 
Q 2891 2428 2841 2509 
Q 2775 2619 2662 2680 
Q 2550 2741 2406 2741 
Q 2056 2741 1856 2470 
Q 1656 2200 1656 1722 
L 1656 0 
L 538 0 
L 538 3500 
L 1656 3500 
L 1656 2988 
Q 1909 3294 2193 3439 
Q 2478 3584 2822 3584 
Q 3428 3584 3742 3212 
Q 4056 2841 4056 2131 
z
" transform="scale(0.015625)"/>
      <path id="DejaVuSans-Bold-53" d="M 1656 506 
L 1656 -1331 
L 538 -1331 
L 538 3500 
L 1656 3500 
L 1656 2988 
Q 1888 3294 2169 3439 
Q 2450 3584 2816 3584 
Q 3463 3584 3878 3070 
Q 4294 2556 4294 1747 
Q 4294 938 3878 423 
Q 3463 -91 2816 -91 
Q 2450 -91 2169 54 
Q 1888 200 1656 506 
z
M 2400 2772 
Q 2041 2772 1848 2508 
Q 1656 2244 1656 1747 
Q 1656 1250 1848 986 
Q 2041 722 2400 722 
Q 2759 722 2948 984 
Q 3138 1247 3138 1747 
Q 3138 2247 2948 2509 
Q 2759 2772 2400 2772 
z
" transform="scale(0.015625)"/>
      <path id="DejaVuSans-Bold-58" d="M 500 1363 
L 500 3500 
L 1625 3500 
L 1625 3150 
Q 1625 2866 1622 2436 
Q 1619 2006 1619 1863 
Q 1619 1441 1641 1255 
Q 1663 1069 1716 984 
Q 1784 875 1895 815 
Q 2006 756 2150 756 
Q 2500 756 2700 1025 
Q 2900 1294 2900 1772 
L 2900 3500 
L 4019 3500 
L 4019 0 
L 2900 0 
L 2900 506 
Q 2647 200 2364 54 
Q 2081 -91 1741 -91 
Q 1134 -91 817 281 
Q 500 653 500 1363 
z
" transform="scale(0.015625)"/>
      <path id="DejaVuSans-Bold-57" d="M 1759 4494 
L 1759 3500 
L 2913 3500 
L 2913 2700 
L 1759 2700 
L 1759 1216 
Q 1759 972 1856 886 
Q 1953 800 2241 800 
L 2816 800 
L 2816 0 
L 1856 0 
Q 1194 0 917 276 
Q 641 553 641 1216 
L 641 2700 
L 84 2700 
L 84 3500 
L 641 3500 
L 641 4494 
L 1759 4494 
z
" transform="scale(0.015625)"/>
     </defs>
     <use xlink:href="#DejaVuSans-Bold-4c"/>
     <use xlink:href="#DejaVuSans-Bold-51" transform="translate(34.28125 0)"/>
     <use xlink:href="#DejaVuSans-Bold-53" transform="translate(105.46875 0)"/>
     <use xlink:href="#DejaVuSans-Bold-58" transform="translate(177.046875 0)"/>
     <use xlink:href="#DejaVuSans-Bold-57" transform="translate(248.234375 0)"/>
    </g>
   </g>
   <g id="text_3">
    <!-- 16×16×32 -->
    <g style="fill: #e5e7eb" transform="translate(216.476332 322.342797) scale(0.11 -0.11)">
     <defs>
      <path id="DejaVuSans-Bold-14" d="M 750 831 
L 1813 831 
L 1813 3847 
L 722 3622 
L 722 4441 
L 1806 4666 
L 2950 4666 
L 2950 831 
L 4013 831 
L 4013 0 
L 750 0 
L 750 831 
z
" transform="scale(0.015625)"/>
      <path id="DejaVuSans-Bold-19" d="M 2316 2303 
Q 2000 2303 1842 2098 
Q 1684 1894 1684 1484 
Q 1684 1075 1842 870 
Q 2000 666 2316 666 
Q 2634 666 2792 870 
Q 2950 1075 2950 1484 
Q 2950 1894 2792 2098 
Q 2634 2303 2316 2303 
z
M 3803 4544 
L 3803 3681 
Q 3506 3822 3243 3889 
Q 2981 3956 2731 3956 
Q 2194 3956 1894 3657 
Q 1594 3359 1544 2772 
Q 1750 2925 1990 3001 
Q 2231 3078 2516 3078 
Q 3231 3078 3670 2659 
Q 4109 2241 4109 1563 
Q 4109 813 3618 361 
Q 3128 -91 2303 -91 
Q 1394 -91 895 523 
Q 397 1138 397 2266 
Q 397 3422 980 4083 
Q 1563 4744 2578 4744 
Q 2900 4744 3203 4694 
Q 3506 4644 3803 4544 
z
" transform="scale(0.015625)"/>
     </defs>
     <use xlink:href="#DejaVuSans-Bold-14"/>
     <use xlink:href="#DejaVuSans-Bold-19" transform="translate(69.578125 0)"/>
     <use xlink:href="#DejaVuSans-Bold-99" transform="translate(139.15625 0)"/>
     <use xlink:href="#DejaVuSans-Bold-14" transform="translate(222.953125 0)"/>
     <use xlink:href="#DejaVuSans-Bold-19" transform="translate(292.53125 0)"/>
     <use xlink:href="#DejaVuSans-Bold-99" transform="translate(362.109375 0)"/>
     <use xlink:href="#DejaVuSans-Bold-16" transform="translate(445.90625 0)"/>
     <use xlink:href="#DejaVuSans-Bold-15" transform="translate(515.484375 0)"/>
    </g>
   </g>
   <g id="text_4">
    <!-- 32 ch -->
    <g style="fill: #94a3b8" transform="translate(233.432894 94.331672) scale(0.1 -0.1)">
     <defs>
      <path id="DejaVuSans-Bold-3" transform="scale(0.015625)"/>
      <path id="DejaVuSans-Bold-46" d="M 3366 3391 
L 3366 2478 
Q 3138 2634 2908 2709 
Q 2678 2784 2431 2784 
Q 1963 2784 1702 2511 
Q 1441 2238 1441 1747 
Q 1441 1256 1702 982 
Q 1963 709 2431 709 
Q 2694 709 2930 787 
Q 3166 866 3366 1019 
L 3366 103 
Q 3103 6 2833 -42 
Q 2563 -91 2291 -91 
Q 1344 -91 809 395 
Q 275 881 275 1747 
Q 275 2613 809 3098 
Q 1344 3584 2291 3584 
Q 2566 3584 2833 3536 
Q 3100 3488 3366 3391 
z
" transform="scale(0.015625)"/>
      <path id="DejaVuSans-Bold-4b" d="M 4056 2131 
L 4056 0 
L 2931 0 
L 2931 347 
L 2931 1625 
Q 2931 2084 2911 2256 
Q 2891 2428 2841 2509 
Q 2775 2619 2662 2680 
Q 2550 2741 2406 2741 
Q 2056 2741 1856 2470 
Q 1656 2200 1656 1722 
L 1656 0 
L 538 0 
L 538 4863 
L 1656 4863 
L 1656 2988 
Q 1909 3294 2193 3439 
Q 2478 3584 2822 3584 
Q 3428 3584 3742 3212 
Q 4056 2841 4056 2131 
z
" transform="scale(0.015625)"/>
     </defs>
     <use xlink:href="#DejaVuSans-Bold-16"/>
     <use xlink:href="#DejaVuSans-Bold-15" transform="translate(69.578125 0)"/>
     <use xlink:href="#DejaVuSans-Bold-3" transform="translate(139.15625 0)"/>
     <use xlink:href="#DejaVuSans-Bold-46" transform="translate(173.96875 0)"/>
     <use xlink:href="#DejaVuSans-Bold-4b" transform="translate(233.25 0)"/>
    </g>
   </g>
   <g id="text_5">
    <!-- 8×8×64 -->
    <g style="fill: #e5e7eb" transform="translate(378.392695 294.397797) scale(0.11 -0.11)">
     <defs>
      <path id="DejaVuSans-Bold-1b" d="M 2228 2088 
Q 1891 2088 1709 1903 
Q 1528 1719 1528 1375 
Q 1528 1031 1709 848 
Q 1891 666 2228 666 
Q 2563 666 2741 848 
Q 2919 1031 2919 1375 
Q 2919 1722 2741 1905 
Q 2563 2088 2228 2088 
z
M 1350 2484 
Q 925 2613 709 2878 
Q 494 3144 494 3541 
Q 494 4131 934 4440 
Q 1375 4750 2228 4750 
Q 3075 4750 3515 4442 
Q 3956 4134 3956 3541 
Q 3956 3144 3739 2878 
Q 3522 2613 3097 2484 
Q 3572 2353 3814 2058 
Q 4056 1763 4056 1313 
Q 4056 619 3595 264 
Q 3134 -91 2228 -91 
Q 1319 -91 855 264 
Q 391 619 391 1313 
Q 391 1763 633 2058 
Q 875 2353 1350 2484 
z
M 1631 3419 
Q 1631 3141 1786 2991 
Q 1941 2841 2228 2841 
Q 2509 2841 2662 2991 
Q 2816 3141 2816 3419 
Q 2816 3697 2662 3845 
Q 2509 3994 2228 3994 
Q 1941 3994 1786 3844 
Q 1631 3694 1631 3419 
z
" transform="scale(0.015625)"/>
      <path id="DejaVuSans-Bold-17" d="M 2356 3675 
L 1038 1722 
L 2356 1722 
L 2356 3675 
z
M 2156 4666 
L 3494 4666 
L 3494 1722 
L 4159 1722 
L 4159 850 
L 3494 850 
L 3494 0 
L 2356 0 
L 2356 850 
L 288 850 
L 288 1881 
L 2156 4666 
z
" transform="scale(0.015625)"/>
     </defs>
     <use xlink:href="#DejaVuSans-Bold-1b"/>
     <use xlink:href="#DejaVuSans-Bold-99" transform="translate(69.578125 0)"/>
     <use xlink:href="#DejaVuSans-Bold-1b" transform="translate(153.375 0)"/>
     <use xlink:href="#DejaVuSans-Bold-99" transform="translate(222.953125 0)"/>
     <use xlink:href="#DejaVuSans-Bold-19" transform="translate(306.75 0)"/>
     <use xlink:href="#DejaVuSans-Bold-17" transform="translate(376.328125 0)"/>
    </g>
   </g>
   <g id="text_6">
    <!-- 64 ch -->
    <g style="fill: #94a3b8" transform="translate(387.695663 122.276672) scale(0.1 -0.1)">
     <use xlink:href="#DejaVuSans-Bold-19"/>
     <use xlink:href="#DejaVuSans-Bold-17" transform="translate(69.578125 0)"/>
     <use xlink:href="#DejaVuSans-Bold-3" transform="translate(139.15625 0)"/>
     <use xlink:href="#DejaVuSans-Bold-46" transform="translate(173.96875 0)"/>
     <use xlink:href="#DejaVuSans-Bold-4b" transform="translate(233.25 0)"/>
    </g>
   </g>
   <g id="text_7">
    <!-- 4×4×64 -->
    <g style="fill: #e5e7eb" transform="translate(512.534233 280.425297) scale(0.11 -0.11)">
     <use xlink:href="#DejaVuSans-Bold-17"/>
     <use xlink:href="#DejaVuSans-Bold-99" transform="translate(69.578125 0)"/>
     <use xlink:href="#DejaVuSans-Bold-17" transform="translate(153.375 0)"/>
     <use xlink:href="#DejaVuSans-Bold-99" transform="translate(222.953125 0)"/>
     <use xlink:href="#DejaVuSans-Bold-19" transform="translate(306.75 0)"/>
     <use xlink:href="#DejaVuSans-Bold-17" transform="translate(376.328125 0)"/>
    </g>
   </g>
   <g id="text_8">
    <!-- 64 ch -->
    <g style="fill: #94a3b8" transform="translate(521.837202 136.249172) scale(0.1 -0.1)">
     <use xlink:href="#DejaVuSans-Bold-19"/>
     <use xlink:href="#DejaVuSans-Bold-17" transform="translate(69.578125 0)"/>
     <use xlink:href="#DejaVuSans-Bold-3" transform="translate(139.15625 0)"/>
     <use xlink:href="#DejaVuSans-Bold-46" transform="translate(173.96875 0)"/>
     <use xlink:href="#DejaVuSans-Bold-4b" transform="translate(233.25 0)"/>
    </g>
   </g>
   <g id="patch_3">
    <path d="M 119.864073 202.815 
Q 164.815113 202.815 207.753691 202.815 
" clip-path="url(#pa9f76f2d06)" style="fill: none; stroke: #94a3b8; stroke-width: 1.8; stroke-linecap: round"/>
    <path d="M 201.353691 199.615 
L 207.753691 202.815 
L 201.353691 206.015 
z
" clip-path="url(#pa9f76f2d06)" style="fill: #94a3b8; stroke: #94a3b8; stroke-width: 1.8; stroke-linecap: round"/>
   </g>
   <g id="text_9">
    <!-- Conv 3×3 -->
    <g style="fill: #fbbf24" transform="translate(139.345175 156.267096) scale(0.095 -0.095)">
     <defs>
      <path id="DejaVuSans-Bold-26" d="M 4288 256 
Q 3956 84 3597 -3 
Q 3238 -91 2847 -91 
Q 1681 -91 1000 561 
Q 319 1213 319 2328 
Q 319 3447 1000 4098 
Q 1681 4750 2847 4750 
Q 3238 4750 3597 4662 
Q 3956 4575 4288 4403 
L 4288 3438 
Q 3953 3666 3628 3772 
Q 3303 3878 2944 3878 
Q 2300 3878 1931 3465 
Q 1563 3053 1563 2328 
Q 1563 1606 1931 1193 
Q 2300 781 2944 781 
Q 3303 781 3628 887 
Q 3953 994 4288 1222 
L 4288 256 
z
" transform="scale(0.015625)"/>
      <path id="DejaVuSans-Bold-52" d="M 2203 2784 
Q 1831 2784 1636 2517 
Q 1441 2250 1441 1747 
Q 1441 1244 1636 976 
Q 1831 709 2203 709 
Q 2569 709 2762 976 
Q 2956 1244 2956 1747 
Q 2956 2250 2762 2517 
Q 2569 2784 2203 2784 
z
M 2203 3584 
Q 3106 3584 3614 3096 
Q 4122 2609 4122 1747 
Q 4122 884 3614 396 
Q 3106 -91 2203 -91 
Q 1297 -91 786 396 
Q 275 884 275 1747 
Q 275 2609 786 3096 
Q 1297 3584 2203 3584 
z
" transform="scale(0.015625)"/>
      <path id="DejaVuSans-Bold-59" d="M 97 3500 
L 1216 3500 
L 2088 1081 
L 2956 3500 
L 4078 3500 
L 2700 0 
L 1472 0 
L 97 3500 
z
" transform="scale(0.015625)"/>
     </defs>
     <use xlink:href="#DejaVuSans-Bold-26"/>
     <use xlink:href="#DejaVuSans-Bold-52" transform="translate(73.390625 0)"/>
     <use xlink:href="#DejaVuSans-Bold-51" transform="translate(142.09375 0)"/>
     <use xlink:href="#DejaVuSans-Bold-59" transform="translate(213.28125 0)"/>
     <use xlink:href="#DejaVuSans-Bold-3" transform="translate(278.46875 0)"/>
     <use xlink:href="#DejaVuSans-Bold-16" transform="translate(313.28125 0)"/>
     <use xlink:href="#DejaVuSans-Bold-99" transform="translate(382.859375 0)"/>
     <use xlink:href="#DejaVuSans-Bold-16" transform="translate(466.65625 0)"/>
    </g>
    <!-- ReLU · ↓2 -->
    <g style="fill: #fbbf24" transform="translate(138.825644 167.668951) scale(0.095 -0.095)">
     <defs>
      <path id="DejaVuSans-Bold-35" d="M 2297 2597 
Q 2675 2597 2839 2737 
Q 3003 2878 3003 3200 
Q 3003 3519 2839 3656 
Q 2675 3794 2297 3794 
L 1791 3794 
L 1791 2597 
L 2297 2597 
z
M 1791 1766 
L 1791 0 
L 588 0 
L 588 4666 
L 2425 4666 
Q 3347 4666 3776 4356 
Q 4206 4047 4206 3378 
Q 4206 2916 3982 2619 
Q 3759 2322 3309 2181 
Q 3556 2125 3751 1926 
Q 3947 1728 4147 1325 
L 4800 0 
L 3519 0 
L 2950 1159 
Q 2778 1509 2601 1637 
Q 2425 1766 2131 1766 
L 1791 1766 
z
" transform="scale(0.015625)"/>
      <path id="DejaVuSans-Bold-48" d="M 4031 1759 
L 4031 1441 
L 1416 1441 
Q 1456 1047 1700 850 
Q 1944 653 2381 653 
Q 2734 653 3104 758 
Q 3475 863 3866 1075 
L 3866 213 
Q 3469 63 3072 -14 
Q 2675 -91 2278 -91 
Q 1328 -91 801 392 
Q 275 875 275 1747 
Q 275 2603 792 3093 
Q 1309 3584 2216 3584 
Q 3041 3584 3536 3087 
Q 4031 2591 4031 1759 
z
M 2881 2131 
Q 2881 2450 2695 2645 
Q 2509 2841 2209 2841 
Q 1884 2841 1681 2658 
Q 1478 2475 1428 2131 
L 2881 2131 
z
" transform="scale(0.015625)"/>
      <path id="DejaVuSans-Bold-2f" d="M 588 4666 
L 1791 4666 
L 1791 909 
L 3903 909 
L 3903 0 
L 588 0 
L 588 4666 
z
" transform="scale(0.015625)"/>
      <path id="DejaVuSans-Bold-38" d="M 588 4666 
L 1791 4666 
L 1791 1869 
Q 1791 1291 1980 1042 
Q 2169 794 2597 794 
Q 3028 794 3217 1042 
Q 3406 1291 3406 1869 
L 3406 4666 
L 4609 4666 
L 4609 1869 
Q 4609 878 4112 393 
Q 3616 -91 2597 -91 
Q 1581 -91 1084 393 
Q 588 878 588 1869 
L 588 4666 
z
" transform="scale(0.015625)"/>
      <path id="DejaVuSans-Bold-79" d="M 653 2828 
L 1778 2828 
L 1778 1619 
L 653 1619 
L 653 2828 
z
" transform="scale(0.015625)"/>
      <path id="DejaVuSans-Bold-c1d" d="M 2903 -22 
L 2466 -22 
L 1238 1206 
L 1691 1659 
L 2309 1041 
L 2309 4666 
L 3059 4666 
L 3059 1041 
L 3678 1659 
L 4131 1206 
L 2903 -22 
z
" transform="scale(0.015625)"/>
     </defs>
     <use xlink:href="#DejaVuSans-Bold-35"/>
     <use xlink:href="#DejaVuSans-Bold-48" transform="translate(77 0)"/>
     <use xlink:href="#DejaVuSans-Bold-2f" transform="translate(144.828125 0)"/>
     <use xlink:href="#DejaVuSans-Bold-38" transform="translate(204.984375 0)"/>
     <use xlink:href="#DejaVuSans-Bold-3" transform="translate(286.1875 0)"/>
     <use xlink:href="#DejaVuSans-Bold-79" transform="translate(321 0)"/>
     <use xlink:href="#DejaVuSans-Bold-3" transform="translate(358.984375 0)"/>
     <use xlink:href="#DejaVuSans-Bold-c1d" transform="translate(393.796875 0)"/>
     <use xlink:href="#DejaVuSans-Bold-15" transform="translate(477.59375 0)"/>
    </g>
   </g>
   <g id="patch_4">
    <path d="M 287.543043 202.815 
Q 325.787035 202.815 362.018566 202.815 
" clip-path="url(#pa9f76f2d06)" style="fill: none; stroke: #94a3b8; stroke-width: 1.8; stroke-linecap: round"/>
    <path d="M 355.618566 199.615 
L 362.018566 202.815 
L 355.618566 206.015 
z
" clip-path="url(#pa9f76f2d06)" style="fill: #94a3b8; stroke: #94a3b8; stroke-width: 1.8; stroke-linecap: round"/>
   </g>
   <g id="text_10">
    <!-- Conv 3×3 -->
    <g style="fill: #fbbf24" transform="translate(300.315021 156.267096) scale(0.095 -0.095)">
     <use xlink:href="#DejaVuSans-Bold-26"/>
     <use xlink:href="#DejaVuSans-Bold-52" transform="translate(73.390625 0)"/>
     <use xlink:href="#DejaVuSans-Bold-51" transform="translate(142.09375 0)"/>
     <use xlink:href="#DejaVuSans-Bold-59" transform="translate(213.28125 0)"/>
     <use xlink:href="#DejaVuSans-Bold-3" transform="translate(278.46875 0)"/>
     <use xlink:href="#DejaVuSans-Bold-16" transform="translate(313.28125 0)"/>
     <use xlink:href="#DejaVuSans-Bold-99" transform="translate(382.859375 0)"/>
     <use xlink:href="#DejaVuSans-Bold-16" transform="translate(466.65625 0)"/>
    </g>
    <!-- ReLU · ↓2 -->
    <g style="fill: #fbbf24" transform="translate(299.79549 167.668951) scale(0.095 -0.095)">
     <use xlink:href="#DejaVuSans-Bold-35"/>
     <use xlink:href="#DejaVuSans-Bold-48" transform="translate(77 0)"/>
     <use xlink:href="#DejaVuSans-Bold-2f" transform="translate(144.828125 0)"/>
     <use xlink:href="#DejaVuSans-Bold-38" transform="translate(204.984375 0)"/>
     <use xlink:href="#DejaVuSans-Bold-3" transform="translate(286.1875 0)"/>
     <use xlink:href="#DejaVuSans-Bold-79" transform="translate(321 0)"/>
     <use xlink:href="#DejaVuSans-Bold-3" transform="translate(358.984375 0)"/>
     <use xlink:href="#DejaVuSans-Bold-c1d" transform="translate(393.796875 0)"/>
     <use xlink:href="#DejaVuSans-Bold-15" transform="translate(477.59375 0)"/>
    </g>
   </g>
   <g id="patch_5">
    <path d="M 441.80704 202.815 
Q 469.9894 202.815 496.159297 202.815 
" clip-path="url(#pa9f76f2d06)" style="fill: none; stroke: #94a3b8; stroke-width: 1.8; stroke-linecap: round"/>
    <path d="M 489.759297 199.615 
L 496.159297 202.815 
L 489.759297 206.015 
z
" clip-path="url(#pa9f76f2d06)" style="fill: #94a3b8; stroke: #94a3b8; stroke-width: 1.8; stroke-linecap: round"/>
   </g>
   <g id="text_11">
    <!-- Conv 3×3 -->
    <g style="fill: #fbbf24" transform="translate(444.517175 156.267096) scale(0.095 -0.095)">
     <use xlink:href="#DejaVuSans-Bold-26"/>
     <use xlink:href="#DejaVuSans-Bold-52" transform="translate(73.390625 0)"/>
     <use xlink:href="#DejaVuSans-Bold-51" transform="translate(142.09375 0)"/>
     <use xlink:href="#DejaVuSans-Bold-59" transform="translate(213.28125 0)"/>
     <use xlink:href="#DejaVuSans-Bold-3" transform="translate(278.46875 0)"/>
     <use xlink:href="#DejaVuSans-Bold-16" transform="translate(313.28125 0)"/>
     <use xlink:href="#DejaVuSans-Bold-99" transform="translate(382.859375 0)"/>
     <use xlink:href="#DejaVuSans-Bold-16" transform="translate(466.65625 0)"/>
    </g>
    <!-- ReLU · ↓2 -->
    <g style="fill: #fbbf24" transform="translate(443.997644 167.668951) scale(0.095 -0.095)">
     <use xlink:href="#DejaVuSans-Bold-35"/>
     <use xlink:href="#DejaVuSans-Bold-48" transform="translate(77 0)"/>
     <use xlink:href="#DejaVuSans-Bold-2f" transform="translate(144.828125 0)"/>
     <use xlink:href="#DejaVuSans-Bold-38" transform="translate(204.984375 0)"/>
     <use xlink:href="#DejaVuSans-Bold-3" transform="translate(286.1875 0)"/>
     <use xlink:href="#DejaVuSans-Bold-79" transform="translate(321 0)"/>
     <use xlink:href="#DejaVuSans-Bold-3" transform="translate(358.984375 0)"/>
     <use xlink:href="#DejaVuSans-Bold-c1d" transform="translate(393.796875 0)"/>
     <use xlink:href="#DejaVuSans-Bold-15" transform="translate(477.59375 0)"/>
    </g>
   </g>
   <g id="patch_6">
    <path d="M 572.593198 202.815 
Q 605.805744 202.815 637.005829 202.815 
" clip-path="url(#pa9f76f2d06)" style="fill: none; stroke: #94a3b8; stroke-width: 1.8; stroke-linecap: round"/>
    <path d="M 630.605829 199.615 
L 637.005829 202.815 
L 630.605829 206.015 
z
" clip-path="url(#pa9f76f2d06)" style="fill: #94a3b8; stroke: #94a3b8; stroke-width: 1.8; stroke-linecap: round"/>
   </g>
   <g id="text_12">
    <!-- flatten -->
    <g style="fill: #fbbf24" transform="translate(636.292693 370.575195) scale(0.1 -0.1)">
     <defs>
      <path id="DejaVuSans-Bold-13ac" d="M 1984 4863 
L 4206 4863 
L 4206 0 
L 3078 0 
L 3078 4128 
L 2222 4128 
Q 1984 4128 1890 4042 
Q 1797 3956 1797 3744 
L 1797 3500 
L 2675 3500 
L 2675 2700 
L 1797 2700 
L 1797 0 
L 678 0 
L 678 2700 
L 122 2700 
L 122 3500 
L 678 3500 
L 678 3744 
Q 678 4316 997 4589 
Q 1316 4863 1984 4863 
z
" transform="scale(0.015625)"/>
      <path id="DejaVuSans-Bold-44" d="M 2106 1575 
Q 1756 1575 1579 1456 
Q 1403 1338 1403 1106 
Q 1403 894 1545 773 
Q 1688 653 1941 653 
Q 2256 653 2472 879 
Q 2688 1106 2688 1447 
L 2688 1575 
L 2106 1575 
z
M 3816 1997 
L 3816 0 
L 2688 0 
L 2688 519 
Q 2463 200 2181 54 
Q 1900 -91 1497 -91 
Q 953 -91 614 226 
Q 275 544 275 1050 
Q 275 1666 698 1953 
Q 1122 2241 2028 2241 
L 2688 2241 
L 2688 2328 
Q 2688 2594 2478 2717 
Q 2269 2841 1825 2841 
Q 1466 2841 1156 2769 
Q 847 2697 581 2553 
L 581 3406 
Q 941 3494 1303 3539 
Q 1666 3584 2028 3584 
Q 2975 3584 3395 3211 
Q 3816 2838 3816 1997 
z
" transform="scale(0.015625)"/>
     </defs>
     <use xlink:href="#DejaVuSans-Bold-13ac"/>
     <use xlink:href="#DejaVuSans-Bold-44" transform="translate(74.125 0)"/>
     <use xlink:href="#DejaVuSans-Bold-57" transform="translate(141.609375 0)"/>
     <use xlink:href="#DejaVuSans-Bold-57" transform="translate(189.40625 0)"/>
     <use xlink:href="#DejaVuSans-Bold-48" transform="translate(237.203125 0)"/>
     <use xlink:href="#DejaVuSans-Bold-51" transform="translate(305.03125 0)"/>
    </g>
    <!-- 1024 -->
    <g style="fill: #fbbf24" transform="translate(641.188006 382.577148) scale(0.1 -0.1)">
     <defs>
      <path id="DejaVuSans-Bold-13" d="M 2944 2338 
Q 2944 3213 2780 3570 
Q 2616 3928 2228 3928 
Q 1841 3928 1675 3570 
Q 1509 3213 1509 2338 
Q 1509 1453 1675 1090 
Q 1841 728 2228 728 
Q 2613 728 2778 1090 
Q 2944 1453 2944 2338 
z
M 4147 2328 
Q 4147 1169 3647 539 
Q 3147 -91 2228 -91 
Q 1306 -91 806 539 
Q 306 1169 306 2328 
Q 306 3491 806 4120 
Q 1306 4750 2228 4750 
Q 3147 4750 3647 4120 
Q 4147 3491 4147 2328 
z
" transform="scale(0.015625)"/>
     </defs>
     <use xlink:href="#DejaVuSans-Bold-14"/>
     <use xlink:href="#DejaVuSans-Bold-13" transform="translate(69.578125 0)"/>
     <use xlink:href="#DejaVuSans-Bold-15" transform="translate(139.15625 0)"/>
     <use xlink:href="#DejaVuSans-Bold-17" transform="translate(208.734375 0)"/>
    </g>
   </g>
   <g id="patch_7">
    <path d="M 667.836843 202.815 
Q 698.698999 202.815 727.548694 202.815 
" clip-path="url(#pa9f76f2d06)" style="fill: none; stroke: #94a3b8; stroke-width: 1.8; stroke-linecap: round"/>
    <path d="M 721.148694 199.615 
L 727.548694 202.815 
L 721.148694 206.015 
z
" clip-path="url(#pa9f76f2d06)" style="fill: #94a3b8; stroke: #94a3b8; stroke-width: 1.8; stroke-linecap: round"/>
   </g>
   <g id="text_13">
    <!-- Linear -->
    <g style="fill: #fbbf24" transform="translate(674.515752 164.650967) scale(0.095 -0.095)">
     <defs>
      <path id="DejaVuSans-Bold-55" d="M 3138 2547 
Q 2991 2616 2845 2648 
Q 2700 2681 2553 2681 
Q 2122 2681 1889 2404 
Q 1656 2128 1656 1613 
L 1656 0 
L 538 0 
L 538 3500 
L 1656 3500 
L 1656 2925 
Q 1872 3269 2151 3426 
Q 2431 3584 2822 3584 
Q 2878 3584 2943 3579 
Q 3009 3575 3134 3559 
L 3138 2547 
z
" transform="scale(0.015625)"/>
     </defs>
     <use xlink:href="#DejaVuSans-Bold-2f"/>
     <use xlink:href="#DejaVuSans-Bold-4c" transform="translate(63.71875 0)"/>
     <use xlink:href="#DejaVuSans-Bold-51" transform="translate(98 0)"/>
     <use xlink:href="#DejaVuSans-Bold-48" transform="translate(169.1875 0)"/>
     <use xlink:href="#DejaVuSans-Bold-44" transform="translate(237.015625 0)"/>
     <use xlink:href="#DejaVuSans-Bold-55" transform="translate(304.5 0)"/>
    </g>
    <!-- 1024→2 -->
    <g style="fill: #fbbf24" transform="translate(670.81669 176.052822) scale(0.095 -0.095)">
     <defs>
      <path id="DejaVuSans-Bold-c1c" d="M 5050 2225 
L 5050 1788 
L 3822 559 
L 3369 1013 
L 3988 1631 
L 366 1631 
L 366 2381 
L 3988 2381 
L 3369 3000 
L 3822 3453 
L 5050 2225 
z
" transform="scale(0.015625)"/>
     </defs>
     <use xlink:href="#DejaVuSans-Bold-14"/>
     <use xlink:href="#DejaVuSans-Bold-13" transform="translate(69.578125 0)"/>
     <use xlink:href="#DejaVuSans-Bold-15" transform="translate(139.15625 0)"/>
     <use xlink:href="#DejaVuSans-Bold-17" transform="translate(208.734375 0)"/>
     <use xlink:href="#DejaVuSans-Bold-c1c" transform="translate(278.3125 0)"/>
     <use xlink:href="#DejaVuSans-Bold-15" transform="translate(362.109375 0)"/>
    </g>
   </g>
   <g id="text_14">
    <!-- Airplane -->
    <g style="fill: #34d399" transform="translate(738.271385 132.187324) scale(0.105 -0.105)">
     <defs>
      <path id="DejaVuSans-Bold-24" d="M 3419 850 
L 1538 850 
L 1241 0 
L 31 0 
L 1759 4666 
L 3194 4666 
L 4922 0 
L 3713 0 
L 3419 850 
z
M 1838 1716 
L 3116 1716 
L 2478 3572 
L 1838 1716 
z
" transform="scale(0.015625)"/>
      <path id="DejaVuSans-Bold-4f" d="M 538 4863 
L 1656 4863 
L 1656 0 
L 538 0 
L 538 4863 
z
" transform="scale(0.015625)"/>
     </defs>
     <use xlink:href="#DejaVuSans-Bold-24"/>
     <use xlink:href="#DejaVuSans-Bold-4c" transform="translate(77.390625 0)"/>
     <use xlink:href="#DejaVuSans-Bold-55" transform="translate(111.671875 0)"/>
     <use xlink:href="#DejaVuSans-Bold-53" transform="translate(160.984375 0)"/>
     <use xlink:href="#DejaVuSans-Bold-4f" transform="translate(232.5625 0)"/>
     <use xlink:href="#DejaVuSans-Bold-44" transform="translate(266.84375 0)"/>
     <use xlink:href="#DejaVuSans-Bold-51" transform="translate(334.328125 0)"/>
     <use xlink:href="#DejaVuSans-Bold-48" transform="translate(405.515625 0)"/>
    </g>
   </g>
   <g id="text_15">
    <!-- Automobile -->
    <g style="fill: #f87171" transform="translate(738.271385 209.036074) scale(0.105 -0.105)">
     <defs>
      <path id="DejaVuSans-Bold-50" d="M 3781 2919 
Q 3994 3244 4286 3414 
Q 4578 3584 4928 3584 
Q 5531 3584 5847 3212 
Q 6163 2841 6163 2131 
L 6163 0 
L 5038 0 
L 5038 1825 
Q 5041 1866 5042 1909 
Q 5044 1953 5044 2034 
Q 5044 2406 4934 2573 
Q 4825 2741 4581 2741 
Q 4263 2741 4089 2478 
Q 3916 2216 3909 1719 
L 3909 0 
L 2784 0 
L 2784 1825 
Q 2784 2406 2684 2573 
Q 2584 2741 2328 2741 
Q 2006 2741 1831 2477 
Q 1656 2213 1656 1722 
L 1656 0 
L 531 0 
L 531 3500 
L 1656 3500 
L 1656 2988 
Q 1863 3284 2130 3434 
Q 2397 3584 2719 3584 
Q 3081 3584 3359 3409 
Q 3638 3234 3781 2919 
z
" transform="scale(0.015625)"/>
      <path id="DejaVuSans-Bold-45" d="M 2400 722 
Q 2759 722 2948 984 
Q 3138 1247 3138 1747 
Q 3138 2247 2948 2509 
Q 2759 2772 2400 2772 
Q 2041 2772 1848 2508 
Q 1656 2244 1656 1747 
Q 1656 1250 1848 986 
Q 2041 722 2400 722 
z
M 1656 2988 
Q 1888 3294 2169 3439 
Q 2450 3584 2816 3584 
Q 3463 3584 3878 3070 
Q 4294 2556 4294 1747 
Q 4294 938 3878 423 
Q 3463 -91 2816 -91 
Q 2450 -91 2169 54 
Q 1888 200 1656 506 
L 1656 0 
L 538 0 
L 538 4863 
L 1656 4863 
L 1656 2988 
z
" transform="scale(0.015625)"/>
     </defs>
     <use xlink:href="#DejaVuSans-Bold-24"/>
     <use xlink:href="#DejaVuSans-Bold-58" transform="translate(77.390625 0)"/>
     <use xlink:href="#DejaVuSans-Bold-57" transform="translate(148.578125 0)"/>
     <use xlink:href="#DejaVuSans-Bold-52" transform="translate(196.375 0)"/>
     <use xlink:href="#DejaVuSans-Bold-50" transform="translate(265.078125 0)"/>
     <use xlink:href="#DejaVuSans-Bold-52" transform="translate(369.28125 0)"/>
     <use xlink:href="#DejaVuSans-Bold-45" transform="translate(437.984375 0)"/>
     <use xlink:href="#DejaVuSans-Bold-4c" transform="translate(509.5625 0)"/>
     <use xlink:href="#DejaVuSans-Bold-4f" transform="translate(543.84375 0)"/>
     <use xlink:href="#DejaVuSans-Bold-48" transform="translate(578.125 0)"/>
    </g>
   </g>
   <g id="text_16">
    <!-- VictimNet — a small CNN  (58,370 trainable weights) -->
    <g style="fill: #e5e7eb" transform="translate(235.680501 35.159238) scale(0.135 -0.135)">
     <defs>
      <path id="DejaVuSans-Bold-39" d="M 31 4666 
L 1241 4666 
L 2478 1222 
L 3713 4666 
L 4922 4666 
L 3194 0 
L 1759 0 
L 31 4666 
z
" transform="scale(0.015625)"/>
      <path id="DejaVuSans-Bold-31" d="M 588 4666 
L 1931 4666 
L 3628 1466 
L 3628 4666 
L 4769 4666 
L 4769 0 
L 3425 0 
L 1728 3200 
L 1728 0 
L 588 0 
L 588 4666 
z
" transform="scale(0.015625)"/>
      <path id="DejaVuSans-Bold-af6" d="M 344 2156 
L 6056 2156 
L 6056 1350 
L 344 1350 
L 344 2156 
z
" transform="scale(0.015625)"/>
      <path id="DejaVuSans-Bold-56" d="M 3272 3391 
L 3272 2541 
Q 2913 2691 2578 2766 
Q 2244 2841 1947 2841 
Q 1628 2841 1473 2761 
Q 1319 2681 1319 2516 
Q 1319 2381 1436 2309 
Q 1553 2238 1856 2203 
L 2053 2175 
Q 2913 2066 3209 1816 
Q 3506 1566 3506 1031 
Q 3506 472 3093 190 
Q 2681 -91 1863 -91 
Q 1516 -91 1145 -36 
Q 775 19 384 128 
L 384 978 
Q 719 816 1070 734 
Q 1422 653 1784 653 
Q 2113 653 2278 743 
Q 2444 834 2444 1013 
Q 2444 1163 2330 1236 
Q 2216 1309 1875 1350 
L 1678 1375 
Q 931 1469 631 1722 
Q 331 1975 331 2491 
Q 331 3047 712 3315 
Q 1094 3584 1881 3584 
Q 2191 3584 2531 3537 
Q 2872 3491 3272 3391 
z
" transform="scale(0.015625)"/>
      <path id="DejaVuSans-Bold-b" d="M 2413 -844 
L 1484 -844 
Q 1006 -72 778 623 
Q 550 1319 550 2003 
Q 550 2688 779 3389 
Q 1009 4091 1484 4856 
L 2413 4856 
Q 2013 4116 1813 3408 
Q 1613 2700 1613 2009 
Q 1613 1319 1811 609 
Q 2009 -100 2413 -844 
z
" transform="scale(0.015625)"/>
      <path id="DejaVuSans-Bold-18" d="M 678 4666 
L 3669 4666 
L 3669 3781 
L 1638 3781 
L 1638 3059 
Q 1775 3097 1914 3117 
Q 2053 3138 2203 3138 
Q 3056 3138 3531 2711 
Q 4006 2284 4006 1522 
Q 4006 766 3489 337 
Q 2972 -91 2053 -91 
Q 1656 -91 1267 -14 
Q 878 63 494 219 
L 494 1166 
Q 875 947 1217 837 
Q 1559 728 1863 728 
Q 2300 728 2551 942 
Q 2803 1156 2803 1522 
Q 2803 1891 2551 2103 
Q 2300 2316 1863 2316 
Q 1603 2316 1309 2248 
Q 1016 2181 678 2041 
L 678 4666 
z
" transform="scale(0.015625)"/>
      <path id="DejaVuSans-Bold-f" d="M 653 1209 
L 1778 1209 
L 1778 256 
L 1006 -909 
L 341 -909 
L 653 256 
L 653 1209 
z
" transform="scale(0.015625)"/>
      <path id="DejaVuSans-Bold-1a" d="M 428 4666 
L 3944 4666 
L 3944 3988 
L 2125 0 
L 953 0 
L 2675 3781 
L 428 3781 
L 428 4666 
z
" transform="scale(0.015625)"/>
      <path id="DejaVuSans-Bold-5a" d="M 225 3500 
L 1313 3500 
L 1900 1088 
L 2491 3500 
L 3425 3500 
L 4013 1113 
L 4603 3500 
L 5691 3500 
L 4769 0 
L 3547 0 
L 2956 2406 
L 2369 0 
L 1147 0 
L 225 3500 
z
" transform="scale(0.015625)"/>
      <path id="DejaVuSans-Bold-4a" d="M 2919 594 
Q 2688 288 2409 144 
Q 2131 0 1766 0 
Q 1125 0 706 504 
Q 288 1009 288 1791 
Q 288 2575 706 3076 
Q 1125 3578 1766 3578 
Q 2131 3578 2409 3434 
Q 2688 3291 2919 2981 
L 2919 3500 
L 4044 3500 
L 4044 353 
Q 4044 -491 3511 -936 
Q 2978 -1381 1966 -1381 
Q 1638 -1381 1331 -1331 
Q 1025 -1281 716 -1178 
L 716 -306 
Q 1009 -475 1290 -558 
Q 1572 -641 1856 -641 
Q 2406 -641 2662 -400 
Q 2919 -159 2919 353 
L 2919 594 
z
M 2181 2772 
Q 1834 2772 1640 2515 
Q 1447 2259 1447 1791 
Q 1447 1309 1634 1061 
Q 1822 813 2181 813 
Q 2531 813 2725 1069 
Q 2919 1325 2919 1791 
Q 2919 2259 2725 2515 
Q 2531 2772 2181 2772 
z
" transform="scale(0.015625)"/>
      <path id="DejaVuSans-Bold-c" d="M 513 -844 
Q 913 -100 1113 609 
Q 1313 1319 1313 2009 
Q 1313 2700 1113 3408 
Q 913 4116 513 4856 
L 1441 4856 
Q 1916 4091 2145 3389 
Q 2375 2688 2375 2003 
Q 2375 1319 2147 623 
Q 1919 -72 1441 -844 
L 513 -844 
z
" transform="scale(0.015625)"/>
     </defs>
     <use xlink:href="#DejaVuSans-Bold-39"/>
     <use xlink:href="#DejaVuSans-Bold-4c" transform="translate(75.640625 0)"/>
     <use xlink:href="#DejaVuSans-Bold-46" transform="translate(109.921875 0)"/>
     <use xlink:href="#DejaVuSans-Bold-57" transform="translate(169.203125 0)"/>
     <use xlink:href="#DejaVuSans-Bold-4c" transform="translate(217 0)"/>
     <use xlink:href="#DejaVuSans-Bold-50" transform="translate(251.28125 0)"/>
     <use xlink:href="#DejaVuSans-Bold-31" transform="translate(355.484375 0)"/>
     <use xlink:href="#DejaVuSans-Bold-48" transform="translate(439.171875 0)"/>
     <use xlink:href="#DejaVuSans-Bold-57" transform="translate(507 0)"/>
     <use xlink:href="#DejaVuSans-Bold-3" transform="translate(554.796875 0)"/>
     <use xlink:href="#DejaVuSans-Bold-af6" transform="translate(589.609375 0)"/>
     <use xlink:href="#DejaVuSans-Bold-3" transform="translate(689.609375 0)"/>
     <use xlink:href="#DejaVuSans-Bold-44" transform="translate(724.421875 0)"/>
     <use xlink:href="#DejaVuSans-Bold-3" transform="translate(791.90625 0)"/>
     <use xlink:href="#DejaVuSans-Bold-56" transform="translate(826.71875 0)"/>
     <use xlink:href="#DejaVuSans-Bold-50" transform="translate(886.234375 0)"/>
     <use xlink:href="#DejaVuSans-Bold-44" transform="translate(990.4375 0)"/>
     <use xlink:href="#DejaVuSans-Bold-4f" transform="translate(1057.921875 0)"/>
     <use xlink:href="#DejaVuSans-Bold-4f" transform="translate(1092.203125 0)"/>
     <use xlink:href="#DejaVuSans-Bold-3" transform="translate(1126.484375 0)"/>
     <use xlink:href="#DejaVuSans-Bold-26" transform="translate(1161.296875 0)"/>
     <use xlink:href="#DejaVuSans-Bold-31" transform="translate(1234.6875 0)"/>
     <use xlink:href="#DejaVuSans-Bold-31" transform="translate(1318.375 0)"/>
     <use xlink:href="#DejaVuSans-Bold-3" transform="translate(1402.0625 0)"/>
     <use xlink:href="#DejaVuSans-Bold-3" transform="translate(1436.875 0)"/>
     <use xlink:href="#DejaVuSans-Bold-b" transform="translate(1471.6875 0)"/>
     <use xlink:href="#DejaVuSans-Bold-18" transform="translate(1517.390625 0)"/>
     <use xlink:href="#DejaVuSans-Bold-1b" transform="translate(1586.96875 0)"/>
     <use xlink:href="#DejaVuSans-Bold-f" transform="translate(1656.546875 0)"/>
     <use xlink:href="#DejaVuSans-Bold-16" transform="translate(1694.53125 0)"/>
     <use xlink:href="#DejaVuSans-Bold-1a" transform="translate(1764.109375 0)"/>
     <use xlink:href="#DejaVuSans-Bold-13" transform="translate(1833.6875 0)"/>
     <use xlink:href="#DejaVuSans-Bold-3" transform="translate(1903.265625 0)"/>
     <use xlink:href="#DejaVuSans-Bold-57" transform="translate(1938.078125 0)"/>
     <use xlink:href="#DejaVuSans-Bold-55" transform="translate(1985.875 0)"/>
     <use xlink:href="#DejaVuSans-Bold-44" transform="translate(2035.1875 0)"/>
     <use xlink:href="#DejaVuSans-Bold-4c" transform="translate(2102.671875 0)"/>
     <use xlink:href="#DejaVuSans-Bold-51" transform="translate(2136.953125 0)"/>
     <use xlink:href="#DejaVuSans-Bold-44" transform="translate(2208.140625 0)"/>
     <use xlink:href="#DejaVuSans-Bold-45" transform="translate(2275.625 0)"/>
     <use xlink:href="#DejaVuSans-Bold-4f" transform="translate(2347.203125 0)"/>
     <use xlink:href="#DejaVuSans-Bold-48" transform="translate(2381.484375 0)"/>
     <use xlink:href="#DejaVuSans-Bold-3" transform="translate(2449.3125 0)"/>
     <use xlink:href="#DejaVuSans-Bold-5a" transform="translate(2484.125 0)"/>
     <use xlink:href="#DejaVuSans-Bold-48" transform="translate(2576.515625 0)"/>
     <use xlink:href="#DejaVuSans-Bold-4c" transform="translate(2644.34375 0)"/>
     <use xlink:href="#DejaVuSans-Bold-4a" transform="translate(2678.625 0)"/>
     <use xlink:href="#DejaVuSans-Bold-4b" transform="translate(2750.203125 0)"/>
     <use xlink:href="#DejaVuSans-Bold-57" transform="translate(2821.390625 0)"/>
     <use xlink:href="#DejaVuSans-Bold-56" transform="translate(2869.1875 0)"/>
     <use xlink:href="#DejaVuSans-Bold-c" transform="translate(2928.703125 0)"/>
    </g>
   </g>
   <g id="text_17">
    <!-- spatial size halves at each pool · channel depth grows · 2-class output (airplane vs automobile) -->
    <g style="fill: #94a3b8" transform="translate(140.051048 422.246602) scale(0.11 -0.11)">
     <defs>
      <path id="DejaVuSans-Bold-5d" d="M 366 3500 
L 3419 3500 
L 3419 2719 
L 1575 800 
L 3419 800 
L 3419 0 
L 288 0 
L 288 781 
L 2131 2700 
L 366 2700 
L 366 3500 
z
" transform="scale(0.015625)"/>
      <path id="DejaVuSans-Bold-47" d="M 2919 2988 
L 2919 4863 
L 4044 4863 
L 4044 0 
L 2919 0 
L 2919 506 
Q 2688 197 2409 53 
Q 2131 -91 1766 -91 
Q 1119 -91 703 423 
Q 288 938 288 1747 
Q 288 2556 703 3070 
Q 1119 3584 1766 3584 
Q 2128 3584 2408 3439 
Q 2688 3294 2919 2988 
z
M 2181 722 
Q 2541 722 2730 984 
Q 2919 1247 2919 1747 
Q 2919 2247 2730 2509 
Q 2541 2772 2181 2772 
Q 1825 2772 1636 2509 
Q 1447 2247 1447 1747 
Q 1447 1247 1636 984 
Q 1825 722 2181 722 
z
" transform="scale(0.015625)"/>
      <path id="DejaVuSans-Bold-10" d="M 347 2297 
L 2309 2297 
L 2309 1388 
L 347 1388 
L 347 2297 
z
" transform="scale(0.015625)"/>
     </defs>
     <use xlink:href="#DejaVuSans-Bold-56"/>
     <use xlink:href="#DejaVuSans-Bold-53" transform="translate(59.515625 0)"/>
     <use xlink:href="#DejaVuSans-Bold-44" transform="translate(131.09375 0)"/>
     <use xlink:href="#DejaVuSans-Bold-57" transform="translate(198.578125 0)"/>
     <use xlink:href="#DejaVuSans-Bold-4c" transform="translate(246.375 0)"/>
     <use xlink:href="#DejaVuSans-Bold-44" transform="translate(280.65625 0)"/>
     <use xlink:href="#DejaVuSans-Bold-4f" transform="translate(348.140625 0)"/>
     <use xlink:href="#DejaVuSans-Bold-3" transform="translate(382.421875 0)"/>
     <use xlink:href="#DejaVuSans-Bold-56" transform="translate(417.234375 0)"/>
     <use xlink:href="#DejaVuSans-Bold-4c" transform="translate(476.75 0)"/>
     <use xlink:href="#DejaVuSans-Bold-5d" transform="translate(511.03125 0)"/>
     <use xlink:href="#DejaVuSans-Bold-48" transform="translate(569.234375 0)"/>
     <use xlink:href="#DejaVuSans-Bold-3" transform="translate(637.0625 0)"/>
     <use xlink:href="#DejaVuSans-Bold-4b" transform="translate(671.875 0)"/>
     <use xlink:href="#DejaVuSans-Bold-44" transform="translate(743.0625 0)"/>
     <use xlink:href="#DejaVuSans-Bold-4f" transform="translate(810.546875 0)"/>
     <use xlink:href="#DejaVuSans-Bold-59" transform="translate(844.828125 0)"/>
     <use xlink:href="#DejaVuSans-Bold-48" transform="translate(910.015625 0)"/>
     <use xlink:href="#DejaVuSans-Bold-56" transform="translate(977.84375 0)"/>
     <use xlink:href="#DejaVuSans-Bold-3" transform="translate(1037.359375 0)"/>
     <use xlink:href="#DejaVuSans-Bold-44" transform="translate(1072.171875 0)"/>
     <use xlink:href="#DejaVuSans-Bold-57" transform="translate(1139.65625 0)"/>
     <use xlink:href="#DejaVuSans-Bold-3" transform="translate(1187.453125 0)"/>
     <use xlink:href="#DejaVuSans-Bold-48" transform="translate(1222.265625 0)"/>
     <use xlink:href="#DejaVuSans-Bold-44" transform="translate(1290.09375 0)"/>
     <use xlink:href="#DejaVuSans-Bold-46" transform="translate(1357.578125 0)"/>
     <use xlink:href="#DejaVuSans-Bold-4b" transform="translate(1416.859375 0)"/>
     <use xlink:href="#DejaVuSans-Bold-3" transform="translate(1488.046875 0)"/>
     <use xlink:href="#DejaVuSans-Bold-53" transform="translate(1522.859375 0)"/>
     <use xlink:href="#DejaVuSans-Bold-52" transform="translate(1594.4375 0)"/>
     <use xlink:href="#DejaVuSans-Bold-52" transform="translate(1663.140625 0)"/>
     <use xlink:href="#DejaVuSans-Bold-4f" transform="translate(1731.84375 0)"/>
     <use xlink:href="#DejaVuSans-Bold-3" transform="translate(1766.125 0)"/>
     <use xlink:href="#DejaVuSans-Bold-79" transform="translate(1800.9375 0)"/>
     <use xlink:href="#DejaVuSans-Bold-3" transform="translate(1838.921875 0)"/>
     <use xlink:href="#DejaVuSans-Bold-46" transform="translate(1873.734375 0)"/>
     <use xlink:href="#DejaVuSans-Bold-4b" transform="translate(1933.015625 0)"/>
     <use xlink:href="#DejaVuSans-Bold-44" transform="translate(2004.203125 0)"/>
     <use xlink:href="#DejaVuSans-Bold-51" transform="translate(2071.6875 0)"/>
     <use xlink:href="#DejaVuSans-Bold-51" transform="translate(2142.875 0)"/>
     <use xlink:href="#DejaVuSans-Bold-48" transform="translate(2214.0625 0)"/>
     <use xlink:href="#DejaVuSans-Bold-4f" transform="translate(2281.890625 0)"/>
     <use xlink:href="#DejaVuSans-Bold-3" transform="translate(2316.171875 0)"/>
     <use xlink:href="#DejaVuSans-Bold-47" transform="translate(2350.984375 0)"/>
     <use xlink:href="#DejaVuSans-Bold-48" transform="translate(2422.5625 0)"/>
     <use xlink:href="#DejaVuSans-Bold-53" transform="translate(2490.390625 0)"/>
     <use xlink:href="#DejaVuSans-Bold-57" transform="translate(2561.96875 0)"/>
     <use xlink:href="#DejaVuSans-Bold-4b" transform="translate(2609.765625 0)"/>
     <use xlink:href="#DejaVuSans-Bold-3" transform="translate(2680.953125 0)"/>
     <use xlink:href="#DejaVuSans-Bold-4a" transform="translate(2715.765625 0)"/>
     <use xlink:href="#DejaVuSans-Bold-55" transform="translate(2787.34375 0)"/>
     <use xlink:href="#DejaVuSans-Bold-52" transform="translate(2836.65625 0)"/>
     <use xlink:href="#DejaVuSans-Bold-5a" transform="translate(2905.359375 0)"/>
     <use xlink:href="#DejaVuSans-Bold-56" transform="translate(2997.75 0)"/>
     <use xlink:href="#DejaVuSans-Bold-3" transform="translate(3057.265625 0)"/>
     <use xlink:href="#DejaVuSans-Bold-79" transform="translate(3092.078125 0)"/>
     <use xlink:href="#DejaVuSans-Bold-3" transform="translate(3130.0625 0)"/>
     <use xlink:href="#DejaVuSans-Bold-15" transform="translate(3164.875 0)"/>
     <use xlink:href="#DejaVuSans-Bold-10" transform="translate(3234.453125 0)"/>
     <use xlink:href="#DejaVuSans-Bold-46" transform="translate(3275.953125 0)"/>
     <use xlink:href="#DejaVuSans-Bold-4f" transform="translate(3335.234375 0)"/>
     <use xlink:href="#DejaVuSans-Bold-44" transform="translate(3369.515625 0)"/>
     <use xlink:href="#DejaVuSans-Bold-56" transform="translate(3437 0)"/>
     <use xlink:href="#DejaVuSans-Bold-56" transform="translate(3496.515625 0)"/>
     <use xlink:href="#DejaVuSans-Bold-3" transform="translate(3556.03125 0)"/>
     <use xlink:href="#DejaVuSans-Bold-52" transform="translate(3590.84375 0)"/>
     <use xlink:href="#DejaVuSans-Bold-58" transform="translate(3659.546875 0)"/>
     <use xlink:href="#DejaVuSans-Bold-57" transform="translate(3730.734375 0)"/>
     <use xlink:href="#DejaVuSans-Bold-53" transform="translate(3778.53125 0)"/>
     <use xlink:href="#DejaVuSans-Bold-58" transform="translate(3850.109375 0)"/>
     <use xlink:href="#DejaVuSans-Bold-57" transform="translate(3921.296875 0)"/>
     <use xlink:href="#DejaVuSans-Bold-3" transform="translate(3969.09375 0)"/>
     <use xlink:href="#DejaVuSans-Bold-b" transform="translate(4003.90625 0)"/>
     <use xlink:href="#DejaVuSans-Bold-44" transform="translate(4049.609375 0)"/>
     <use xlink:href="#DejaVuSans-Bold-4c" transform="translate(4117.09375 0)"/>
     <use xlink:href="#DejaVuSans-Bold-55" transform="translate(4151.375 0)"/>
     <use xlink:href="#DejaVuSans-Bold-53" transform="translate(4200.6875 0)"/>
     <use xlink:href="#DejaVuSans-Bold-4f" transform="translate(4272.265625 0)"/>
     <use xlink:href="#DejaVuSans-Bold-44" transform="translate(4306.546875 0)"/>
     <use xlink:href="#DejaVuSans-Bold-51" transform="translate(4374.03125 0)"/>
     <use xlink:href="#DejaVuSans-Bold-48" transform="translate(4445.21875 0)"/>
     <use xlink:href="#DejaVuSans-Bold-3" transform="translate(4513.046875 0)"/>
     <use xlink:href="#DejaVuSans-Bold-59" transform="translate(4547.859375 0)"/>
     <use xlink:href="#DejaVuSans-Bold-56" transform="translate(4613.046875 0)"/>
     <use xlink:href="#DejaVuSans-Bold-3" transform="translate(4672.5625 0)"/>
     <use xlink:href="#DejaVuSans-Bold-44" transform="translate(4707.375 0)"/>
     <use xlink:href="#DejaVuSans-Bold-58" transform="translate(4774.859375 0)"/>
     <use xlink:href="#DejaVuSans-Bold-57" transform="translate(4846.046875 0)"/>
     <use xlink:href="#DejaVuSans-Bold-52" transform="translate(4893.84375 0)"/>
     <use xlink:href="#DejaVuSans-Bold-50" transform="translate(4962.546875 0)"/>
     <use xlink:href="#DejaVuSans-Bold-52" transform="translate(5066.75 0)"/>
     <use xlink:href="#DejaVuSans-Bold-45" transform="translate(5135.453125 0)"/>
     <use xlink:href="#DejaVuSans-Bold-4c" transform="translate(5207.03125 0)"/>
     <use xlink:href="#DejaVuSans-Bold-4f" transform="translate(5241.3125 0)"/>
     <use xlink:href="#DejaVuSans-Bold-48" transform="translate(5275.59375 0)"/>
     <use xlink:href="#DejaVuSans-Bold-c" transform="translate(5343.421875 0)"/>
    </g>
   </g>
   <g id="patch_8">
    <path d="M 82.989969 326.471625 
L 116.525354 326.471625 
L 116.525354 40.035375 
L 82.989969 40.035375 
z
" clip-path="url(#pa9f76f2d06)" style="fill: #38bdf8; opacity: 0.18; stroke: #38bdf8; stroke-width: 1.4; stroke-linejoin: miter"/>
   </g>
   <g id="patch_9">
    <path d="M 250.666892 270.581625 
L 284.202277 270.581625 
L 284.202277 95.925375 
L 250.666892 95.925375 
z
" clip-path="url(#pa9f76f2d06)" style="fill: #38bdf8; opacity: 0.18; stroke: #38bdf8; stroke-width: 1.4; stroke-linejoin: miter"/>
   </g>
   <g id="patch_10">
    <path d="M 404.929662 242.636625 
L 438.465046 242.636625 
L 438.465046 123.870375 
L 404.929662 123.870375 
z
" clip-path="url(#pa9f76f2d06)" style="fill: #38bdf8; opacity: 0.18; stroke: #38bdf8; stroke-width: 1.4; stroke-linejoin: miter"/>
   </g>
   <g id="patch_11">
    <path d="M 539.0712 228.664125 
L 572.606585 228.664125 
L 572.606585 137.842875 
L 539.0712 137.842875 
z
" clip-path="url(#pa9f76f2d06)" style="fill: #38bdf8; opacity: 0.18; stroke: #38bdf8; stroke-width: 1.4; stroke-linejoin: miter"/>
   </g>
   <g id="patch_12">
    <path d="M 644.372308 349.52625 
L 665.834954 349.52625 
L 665.834954 56.10375 
L 644.372308 56.10375 
z
" clip-path="url(#pa9f76f2d06)" style="fill: #fbbf24; opacity: 0.28; stroke: #fbbf24; stroke-width: 1.4; stroke-linejoin: miter"/>
   </g>
   <g id="patch_13">
    <path d="M 73.600062 336.252375 
L 107.135446 336.252375 
L 107.135446 49.816125 
L 73.600062 49.816125 
z
" clip-path="url(#pa9f76f2d06)" style="fill: #38bdf8; opacity: 0.34; stroke: #38bdf8; stroke-width: 1.4; stroke-linejoin: miter"/>
   </g>
   <g id="patch_14">
    <path d="M 241.276985 280.362375 
L 274.812369 280.362375 
L 274.812369 105.706125 
L 241.276985 105.706125 
z
" clip-path="url(#pa9f76f2d06)" style="fill: #38bdf8; opacity: 0.34; stroke: #38bdf8; stroke-width: 1.4; stroke-linejoin: miter"/>
   </g>
   <g id="patch_15">
    <path d="M 395.539754 252.417375 
L 429.075138 252.417375 
L 429.075138 133.651125 
L 395.539754 133.651125 
z
" clip-path="url(#pa9f76f2d06)" style="fill: #38bdf8; opacity: 0.34; stroke: #38bdf8; stroke-width: 1.4; stroke-linejoin: miter"/>
   </g>
   <g id="patch_16">
    <path d="M 529.681292 238.444875 
L 563.216677 238.444875 
L 563.216677 147.623625 
L 529.681292 147.623625 
z
" clip-path="url(#pa9f76f2d06)" style="fill: #38bdf8; opacity: 0.34; stroke: #38bdf8; stroke-width: 1.4; stroke-linejoin: miter"/>
   </g>
   <g id="patch_17">
    <path d="M 738.271385 179.760375 
L 824.792677 179.760375 
L 824.792677 149.020875 
L 738.271385 149.020875 
z
" clip-path="url(#pa9f76f2d06)" style="fill: #34d399; opacity: 0.85; stroke: #34d399; stroke-linejoin: miter"/>
   </g>
   <g id="patch_18">
    <path d="M 738.271385 256.609125 
L 770.465354 256.609125 
L 770.465354 225.869625 
L 738.271385 225.869625 
z
" clip-path="url(#pa9f76f2d06)" style="fill: #f87171; opacity: 0.85; stroke: #f87171; stroke-linejoin: miter"/>
   </g>
   <g id="patch_19">
    <path d="M 64.210154 346.033125 
L 97.745538 346.033125 
L 97.745538 59.596875 
L 64.210154 59.596875 
z
" clip-path="url(#pa9f76f2d06)" style="fill: #38bdf8; opacity: 0.5; stroke: #38bdf8; stroke-width: 1.4; stroke-linejoin: miter"/>
   </g>
   <g id="patch_20">
    <path d="M 231.887077 290.143125 
L 265.422462 290.143125 
L 265.422462 115.486875 
L 231.887077 115.486875 
z
" clip-path="url(#pa9f76f2d06)" style="fill: #38bdf8; opacity: 0.5; stroke: #38bdf8; stroke-width: 1.4; stroke-linejoin: miter"/>
   </g>
   <g id="patch_21">
    <path d="M 386.149846 262.198125 
L 419.685231 262.198125 
L 419.685231 143.431875 
L 386.149846 143.431875 
z
" clip-path="url(#pa9f76f2d06)" style="fill: #38bdf8; opacity: 0.5; stroke: #38bdf8; stroke-width: 1.4; stroke-linejoin: miter"/>
   </g>
   <g id="patch_22">
    <path d="M 520.291385 248.225625 
L 553.826769 248.225625 
L 553.826769 157.404375 
L 520.291385 157.404375 
z
" clip-path="url(#pa9f76f2d06)" style="fill: #38bdf8; opacity: 0.5; stroke: #38bdf8; stroke-width: 1.4; stroke-linejoin: miter"/>
   </g>
  </g>
 </g>
 <defs>
  <clipPath id="pa9f76f2d06">
   <rect x="7.2" y="7.2" width="871.92" height="447.12"/>
  </clipPath>
 </defs>
</svg>
