<?xml version="1.0" encoding="utf-8" standalone="no"?>
<!DOCTYPE svg PUBLIC "-//W3C//DTD SVG 1.1//EN"
  "http://www.w3.org/Graphics/SVG/1.1/DTD/svg11.dtd">
<svg xmlns:xlink="http://www.w3.org/1999/xlink" width="678.375pt" height="504.72pt" viewBox="0 0 678.375 504.72" xmlns="http://www.w3.org/2000/svg" version="1.1">
 <metadata>
  <rdf:RDF xmlns:dc="http://purl.org/dc/elements/1.1/" xmlns:cc="http://creativecommons.org/ns#" xmlns:rdf="http://www.w3.org/1999/02/22-rdf-syntax-ns#">
   <cc:Work>
    <dc:type rdf:resource="http://purl.org/dc/dcmitype/StillImage"/>
    <dc:date>2026-06-22T17:47:39.515420</dc:date>
    <dc:format>image/svg+xml</dc:format>
    <dc:creator>
     <cc:Agent>
      <dc:title>Matplotlib v3.11.0, https://matplotlib.org/</dc:title>
     </cc:Agent>
    </dc:creator>
   </cc:Work>
  </rdf:RDF>
 </metadata>
 <defs>
  <style type="text/css">*{stroke-linejoin: round; stroke-linecap: butt}</style>
 </defs>
 <g id="figure_1">
  <g id="patch_1">
   <path d="M 0 504.72 
L 678.375 504.72 
L 678.375 0 
L 0 0 
L 0 504.72 
z
" style="fill: none"/>
  </g>
  <g id="axes_1">
   <g id="patch_2">
    <path d="M 7.2 497.52 
L 671.175 497.52 
L 671.175 7.2 
L 7.2 7.2 
L 7.2 497.52 
z
" style="fill: none"/>
   </g>
   <g id="FillBetweenPolyCollection_1">
    <path d="M 382.285998 517.95 
L -74.52 517.95 
L -74.52 515.383417 
L -74.52 512.816834 
L -74.52 510.250251 
L -74.52 507.683668 
L -74.52 505.117085 
L -74.52 502.550503 
L -74.52 499.98392 
L -74.52 497.417337 
L -74.52 494.850754 
L -74.52 492.284171 
L -74.52 489.717588 
L -74.52 487.151005 
L -74.52 484.584422 
L -74.52 482.017839 
L -74.52 479.451256 
L -74.52 476.884673 
L -74.52 474.31809 
L -74.52 471.751508 
L -74.52 469.184925 
L -74.52 466.618342 
L -74.52 464.051759 
L -74.52 461.485176 
L -74.52 458.918593 
L -74.52 456.35201 
L -74.52 453.785427 
L -74.52 451.218844 
L -74.52 448.652261 
L -74.52 446.085678 
L -74.52 443.519095 
L -74.52 440.952513 
L -74.52 438.38593 
L -74.52 435.819347 
L -74.52 433.252764 
L -74.52 430.686181 
L -74.52 428.119598 
L -74.52 425.553015 
L -74.52 422.986432 
L -74.52 420.419849 
L -74.52 417.853266 
L -74.52 415.286683 
L -74.52 412.720101 
L -74.52 410.153518 
L -74.52 407.586935 
L -74.52 405.020352 
L -74.52 402.453769 
L -74.52 399.887186 
L -74.52 397.320603 
L -74.52 394.75402 
L -74.52 392.187437 
L -74.52 389.620854 
L -74.52 387.054271 
L -74.52 384.487688 
L -74.52 381.921106 
L -74.52 379.354523 
L -74.52 376.78794 
L -74.52 374.221357 
L -74.52 371.654774 
L -74.52 369.088191 
L -74.52 366.521608 
L -74.52 363.955025 
L -74.52 361.388442 
L -74.52 358.821859 
L -74.52 356.255276 
L -74.52 353.688693 
L -74.52 351.122111 
L -74.52 348.555528 
L -74.52 345.988945 
L -74.52 343.422362 
L -74.52 340.855779 
L -74.52 338.289196 
L -74.52 335.722613 
L -74.52 333.15603 
L -74.52 330.589447 
L -74.52 328.022864 
L -74.52 325.456281 
L -74.52 322.889698 
L -74.52 320.323116 
L -74.52 317.756533 
L -74.52 315.18995 
L -74.52 312.623367 
L -74.52 310.056784 
L -74.52 307.490201 
L -74.52 304.923618 
L -74.52 302.357035 
L -74.52 299.790452 
L -74.52 297.223869 
L -74.52 294.657286 
L -74.52 292.090704 
L -74.52 289.524121 
L -74.52 286.957538 
L -74.52 284.390955 
L -74.52 281.824372 
L -74.52 279.257789 
L -74.52 276.691206 
L -74.52 274.124623 
L -74.52 271.55804 
L -74.52 268.991457 
L -74.52 266.424874 
L -74.52 263.858291 
L -74.52 261.291709 
L -74.52 258.725126 
L -74.52 256.158543 
L -74.52 253.59196 
L -74.52 251.025377 
L -74.52 248.458794 
L -74.52 245.892211 
L -74.52 243.325628 
L -74.52 240.759045 
L -74.52 238.192462 
L -74.52 235.625879 
L -74.52 233.059296 
L -74.52 230.492714 
L -74.52 227.926131 
L -74.52 225.359548 
L -74.52 222.792965 
L -74.52 220.226382 
L -74.52 217.659799 
L -74.52 215.093216 
L -74.52 212.526633 
L -74.52 209.96005 
L -74.52 207.393467 
L -74.52 204.826884 
L -74.52 202.260302 
L -74.52 199.693719 
L -74.52 197.127136 
L -74.52 194.560553 
L -74.52 191.99397 
L -74.52 189.427387 
L -74.52 186.860804 
L -74.52 184.294221 
L -74.52 181.727638 
L -74.52 179.161055 
L -74.52 176.594472 
L -74.52 174.027889 
L -74.52 171.461307 
L -74.52 168.894724 
L -74.52 166.328141 
L -74.52 163.761558 
L -74.52 161.194975 
L -74.52 158.628392 
L -74.52 156.061809 
L -74.52 153.495226 
L -74.52 150.928643 
L -74.52 148.36206 
L -74.52 145.795477 
L -74.52 143.228894 
L -74.52 140.662312 
L -74.52 138.095729 
L -74.52 135.529146 
L -74.52 132.962563 
L -74.52 130.39598 
L -74.52 127.829397 
L -74.52 125.262814 
L -74.52 122.696231 
L -74.52 120.129648 
L -74.52 117.563065 
L -74.52 114.996482 
L -74.52 112.429899 
L -74.52 109.863317 
L -74.52 107.296734 
L -74.52 104.730151 
L -74.52 102.163568 
L -74.52 99.596985 
L -74.52 97.030402 
L -74.52 94.463819 
L -74.52 91.897236 
L -74.52 89.330653 
L -74.52 86.76407 
L -74.52 84.197487 
L -74.52 81.630905 
L -74.52 79.064322 
L -74.52 76.497739 
L -74.52 73.931156 
L -74.52 71.364573 
L -74.52 68.79799 
L -74.52 66.231407 
L -74.52 63.664824 
L -74.52 61.098241 
L -74.52 58.531658 
L -74.52 55.965075 
L -74.52 53.398492 
L -74.52 50.83191 
L -74.52 48.265327 
L -74.52 45.698744 
L -74.52 43.132161 
L -74.52 40.565578 
L -74.52 37.998995 
L -74.52 35.432412 
L -74.52 32.865829 
L -74.52 30.299246 
L -74.52 27.732663 
L -74.52 25.16608 
L -74.52 22.599497 
L -74.52 20.032915 
L -74.52 17.466332 
L -74.52 14.899749 
L -74.52 12.333166 
L -74.52 9.766583 
L -74.52 7.2 
L 364.129358 7.2 
L 364.129358 7.2 
L 363.85997 9.766583 
L 363.597577 12.333166 
L 363.342343 14.899749 
L 363.094431 17.466332 
L 362.853996 20.032915 
L 362.621191 22.599497 
L 362.396162 25.16608 
L 362.179051 27.732663 
L 361.969997 30.299246 
L 361.769129 32.865829 
L 361.576576 35.432412 
L 361.392459 37.998995 
L 361.216894 40.565578 
L 361.049992 43.132161 
L 360.891858 45.698744 
L 360.742592 48.265327 
L 360.602288 50.83191 
L 360.471036 53.398492 
L 360.348917 55.965075 
L 360.236009 58.531658 
L 360.132383 61.098241 
L 360.038104 63.664824 
L 359.953233 66.231407 
L 359.877822 68.79799 
L 359.811919 71.364573 
L 359.755566 73.931156 
L 359.708799 76.497739 
L 359.671646 79.064322 
L 359.644132 81.630905 
L 359.626274 84.197487 
L 359.618082 86.76407 
L 359.619563 89.330653 
L 359.630715 91.897236 
L 359.651531 94.463819 
L 359.681998 97.030402 
L 359.722097 99.596985 
L 359.771803 102.163568 
L 359.831083 104.730151 
L 359.899902 107.296734 
L 359.978215 109.863317 
L 360.065972 112.429899 
L 360.163119 114.996482 
L 360.269594 117.563065 
L 360.38533 120.129648 
L 360.510254 122.696231 
L 360.644287 125.262814 
L 360.787344 127.829397 
L 360.939335 130.39598 
L 361.100164 132.962563 
L 361.26973 135.529146 
L 361.447926 138.095729 
L 361.634638 140.662312 
L 361.82975 143.228894 
L 362.033138 145.795477 
L 362.244673 148.36206 
L 362.464223 150.928643 
L 362.691648 153.495226 
L 362.926805 156.061809 
L 363.169545 158.628392 
L 363.419716 161.194975 
L 363.677159 163.761558 
L 363.941712 166.328141 
L 364.213207 168.894724 
L 364.491475 171.461307 
L 364.776338 174.027889 
L 365.067616 176.594472 
L 365.365127 179.161055 
L 365.668683 181.727638 
L 365.97809 184.294221 
L 366.293156 186.860804 
L 366.613679 189.427387 
L 366.939459 191.99397 
L 367.270289 194.560553 
L 367.605961 197.127136 
L 367.946263 199.693719 
L 368.290979 202.260302 
L 368.639893 204.826884 
L 368.992783 207.393467 
L 369.349429 209.96005 
L 369.709603 212.526633 
L 370.073079 215.093216 
L 370.439627 217.659799 
L 370.809016 220.226382 
L 371.181013 222.792965 
L 371.555383 225.359548 
L 371.931889 227.926131 
L 372.310294 230.492714 
L 372.69036 233.059296 
L 373.071845 235.625879 
L 373.45451 238.192462 
L 373.838112 240.759045 
L 374.22241 243.325628 
L 374.607161 245.892211 
L 374.992122 248.458794 
L 375.377051 251.025377 
L 375.761703 253.59196 
L 376.145837 256.158543 
L 376.529209 258.725126 
L 376.911578 261.291709 
L 377.292703 263.858291 
L 377.672342 266.424874 
L 378.050257 268.991457 
L 378.426208 271.55804 
L 378.799959 274.124623 
L 379.171273 276.691206 
L 379.539916 279.257789 
L 379.905655 281.824372 
L 380.268259 284.390955 
L 380.6275 286.957538 
L 380.983151 289.524121 
L 381.334986 292.090704 
L 381.682785 294.657286 
L 382.026328 297.223869 
L 382.365397 299.790452 
L 382.699778 302.357035 
L 383.029261 304.923618 
L 383.353638 307.490201 
L 383.672703 310.056784 
L 383.986256 312.623367 
L 384.294099 315.18995 
L 384.596036 317.756533 
L 384.891878 320.323116 
L 385.181437 322.889698 
L 385.464532 325.456281 
L 385.740983 328.022864 
L 386.010615 330.589447 
L 386.273259 333.15603 
L 386.528749 335.722613 
L 386.776923 338.289196 
L 387.017625 340.855779 
L 387.250703 343.422362 
L 387.476009 345.988945 
L 387.693402 348.555528 
L 387.902744 351.122111 
L 388.103904 353.688693 
L 388.296753 356.255276 
L 388.481171 358.821859 
L 388.65704 361.388442 
L 388.824251 363.955025 
L 388.982697 366.521608 
L 389.132278 369.088191 
L 389.272901 371.654774 
L 389.404475 374.221357 
L 389.526919 376.78794 
L 389.640154 379.354523 
L 389.74411 381.921106 
L 389.83872 384.487688 
L 389.923925 387.054271 
L 389.999672 389.620854 
L 390.065912 392.187437 
L 390.122603 394.75402 
L 390.16971 397.320603 
L 390.207203 399.887186 
L 390.235059 402.453769 
L 390.253259 405.020352 
L 390.261793 407.586935 
L 390.260655 410.153518 
L 390.249845 412.720101 
L 390.229371 415.286683 
L 390.199245 417.853266 
L 390.159486 420.419849 
L 390.11012 422.986432 
L 390.051177 425.553015 
L 389.982696 428.119598 
L 389.904718 430.686181 
L 389.817294 433.252764 
L 389.720478 435.819347 
L 389.614332 438.38593 
L 389.498923 440.952513 
L 389.374323 443.519095 
L 389.240611 446.085678 
L 389.097872 448.652261 
L 388.946195 451.218844 
L 388.785677 453.785427 
L 388.616418 456.35201 
L 388.438526 458.918593 
L 388.252113 461.485176 
L 388.057296 464.051759 
L 387.854199 466.618342 
L 387.64295 469.184925 
L 387.423682 471.751508 
L 387.196533 474.31809 
L 386.961647 476.884673 
L 386.719173 479.451256 
L 386.469262 482.017839 
L 386.212074 484.584422 
L 385.94777 487.151005 
L 385.676517 489.717588 
L 385.398486 492.284171 
L 385.113854 494.850754 
L 384.822799 497.417337 
L 384.525505 499.98392 
L 384.222161 502.550503 
L 383.912956 505.117085 
L 383.598088 507.683668 
L 383.277754 510.250251 
L 382.952157 512.816834 
L 382.621502 515.383417 
L 382.285998 517.95 
z
" clip-path="url(#p01c11d4c19)" style="fill: #34d399; fill-opacity: 0.06; stroke: #34d399; stroke-opacity: 0.06"/>
   </g>
   <g id="FillBetweenPolyCollection_2">
    <path d="M 742.68 517.95 
L 382.285998 517.95 
L 382.621502 515.383417 
L 382.952157 512.816834 
L 383.277754 510.250251 
L 383.598088 507.683668 
L 383.912956 505.117085 
L 384.222161 502.550503 
L 384.525505 499.98392 
L 384.822799 497.417337 
L 385.113854 494.850754 
L 385.398486 492.284171 
L 385.676517 489.717588 
L 385.94777 487.151005 
L 386.212074 484.584422 
L 386.469262 482.017839 
L 386.719173 479.451256 
L 386.961647 476.884673 
L 387.196533 474.31809 
L 387.423682 471.751508 
L 387.64295 469.184925 
L 387.854199 466.618342 
L 388.057296 464.051759 
L 388.252113 461.485176 
L 388.438526 458.918593 
L 388.616418 456.35201 
L 388.785677 453.785427 
L 388.946195 451.218844 
L 389.097872 448.652261 
L 389.240611 446.085678 
L 389.374323 443.519095 
L 389.498923 440.952513 
L 389.614332 438.38593 
L 389.720478 435.819347 
L 389.817294 433.252764 
L 389.904718 430.686181 
L 389.982696 428.119598 
L 390.051177 425.553015 
L 390.11012 422.986432 
L 390.159486 420.419849 
L 390.199245 417.853266 
L 390.229371 415.286683 
L 390.249845 412.720101 
L 390.260655 410.153518 
L 390.261793 407.586935 
L 390.253259 405.020352 
L 390.235059 402.453769 
L 390.207203 399.887186 
L 390.16971 397.320603 
L 390.122603 394.75402 
L 390.065912 392.187437 
L 389.999672 389.620854 
L 389.923925 387.054271 
L 389.83872 384.487688 
L 389.74411 381.921106 
L 389.640154 379.354523 
L 389.526919 376.78794 
L 389.404475 374.221357 
L 389.272901 371.654774 
L 389.132278 369.088191 
L 388.982697 366.521608 
L 388.824251 363.955025 
L 388.65704 361.388442 
L 388.481171 358.821859 
L 388.296753 356.255276 
L 388.103904 353.688693 
L 387.902744 351.122111 
L 387.693402 348.555528 
L 387.476009 345.988945 
L 387.250703 343.422362 
L 387.017625 340.855779 
L 386.776923 338.289196 
L 386.528749 335.722613 
L 386.273259 333.15603 
L 386.010615 330.589447 
L 385.740983 328.022864 
L 385.464532 325.456281 
L 385.181437 322.889698 
L 384.891878 320.323116 
L 384.596036 317.756533 
L 384.294099 315.18995 
L 383.986256 312.623367 
L 383.672703 310.056784 
L 383.353638 307.490201 
L 383.029261 304.923618 
L 382.699778 302.357035 
L 382.365397 299.790452 
L 382.026328 297.223869 
L 381.682785 294.657286 
L 381.334986 292.090704 
L 380.983151 289.524121 
L 380.6275 286.957538 
L 380.268259 284.390955 
L 379.905655 281.824372 
L 379.539916 279.257789 
L 379.171273 276.691206 
L 378.799959 274.124623 
L 378.426208 271.55804 
L 378.050257 268.991457 
L 377.672342 266.424874 
L 377.292703 263.858291 
L 376.911578 261.291709 
L 376.529209 258.725126 
L 376.145837 256.158543 
L 375.761703 253.59196 
L 375.377051 251.025377 
L 374.992122 248.458794 
L 374.607161 245.892211 
L 374.22241 243.325628 
L 373.838112 240.759045 
L 373.45451 238.192462 
L 373.071845 235.625879 
L 372.69036 233.059296 
L 372.310294 230.492714 
L 371.931889 227.926131 
L 371.555383 225.359548 
L 371.181013 222.792965 
L 370.809016 220.226382 
L 370.439627 217.659799 
L 370.073079 215.093216 
L 369.709603 212.526633 
L 369.349429 209.96005 
L 368.992783 207.393467 
L 368.639893 204.826884 
L 368.290979 202.260302 
L 367.946263 199.693719 
L 367.605961 197.127136 
L 367.270289 194.560553 
L 366.939459 191.99397 
L 366.613679 189.427387 
L 366.293156 186.860804 
L 365.97809 184.294221 
L 365.668683 181.727638 
L 365.365127 179.161055 
L 365.067616 176.594472 
L 364.776338 174.027889 
L 364.491475 171.461307 
L 364.213207 168.894724 
L 363.941712 166.328141 
L 363.677159 163.761558 
L 363.419716 161.194975 
L 363.169545 158.628392 
L 362.926805 156.061809 
L 362.691648 153.495226 
L 362.464223 150.928643 
L 362.244673 148.36206 
L 362.033138 145.795477 
L 361.82975 143.228894 
L 361.634638 140.662312 
L 361.447926 138.095729 
L 361.26973 135.529146 
L 361.100164 132.962563 
L 360.939335 130.39598 
L 360.787344 127.829397 
L 360.644287 125.262814 
L 360.510254 122.696231 
L 360.38533 120.129648 
L 360.269594 117.563065 
L 360.163119 114.996482 
L 360.065972 112.429899 
L 359.978215 109.863317 
L 359.899902 107.296734 
L 359.831083 104.730151 
L 359.771803 102.163568 
L 359.722097 99.596985 
L 359.681998 97.030402 
L 359.651531 94.463819 
L 359.630715 91.897236 
L 359.619563 89.330653 
L 359.618082 86.76407 
L 359.626274 84.197487 
L 359.644132 81.630905 
L 359.671646 79.064322 
L 359.708799 76.497739 
L 359.755566 73.931156 
L 359.811919 71.364573 
L 359.877822 68.79799 
L 359.953233 66.231407 
L 360.038104 63.664824 
L 360.132383 61.098241 
L 360.236009 58.531658 
L 360.348917 55.965075 
L 360.471036 53.398492 
L 360.602288 50.83191 
L 360.742592 48.265327 
L 360.891858 45.698744 
L 361.049992 43.132161 
L 361.216894 40.565578 
L 361.392459 37.998995 
L 361.576576 35.432412 
L 361.769129 32.865829 
L 361.969997 30.299246 
L 362.179051 27.732663 
L 362.396162 25.16608 
L 362.621191 22.599497 
L 362.853996 20.032915 
L 363.094431 17.466332 
L 363.342343 14.899749 
L 363.597577 12.333166 
L 363.85997 9.766583 
L 364.129358 7.2 
L 742.68 7.2 
L 742.68 7.2 
L 742.68 9.766583 
L 742.68 12.333166 
L 742.68 14.899749 
L 742.68 17.466332 
L 742.68 20.032915 
L 742.68 22.599497 
L 742.68 25.16608 
L 742.68 27.732663 
L 742.68 30.299246 
L 742.68 32.865829 
L 742.68 35.432412 
L 742.68 37.998995 
L 742.68 40.565578 
L 742.68 43.132161 
L 742.68 45.698744 
L 742.68 48.265327 
L 742.68 50.83191 
L 742.68 53.398492 
L 742.68 55.965075 
L 742.68 58.531658 
L 742.68 61.098241 
L 742.68 63.664824 
L 742.68 66.231407 
L 742.68 68.79799 
L 742.68 71.364573 
L 742.68 73.931156 
L 742.68 76.497739 
L 742.68 79.064322 
L 742.68 81.630905 
L 742.68 84.197487 
L 742.68 86.76407 
L 742.68 89.330653 
L 742.68 91.897236 
L 742.68 94.463819 
L 742.68 97.030402 
L 742.68 99.596985 
L 742.68 102.163568 
L 742.68 104.730151 
L 742.68 107.296734 
L 742.68 109.863317 
L 742.68 112.429899 
L 742.68 114.996482 
L 742.68 117.563065 
L 742.68 120.129648 
L 742.68 122.696231 
L 742.68 125.262814 
L 742.68 127.829397 
L 742.68 130.39598 
L 742.68 132.962563 
L 742.68 135.529146 
L 742.68 138.095729 
L 742.68 140.662312 
L 742.68 143.228894 
L 742.68 145.795477 
L 742.68 148.36206 
L 742.68 150.928643 
L 742.68 153.495226 
L 742.68 156.061809 
L 742.68 158.628392 
L 742.68 161.194975 
L 742.68 163.761558 
L 742.68 166.328141 
L 742.68 168.894724 
L 742.68 171.461307 
L 742.68 174.027889 
L 742.68 176.594472 
L 742.68 179.161055 
L 742.68 181.727638 
L 742.68 184.294221 
L 742.68 186.860804 
L 742.68 189.427387 
L 742.68 191.99397 
L 742.68 194.560553 
L 742.68 197.127136 
L 742.68 199.693719 
L 742.68 202.260302 
L 742.68 204.826884 
L 742.68 207.393467 
L 742.68 209.96005 
L 742.68 212.526633 
L 742.68 215.093216 
L 742.68 217.659799 
L 742.68 220.226382 
L 742.68 222.792965 
L 742.68 225.359548 
L 742.68 227.926131 
L 742.68 230.492714 
L 742.68 233.059296 
L 742.68 235.625879 
L 742.68 238.192462 
L 742.68 240.759045 
L 742.68 243.325628 
L 742.68 245.892211 
L 742.68 248.458794 
L 742.68 251.025377 
L 742.68 253.59196 
L 742.68 256.158543 
L 742.68 258.725126 
L 742.68 261.291709 
L 742.68 263.858291 
L 742.68 266.424874 
L 742.68 268.991457 
L 742.68 271.55804 
L 742.68 274.124623 
L 742.68 276.691206 
L 742.68 279.257789 
L 742.68 281.824372 
L 742.68 284.390955 
L 742.68 286.957538 
L 742.68 289.524121 
L 742.68 292.090704 
L 742.68 294.657286 
L 742.68 297.223869 
L 742.68 299.790452 
L 742.68 302.357035 
L 742.68 304.923618 
L 742.68 307.490201 
L 742.68 310.056784 
L 742.68 312.623367 
L 742.68 315.18995 
L 742.68 317.756533 
L 742.68 320.323116 
L 742.68 322.889698 
L 742.68 325.456281 
L 742.68 328.022864 
L 742.68 330.589447 
L 742.68 333.15603 
L 742.68 335.722613 
L 742.68 338.289196 
L 742.68 340.855779 
L 742.68 343.422362 
L 742.68 345.988945 
L 742.68 348.555528 
L 742.68 351.122111 
L 742.68 353.688693 
L 742.68 356.255276 
L 742.68 358.821859 
L 742.68 361.388442 
L 742.68 363.955025 
L 742.68 366.521608 
L 742.68 369.088191 
L 742.68 371.654774 
L 742.68 374.221357 
L 742.68 376.78794 
L 742.68 379.354523 
L 742.68 381.921106 
L 742.68 384.487688 
L 742.68 387.054271 
L 742.68 389.620854 
L 742.68 392.187437 
L 742.68 394.75402 
L 742.68 397.320603 
L 742.68 399.887186 
L 742.68 402.453769 
L 742.68 405.020352 
L 742.68 407.586935 
L 742.68 410.153518 
L 742.68 412.720101 
L 742.68 415.286683 
L 742.68 417.853266 
L 742.68 420.419849 
L 742.68 422.986432 
L 742.68 425.553015 
L 742.68 428.119598 
L 742.68 430.686181 
L 742.68 433.252764 
L 742.68 435.819347 
L 742.68 438.38593 
L 742.68 440.952513 
L 742.68 443.519095 
L 742.68 446.085678 
L 742.68 448.652261 
L 742.68 451.218844 
L 742.68 453.785427 
L 742.68 456.35201 
L 742.68 458.918593 
L 742.68 461.485176 
L 742.68 464.051759 
L 742.68 466.618342 
L 742.68 469.184925 
L 742.68 471.751508 
L 742.68 474.31809 
L 742.68 476.884673 
L 742.68 479.451256 
L 742.68 482.017839 
L 742.68 484.584422 
L 742.68 487.151005 
L 742.68 489.717588 
L 742.68 492.284171 
L 742.68 494.850754 
L 742.68 497.417337 
L 742.68 499.98392 
L 742.68 502.550503 
L 742.68 505.117085 
L 742.68 507.683668 
L 742.68 510.250251 
L 742.68 512.816834 
L 742.68 515.383417 
L 742.68 517.95 
z
" clip-path="url(#p01c11d4c19)" style="fill: #f87171; fill-opacity: 0.06; stroke: #f87171; stroke-opacity: 0.06"/>
   </g>
   <g id="matplotlib.axis_1"/>
   <g id="matplotlib.axis_2"/>
   <g id="line2d_1">
    <path d="M 327.445163 505.72 
L 330.554953 487.151005 
L 341.932307 420.419849 
L 344.25509 405.020352 
L 346.347064 389.620854 
L 347.879645 376.78794 
L 349.194721 363.955025 
L 350.271563 351.122111 
L 351.093199 338.289196 
L 351.646679 325.456281 
L 351.890381 315.18995 
L 351.954337 304.923618 
L 351.8379 294.657286 
L 351.542246 284.390955 
L 350.925369 271.55804 
L 350.042982 258.725126 
L 348.908991 245.892211 
L 347.54127 233.059296 
L 345.961376 220.226382 
L 343.820711 204.826884 
L 341.459091 189.427387 
L 338.059718 168.894724 
L 325.840816 97.030402 
L 323.551708 81.630905 
L 321.501421 66.231407 
L 320.009022 53.398492 
L 318.738405 40.565578 
L 317.709598 27.732663 
L 316.938815 14.899749 
L 316.605427 7.2 
L 316.605427 7.2 
" clip-path="url(#p01c11d4c19)" style="fill: none; stroke-dasharray: 13.2,8.8; stroke-dashoffset: 0; stroke: #38bdf8; stroke-opacity: 0.9; stroke-width: 2.2"/>
   </g>
   <g id="line2d_2">
    <path d="M 383.838991 505.72 
L 385.398486 492.284171 
L 386.961647 476.884673 
L 388.057296 464.051759 
L 388.946195 451.218844 
L 389.614332 438.38593 
L 390.051177 425.553015 
L 390.249845 412.720101 
L 390.207203 399.887186 
L 389.923925 387.054271 
L 389.404475 374.221357 
L 388.65704 361.388442 
L 387.693402 348.555528 
L 386.528749 335.722613 
L 384.891878 320.323116 
L 383.029261 304.923618 
L 380.6275 286.957538 
L 377.292703 263.858291 
L 368.992783 207.393467 
L 366.613679 189.427387 
L 364.776338 174.027889 
L 363.169545 158.628392 
L 362.033138 145.795477 
L 361.100164 132.962563 
L 360.38533 120.129648 
L 359.899902 107.296734 
L 359.651531 94.463819 
L 359.644132 81.630905 
L 359.877822 68.79799 
L 360.348917 55.965075 
L 361.049992 43.132161 
L 361.969997 30.299246 
L 363.094431 17.466332 
L 364.129358 7.2 
L 364.129358 7.2 
" clip-path="url(#p01c11d4c19)" style="fill: none; stroke: #fb7185; stroke-width: 2.6; stroke-linecap: square"/>
   </g>
   <g id="text_1">
    <!-- surrogate -->
    <g style="fill: #38bdf8" transform="translate(265.56338 110.883604) scale(0.105 -0.105)">
     <defs>
      <path id="DejaVuSans-Bold-56" d="M 3272 3391 
L 3272 2541 
Q 2913 2691 2578 2766 
Q 2244 2841 1947 2841 
Q 1628 2841 1473 2761 
Q 1319 2681 1319 2516 
Q 1319 2381 1436 2309 
Q 1553 2238 1856 2203 
L 2053 2175 
Q 2913 2066 3209 1816 
Q 3506 1566 3506 1031 
Q 3506 472 3093 190 
Q 2681 -91 1863 -91 
Q 1516 -91 1145 -36 
Q 775 19 384 128 
L 384 978 
Q 719 816 1070 734 
Q 1422 653 1784 653 
Q 2113 653 2278 743 
Q 2444 834 2444 1013 
Q 2444 1163 2330 1236 
Q 2216 1309 1875 1350 
L 1678 1375 
Q 931 1469 631 1722 
Q 331 1975 331 2491 
Q 331 3047 712 3315 
Q 1094 3584 1881 3584 
Q 2191 3584 2531 3537 
Q 2872 3491 3272 3391 
z
" transform="scale(0.015625)"/>
      <path id="DejaVuSans-Bold-58" d="M 500 1363 
L 500 3500 
L 1625 3500 
L 1625 3150 
Q 1625 2866 1622 2436 
Q 1619 2006 1619 1863 
Q 1619 1441 1641 1255 
Q 1663 1069 1716 984 
Q 1784 875 1895 815 
Q 2006 756 2150 756 
Q 2500 756 2700 1025 
Q 2900 1294 2900 1772 
L 2900 3500 
L 4019 3500 
L 4019 0 
L 2900 0 
L 2900 506 
Q 2647 200 2364 54 
Q 2081 -91 1741 -91 
Q 1134 -91 817 281 
Q 500 653 500 1363 
z
" transform="scale(0.015625)"/>
      <path id="DejaVuSans-Bold-55" d="M 3138 2547 
Q 2991 2616 2845 2648 
Q 2700 2681 2553 2681 
Q 2122 2681 1889 2404 
Q 1656 2128 1656 1613 
L 1656 0 
L 538 0 
L 538 3500 
L 1656 3500 
L 1656 2925 
Q 1872 3269 2151 3426 
Q 2431 3584 2822 3584 
Q 2878 3584 2943 3579 
Q 3009 3575 3134 3559 
L 3138 2547 
z
" transform="scale(0.015625)"/>
      <path id="DejaVuSans-Bold-52" d="M 2203 2784 
Q 1831 2784 1636 2517 
Q 1441 2250 1441 1747 
Q 1441 1244 1636 976 
Q 1831 709 2203 709 
Q 2569 709 2762 976 
Q 2956 1244 2956 1747 
Q 2956 2250 2762 2517 
Q 2569 2784 2203 2784 
z
M 2203 3584 
Q 3106 3584 3614 3096 
Q 4122 2609 4122 1747 
Q 4122 884 3614 396 
Q 3106 -91 2203 -91 
Q 1297 -91 786 396 
Q 275 884 275 1747 
Q 275 2609 786 3096 
Q 1297 3584 2203 3584 
z
" transform="scale(0.015625)"/>
      <path id="DejaVuSans-Bold-4a" d="M 2919 594 
Q 2688 288 2409 144 
Q 2131 0 1766 0 
Q 1125 0 706 504 
Q 288 1009 288 1791 
Q 288 2575 706 3076 
Q 1125 3578 1766 3578 
Q 2131 3578 2409 3434 
Q 2688 3291 2919 2981 
L 2919 3500 
L 4044 3500 
L 4044 353 
Q 4044 -491 3511 -936 
Q 2978 -1381 1966 -1381 
Q 1638 -1381 1331 -1331 
Q 1025 -1281 716 -1178 
L 716 -306 
Q 1009 -475 1290 -558 
Q 1572 -641 1856 -641 
Q 2406 -641 2662 -400 
Q 2919 -159 2919 353 
L 2919 594 
z
M 2181 2772 
Q 1834 2772 1640 2515 
Q 1447 2259 1447 1791 
Q 1447 1309 1634 1061 
Q 1822 813 2181 813 
Q 2531 813 2725 1069 
Q 2919 1325 2919 1791 
Q 2919 2259 2725 2515 
Q 2531 2772 2181 2772 
z
" transform="scale(0.015625)"/>
      <path id="DejaVuSans-Bold-44" d="M 2106 1575 
Q 1756 1575 1579 1456 
Q 1403 1338 1403 1106 
Q 1403 894 1545 773 
Q 1688 653 1941 653 
Q 2256 653 2472 879 
Q 2688 1106 2688 1447 
L 2688 1575 
L 2106 1575 
z
M 3816 1997 
L 3816 0 
L 2688 0 
L 2688 519 
Q 2463 200 2181 54 
Q 1900 -91 1497 -91 
Q 953 -91 614 226 
Q 275 544 275 1050 
Q 275 1666 698 1953 
Q 1122 2241 2028 2241 
L 2688 2241 
L 2688 2328 
Q 2688 2594 2478 2717 
Q 2269 2841 1825 2841 
Q 1466 2841 1156 2769 
Q 847 2697 581 2553 
L 581 3406 
Q 941 3494 1303 3539 
Q 1666 3584 2028 3584 
Q 2975 3584 3395 3211 
Q 3816 2838 3816 1997 
z
" transform="scale(0.015625)"/>
      <path id="DejaVuSans-Bold-57" d="M 1759 4494 
L 1759 3500 
L 2913 3500 
L 2913 2700 
L 1759 2700 
L 1759 1216 
Q 1759 972 1856 886 
Q 1953 800 2241 800 
L 2816 800 
L 2816 0 
L 1856 0 
Q 1194 0 917 276 
Q 641 553 641 1216 
L 641 2700 
L 84 2700 
L 84 3500 
L 641 3500 
L 641 4494 
L 1759 4494 
z
" transform="scale(0.015625)"/>
      <path id="DejaVuSans-Bold-48" d="M 4031 1759 
L 4031 1441 
L 1416 1441 
Q 1456 1047 1700 850 
Q 1944 653 2381 653 
Q 2734 653 3104 758 
Q 3475 863 3866 1075 
L 3866 213 
Q 3469 63 3072 -14 
Q 2675 -91 2278 -91 
Q 1328 -91 801 392 
Q 275 875 275 1747 
Q 275 2603 792 3093 
Q 1309 3584 2216 3584 
Q 3041 3584 3536 3087 
Q 4031 2591 4031 1759 
z
M 2881 2131 
Q 2881 2450 2695 2645 
Q 2509 2841 2209 2841 
Q 1884 2841 1681 2658 
Q 1478 2475 1428 2131 
L 2881 2131 
z
" transform="scale(0.015625)"/>
     </defs>
     <use xlink:href="#DejaVuSans-Bold-56"/>
     <use xlink:href="#DejaVuSans-Bold-58" transform="translate(59.515625 0)"/>
     <use xlink:href="#DejaVuSans-Bold-55" transform="translate(130.703125 0)"/>
     <use xlink:href="#DejaVuSans-Bold-55" transform="translate(180.015625 0)"/>
     <use xlink:href="#DejaVuSans-Bold-52" transform="translate(229.328125 0)"/>
     <use xlink:href="#DejaVuSans-Bold-4a" transform="translate(298.03125 0)"/>
     <use xlink:href="#DejaVuSans-Bold-44" transform="translate(369.609375 0)"/>
     <use xlink:href="#DejaVuSans-Bold-57" transform="translate(437.09375 0)"/>
     <use xlink:href="#DejaVuSans-Bold-48" transform="translate(484.890625 0)"/>
    </g>
    <!-- boundary -->
    <g style="fill: #38bdf8" transform="translate(267.29588 123.486475) scale(0.105 -0.105)">
     <defs>
      <path id="DejaVuSans-Bold-45" d="M 2400 722 
Q 2759 722 2948 984 
Q 3138 1247 3138 1747 
Q 3138 2247 2948 2509 
Q 2759 2772 2400 2772 
Q 2041 2772 1848 2508 
Q 1656 2244 1656 1747 
Q 1656 1250 1848 986 
Q 2041 722 2400 722 
z
M 1656 2988 
Q 1888 3294 2169 3439 
Q 2450 3584 2816 3584 
Q 3463 3584 3878 3070 
Q 4294 2556 4294 1747 
Q 4294 938 3878 423 
Q 3463 -91 2816 -91 
Q 2450 -91 2169 54 
Q 1888 200 1656 506 
L 1656 0 
L 538 0 
L 538 4863 
L 1656 4863 
L 1656 2988 
z
" transform="scale(0.015625)"/>
      <path id="DejaVuSans-Bold-51" d="M 4056 2131 
L 4056 0 
L 2931 0 
L 2931 347 
L 2931 1631 
Q 2931 2084 2911 2256 
Q 2891 2428 2841 2509 
Q 2775 2619 2662 2680 
Q 2550 2741 2406 2741 
Q 2056 2741 1856 2470 
Q 1656 2200 1656 1722 
L 1656 0 
L 538 0 
L 538 3500 
L 1656 3500 
L 1656 2988 
Q 1909 3294 2193 3439 
Q 2478 3584 2822 3584 
Q 3428 3584 3742 3212 
Q 4056 2841 4056 2131 
z
" transform="scale(0.015625)"/>
      <path id="DejaVuSans-Bold-47" d="M 2919 2988 
L 2919 4863 
L 4044 4863 
L 4044 0 
L 2919 0 
L 2919 506 
Q 2688 197 2409 53 
Q 2131 -91 1766 -91 
Q 1119 -91 703 423 
Q 288 938 288 1747 
Q 288 2556 703 3070 
Q 1119 3584 1766 3584 
Q 2128 3584 2408 3439 
Q 2688 3294 2919 2988 
z
M 2181 722 
Q 2541 722 2730 984 
Q 2919 1247 2919 1747 
Q 2919 2247 2730 2509 
Q 2541 2772 2181 2772 
Q 1825 2772 1636 2509 
Q 1447 2247 1447 1747 
Q 1447 1247 1636 984 
Q 1825 722 2181 722 
z
" transform="scale(0.015625)"/>
      <path id="DejaVuSans-Bold-5c" d="M 78 3500 
L 1197 3500 
L 2138 1125 
L 2938 3500 
L 4056 3500 
L 2584 -331 
Q 2363 -916 2067 -1148 
Q 1772 -1381 1288 -1381 
L 641 -1381 
L 641 -647 
L 991 -647 
Q 1275 -647 1404 -556 
Q 1534 -466 1606 -231 
L 1638 -134 
L 78 3500 
z
" transform="scale(0.015625)"/>
     </defs>
     <use xlink:href="#DejaVuSans-Bold-45"/>
     <use xlink:href="#DejaVuSans-Bold-52" transform="translate(71.578125 0)"/>
     <use xlink:href="#DejaVuSans-Bold-58" transform="translate(140.28125 0)"/>
     <use xlink:href="#DejaVuSans-Bold-51" transform="translate(211.46875 0)"/>
     <use xlink:href="#DejaVuSans-Bold-47" transform="translate(282.65625 0)"/>
     <use xlink:href="#DejaVuSans-Bold-44" transform="translate(354.234375 0)"/>
     <use xlink:href="#DejaVuSans-Bold-55" transform="translate(421.71875 0)"/>
     <use xlink:href="#DejaVuSans-Bold-5c" transform="translate(471.03125 0)"/>
    </g>
   </g>
   <g id="text_2">
    <!-- victim -->
    <g style="fill: #fb7185" transform="translate(369.862311 85.346514) scale(0.105 -0.105)">
     <defs>
      <path id="DejaVuSans-Bold-59" d="M 97 3500 
L 1216 3500 
L 2088 1081 
L 2956 3500 
L 4078 3500 
L 2700 0 
L 1472 0 
L 97 3500 
z
" transform="scale(0.015625)"/>
      <path id="DejaVuSans-Bold-4c" d="M 538 3500 
L 1656 3500 
L 1656 0 
L 538 0 
L 538 3500 
z
M 538 4863 
L 1656 4863 
L 1656 3950 
L 538 3950 
L 538 4863 
z
" transform="scale(0.015625)"/>
      <path id="DejaVuSans-Bold-46" d="M 3366 3391 
L 3366 2478 
Q 3138 2634 2908 2709 
Q 2678 2784 2431 2784 
Q 1963 2784 1702 2511 
Q 1441 2238 1441 1747 
Q 1441 1256 1702 982 
Q 1963 709 2431 709 
Q 2694 709 2930 787 
Q 3166 866 3366 1019 
L 3366 103 
Q 3103 6 2833 -42 
Q 2563 -91 2291 -91 
Q 1344 -91 809 395 
Q 275 881 275 1747 
Q 275 2613 809 3098 
Q 1344 3584 2291 3584 
Q 2566 3584 2833 3536 
Q 3100 3488 3366 3391 
z
" transform="scale(0.015625)"/>
      <path id="DejaVuSans-Bold-50" d="M 3781 2919 
Q 3994 3244 4286 3414 
Q 4578 3584 4928 3584 
Q 5531 3584 5847 3212 
Q 6163 2841 6163 2131 
L 6163 0 
L 5038 0 
L 5038 1825 
Q 5041 1866 5042 1909 
Q 5044 1953 5044 2034 
Q 5044 2406 4934 2573 
Q 4825 2741 4581 2741 
Q 4263 2741 4089 2478 
Q 3916 2216 3909 1719 
L 3909 0 
L 2784 0 
L 2784 1825 
Q 2784 2406 2684 2573 
Q 2584 2741 2328 2741 
Q 2006 2741 1831 2477 
Q 1656 2213 1656 1722 
L 1656 0 
L 531 0 
L 531 3500 
L 1656 3500 
L 1656 2988 
Q 1863 3284 2130 3434 
Q 2397 3584 2719 3584 
Q 3081 3584 3359 3409 
Q 3638 3234 3781 2919 
z
" transform="scale(0.015625)"/>
     </defs>
     <use xlink:href="#DejaVuSans-Bold-59"/>
     <use xlink:href="#DejaVuSans-Bold-4c" transform="translate(65.1875 0)"/>
     <use xlink:href="#DejaVuSans-Bold-46" transform="translate(99.46875 0)"/>
     <use xlink:href="#DejaVuSans-Bold-57" transform="translate(158.75 0)"/>
     <use xlink:href="#DejaVuSans-Bold-4c" transform="translate(206.546875 0)"/>
     <use xlink:href="#DejaVuSans-Bold-50" transform="translate(240.828125 0)"/>
    </g>
    <!-- boundary -->
    <g style="fill: #fb7185" transform="translate(369.862311 97.949385) scale(0.105 -0.105)">
     <use xlink:href="#DejaVuSans-Bold-45"/>
     <use xlink:href="#DejaVuSans-Bold-52" transform="translate(71.578125 0)"/>
     <use xlink:href="#DejaVuSans-Bold-58" transform="translate(140.28125 0)"/>
     <use xlink:href="#DejaVuSans-Bold-51" transform="translate(211.46875 0)"/>
     <use xlink:href="#DejaVuSans-Bold-47" transform="translate(282.65625 0)"/>
     <use xlink:href="#DejaVuSans-Bold-44" transform="translate(354.234375 0)"/>
     <use xlink:href="#DejaVuSans-Bold-55" transform="translate(421.71875 0)"/>
     <use xlink:href="#DejaVuSans-Bold-5c" transform="translate(471.03125 0)"/>
    </g>
   </g>
   <g id="patch_3">
    <path d="M 145.1025 390.2625 
L 267.6825 390.2625 
L 267.6825 267.6825 
L 145.1025 267.6825 
L 145.1025 390.2625 
z
" clip-path="url(#p01c11d4c19)" style="fill: none; opacity: 0.45; stroke-dasharray: 4.8,4.8; stroke-dashoffset: 0; stroke: #94a3b8; stroke-width: 1.2; stroke-linejoin: miter"/>
   </g>
   <g id="patch_4">
    <path d="M 99.135 436.23 
L 313.65 436.23 
L 313.65 221.715 
L 99.135 221.715 
L 99.135 436.23 
z
" clip-path="url(#p01c11d4c19)" style="fill: none; opacity: 0.45; stroke-dasharray: 4.8,4.8; stroke-dashoffset: 0; stroke: #94a3b8; stroke-width: 1.2; stroke-linejoin: miter"/>
   </g>
   <g id="patch_5">
    <path d="M 53.1675 482.1975 
L 359.6175 482.1975 
L 359.6175 175.7475 
L 53.1675 175.7475 
L 53.1675 482.1975 
z
" clip-path="url(#p01c11d4c19)" style="fill: none; opacity: 0.75; stroke-dasharray: 6.4,6.4; stroke-dashoffset: 0; stroke: #f87171; stroke-width: 1.6; stroke-linejoin: miter"/>
   </g>
   <g id="text_3">
    <!-- ε-box corner -->
    <g style="fill: #f87171" transform="translate(373.9185 161.788848) scale(0.11 -0.11)">
     <defs>
      <path id="DejaVuSans-Bold-349" d="M 1116 1888 
Q 778 1966 606 2163 
Q 431 2363 431 2666 
Q 431 3138 794 3359 
Q 1156 3584 1881 3584 
Q 2153 3584 2431 3547 
Q 2713 3509 2997 3434 
L 2997 2688 
Q 2809 2772 2543 2822 
Q 2278 2872 2094 2872 
Q 1797 2872 1625 2763 
Q 1450 2650 1450 2519 
Q 1450 2381 1628 2275 
Q 1784 2181 2150 2181 
L 2538 2181 
L 2538 1481 
L 2169 1481 
Q 1766 1481 1572 1366 
Q 1363 1244 1363 1056 
Q 1363 875 1569 750 
Q 1772 628 2134 628 
Q 2375 628 2641 691 
Q 2934 759 3156 872 
L 3156 84 
Q 2875 -3 2588 -47 
Q 2297 -91 2009 -91 
Q 1194 -91 769 181 
Q 344 453 344 994 
Q 344 1344 541 1569 
Q 738 1794 1116 1888 
z
" transform="scale(0.015625)"/>
      <path id="DejaVuSans-Bold-10" d="M 347 2297 
L 2309 2297 
L 2309 1388 
L 347 1388 
L 347 2297 
z
" transform="scale(0.015625)"/>
      <path id="DejaVuSans-Bold-5b" d="M 1422 1791 
L 159 3500 
L 1344 3500 
L 2059 2463 
L 2784 3500 
L 3969 3500 
L 2706 1797 
L 4031 0 
L 2847 0 
L 2059 1106 
L 1281 0 
L 97 0 
L 1422 1791 
z
" transform="scale(0.015625)"/>
      <path id="DejaVuSans-Bold-3" transform="scale(0.015625)"/>
     </defs>
     <use xlink:href="#DejaVuSans-Bold-349"/>
     <use xlink:href="#DejaVuSans-Bold-10" transform="translate(55.671875 0)"/>
     <use xlink:href="#DejaVuSans-Bold-45" transform="translate(97.171875 0)"/>
     <use xlink:href="#DejaVuSans-Bold-52" transform="translate(168.75 0)"/>
     <use xlink:href="#DejaVuSans-Bold-5b" transform="translate(237.453125 0)"/>
     <use xlink:href="#DejaVuSans-Bold-3" transform="translate(301.953125 0)"/>
     <use xlink:href="#DejaVuSans-Bold-46" transform="translate(336.765625 0)"/>
     <use xlink:href="#DejaVuSans-Bold-52" transform="translate(396.046875 0)"/>
     <use xlink:href="#DejaVuSans-Bold-55" transform="translate(464.75 0)"/>
     <use xlink:href="#DejaVuSans-Bold-51" transform="translate(514.0625 0)"/>
     <use xlink:href="#DejaVuSans-Bold-48" transform="translate(585.25 0)"/>
     <use xlink:href="#DejaVuSans-Bold-55" transform="translate(653.078125 0)"/>
    </g>
    <!-- crosses victim ✓ -->
    <g style="fill: #f87171" transform="translate(373.9185 174.991855) scale(0.11 -0.11)">
     <defs>
      <path id="DejaVuSans-Bold-fa3" d="M 1416 2044 
Q 1538 2044 1600 1844 
Q 1725 1469 1778 1469 
Q 1819 1469 1863 1531 
Q 2741 2938 3488 3806 
Q 3681 4031 4103 4031 
Q 4203 4031 4237 4012 
Q 4272 3994 4272 3966 
Q 4272 3922 4169 3794 
Q 2963 2344 1931 731 
Q 1859 619 1638 619 
Q 1413 619 1372 638 
Q 1266 684 1122 1116 
Q 959 1594 959 1716 
Q 959 1847 1178 1969 
Q 1313 2044 1416 2044 
z
" transform="scale(0.015625)"/>
     </defs>
     <use xlink:href="#DejaVuSans-Bold-46"/>
     <use xlink:href="#DejaVuSans-Bold-55" transform="translate(59.28125 0)"/>
     <use xlink:href="#DejaVuSans-Bold-52" transform="translate(108.59375 0)"/>
     <use xlink:href="#DejaVuSans-Bold-56" transform="translate(177.296875 0)"/>
     <use xlink:href="#DejaVuSans-Bold-56" transform="translate(236.8125 0)"/>
     <use xlink:href="#DejaVuSans-Bold-48" transform="translate(296.328125 0)"/>
     <use xlink:href="#DejaVuSans-Bold-56" transform="translate(364.15625 0)"/>
     <use xlink:href="#DejaVuSans-Bold-3" transform="translate(423.671875 0)"/>
     <use xlink:href="#DejaVuSans-Bold-59" transform="translate(458.484375 0)"/>
     <use xlink:href="#DejaVuSans-Bold-4c" transform="translate(523.671875 0)"/>
     <use xlink:href="#DejaVuSans-Bold-46" transform="translate(557.953125 0)"/>
     <use xlink:href="#DejaVuSans-Bold-57" transform="translate(617.234375 0)"/>
     <use xlink:href="#DejaVuSans-Bold-4c" transform="translate(665.03125 0)"/>
     <use xlink:href="#DejaVuSans-Bold-50" transform="translate(699.3125 0)"/>
     <use xlink:href="#DejaVuSans-Bold-3" transform="translate(803.515625 0)"/>
     <use xlink:href="#DejaVuSans-Bold-fa3" transform="translate(838.328125 0)"/>
    </g>
   </g>
   <g id="text_4">
    <!-- $x_0$ -->
    <g style="fill: #67e8f9" transform="translate(181.1975 355.592969) scale(0.14 -0.14)">
     <defs>
      <path id="DejaVuSans-Oblique-5b" d="M 3841 3500 
L 2234 1784 
L 3219 0 
L 2559 0 
L 1819 1388 
L 531 0 
L -166 0 
L 1556 1844 
L 641 3500 
L 1300 3500 
L 1972 2234 
L 3144 3500 
L 3841 3500 
z
" transform="scale(0.015625)"/>
      <path id="DejaVuSans-13" d="M 2034 4250 
Q 1547 4250 1301 3770 
Q 1056 3291 1056 2328 
Q 1056 1369 1301 889 
Q 1547 409 2034 409 
Q 2525 409 2770 889 
Q 3016 1369 3016 2328 
Q 3016 3291 2770 3770 
Q 2525 4250 2034 4250 
z
M 2034 4750 
Q 2819 4750 3233 4129 
Q 3647 3509 3647 2328 
Q 3647 1150 3233 529 
Q 2819 -91 2034 -91 
Q 1250 -91 836 529 
Q 422 1150 422 2328 
Q 422 3509 836 4129 
Q 1250 4750 2034 4750 
z
" transform="scale(0.015625)"/>
     </defs>
     <use xlink:href="#DejaVuSans-Oblique-5b" transform="translate(0 0.3125)"/>
     <use xlink:href="#DejaVuSans-13" transform="translate(59.179688 -14.687451) scale(0.7)"/>
    </g>
   </g>
   <g id="text_5">
    <!-- no victim gradients — craft on the surrogate, grow ε until it transfers -->
    <g style="fill: #e5e7eb; opacity: 0.92" transform="translate(88.92 30.18375) scale(0.125 -0.125)">
     <defs>
      <path id="DejaVuSans-Oblique-51" d="M 3566 2113 
L 3156 0 
L 2578 0 
L 2988 2091 
Q 3016 2238 3031 2350 
Q 3047 2463 3047 2528 
Q 3047 2791 2881 2937 
Q 2716 3084 2419 3084 
Q 1956 3084 1622 2776 
Q 1288 2469 1184 1941 
L 800 0 
L 225 0 
L 903 3500 
L 1478 3500 
L 1363 2950 
Q 1603 3253 1940 3418 
Q 2278 3584 2650 3584 
Q 3113 3584 3367 3334 
Q 3622 3084 3622 2631 
Q 3622 2519 3608 2391 
Q 3594 2263 3566 2113 
z
" transform="scale(0.015625)"/>
      <path id="DejaVuSans-Oblique-52" d="M 1625 -91 
Q 1009 -91 651 289 
Q 294 669 294 1325 
Q 294 1706 417 2101 
Q 541 2497 738 2766 
Q 1047 3184 1428 3384 
Q 1809 3584 2291 3584 
Q 2888 3584 3255 3212 
Q 3622 2841 3622 2241 
Q 3622 1825 3500 1412 
Q 3378 1000 3181 728 
Q 2875 309 2494 109 
Q 2113 -91 1625 -91 
z
M 891 1344 
Q 891 869 1089 633 
Q 1288 397 1691 397 
Q 2269 397 2648 901 
Q 3028 1406 3028 2181 
Q 3028 2634 2825 2865 
Q 2622 3097 2228 3097 
Q 1903 3097 1650 2945 
Q 1397 2794 1197 2484 
Q 1050 2253 970 1956 
Q 891 1659 891 1344 
z
" transform="scale(0.015625)"/>
      <path id="DejaVuSans-Oblique-3" transform="scale(0.015625)"/>
      <path id="DejaVuSans-Oblique-59" d="M 459 3500 
L 1069 3500 
L 1581 525 
L 3256 3500 
L 3866 3500 
L 1875 0 
L 1100 0 
L 459 3500 
z
" transform="scale(0.015625)"/>
      <path id="DejaVuSans-Oblique-4c" d="M 1172 4863 
L 1747 4863 
L 1606 4134 
L 1031 4134 
L 1172 4863 
z
M 909 3500 
L 1484 3500 
L 800 0 
L 225 0 
L 909 3500 
z
" transform="scale(0.015625)"/>
      <path id="DejaVuSans-Oblique-46" d="M 3431 3366 
L 3316 2797 
Q 3109 2947 2876 3022 
Q 2644 3097 2394 3097 
Q 2119 3097 1870 3000 
Q 1622 2903 1453 2725 
Q 1184 2453 1037 2087 
Q 891 1722 891 1331 
Q 891 859 1127 628 
Q 1363 397 1844 397 
Q 2081 397 2348 469 
Q 2616 541 2906 684 
L 2797 116 
Q 2547 13 2283 -39 
Q 2019 -91 1741 -91 
Q 1044 -91 669 257 
Q 294 606 294 1253 
Q 294 1797 489 2255 
Q 684 2713 1069 3078 
Q 1331 3328 1684 3456 
Q 2038 3584 2456 3584 
Q 2700 3584 2940 3529 
Q 3181 3475 3431 3366 
z
" transform="scale(0.015625)"/>
      <path id="DejaVuSans-Oblique-57" d="M 2706 3500 
L 2619 3053 
L 1472 3053 
L 1100 1153 
Q 1081 1047 1072 975 
Q 1063 903 1063 863 
Q 1063 663 1183 572 
Q 1303 481 1569 481 
L 2150 481 
L 2053 0 
L 1503 0 
Q 991 0 739 200 
Q 488 400 488 806 
Q 488 878 497 964 
Q 506 1050 525 1153 
L 897 3053 
L 409 3053 
L 500 3500 
L 978 3500 
L 1172 4494 
L 1747 4494 
L 1556 3500 
L 2706 3500 
z
" transform="scale(0.015625)"/>
      <path id="DejaVuSans-Oblique-50" d="M 5747 2113 
L 5338 0 
L 4763 0 
L 5166 2094 
Q 5191 2228 5203 2325 
Q 5216 2422 5216 2491 
Q 5216 2772 5059 2928 
Q 4903 3084 4622 3084 
Q 4203 3084 3875 2770 
Q 3547 2456 3450 1953 
L 3066 0 
L 2491 0 
L 2900 2094 
Q 2925 2209 2937 2307 
Q 2950 2406 2950 2484 
Q 2950 2769 2794 2926 
Q 2638 3084 2363 3084 
Q 1938 3084 1609 2770 
Q 1281 2456 1184 1953 
L 800 0 
L 225 0 
L 909 3500 
L 1484 3500 
L 1375 2956 
Q 1609 3263 1923 3423 
Q 2238 3584 2597 3584 
Q 2978 3584 3223 3384 
Q 3469 3184 3519 2828 
Q 3781 3197 4126 3390 
Q 4472 3584 4856 3584 
Q 5306 3584 5551 3325 
Q 5797 3066 5797 2591 
Q 5797 2488 5784 2364 
Q 5772 2241 5747 2113 
z
" transform="scale(0.015625)"/>
      <path id="DejaVuSans-Oblique-4a" d="M 3816 3500 
L 3219 434 
Q 3047 -456 2561 -893 
Q 2075 -1331 1253 -1331 
Q 950 -1331 690 -1286 
Q 431 -1241 206 -1147 
L 313 -588 
Q 525 -725 762 -790 
Q 1000 -856 1269 -856 
Q 1816 -856 2167 -557 
Q 2519 -259 2631 300 
L 2681 563 
Q 2441 288 2122 144 
Q 1803 0 1434 0 
Q 903 0 598 351 
Q 294 703 294 1319 
Q 294 1803 478 2267 
Q 663 2731 997 3091 
Q 1219 3328 1514 3456 
Q 1809 3584 2131 3584 
Q 2484 3584 2746 3420 
Q 3009 3256 3138 2956 
L 3238 3500 
L 3816 3500 
z
M 2950 2216 
Q 2950 2641 2750 2872 
Q 2550 3103 2181 3103 
Q 1953 3103 1747 3012 
Q 1541 2922 1394 2759 
Q 1156 2491 1023 2127 
Q 891 1763 891 1375 
Q 891 944 1092 712 
Q 1294 481 1672 481 
Q 2219 481 2584 976 
Q 2950 1472 2950 2216 
z
" transform="scale(0.015625)"/>
      <path id="DejaVuSans-Oblique-55" d="M 2853 2969 
Q 2766 3016 2653 3041 
Q 2541 3066 2413 3066 
Q 1953 3066 1609 2717 
Q 1266 2369 1153 1784 
L 800 0 
L 225 0 
L 909 3500 
L 1484 3500 
L 1375 2956 
Q 1603 3259 1920 3421 
Q 2238 3584 2597 3584 
Q 2691 3584 2781 3573 
Q 2872 3563 2963 3538 
L 2853 2969 
z
" transform="scale(0.015625)"/>
      <path id="DejaVuSans-Oblique-44" d="M 3438 1997 
L 3047 0 
L 2472 0 
L 2578 531 
Q 2325 219 2001 64 
Q 1678 -91 1281 -91 
Q 834 -91 548 182 
Q 263 456 263 884 
Q 263 1497 752 1853 
Q 1241 2209 2100 2209 
L 2900 2209 
L 2931 2363 
Q 2938 2388 2941 2417 
Q 2944 2447 2944 2509 
Q 2944 2788 2717 2942 
Q 2491 3097 2081 3097 
Q 1800 3097 1504 3025 
Q 1209 2953 897 2809 
L 997 3341 
Q 1322 3463 1633 3523 
Q 1944 3584 2234 3584 
Q 2853 3584 3176 3315 
Q 3500 3047 3500 2534 
Q 3500 2431 3484 2292 
Q 3469 2153 3438 1997 
z
M 2816 1759 
L 2241 1759 
Q 1534 1759 1195 1570 
Q 856 1381 856 984 
Q 856 709 1029 553 
Q 1203 397 1509 397 
Q 1978 397 2328 733 
Q 2678 1069 2791 1631 
L 2816 1759 
z
" transform="scale(0.015625)"/>
      <path id="DejaVuSans-Oblique-47" d="M 2675 525 
Q 2444 222 2128 65 
Q 1813 -91 1428 -91 
Q 903 -91 598 267 
Q 294 625 294 1247 
Q 294 1766 478 2236 
Q 663 2706 1013 3078 
Q 1244 3325 1534 3454 
Q 1825 3584 2144 3584 
Q 2481 3584 2739 3421 
Q 2997 3259 3138 2956 
L 3513 4863 
L 4091 4863 
L 3144 0 
L 2566 0 
L 2675 525 
z
M 891 1350 
Q 891 897 1095 644 
Q 1300 391 1663 391 
Q 1931 391 2161 520 
Q 2391 650 2566 903 
Q 2750 1166 2856 1509 
Q 2963 1853 2963 2188 
Q 2963 2622 2758 2865 
Q 2553 3109 2194 3109 
Q 1922 3109 1687 2981 
Q 1453 2853 1288 2613 
Q 1106 2353 998 2009 
Q 891 1666 891 1350 
z
" transform="scale(0.015625)"/>
      <path id="DejaVuSans-Oblique-48" d="M 3078 2063 
Q 3088 2113 3092 2166 
Q 3097 2219 3097 2272 
Q 3097 2653 2873 2875 
Q 2650 3097 2266 3097 
Q 1838 3097 1509 2826 
Q 1181 2556 1013 2059 
L 3078 2063 
z
M 3578 1613 
L 903 1613 
Q 884 1494 878 1425 
Q 872 1356 872 1306 
Q 872 872 1139 634 
Q 1406 397 1894 397 
Q 2269 397 2603 481 
Q 2938 566 3225 728 
L 3116 159 
Q 2806 34 2476 -28 
Q 2147 -91 1806 -91 
Q 1078 -91 686 257 
Q 294 606 294 1247 
Q 294 1794 489 2264 
Q 684 2734 1063 3103 
Q 1306 3334 1642 3459 
Q 1978 3584 2356 3584 
Q 2950 3584 3301 3228 
Q 3653 2872 3653 2272 
Q 3653 2128 3634 1964 
Q 3616 1800 3578 1613 
z
" transform="scale(0.015625)"/>
      <path id="DejaVuSans-Oblique-56" d="M 3200 3397 
L 3091 2853 
Q 2863 2978 2609 3040 
Q 2356 3103 2088 3103 
Q 1634 3103 1373 2948 
Q 1113 2794 1113 2528 
Q 1113 2219 1719 2053 
Q 1766 2041 1788 2034 
L 1972 1978 
Q 2547 1819 2739 1644 
Q 2931 1469 2931 1166 
Q 2931 609 2489 259 
Q 2047 -91 1331 -91 
Q 1053 -91 747 -37 
Q 441 16 72 128 
L 184 722 
Q 500 559 806 475 
Q 1113 391 1394 391 
Q 1816 391 2080 572 
Q 2344 753 2344 1031 
Q 2344 1331 1650 1516 
L 1591 1531 
L 1394 1581 
Q 956 1697 753 1886 
Q 550 2075 550 2369 
Q 550 2928 970 3256 
Q 1391 3584 2113 3584 
Q 2397 3584 2667 3537 
Q 2938 3491 3200 3397 
z
" transform="scale(0.015625)"/>
      <path id="DejaVuSans-Oblique-9fe" d="M 356 1978 
L 6131 1978 
L 6044 1528 
L 269 1528 
L 356 1978 
z
" transform="scale(0.015625)"/>
      <path id="DejaVuSans-Oblique-49" d="M 3059 4863 
L 2969 4384 
L 2419 4384 
Q 2106 4384 1964 4261 
Q 1822 4138 1753 3809 
L 1691 3500 
L 2638 3500 
L 2553 3053 
L 1606 3053 
L 1013 0 
L 434 0 
L 1031 3053 
L 481 3053 
L 563 3500 
L 1113 3500 
L 1159 3744 
Q 1278 4363 1576 4613 
Q 1875 4863 2516 4863 
L 3059 4863 
z
" transform="scale(0.015625)"/>
      <path id="DejaVuSans-Oblique-4b" d="M 3566 2113 
L 3156 0 
L 2578 0 
L 2988 2091 
Q 3016 2238 3031 2350 
Q 3047 2463 3047 2528 
Q 3047 2791 2881 2937 
Q 2716 3084 2419 3084 
Q 1956 3084 1617 2771 
Q 1278 2459 1178 1941 
L 800 0 
L 225 0 
L 1172 4863 
L 1747 4863 
L 1375 2950 
Q 1594 3244 1934 3414 
Q 2275 3584 2650 3584 
Q 3113 3584 3367 3334 
Q 3622 3084 3622 2631 
Q 3622 2519 3608 2391 
Q 3594 2263 3566 2113 
z
" transform="scale(0.015625)"/>
      <path id="DejaVuSans-Oblique-58" d="M 428 1388 
L 838 3500 
L 1416 3500 
L 1006 1409 
Q 975 1256 961 1147 
Q 947 1038 947 966 
Q 947 700 1109 554 
Q 1272 409 1569 409 
Q 2031 409 2368 721 
Q 2706 1034 2809 1563 
L 3194 3500 
L 3769 3500 
L 3091 0 
L 2516 0 
L 2631 550 
Q 2388 244 2052 76 
Q 1716 -91 1338 -91 
Q 878 -91 622 161 
Q 366 413 366 863 
Q 366 956 381 1097 
Q 397 1238 428 1388 
z
" transform="scale(0.015625)"/>
      <path id="DejaVuSans-Oblique-f" d="M 575 794 
L 1234 794 
L 1131 256 
L 422 -744 
L 19 -744 
L 469 256 
L 575 794 
z
" transform="scale(0.015625)"/>
      <path id="DejaVuSans-Oblique-5a" d="M 544 3500 
L 1113 3500 
L 1259 684 
L 2566 3500 
L 3231 3500 
L 3425 684 
L 4666 3500 
L 5241 3500 
L 3641 0 
L 2969 0 
L 2797 2900 
L 1459 0 
L 781 0 
L 544 3500 
z
" transform="scale(0.015625)"/>
      <path id="DejaVuSans-Oblique-349" d="M 1263 1888 
Q 925 1963 778 2166 
Q 669 2309 669 2503 
Q 669 3034 1175 3344 
Q 1575 3588 2188 3588 
Q 2425 3588 2684 3550 
Q 2944 3513 3234 3438 
L 3134 2916 
Q 2847 3006 2606 3047 
Q 2359 3088 2138 3088 
Q 1766 3088 1522 2944 
Q 1228 2772 1228 2522 
Q 1228 2356 1381 2241 
Q 1563 2103 1925 2103 
L 2409 2103 
L 2319 1628 
L 1856 1628 
Q 1425 1628 1172 1469 
Q 828 1253 828 916 
Q 828 703 1013 563 
Q 1244 388 1716 388 
Q 2006 388 2284 444 
Q 2563 503 2806 619 
L 2700 84 
Q 2403 -3 2131 -47 
Q 1859 -91 1609 -91 
Q 866 -91 516 194 
Q 250 413 250 781 
Q 250 1278 600 1584 
Q 859 1813 1263 1888 
z
" transform="scale(0.015625)"/>
      <path id="DejaVuSans-Oblique-4f" d="M 1172 4863 
L 1747 4863 
L 800 0 
L 225 0 
L 1172 4863 
z
" transform="scale(0.015625)"/>
     </defs>
     <use xlink:href="#DejaVuSans-Oblique-51"/>
     <use xlink:href="#DejaVuSans-Oblique-52" transform="translate(63.375 0)"/>
     <use xlink:href="#DejaVuSans-Oblique-3" transform="translate(124.5625 0)"/>
     <use xlink:href="#DejaVuSans-Oblique-59" transform="translate(156.34375 0)"/>
     <use xlink:href="#DejaVuSans-Oblique-4c" transform="translate(215.53125 0)"/>
     <use xlink:href="#DejaVuSans-Oblique-46" transform="translate(243.3125 0)"/>
     <use xlink:href="#DejaVuSans-Oblique-57" transform="translate(298.296875 0)"/>
     <use xlink:href="#DejaVuSans-Oblique-4c" transform="translate(337.5 0)"/>
     <use xlink:href="#DejaVuSans-Oblique-50" transform="translate(365.28125 0)"/>
     <use xlink:href="#DejaVuSans-Oblique-3" transform="translate(462.6875 0)"/>
     <use xlink:href="#DejaVuSans-Oblique-4a" transform="translate(494.46875 0)"/>
     <use xlink:href="#DejaVuSans-Oblique-55" transform="translate(557.953125 0)"/>
     <use xlink:href="#DejaVuSans-Oblique-44" transform="translate(599.0625 0)"/>
     <use xlink:href="#DejaVuSans-Oblique-47" transform="translate(660.34375 0)"/>
     <use xlink:href="#DejaVuSans-Oblique-4c" transform="translate(723.828125 0)"/>
     <use xlink:href="#DejaVuSans-Oblique-48" transform="translate(751.609375 0)"/>
     <use xlink:href="#DejaVuSans-Oblique-51" transform="translate(813.140625 0)"/>
     <use xlink:href="#DejaVuSans-Oblique-57" transform="translate(876.515625 0)"/>
     <use xlink:href="#DejaVuSans-Oblique-56" transform="translate(915.71875 0)"/>
     <use xlink:href="#DejaVuSans-Oblique-3" transform="translate(967.8125 0)"/>
     <use xlink:href="#DejaVuSans-Oblique-9fe" transform="translate(999.59375 0)"/>
     <use xlink:href="#DejaVuSans-Oblique-3" transform="translate(1099.59375 0)"/>
     <use xlink:href="#DejaVuSans-Oblique-46" transform="translate(1131.375 0)"/>
     <use xlink:href="#DejaVuSans-Oblique-55" transform="translate(1186.359375 0)"/>
     <use xlink:href="#DejaVuSans-Oblique-44" transform="translate(1227.46875 0)"/>
     <use xlink:href="#DejaVuSans-Oblique-49" transform="translate(1288.75 0)"/>
     <use xlink:href="#DejaVuSans-Oblique-57" transform="translate(1323.953125 0)"/>
     <use xlink:href="#DejaVuSans-Oblique-3" transform="translate(1363.15625 0)"/>
     <use xlink:href="#DejaVuSans-Oblique-52" transform="translate(1394.9375 0)"/>
     <use xlink:href="#DejaVuSans-Oblique-51" transform="translate(1456.125 0)"/>
     <use xlink:href="#DejaVuSans-Oblique-3" transform="translate(1519.5 0)"/>
     <use xlink:href="#DejaVuSans-Oblique-57" transform="translate(1551.28125 0)"/>
     <use xlink:href="#DejaVuSans-Oblique-4b" transform="translate(1590.484375 0)"/>
     <use xlink:href="#DejaVuSans-Oblique-48" transform="translate(1653.859375 0)"/>
     <use xlink:href="#DejaVuSans-Oblique-3" transform="translate(1715.390625 0)"/>
     <use xlink:href="#DejaVuSans-Oblique-56" transform="translate(1747.171875 0)"/>
     <use xlink:href="#DejaVuSans-Oblique-58" transform="translate(1799.265625 0)"/>
     <use xlink:href="#DejaVuSans-Oblique-55" transform="translate(1862.640625 0)"/>
     <use xlink:href="#DejaVuSans-Oblique-55" transform="translate(1903.75 0)"/>
     <use xlink:href="#DejaVuSans-Oblique-52" transform="translate(1944.859375 0)"/>
     <use xlink:href="#DejaVuSans-Oblique-4a" transform="translate(2006.046875 0)"/>
     <use xlink:href="#DejaVuSans-Oblique-44" transform="translate(2069.53125 0)"/>
     <use xlink:href="#DejaVuSans-Oblique-57" transform="translate(2130.8125 0)"/>
     <use xlink:href="#DejaVuSans-Oblique-48" transform="translate(2170.015625 0)"/>
     <use xlink:href="#DejaVuSans-Oblique-f" transform="translate(2231.546875 0)"/>
     <use xlink:href="#DejaVuSans-Oblique-3" transform="translate(2263.328125 0)"/>
     <use xlink:href="#DejaVuSans-Oblique-4a" transform="translate(2295.109375 0)"/>
     <use xlink:href="#DejaVuSans-Oblique-55" transform="translate(2358.59375 0)"/>
     <use xlink:href="#DejaVuSans-Oblique-52" transform="translate(2399.703125 0)"/>
     <use xlink:href="#DejaVuSans-Oblique-5a" transform="translate(2460.890625 0)"/>
     <use xlink:href="#DejaVuSans-Oblique-3" transform="translate(2542.671875 0)"/>
     <use xlink:href="#DejaVuSans-Oblique-349" transform="translate(2574.453125 0)"/>
     <use xlink:href="#DejaVuSans-Oblique-3" transform="translate(2628.5 0)"/>
     <use xlink:href="#DejaVuSans-Oblique-58" transform="translate(2660.28125 0)"/>
     <use xlink:href="#DejaVuSans-Oblique-51" transform="translate(2723.65625 0)"/>
     <use xlink:href="#DejaVuSans-Oblique-57" transform="translate(2787.03125 0)"/>
     <use xlink:href="#DejaVuSans-Oblique-4c" transform="translate(2826.234375 0)"/>
     <use xlink:href="#DejaVuSans-Oblique-4f" transform="translate(2854.015625 0)"/>
     <use xlink:href="#DejaVuSans-Oblique-3" transform="translate(2881.796875 0)"/>
     <use xlink:href="#DejaVuSans-Oblique-4c" transform="translate(2913.578125 0)"/>
     <use xlink:href="#DejaVuSans-Oblique-57" transform="translate(2941.359375 0)"/>
     <use xlink:href="#DejaVuSans-Oblique-3" transform="translate(2980.5625 0)"/>
     <use xlink:href="#DejaVuSans-Oblique-57" transform="translate(3012.34375 0)"/>
     <use xlink:href="#DejaVuSans-Oblique-55" transform="translate(3051.546875 0)"/>
     <use xlink:href="#DejaVuSans-Oblique-44" transform="translate(3092.65625 0)"/>
     <use xlink:href="#DejaVuSans-Oblique-51" transform="translate(3153.9375 0)"/>
     <use xlink:href="#DejaVuSans-Oblique-56" transform="translate(3217.3125 0)"/>
     <use xlink:href="#DejaVuSans-Oblique-49" transform="translate(3269.40625 0)"/>
     <use xlink:href="#DejaVuSans-Oblique-48" transform="translate(3304.609375 0)"/>
     <use xlink:href="#DejaVuSans-Oblique-55" transform="translate(3366.140625 0)"/>
     <use xlink:href="#DejaVuSans-Oblique-56" transform="translate(3407.25 0)"/>
    </g>
   </g>
   <g id="text_6">
    <!-- ① PGD on the surrogate -->
    <g style="fill: #38bdf8" transform="translate(466.875 196.1775) scale(0.12 -0.12)">
     <defs>
      <path id="DejaVuSans-Bold-dcd" d="M 5044 2241 
Q 5044 1269 4361 587 
Q 3678 -94 2706 -94 
Q 1741 -94 1058 587 
Q 375 1269 375 2241 
Q 375 2847 689 3409 
Q 1003 3972 1564 4273 
Q 2125 4575 2706 4575 
Q 3297 4575 3858 4273 
Q 4419 3972 4731 3412 
Q 5044 2853 5044 2241 
z
M 2706 4325 
Q 2188 4325 1686 4056 
Q 1184 3788 904 3284 
Q 625 2781 625 2241 
Q 625 1375 1236 765 
Q 1847 156 2706 156 
Q 3572 156 4183 765 
Q 4794 1375 4794 2241 
Q 4794 2788 4516 3288 
Q 4238 3788 3736 4056 
Q 3234 4325 2706 4325 
z
M 1572 1603 
L 2275 1603 
L 2275 3272 
L 1553 3138 
L 1553 3756 
L 2341 3903 
L 3181 3903 
L 3181 1603 
L 3881 1603 
L 3881 978 
L 1572 978 
L 1572 1603 
z
" transform="scale(0.015625)"/>
      <path id="DejaVuSans-Bold-33" d="M 588 4666 
L 2584 4666 
Q 3475 4666 3951 4270 
Q 4428 3875 4428 3144 
Q 4428 2409 3951 2014 
Q 3475 1619 2584 1619 
L 1791 1619 
L 1791 0 
L 588 0 
L 588 4666 
z
M 1791 3794 
L 1791 2491 
L 2456 2491 
Q 2806 2491 2997 2661 
Q 3188 2831 3188 3144 
Q 3188 3456 2997 3625 
Q 2806 3794 2456 3794 
L 1791 3794 
z
" transform="scale(0.015625)"/>
      <path id="DejaVuSans-Bold-2a" d="M 4781 347 
Q 4331 128 3847 18 
Q 3363 -91 2847 -91 
Q 1681 -91 1000 561 
Q 319 1213 319 2328 
Q 319 3456 1012 4103 
Q 1706 4750 2913 4750 
Q 3378 4750 3804 4662 
Q 4231 4575 4609 4403 
L 4609 3438 
Q 4219 3659 3833 3768 
Q 3447 3878 3059 3878 
Q 2341 3878 1952 3476 
Q 1563 3075 1563 2328 
Q 1563 1588 1938 1184 
Q 2313 781 3003 781 
Q 3191 781 3352 804 
Q 3513 828 3641 878 
L 3641 1784 
L 2906 1784 
L 2906 2591 
L 4781 2591 
L 4781 347 
z
" transform="scale(0.015625)"/>
      <path id="DejaVuSans-Bold-27" d="M 1791 3756 
L 1791 909 
L 2222 909 
Q 2959 909 3348 1275 
Q 3738 1641 3738 2338 
Q 3738 3031 3350 3393 
Q 2963 3756 2222 3756 
L 1791 3756 
z
M 588 4666 
L 1856 4666 
Q 2919 4666 3439 4514 
Q 3959 4363 4331 4000 
Q 4659 3684 4818 3271 
Q 4978 2859 4978 2338 
Q 4978 1809 4818 1395 
Q 4659 981 4331 666 
Q 3956 303 3431 151 
Q 2906 0 1856 0 
L 588 0 
L 588 4666 
z
" transform="scale(0.015625)"/>
      <path id="DejaVuSans-Bold-4b" d="M 4056 2131 
L 4056 0 
L 2931 0 
L 2931 347 
L 2931 1625 
Q 2931 2084 2911 2256 
Q 2891 2428 2841 2509 
Q 2775 2619 2662 2680 
Q 2550 2741 2406 2741 
Q 2056 2741 1856 2470 
Q 1656 2200 1656 1722 
L 1656 0 
L 538 0 
L 538 4863 
L 1656 4863 
L 1656 2988 
Q 1909 3294 2193 3439 
Q 2478 3584 2822 3584 
Q 3428 3584 3742 3212 
Q 4056 2841 4056 2131 
z
" transform="scale(0.015625)"/>
     </defs>
     <use xlink:href="#DejaVuSans-Bold-dcd"/>
     <use xlink:href="#DejaVuSans-Bold-3" transform="translate(84.671875 0)"/>
     <use xlink:href="#DejaVuSans-Bold-33" transform="translate(119.484375 0)"/>
     <use xlink:href="#DejaVuSans-Bold-2a" transform="translate(192.78125 0)"/>
     <use xlink:href="#DejaVuSans-Bold-27" transform="translate(274.859375 0)"/>
     <use xlink:href="#DejaVuSans-Bold-3" transform="translate(357.875 0)"/>
     <use xlink:href="#DejaVuSans-Bold-52" transform="translate(392.6875 0)"/>
     <use xlink:href="#DejaVuSans-Bold-51" transform="translate(461.390625 0)"/>
     <use xlink:href="#DejaVuSans-Bold-3" transform="translate(532.578125 0)"/>
     <use xlink:href="#DejaVuSans-Bold-57" transform="translate(567.390625 0)"/>
     <use xlink:href="#DejaVuSans-Bold-4b" transform="translate(615.1875 0)"/>
     <use xlink:href="#DejaVuSans-Bold-48" transform="translate(686.375 0)"/>
     <use xlink:href="#DejaVuSans-Bold-3" transform="translate(754.203125 0)"/>
     <use xlink:href="#DejaVuSans-Bold-56" transform="translate(789.015625 0)"/>
     <use xlink:href="#DejaVuSans-Bold-58" transform="translate(848.53125 0)"/>
     <use xlink:href="#DejaVuSans-Bold-55" transform="translate(919.71875 0)"/>
     <use xlink:href="#DejaVuSans-Bold-55" transform="translate(969.03125 0)"/>
     <use xlink:href="#DejaVuSans-Bold-52" transform="translate(1018.34375 0)"/>
     <use xlink:href="#DejaVuSans-Bold-4a" transform="translate(1087.046875 0)"/>
     <use xlink:href="#DejaVuSans-Bold-44" transform="translate(1158.625 0)"/>
     <use xlink:href="#DejaVuSans-Bold-57" transform="translate(1226.109375 0)"/>
     <use xlink:href="#DejaVuSans-Bold-48" transform="translate(1273.90625 0)"/>
    </g>
   </g>
   <g id="text_7">
    <!--     white-box · 0 victim queries -->
    <g style="fill: #94a3b8" transform="translate(466.875 224.26875) scale(0.105 -0.105)">
     <defs>
      <path id="DejaVuSans-3" transform="scale(0.015625)"/>
      <path id="DejaVuSans-5a" d="M 269 3500 
L 844 3500 
L 1563 769 
L 2278 3500 
L 2956 3500 
L 3675 769 
L 4391 3500 
L 4966 3500 
L 4050 0 
L 3372 0 
L 2619 2869 
L 1863 0 
L 1184 0 
L 269 3500 
z
" transform="scale(0.015625)"/>
      <path id="DejaVuSans-4b" d="M 3513 2113 
L 3513 0 
L 2938 0 
L 2938 2094 
Q 2938 2591 2744 2837 
Q 2550 3084 2163 3084 
Q 1697 3084 1428 2787 
Q 1159 2491 1159 1978 
L 1159 0 
L 581 0 
L 581 4863 
L 1159 4863 
L 1159 2956 
Q 1366 3272 1645 3428 
Q 1925 3584 2291 3584 
Q 2894 3584 3203 3211 
Q 3513 2838 3513 2113 
z
" transform="scale(0.015625)"/>
      <path id="DejaVuSans-4c" d="M 603 3500 
L 1178 3500 
L 1178 0 
L 603 0 
L 603 3500 
z
M 603 4863 
L 1178 4863 
L 1178 4134 
L 603 4134 
L 603 4863 
z
" transform="scale(0.015625)"/>
      <path id="DejaVuSans-57" d="M 1172 4494 
L 1172 3500 
L 2356 3500 
L 2356 3053 
L 1172 3053 
L 1172 1153 
Q 1172 725 1289 603 
Q 1406 481 1766 481 
L 2356 481 
L 2356 0 
L 1766 0 
Q 1100 0 847 248 
Q 594 497 594 1153 
L 594 3053 
L 172 3053 
L 172 3500 
L 594 3500 
L 594 4494 
L 1172 4494 
z
" transform="scale(0.015625)"/>
      <path id="DejaVuSans-48" d="M 3597 1894 
L 3597 1613 
L 953 1613 
Q 991 1019 1311 708 
Q 1631 397 2203 397 
Q 2534 397 2845 478 
Q 3156 559 3463 722 
L 3463 178 
Q 3153 47 2828 -22 
Q 2503 -91 2169 -91 
Q 1331 -91 842 396 
Q 353 884 353 1716 
Q 353 2575 817 3079 
Q 1281 3584 2069 3584 
Q 2775 3584 3186 3129 
Q 3597 2675 3597 1894 
z
M 3022 2063 
Q 3016 2534 2758 2815 
Q 2500 3097 2075 3097 
Q 1594 3097 1305 2825 
Q 1016 2553 972 2059 
L 3022 2063 
z
" transform="scale(0.015625)"/>
      <path id="DejaVuSans-10" d="M 313 2009 
L 1997 2009 
L 1997 1497 
L 313 1497 
L 313 2009 
z
" transform="scale(0.015625)"/>
      <path id="DejaVuSans-45" d="M 3116 1747 
Q 3116 2381 2855 2742 
Q 2594 3103 2138 3103 
Q 1681 3103 1420 2742 
Q 1159 2381 1159 1747 
Q 1159 1113 1420 752 
Q 1681 391 2138 391 
Q 2594 391 2855 752 
Q 3116 1113 3116 1747 
z
M 1159 2969 
Q 1341 3281 1617 3432 
Q 1894 3584 2278 3584 
Q 2916 3584 3314 3078 
Q 3713 2572 3713 1747 
Q 3713 922 3314 415 
Q 2916 -91 2278 -91 
Q 1894 -91 1617 61 
Q 1341 213 1159 525 
L 1159 0 
L 581 0 
L 581 4863 
L 1159 4863 
L 1159 2969 
z
" transform="scale(0.015625)"/>
      <path id="DejaVuSans-52" d="M 1959 3097 
Q 1497 3097 1228 2736 
Q 959 2375 959 1747 
Q 959 1119 1226 758 
Q 1494 397 1959 397 
Q 2419 397 2687 759 
Q 2956 1122 2956 1747 
Q 2956 2369 2687 2733 
Q 2419 3097 1959 3097 
z
M 1959 3584 
Q 2709 3584 3137 3096 
Q 3566 2609 3566 1747 
Q 3566 888 3137 398 
Q 2709 -91 1959 -91 
Q 1206 -91 779 398 
Q 353 888 353 1747 
Q 353 2609 779 3096 
Q 1206 3584 1959 3584 
z
" transform="scale(0.015625)"/>
      <path id="DejaVuSans-5b" d="M 3513 3500 
L 2247 1797 
L 3578 0 
L 2900 0 
L 1881 1375 
L 863 0 
L 184 0 
L 1544 1831 
L 300 3500 
L 978 3500 
L 1906 2253 
L 2834 3500 
L 3513 3500 
z
" transform="scale(0.015625)"/>
      <path id="DejaVuSans-79" d="M 684 2619 
L 1344 2619 
L 1344 1825 
L 684 1825 
L 684 2619 
z
" transform="scale(0.015625)"/>
      <path id="DejaVuSans-59" d="M 191 3500 
L 800 3500 
L 1894 563 
L 2988 3500 
L 3597 3500 
L 2284 0 
L 1503 0 
L 191 3500 
z
" transform="scale(0.015625)"/>
      <path id="DejaVuSans-46" d="M 3122 3366 
L 3122 2828 
Q 2878 2963 2633 3030 
Q 2388 3097 2138 3097 
Q 1578 3097 1268 2742 
Q 959 2388 959 1747 
Q 959 1106 1268 751 
Q 1578 397 2138 397 
Q 2388 397 2633 464 
Q 2878 531 3122 666 
L 3122 134 
Q 2881 22 2623 -34 
Q 2366 -91 2075 -91 
Q 1284 -91 818 406 
Q 353 903 353 1747 
Q 353 2603 823 3093 
Q 1294 3584 2113 3584 
Q 2378 3584 2631 3529 
Q 2884 3475 3122 3366 
z
" transform="scale(0.015625)"/>
      <path id="DejaVuSans-50" d="M 3328 2828 
Q 3544 3216 3844 3400 
Q 4144 3584 4550 3584 
Q 5097 3584 5394 3201 
Q 5691 2819 5691 2113 
L 5691 0 
L 5113 0 
L 5113 2094 
Q 5113 2597 4934 2840 
Q 4756 3084 4391 3084 
Q 3944 3084 3684 2787 
Q 3425 2491 3425 1978 
L 3425 0 
L 2847 0 
L 2847 2094 
Q 2847 2600 2669 2842 
Q 2491 3084 2119 3084 
Q 1678 3084 1418 2786 
Q 1159 2488 1159 1978 
L 1159 0 
L 581 0 
L 581 3500 
L 1159 3500 
L 1159 2956 
Q 1356 3278 1631 3431 
Q 1906 3584 2284 3584 
Q 2666 3584 2933 3390 
Q 3200 3197 3328 2828 
z
" transform="scale(0.015625)"/>
      <path id="DejaVuSans-54" d="M 947 1747 
Q 947 1113 1208 752 
Q 1469 391 1925 391 
Q 2381 391 2643 752 
Q 2906 1113 2906 1747 
Q 2906 2381 2643 2742 
Q 2381 3103 1925 3103 
Q 1469 3103 1208 2742 
Q 947 2381 947 1747 
z
M 2906 525 
Q 2725 213 2448 61 
Q 2172 -91 1784 -91 
Q 1150 -91 751 415 
Q 353 922 353 1747 
Q 353 2572 751 3078 
Q 1150 3584 1784 3584 
Q 2172 3584 2448 3432 
Q 2725 3281 2906 2969 
L 2906 3500 
L 3481 3500 
L 3481 -1331 
L 2906 -1331 
L 2906 525 
z
" transform="scale(0.015625)"/>
      <path id="DejaVuSans-58" d="M 544 1381 
L 544 3500 
L 1119 3500 
L 1119 1403 
Q 1119 906 1312 657 
Q 1506 409 1894 409 
Q 2359 409 2629 706 
Q 2900 1003 2900 1516 
L 2900 3500 
L 3475 3500 
L 3475 0 
L 2900 0 
L 2900 538 
Q 2691 219 2414 64 
Q 2138 -91 1772 -91 
Q 1169 -91 856 284 
Q 544 659 544 1381 
z
M 1991 3584 
L 1991 3584 
z
" transform="scale(0.015625)"/>
      <path id="DejaVuSans-55" d="M 2631 2963 
Q 2534 3019 2420 3045 
Q 2306 3072 2169 3072 
Q 1681 3072 1420 2755 
Q 1159 2438 1159 1844 
L 1159 0 
L 581 0 
L 581 3500 
L 1159 3500 
L 1159 2956 
Q 1341 3275 1631 3429 
Q 1922 3584 2338 3584 
Q 2397 3584 2469 3576 
Q 2541 3569 2628 3553 
L 2631 2963 
z
" transform="scale(0.015625)"/>
      <path id="DejaVuSans-56" d="M 2834 3397 
L 2834 2853 
Q 2591 2978 2328 3040 
Q 2066 3103 1784 3103 
Q 1356 3103 1142 2972 
Q 928 2841 928 2578 
Q 928 2378 1081 2264 
Q 1234 2150 1697 2047 
L 1894 2003 
Q 2506 1872 2764 1633 
Q 3022 1394 3022 966 
Q 3022 478 2636 193 
Q 2250 -91 1575 -91 
Q 1294 -91 989 -36 
Q 684 19 347 128 
L 347 722 
Q 666 556 975 473 
Q 1284 391 1588 391 
Q 1994 391 2212 530 
Q 2431 669 2431 922 
Q 2431 1156 2273 1281 
Q 2116 1406 1581 1522 
L 1381 1569 
Q 847 1681 609 1914 
Q 372 2147 372 2553 
Q 372 3047 722 3315 
Q 1072 3584 1716 3584 
Q 2034 3584 2315 3537 
Q 2597 3491 2834 3397 
z
" transform="scale(0.015625)"/>
     </defs>
     <use xlink:href="#DejaVuSans-3"/>
     <use xlink:href="#DejaVuSans-3" transform="translate(31.78125 0)"/>
     <use xlink:href="#DejaVuSans-3" transform="translate(63.5625 0)"/>
     <use xlink:href="#DejaVuSans-3" transform="translate(95.34375 0)"/>
     <use xlink:href="#DejaVuSans-5a" transform="translate(127.125 0)"/>
     <use xlink:href="#DejaVuSans-4b" transform="translate(208.90625 0)"/>
     <use xlink:href="#DejaVuSans-4c" transform="translate(272.28125 0)"/>
     <use xlink:href="#DejaVuSans-57" transform="translate(300.0625 0)"/>
     <use xlink:href="#DejaVuSans-48" transform="translate(339.265625 0)"/>
     <use xlink:href="#DejaVuSans-10" transform="translate(400.796875 0)"/>
     <use xlink:href="#DejaVuSans-45" transform="translate(436.875 0)"/>
     <use xlink:href="#DejaVuSans-52" transform="translate(500.359375 0)"/>
     <use xlink:href="#DejaVuSans-5b" transform="translate(558.46875 0)"/>
     <use xlink:href="#DejaVuSans-3" transform="translate(617.65625 0)"/>
     <use xlink:href="#DejaVuSans-79" transform="translate(649.4375 0)"/>
     <use xlink:href="#DejaVuSans-3" transform="translate(681.21875 0)"/>
     <use xlink:href="#DejaVuSans-13" transform="translate(713 0)"/>
     <use xlink:href="#DejaVuSans-3" transform="translate(776.625 0)"/>
     <use xlink:href="#DejaVuSans-59" transform="translate(808.40625 0)"/>
     <use xlink:href="#DejaVuSans-4c" transform="translate(867.59375 0)"/>
     <use xlink:href="#DejaVuSans-46" transform="translate(895.375 0)"/>
     <use xlink:href="#DejaVuSans-57" transform="translate(950.359375 0)"/>
     <use xlink:href="#DejaVuSans-4c" transform="translate(989.5625 0)"/>
     <use xlink:href="#DejaVuSans-50" transform="translate(1017.34375 0)"/>
     <use xlink:href="#DejaVuSans-3" transform="translate(1114.75 0)"/>
     <use xlink:href="#DejaVuSans-54" transform="translate(1146.53125 0)"/>
     <use xlink:href="#DejaVuSans-58" transform="translate(1210.015625 0)"/>
     <use xlink:href="#DejaVuSans-48" transform="translate(1273.390625 0)"/>
     <use xlink:href="#DejaVuSans-55" transform="translate(1334.921875 0)"/>
     <use xlink:href="#DejaVuSans-4c" transform="translate(1376.03125 0)"/>
     <use xlink:href="#DejaVuSans-48" transform="translate(1403.8125 0)"/>
     <use xlink:href="#DejaVuSans-56" transform="translate(1465.34375 0)"/>
    </g>
   </g>
   <g id="text_8">
    <!-- ② grow the budget ε -->
    <g style="fill: #fbbf24" transform="translate(466.875 265.12875) scale(0.12 -0.12)">
     <defs>
      <path id="DejaVuSans-Bold-dce" d="M 5044 2241 
Q 5044 1269 4361 587 
Q 3678 -94 2706 -94 
Q 1741 -94 1058 587 
Q 375 1269 375 2241 
Q 375 2847 689 3409 
Q 1003 3972 1564 4273 
Q 2125 4575 2706 4575 
Q 3297 4575 3858 4273 
Q 4419 3972 4731 3412 
Q 5044 2853 5044 2241 
z
M 2706 4325 
Q 2188 4325 1686 4056 
Q 1184 3788 904 3284 
Q 625 2781 625 2241 
Q 625 1375 1236 765 
Q 1847 156 2706 156 
Q 3572 156 4183 765 
Q 4794 1375 4794 2241 
Q 4794 2788 4516 3288 
Q 4238 3788 3736 4056 
Q 3234 4325 2706 4325 
z
M 2747 1578 
L 3994 1578 
L 3994 922 
L 1597 922 
L 1597 1541 
L 2744 2463 
Q 2888 2578 2953 2684 
Q 3019 2791 3019 2906 
Q 3019 3078 2895 3179 
Q 2772 3281 2563 3281 
Q 2394 3281 2183 3212 
Q 1972 3144 1606 2934 
L 1606 3713 
Q 1931 3813 2200 3855 
Q 2469 3897 2728 3897 
Q 3309 3897 3640 3658 
Q 3972 3419 3972 2997 
Q 3972 2753 3834 2543 
Q 3697 2334 3272 1997 
L 2747 1578 
z
" transform="scale(0.015625)"/>
      <path id="DejaVuSans-Bold-5a" d="M 225 3500 
L 1313 3500 
L 1900 1088 
L 2491 3500 
L 3425 3500 
L 4013 1113 
L 4603 3500 
L 5691 3500 
L 4769 0 
L 3547 0 
L 2956 2406 
L 2369 0 
L 1147 0 
L 225 3500 
z
" transform="scale(0.015625)"/>
     </defs>
     <use xlink:href="#DejaVuSans-Bold-dce"/>
     <use xlink:href="#DejaVuSans-Bold-3" transform="translate(84.671875 0)"/>
     <use xlink:href="#DejaVuSans-Bold-4a" transform="translate(119.484375 0)"/>
     <use xlink:href="#DejaVuSans-Bold-55" transform="translate(191.0625 0)"/>
     <use xlink:href="#DejaVuSans-Bold-52" transform="translate(240.375 0)"/>
     <use xlink:href="#DejaVuSans-Bold-5a" transform="translate(309.078125 0)"/>
     <use xlink:href="#DejaVuSans-Bold-3" transform="translate(401.46875 0)"/>
     <use xlink:href="#DejaVuSans-Bold-57" transform="translate(436.28125 0)"/>
     <use xlink:href="#DejaVuSans-Bold-4b" transform="translate(484.078125 0)"/>
     <use xlink:href="#DejaVuSans-Bold-48" transform="translate(555.265625 0)"/>
     <use xlink:href="#DejaVuSans-Bold-3" transform="translate(623.09375 0)"/>
     <use xlink:href="#DejaVuSans-Bold-45" transform="translate(657.90625 0)"/>
     <use xlink:href="#DejaVuSans-Bold-58" transform="translate(729.484375 0)"/>
     <use xlink:href="#DejaVuSans-Bold-47" transform="translate(800.671875 0)"/>
     <use xlink:href="#DejaVuSans-Bold-4a" transform="translate(872.25 0)"/>
     <use xlink:href="#DejaVuSans-Bold-48" transform="translate(943.828125 0)"/>
     <use xlink:href="#DejaVuSans-Bold-57" transform="translate(1011.65625 0)"/>
     <use xlink:href="#DejaVuSans-Bold-3" transform="translate(1059.453125 0)"/>
     <use xlink:href="#DejaVuSans-Bold-349" transform="translate(1094.265625 0)"/>
    </g>
   </g>
   <g id="text_9">
    <!--     0.01 … 0.25  ($L_\infty$ boxes) -->
    <g style="fill: #94a3b8" transform="translate(466.875 293.22) scale(0.105 -0.105)">
     <defs>
      <path id="DejaVuSans-11" d="M 684 794 
L 1344 794 
L 1344 0 
L 684 0 
L 684 794 
z
" transform="scale(0.015625)"/>
      <path id="DejaVuSans-14" d="M 794 531 
L 1825 531 
L 1825 4091 
L 703 3866 
L 703 4441 
L 1819 4666 
L 2450 4666 
L 2450 531 
L 3481 531 
L 3481 0 
L 794 0 
L 794 531 
z
" transform="scale(0.015625)"/>
      <path id="DejaVuSans-b08" d="M 2869 794 
L 3531 794 
L 3531 0 
L 2869 0 
L 2869 794 
z
M 4997 794 
L 5663 794 
L 5663 0 
L 4997 0 
L 4997 794 
z
M 738 794 
L 1403 794 
L 1403 0 
L 738 0 
L 738 794 
z
" transform="scale(0.015625)"/>
      <path id="DejaVuSans-15" d="M 1228 531 
L 3431 531 
L 3431 0 
L 469 0 
L 469 531 
Q 828 903 1448 1529 
Q 2069 2156 2228 2338 
Q 2531 2678 2651 2914 
Q 2772 3150 2772 3378 
Q 2772 3750 2511 3984 
Q 2250 4219 1831 4219 
Q 1534 4219 1204 4116 
Q 875 4013 500 3803 
L 500 4441 
Q 881 4594 1212 4672 
Q 1544 4750 1819 4750 
Q 2544 4750 2975 4387 
Q 3406 4025 3406 3419 
Q 3406 3131 3298 2873 
Q 3191 2616 2906 2266 
Q 2828 2175 2409 1742 
Q 1991 1309 1228 531 
z
" transform="scale(0.015625)"/>
      <path id="DejaVuSans-18" d="M 691 4666 
L 3169 4666 
L 3169 4134 
L 1269 4134 
L 1269 2991 
Q 1406 3038 1543 3061 
Q 1681 3084 1819 3084 
Q 2600 3084 3056 2656 
Q 3513 2228 3513 1497 
Q 3513 744 3044 326 
Q 2575 -91 1722 -91 
Q 1428 -91 1123 -41 
Q 819 9 494 109 
L 494 744 
Q 775 591 1075 516 
Q 1375 441 1709 441 
Q 2250 441 2565 725 
Q 2881 1009 2881 1497 
Q 2881 1984 2565 2268 
Q 2250 2553 1709 2553 
Q 1456 2553 1204 2497 
Q 953 2441 691 2322 
L 691 4666 
z
" transform="scale(0.015625)"/>
      <path id="DejaVuSans-b" d="M 1984 4856 
Q 1566 4138 1362 3434 
Q 1159 2731 1159 2009 
Q 1159 1288 1364 580 
Q 1569 -128 1984 -844 
L 1484 -844 
Q 1016 -109 783 600 
Q 550 1309 550 2009 
Q 550 2706 781 3412 
Q 1013 4119 1484 4856 
L 1984 4856 
z
" transform="scale(0.015625)"/>
      <path id="DejaVuSans-Oblique-2f" d="M 1075 4666 
L 1709 4666 
L 909 525 
L 3181 525 
L 3078 0 
L 172 0 
L 1075 4666 
z
" transform="scale(0.015625)"/>
      <path id="DejaVuSans-ca8" d="M 2916 1091 
Q 2819 1203 2666 1466 
Q 2456 1091 2272 925 
Q 2041 725 1681 725 
Q 1259 725 981 1041 
Q 688 1372 688 1919 
Q 688 2444 981 2800 
Q 1244 3116 1688 3116 
Q 1916 3116 2084 3022 
Q 2281 2919 2416 2741 
Q 2541 2581 2666 2366 
Q 2875 2741 3059 2906 
Q 3291 3106 3650 3106 
Q 4072 3106 4350 2791 
Q 4644 2459 4644 1913 
Q 4644 1388 4350 1031 
Q 4088 716 3644 716 
Q 3416 716 3247 809 
Q 3078 894 2916 1091 
z
M 1647 1134 
Q 2163 1134 2472 1884 
Q 2075 2703 1647 2703 
Q 1334 2703 1175 2478 
Q 1003 2238 1003 1919 
Q 1003 1569 1175 1353 
Q 1350 1134 1647 1134 
z
M 3684 2697 
Q 3219 2697 2859 1947 
Q 3253 1128 3684 1128 
Q 3997 1128 4156 1353 
Q 4328 1594 4328 1913 
Q 4328 2263 4156 2478 
Q 3981 2697 3684 2697 
z
" transform="scale(0.015625)"/>
      <path id="DejaVuSans-c" d="M 513 4856 
L 1013 4856 
Q 1481 4119 1714 3412 
Q 1947 2706 1947 2009 
Q 1947 1309 1714 600 
Q 1481 -109 1013 -844 
L 513 -844 
Q 928 -128 1133 580 
Q 1338 1288 1338 2009 
Q 1338 2731 1133 3434 
Q 928 4138 513 4856 
z
" transform="scale(0.015625)"/>
     </defs>
     <use xlink:href="#DejaVuSans-3" transform="translate(0 0.015625)"/>
     <use xlink:href="#DejaVuSans-3" transform="translate(31.787109 0.015625)"/>
     <use xlink:href="#DejaVuSans-3" transform="translate(63.574219 0.015625)"/>
     <use xlink:href="#DejaVuSans-3" transform="translate(95.361328 0.015625)"/>
     <use xlink:href="#DejaVuSans-13" transform="translate(127.148438 0.015625)"/>
     <use xlink:href="#DejaVuSans-11" transform="translate(190.771484 0.015625)"/>
     <use xlink:href="#DejaVuSans-13" transform="translate(222.558594 0.015625)"/>
     <use xlink:href="#DejaVuSans-14" transform="translate(286.181641 0.015625)"/>
     <use xlink:href="#DejaVuSans-3" transform="translate(349.804688 0.015625)"/>
     <use xlink:href="#DejaVuSans-b08" transform="translate(381.591797 0.015625)"/>
     <use xlink:href="#DejaVuSans-3" transform="translate(481.591797 0.015625)"/>
     <use xlink:href="#DejaVuSans-13" transform="translate(513.378906 0.015625)"/>
     <use xlink:href="#DejaVuSans-11" transform="translate(577.001953 0.015625)"/>
     <use xlink:href="#DejaVuSans-15" transform="translate(608.789062 0.015625)"/>
     <use xlink:href="#DejaVuSans-18" transform="translate(672.412109 0.015625)"/>
     <use xlink:href="#DejaVuSans-3" transform="translate(736.035156 0.015625)"/>
     <use xlink:href="#DejaVuSans-3" transform="translate(767.822266 0.015625)"/>
     <use xlink:href="#DejaVuSans-b" transform="translate(799.609375 0.015625)"/>
     <use xlink:href="#DejaVuSans-Oblique-2f" transform="translate(838.623047 0.015625)"/>
     <use xlink:href="#DejaVuSans-ca8" transform="translate(894.335938 -14.984326) scale(0.7)"/>
     <use xlink:href="#DejaVuSans-3" transform="translate(955.380859 0.015625)"/>
     <use xlink:href="#DejaVuSans-45" transform="translate(987.167969 0.015625)"/>
     <use xlink:href="#DejaVuSans-52" transform="translate(1050.644531 0.015625)"/>
     <use xlink:href="#DejaVuSans-5b" transform="translate(1108.826172 0.015625)"/>
     <use xlink:href="#DejaVuSans-48" transform="translate(1165.005859 0.015625)"/>
     <use xlink:href="#DejaVuSans-56" transform="translate(1226.529297 0.015625)"/>
     <use xlink:href="#DejaVuSans-c" transform="translate(1278.628906 0.015625)"/>
    </g>
   </g>
   <g id="text_10">
    <!-- ③ stop at the smallest ε -->
    <g style="fill: #f87171" transform="translate(466.875 334.08) scale(0.12 -0.12)">
     <defs>
      <path id="DejaVuSans-Bold-dcf" d="M 5044 2241 
Q 5044 1269 4361 587 
Q 3678 -94 2706 -94 
Q 1741 -94 1058 587 
Q 375 1269 375 2241 
Q 375 2847 689 3409 
Q 1003 3972 1564 4273 
Q 2125 4575 2706 4575 
Q 3297 4575 3858 4273 
Q 4419 3972 4731 3412 
Q 5044 2853 5044 2241 
z
M 2706 4325 
Q 2188 4325 1686 4056 
Q 1184 3788 904 3284 
Q 625 2781 625 2241 
Q 625 1375 1236 765 
Q 1847 156 2706 156 
Q 3572 156 4183 765 
Q 4794 1375 4794 2241 
Q 4794 2788 4516 3288 
Q 4238 3788 3736 4056 
Q 3234 4325 2706 4325 
z
M 3622 2494 
Q 3700 2475 3878 2276 
Q 4056 2078 4056 1781 
Q 4056 1334 3679 1101 
Q 3303 869 2603 869 
Q 2359 869 2115 905 
Q 1872 941 1578 1025 
L 1578 1734 
Q 1909 1584 2120 1534 
Q 2331 1484 2531 1484 
Q 2822 1484 2964 1568 
Q 3106 1653 3106 1806 
Q 3106 1966 2961 2048 
Q 2816 2131 2503 2131 
L 2106 2131 
L 2106 2722 
L 2519 2722 
Q 2794 2722 2914 2792 
Q 3034 2863 3034 3006 
Q 3034 3134 2917 3207 
Q 2800 3281 2569 3281 
Q 2384 3281 2196 3242 
Q 2009 3203 1713 3088 
L 1713 3759 
Q 2006 3838 2243 3867 
Q 2481 3897 2709 3897 
Q 3334 3897 3659 3703 
Q 3984 3509 3984 3119 
Q 3984 2853 3826 2678 
Q 3669 2503 3622 2494 
z
" transform="scale(0.015625)"/>
      <path id="DejaVuSans-Bold-53" d="M 1656 506 
L 1656 -1331 
L 538 -1331 
L 538 3500 
L 1656 3500 
L 1656 2988 
Q 1888 3294 2169 3439 
Q 2450 3584 2816 3584 
Q 3463 3584 3878 3070 
Q 4294 2556 4294 1747 
Q 4294 938 3878 423 
Q 3463 -91 2816 -91 
Q 2450 -91 2169 54 
Q 1888 200 1656 506 
z
M 2400 2772 
Q 2041 2772 1848 2508 
Q 1656 2244 1656 1747 
Q 1656 1250 1848 986 
Q 2041 722 2400 722 
Q 2759 722 2948 984 
Q 3138 1247 3138 1747 
Q 3138 2247 2948 2509 
Q 2759 2772 2400 2772 
z
" transform="scale(0.015625)"/>
      <path id="DejaVuSans-Bold-4f" d="M 538 4863 
L 1656 4863 
L 1656 0 
L 538 0 
L 538 4863 
z
" transform="scale(0.015625)"/>
     </defs>
     <use xlink:href="#DejaVuSans-Bold-dcf"/>
     <use xlink:href="#DejaVuSans-Bold-3" transform="translate(84.671875 0)"/>
     <use xlink:href="#DejaVuSans-Bold-56" transform="translate(119.484375 0)"/>
     <use xlink:href="#DejaVuSans-Bold-57" transform="translate(179 0)"/>
     <use xlink:href="#DejaVuSans-Bold-52" transform="translate(226.796875 0)"/>
     <use xlink:href="#DejaVuSans-Bold-53" transform="translate(295.5 0)"/>
     <use xlink:href="#DejaVuSans-Bold-3" transform="translate(367.078125 0)"/>
     <use xlink:href="#DejaVuSans-Bold-44" transform="translate(401.890625 0)"/>
     <use xlink:href="#DejaVuSans-Bold-57" transform="translate(469.375 0)"/>
     <use xlink:href="#DejaVuSans-Bold-3" transform="translate(517.171875 0)"/>
     <use xlink:href="#DejaVuSans-Bold-57" transform="translate(551.984375 0)"/>
     <use xlink:href="#DejaVuSans-Bold-4b" transform="translate(599.78125 0)"/>
     <use xlink:href="#DejaVuSans-Bold-48" transform="translate(670.96875 0)"/>
     <use xlink:href="#DejaVuSans-Bold-3" transform="translate(738.796875 0)"/>
     <use xlink:href="#DejaVuSans-Bold-56" transform="translate(773.609375 0)"/>
     <use xlink:href="#DejaVuSans-Bold-50" transform="translate(833.125 0)"/>
     <use xlink:href="#DejaVuSans-Bold-44" transform="translate(937.328125 0)"/>
     <use xlink:href="#DejaVuSans-Bold-4f" transform="translate(1004.8125 0)"/>
     <use xlink:href="#DejaVuSans-Bold-4f" transform="translate(1039.09375 0)"/>
     <use xlink:href="#DejaVuSans-Bold-48" transform="translate(1073.375 0)"/>
     <use xlink:href="#DejaVuSans-Bold-56" transform="translate(1141.203125 0)"/>
     <use xlink:href="#DejaVuSans-Bold-57" transform="translate(1200.71875 0)"/>
     <use xlink:href="#DejaVuSans-Bold-3" transform="translate(1248.515625 0)"/>
     <use xlink:href="#DejaVuSans-Bold-349" transform="translate(1283.328125 0)"/>
    </g>
   </g>
   <g id="text_11">
    <!--     that flips the victim -->
    <g style="fill: #94a3b8" transform="translate(466.875 362.17125) scale(0.105 -0.105)">
     <defs>
      <path id="DejaVuSans-44" d="M 2194 1759 
Q 1497 1759 1228 1600 
Q 959 1441 959 1056 
Q 959 750 1161 570 
Q 1363 391 1709 391 
Q 2188 391 2477 730 
Q 2766 1069 2766 1631 
L 2766 1759 
L 2194 1759 
z
M 3341 1997 
L 3341 0 
L 2766 0 
L 2766 531 
Q 2569 213 2275 61 
Q 1981 -91 1556 -91 
Q 1019 -91 701 211 
Q 384 513 384 1019 
Q 384 1609 779 1909 
Q 1175 2209 1959 2209 
L 2766 2209 
L 2766 2266 
Q 2766 2663 2505 2880 
Q 2244 3097 1772 3097 
Q 1472 3097 1187 3025 
Q 903 2953 641 2809 
L 641 3341 
Q 956 3463 1253 3523 
Q 1550 3584 1831 3584 
Q 2591 3584 2966 3190 
Q 3341 2797 3341 1997 
z
" transform="scale(0.015625)"/>
      <path id="DejaVuSans-13b0" d="M 1831 4863 
L 3431 4863 
L 3431 0 
L 2853 0 
L 2853 4384 
L 1825 4384 
Q 1516 4384 1395 4259 
Q 1275 4134 1275 3809 
L 1275 3500 
L 2222 3500 
L 2222 3053 
L 1275 3053 
L 1275 0 
L 697 0 
L 697 3053 
L 147 3053 
L 147 3500 
L 697 3500 
L 697 3744 
Q 697 4328 969 4595 
Q 1241 4863 1831 4863 
z
" transform="scale(0.015625)"/>
      <path id="DejaVuSans-53" d="M 1159 525 
L 1159 -1331 
L 581 -1331 
L 581 3500 
L 1159 3500 
L 1159 2969 
Q 1341 3281 1617 3432 
Q 1894 3584 2278 3584 
Q 2916 3584 3314 3078 
Q 3713 2572 3713 1747 
Q 3713 922 3314 415 
Q 2916 -91 2278 -91 
Q 1894 -91 1617 61 
Q 1341 213 1159 525 
z
M 3116 1747 
Q 3116 2381 2855 2742 
Q 2594 3103 2138 3103 
Q 1681 3103 1420 2742 
Q 1159 2381 1159 1747 
Q 1159 1113 1420 752 
Q 1681 391 2138 391 
Q 2594 391 2855 752 
Q 3116 1113 3116 1747 
z
" transform="scale(0.015625)"/>
     </defs>
     <use xlink:href="#DejaVuSans-3"/>
     <use xlink:href="#DejaVuSans-3" transform="translate(31.78125 0)"/>
     <use xlink:href="#DejaVuSans-3" transform="translate(63.5625 0)"/>
     <use xlink:href="#DejaVuSans-3" transform="translate(95.34375 0)"/>
     <use xlink:href="#DejaVuSans-57" transform="translate(127.125 0)"/>
     <use xlink:href="#DejaVuSans-4b" transform="translate(166.328125 0)"/>
     <use xlink:href="#DejaVuSans-44" transform="translate(229.703125 0)"/>
     <use xlink:href="#DejaVuSans-57" transform="translate(290.984375 0)"/>
     <use xlink:href="#DejaVuSans-3" transform="translate(330.1875 0)"/>
     <use xlink:href="#DejaVuSans-13b0" transform="translate(361.96875 0)"/>
     <use xlink:href="#DejaVuSans-4c" transform="translate(424.953125 0)"/>
     <use xlink:href="#DejaVuSans-53" transform="translate(452.734375 0)"/>
     <use xlink:href="#DejaVuSans-56" transform="translate(516.21875 0)"/>
     <use xlink:href="#DejaVuSans-3" transform="translate(568.3125 0)"/>
     <use xlink:href="#DejaVuSans-57" transform="translate(600.09375 0)"/>
     <use xlink:href="#DejaVuSans-4b" transform="translate(639.296875 0)"/>
     <use xlink:href="#DejaVuSans-48" transform="translate(702.671875 0)"/>
     <use xlink:href="#DejaVuSans-3" transform="translate(764.203125 0)"/>
     <use xlink:href="#DejaVuSans-59" transform="translate(795.984375 0)"/>
     <use xlink:href="#DejaVuSans-4c" transform="translate(855.171875 0)"/>
     <use xlink:href="#DejaVuSans-46" transform="translate(882.953125 0)"/>
     <use xlink:href="#DejaVuSans-57" transform="translate(937.9375 0)"/>
     <use xlink:href="#DejaVuSans-4c" transform="translate(977.140625 0)"/>
     <use xlink:href="#DejaVuSans-50" transform="translate(1004.921875 0)"/>
    </g>
   </g>
   <g id="PathCollection_1">
    <defs>
     <path id="m2426eb6902" d="M 0 4.1833 
C 1.109424 4.1833 2.173559 3.742521 2.95804 2.95804 
C 3.742521 2.173559 4.1833 1.109424 4.1833 0 
C 4.1833 -1.109424 3.742521 -2.173559 2.95804 -2.95804 
C 2.173559 -3.742521 1.109424 -4.1833 0 -4.1833 
C -1.109424 -4.1833 -2.173559 -3.742521 -2.95804 -2.95804 
C -3.742521 -2.173559 -4.1833 -1.109424 -4.1833 0 
C -4.1833 1.109424 -3.742521 2.173559 -2.95804 2.95804 
C -2.173559 3.742521 -1.109424 4.1833 0 4.1833 
z
" style="stroke: #0b1020; stroke-width: 1.5"/>
    </defs>
    <g clip-path="url(#p01c11d4c19)">
     <use xlink:href="#m2426eb6902" x="267.6825" y="267.6825" style="fill: #94a3b8; stroke: #0b1020; stroke-width: 1.5"/>
    </g>
   </g>
   <g id="PathCollection_2">
    <g clip-path="url(#p01c11d4c19)">
     <use xlink:href="#m2426eb6902" x="313.65" y="221.715" style="fill: #94a3b8; stroke: #0b1020; stroke-width: 1.5"/>
    </g>
   </g>
   <g id="PathCollection_3">
    <defs>
     <path id="m13bb722627" d="M 0 6.123724 
C 1.624031 6.123724 3.181764 5.47849 4.330127 4.330127 
C 5.47849 3.181764 6.123724 1.624031 6.123724 0 
C 6.123724 -1.624031 5.47849 -3.181764 4.330127 -4.330127 
C 3.181764 -5.47849 1.624031 -6.123724 0 -6.123724 
C -1.624031 -6.123724 -3.181764 -5.47849 -4.330127 -4.330127 
C -5.47849 -3.181764 -6.123724 -1.624031 -6.123724 0 
C -6.123724 1.624031 -5.47849 3.181764 -4.330127 4.330127 
C -3.181764 5.47849 -1.624031 6.123724 0 6.123724 
z
" style="stroke: #0b1020; stroke-width: 1.5"/>
    </defs>
    <g clip-path="url(#p01c11d4c19)">
     <use xlink:href="#m13bb722627" x="359.6175" y="175.7475" style="fill: #f87171; stroke: #0b1020; stroke-width: 1.5"/>
    </g>
   </g>
   <g id="patch_6">
    <path d="M 207.807007 327.557993 
Q 283.00458 252.36042 355.830444 179.534556 
" clip-path="url(#p01c11d4c19)" style="fill: none; stroke: #38bdf8; stroke-width: 3; stroke-linecap: round"/>
    <path d="M 348.193691 182.08014 
L 355.830444 179.534556 
L 353.28486 187.171309 
z
" clip-path="url(#p01c11d4c19)" style="fill: #38bdf8; stroke: #38bdf8; stroke-width: 3; stroke-linecap: round"/>
   </g>
   <g id="PathCollection_4">
    <defs>
     <path id="mfbbec7ddec" d="M 0 -12.649111 
L -2.839902 -3.90879 
L -12.030019 -3.90879 
L -4.595058 1.493025 
L -7.434961 10.233345 
L -0 4.83153 
L 7.434961 10.233345 
L 4.595058 1.493025 
L 12.030019 -3.90879 
L 2.839902 -3.90879 
z
" style="stroke: #0b1020; stroke-width: 1.5"/>
    </defs>
    <g clip-path="url(#p01c11d4c19)">
     <use xlink:href="#mfbbec7ddec" x="206.3925" y="328.9725" style="fill: #67e8f9; stroke: #0b1020; stroke-width: 1.5"/>
    </g>
   </g>
  </g>
 </g>
 <defs>
  <clipPath id="p01c11d4c19">
   <rect x="7.2" y="7.2" width="663.975" height="490.32"/>
  </clipPath>
 </defs>
</svg>
