<?xml version="1.0" encoding="utf-8" standalone="no"?>
<!DOCTYPE svg PUBLIC "-//W3C//DTD SVG 1.1//EN"
  "http://www.w3.org/Graphics/SVG/1.1/DTD/svg11.dtd">
<svg xmlns:xlink="http://www.w3.org/1999/xlink" width="922.32pt" height="461.52pt" viewBox="0 0 922.32 461.52" xmlns="http://www.w3.org/2000/svg" version="1.1">
 <metadata>
  <rdf:RDF xmlns:dc="http://purl.org/dc/elements/1.1/" xmlns:cc="http://creativecommons.org/ns#" xmlns:rdf="http://www.w3.org/1999/02/22-rdf-syntax-ns#">
   <cc:Work>
    <dc:type rdf:resource="http://purl.org/dc/dcmitype/StillImage"/>
    <dc:date>2026-06-22T17:47:40.232629</dc:date>
    <dc:format>image/svg+xml</dc:format>
    <dc:creator>
     <cc:Agent>
      <dc:title>Matplotlib v3.11.0, https://matplotlib.org/</dc:title>
     </cc:Agent>
    </dc:creator>
   </cc:Work>
  </rdf:RDF>
 </metadata>
 <defs>
  <style type="text/css">*{stroke-linejoin: round; stroke-linecap: butt}</style>
 </defs>
 <g id="figure_1">
  <g id="patch_1">
   <path d="M 0 461.52 
L 922.32 461.52 
L 922.32 0 
L 0 0 
L 0 461.52 
z
" style="fill: none"/>
  </g>
  <g id="axes_1">
   <g id="patch_2">
    <path d="M 7.2 454.32 
L 915.12 454.32 
L 915.12 7.2 
L 7.2 7.2 
L 7.2 454.32 
z
" style="fill: none"/>
   </g>
   <g id="PathCollection_1">
    <defs>
     <path id="m439e7f7102" d="M 0 0 
C 0 0 0 0 0 0 
C 0 0 0 0 0 0 
C 0 0 0 0 0 0 
C 0 0 0 0 0 0 
C 0 0 0 0 0 0 
C 0 0 0 0 0 0 
C 0 0 0 0 0 0 
C 0 0 0 0 0 0 
z
" style="stroke: #1f77b4"/>
    </defs>
    <g clip-path="url(#pf7475d2b6f)">
     <use xlink:href="#m439e7f7102" x="341.696842" y="273.752308" style="fill: #1f77b4; stroke: #1f77b4"/>
    </g>
   </g>
   <g id="matplotlib.axis_1"/>
   <g id="matplotlib.axis_2"/>
   <g id="patch_3">
    <path d="M 210.585693 124.139077 
Q 229.06167 124.139077 244.854366 124.139077 
" clip-path="url(#pf7475d2b6f)" style="fill: none; stroke: #94a3b8; stroke-width: 2.4; stroke-linecap: round"/>
    <path d="M 237.654366 120.539077 
L 244.854366 124.139077 
L 237.654366 127.739077 
z
" clip-path="url(#pf7475d2b6f)" style="fill: #94a3b8; stroke: #94a3b8; stroke-width: 2.4; stroke-linecap: round"/>
   </g>
   <g id="patch_4">
    <path d="M 435.859076 124.139077 
Q 454.335054 124.139077 470.12775 124.139077 
" clip-path="url(#pf7475d2b6f)" style="fill: none; stroke: #94a3b8; stroke-width: 2.4; stroke-linecap: round"/>
    <path d="M 462.92775 120.539077 
L 470.12775 124.139077 
L 462.92775 127.739077 
z
" clip-path="url(#pf7475d2b6f)" style="fill: #94a3b8; stroke: #94a3b8; stroke-width: 2.4; stroke-linecap: round"/>
   </g>
   <g id="patch_5">
    <path d="M 661.13246 124.139077 
Q 679.608437 124.139077 695.401133 124.139077 
" clip-path="url(#pf7475d2b6f)" style="fill: none; stroke: #94a3b8; stroke-width: 2.4; stroke-linecap: round"/>
    <path d="M 688.201133 120.539077 
L 695.401133 124.139077 
L 688.201133 127.739077 
z
" clip-path="url(#pf7475d2b6f)" style="fill: #94a3b8; stroke: #94a3b8; stroke-width: 2.4; stroke-linecap: round"/>
   </g>
   <g id="patch_6">
    <path d="M 792.243609 182.886869 
Q 792.243609 227.319924 792.243609 269.069698 
" clip-path="url(#pf7475d2b6f)" style="fill: none; stroke: #94a3b8; stroke-width: 2.4; stroke-linecap: round"/>
    <path d="M 795.843609 261.869698 
L 792.243609 269.069698 
L 788.643609 261.869698 
z
" clip-path="url(#pf7475d2b6f)" style="fill: #94a3b8; stroke: #94a3b8; stroke-width: 2.4; stroke-linecap: round"/>
   </g>
   <g id="patch_7">
    <path d="M 698.081375 330.502154 
Q 679.605397 330.502154 663.812701 330.502154 
" clip-path="url(#pf7475d2b6f)" style="fill: none; stroke: #94a3b8; stroke-width: 2.4; stroke-linecap: round"/>
    <path d="M 671.012701 334.102154 
L 663.812701 330.502154 
L 671.012701 326.902154 
z
" clip-path="url(#pf7475d2b6f)" style="fill: #94a3b8; stroke: #94a3b8; stroke-width: 2.4; stroke-linecap: round"/>
   </g>
   <g id="patch_8">
    <path d="M 472.807991 330.502154 
Q 454.332014 330.502154 438.539318 330.502154 
" clip-path="url(#pf7475d2b6f)" style="fill: none; stroke: #94a3b8; stroke-width: 2.4; stroke-linecap: round"/>
    <path d="M 445.739318 334.102154 
L 438.539318 330.502154 
L 445.739318 326.902154 
z
" clip-path="url(#pf7475d2b6f)" style="fill: #94a3b8; stroke: #94a3b8; stroke-width: 2.4; stroke-linecap: round"/>
   </g>
   <g id="text_1">
    <!-- The Lineage of ML Attacks — each tier relaxes one assumption of the tier above -->
    <g style="fill: #e5e7eb" transform="translate(289.499345 31.275692) scale(0.135 -0.135)">
     <defs>
      <path id="DejaVuSans-37" d="M -19 4666 
L 3928 4666 
L 3928 4134 
L 2272 4134 
L 2272 0 
L 1638 0 
L 1638 4134 
L -19 4134 
L -19 4666 
z
" transform="scale(0.015625)"/>
      <path id="DejaVuSans-4b" d="M 3513 2113 
L 3513 0 
L 2938 0 
L 2938 2094 
Q 2938 2591 2744 2837 
Q 2550 3084 2163 3084 
Q 1697 3084 1428 2787 
Q 1159 2491 1159 1978 
L 1159 0 
L 581 0 
L 581 4863 
L 1159 4863 
L 1159 2956 
Q 1366 3272 1645 3428 
Q 1925 3584 2291 3584 
Q 2894 3584 3203 3211 
Q 3513 2838 3513 2113 
z
" transform="scale(0.015625)"/>
      <path id="DejaVuSans-48" d="M 3597 1894 
L 3597 1613 
L 953 1613 
Q 991 1019 1311 708 
Q 1631 397 2203 397 
Q 2534 397 2845 478 
Q 3156 559 3463 722 
L 3463 178 
Q 3153 47 2828 -22 
Q 2503 -91 2169 -91 
Q 1331 -91 842 396 
Q 353 884 353 1716 
Q 353 2575 817 3079 
Q 1281 3584 2069 3584 
Q 2775 3584 3186 3129 
Q 3597 2675 3597 1894 
z
M 3022 2063 
Q 3016 2534 2758 2815 
Q 2500 3097 2075 3097 
Q 1594 3097 1305 2825 
Q 1016 2553 972 2059 
L 3022 2063 
z
" transform="scale(0.015625)"/>
      <path id="DejaVuSans-3" transform="scale(0.015625)"/>
      <path id="DejaVuSans-2f" d="M 628 4666 
L 1259 4666 
L 1259 531 
L 3531 531 
L 3531 0 
L 628 0 
L 628 4666 
z
" transform="scale(0.015625)"/>
      <path id="DejaVuSans-4c" d="M 603 3500 
L 1178 3500 
L 1178 0 
L 603 0 
L 603 3500 
z
M 603 4863 
L 1178 4863 
L 1178 4134 
L 603 4134 
L 603 4863 
z
" transform="scale(0.015625)"/>
      <path id="DejaVuSans-51" d="M 3513 2113 
L 3513 0 
L 2938 0 
L 2938 2094 
Q 2938 2591 2744 2837 
Q 2550 3084 2163 3084 
Q 1697 3084 1428 2787 
Q 1159 2491 1159 1978 
L 1159 0 
L 581 0 
L 581 3500 
L 1159 3500 
L 1159 2956 
Q 1366 3272 1645 3428 
Q 1925 3584 2291 3584 
Q 2894 3584 3203 3211 
Q 3513 2838 3513 2113 
z
" transform="scale(0.015625)"/>
      <path id="DejaVuSans-44" d="M 2194 1759 
Q 1497 1759 1228 1600 
Q 959 1441 959 1056 
Q 959 750 1161 570 
Q 1363 391 1709 391 
Q 2188 391 2477 730 
Q 2766 1069 2766 1631 
L 2766 1759 
L 2194 1759 
z
M 3341 1997 
L 3341 0 
L 2766 0 
L 2766 531 
Q 2569 213 2275 61 
Q 1981 -91 1556 -91 
Q 1019 -91 701 211 
Q 384 513 384 1019 
Q 384 1609 779 1909 
Q 1175 2209 1959 2209 
L 2766 2209 
L 2766 2266 
Q 2766 2663 2505 2880 
Q 2244 3097 1772 3097 
Q 1472 3097 1187 3025 
Q 903 2953 641 2809 
L 641 3341 
Q 956 3463 1253 3523 
Q 1550 3584 1831 3584 
Q 2591 3584 2966 3190 
Q 3341 2797 3341 1997 
z
" transform="scale(0.015625)"/>
      <path id="DejaVuSans-4a" d="M 2906 1791 
Q 2906 2416 2648 2759 
Q 2391 3103 1925 3103 
Q 1463 3103 1205 2759 
Q 947 2416 947 1791 
Q 947 1169 1205 825 
Q 1463 481 1925 481 
Q 2391 481 2648 825 
Q 2906 1169 2906 1791 
z
M 3481 434 
Q 3481 -459 3084 -895 
Q 2688 -1331 1869 -1331 
Q 1566 -1331 1297 -1286 
Q 1028 -1241 775 -1147 
L 775 -588 
Q 1028 -725 1275 -790 
Q 1522 -856 1778 -856 
Q 2344 -856 2625 -561 
Q 2906 -266 2906 331 
L 2906 616 
Q 2728 306 2450 153 
Q 2172 0 1784 0 
Q 1141 0 747 490 
Q 353 981 353 1791 
Q 353 2603 747 3093 
Q 1141 3584 1784 3584 
Q 2172 3584 2450 3431 
Q 2728 3278 2906 2969 
L 2906 3500 
L 3481 3500 
L 3481 434 
z
" transform="scale(0.015625)"/>
      <path id="DejaVuSans-52" d="M 1959 3097 
Q 1497 3097 1228 2736 
Q 959 2375 959 1747 
Q 959 1119 1226 758 
Q 1494 397 1959 397 
Q 2419 397 2687 759 
Q 2956 1122 2956 1747 
Q 2956 2369 2687 2733 
Q 2419 3097 1959 3097 
z
M 1959 3584 
Q 2709 3584 3137 3096 
Q 3566 2609 3566 1747 
Q 3566 888 3137 398 
Q 2709 -91 1959 -91 
Q 1206 -91 779 398 
Q 353 888 353 1747 
Q 353 2609 779 3096 
Q 1206 3584 1959 3584 
z
" transform="scale(0.015625)"/>
      <path id="DejaVuSans-49" d="M 2375 4863 
L 2375 4384 
L 1825 4384 
Q 1516 4384 1395 4259 
Q 1275 4134 1275 3809 
L 1275 3500 
L 2222 3500 
L 2222 3053 
L 1275 3053 
L 1275 0 
L 697 0 
L 697 3053 
L 147 3053 
L 147 3500 
L 697 3500 
L 697 3744 
Q 697 4328 969 4595 
Q 1241 4863 1831 4863 
L 2375 4863 
z
" transform="scale(0.015625)"/>
      <path id="DejaVuSans-30" d="M 628 4666 
L 1569 4666 
L 2759 1491 
L 3956 4666 
L 4897 4666 
L 4897 0 
L 4281 0 
L 4281 4097 
L 3078 897 
L 2444 897 
L 1241 4097 
L 1241 0 
L 628 0 
L 628 4666 
z
" transform="scale(0.015625)"/>
      <path id="DejaVuSans-24" d="M 2188 4044 
L 1331 1722 
L 3047 1722 
L 2188 4044 
z
M 1831 4666 
L 2547 4666 
L 4325 0 
L 3669 0 
L 3244 1197 
L 1141 1197 
L 716 0 
L 50 0 
L 1831 4666 
z
" transform="scale(0.015625)"/>
      <path id="DejaVuSans-57" d="M 1172 4494 
L 1172 3500 
L 2356 3500 
L 2356 3053 
L 1172 3053 
L 1172 1153 
Q 1172 725 1289 603 
Q 1406 481 1766 481 
L 2356 481 
L 2356 0 
L 1766 0 
Q 1100 0 847 248 
Q 594 497 594 1153 
L 594 3053 
L 172 3053 
L 172 3500 
L 594 3500 
L 594 4494 
L 1172 4494 
z
" transform="scale(0.015625)"/>
      <path id="DejaVuSans-46" d="M 3122 3366 
L 3122 2828 
Q 2878 2963 2633 3030 
Q 2388 3097 2138 3097 
Q 1578 3097 1268 2742 
Q 959 2388 959 1747 
Q 959 1106 1268 751 
Q 1578 397 2138 397 
Q 2388 397 2633 464 
Q 2878 531 3122 666 
L 3122 134 
Q 2881 22 2623 -34 
Q 2366 -91 2075 -91 
Q 1284 -91 818 406 
Q 353 903 353 1747 
Q 353 2603 823 3093 
Q 1294 3584 2113 3584 
Q 2378 3584 2631 3529 
Q 2884 3475 3122 3366 
z
" transform="scale(0.015625)"/>
      <path id="DejaVuSans-4e" d="M 581 4863 
L 1159 4863 
L 1159 1991 
L 2875 3500 
L 3609 3500 
L 1753 1863 
L 3688 0 
L 2938 0 
L 1159 1709 
L 1159 0 
L 581 0 
L 581 4863 
z
" transform="scale(0.015625)"/>
      <path id="DejaVuSans-56" d="M 2834 3397 
L 2834 2853 
Q 2591 2978 2328 3040 
Q 2066 3103 1784 3103 
Q 1356 3103 1142 2972 
Q 928 2841 928 2578 
Q 928 2378 1081 2264 
Q 1234 2150 1697 2047 
L 1894 2003 
Q 2506 1872 2764 1633 
Q 3022 1394 3022 966 
Q 3022 478 2636 193 
Q 2250 -91 1575 -91 
Q 1294 -91 989 -36 
Q 684 19 347 128 
L 347 722 
Q 666 556 975 473 
Q 1284 391 1588 391 
Q 1994 391 2212 530 
Q 2431 669 2431 922 
Q 2431 1156 2273 1281 
Q 2116 1406 1581 1522 
L 1381 1569 
Q 847 1681 609 1914 
Q 372 2147 372 2553 
Q 372 3047 722 3315 
Q 1072 3584 1716 3584 
Q 2034 3584 2315 3537 
Q 2597 3491 2834 3397 
z
" transform="scale(0.015625)"/>
      <path id="DejaVuSans-af6" d="M 313 1978 
L 6088 1978 
L 6088 1528 
L 313 1528 
L 313 1978 
z
" transform="scale(0.015625)"/>
      <path id="DejaVuSans-55" d="M 2631 2963 
Q 2534 3019 2420 3045 
Q 2306 3072 2169 3072 
Q 1681 3072 1420 2755 
Q 1159 2438 1159 1844 
L 1159 0 
L 581 0 
L 581 3500 
L 1159 3500 
L 1159 2956 
Q 1341 3275 1631 3429 
Q 1922 3584 2338 3584 
Q 2397 3584 2469 3576 
Q 2541 3569 2628 3553 
L 2631 2963 
z
" transform="scale(0.015625)"/>
      <path id="DejaVuSans-4f" d="M 603 4863 
L 1178 4863 
L 1178 0 
L 603 0 
L 603 4863 
z
" transform="scale(0.015625)"/>
      <path id="DejaVuSans-5b" d="M 3513 3500 
L 2247 1797 
L 3578 0 
L 2900 0 
L 1881 1375 
L 863 0 
L 184 0 
L 1544 1831 
L 300 3500 
L 978 3500 
L 1906 2253 
L 2834 3500 
L 3513 3500 
z
" transform="scale(0.015625)"/>
      <path id="DejaVuSans-58" d="M 544 1381 
L 544 3500 
L 1119 3500 
L 1119 1403 
Q 1119 906 1312 657 
Q 1506 409 1894 409 
Q 2359 409 2629 706 
Q 2900 1003 2900 1516 
L 2900 3500 
L 3475 3500 
L 3475 0 
L 2900 0 
L 2900 538 
Q 2691 219 2414 64 
Q 2138 -91 1772 -91 
Q 1169 -91 856 284 
Q 544 659 544 1381 
z
M 1991 3584 
L 1991 3584 
z
" transform="scale(0.015625)"/>
      <path id="DejaVuSans-50" d="M 3328 2828 
Q 3544 3216 3844 3400 
Q 4144 3584 4550 3584 
Q 5097 3584 5394 3201 
Q 5691 2819 5691 2113 
L 5691 0 
L 5113 0 
L 5113 2094 
Q 5113 2597 4934 2840 
Q 4756 3084 4391 3084 
Q 3944 3084 3684 2787 
Q 3425 2491 3425 1978 
L 3425 0 
L 2847 0 
L 2847 2094 
Q 2847 2600 2669 2842 
Q 2491 3084 2119 3084 
Q 1678 3084 1418 2786 
Q 1159 2488 1159 1978 
L 1159 0 
L 581 0 
L 581 3500 
L 1159 3500 
L 1159 2956 
Q 1356 3278 1631 3431 
Q 1906 3584 2284 3584 
Q 2666 3584 2933 3390 
Q 3200 3197 3328 2828 
z
" transform="scale(0.015625)"/>
      <path id="DejaVuSans-53" d="M 1159 525 
L 1159 -1331 
L 581 -1331 
L 581 3500 
L 1159 3500 
L 1159 2969 
Q 1341 3281 1617 3432 
Q 1894 3584 2278 3584 
Q 2916 3584 3314 3078 
Q 3713 2572 3713 1747 
Q 3713 922 3314 415 
Q 2916 -91 2278 -91 
Q 1894 -91 1617 61 
Q 1341 213 1159 525 
z
M 3116 1747 
Q 3116 2381 2855 2742 
Q 2594 3103 2138 3103 
Q 1681 3103 1420 2742 
Q 1159 2381 1159 1747 
Q 1159 1113 1420 752 
Q 1681 391 2138 391 
Q 2594 391 2855 752 
Q 3116 1113 3116 1747 
z
" transform="scale(0.015625)"/>
      <path id="DejaVuSans-45" d="M 3116 1747 
Q 3116 2381 2855 2742 
Q 2594 3103 2138 3103 
Q 1681 3103 1420 2742 
Q 1159 2381 1159 1747 
Q 1159 1113 1420 752 
Q 1681 391 2138 391 
Q 2594 391 2855 752 
Q 3116 1113 3116 1747 
z
M 1159 2969 
Q 1341 3281 1617 3432 
Q 1894 3584 2278 3584 
Q 2916 3584 3314 3078 
Q 3713 2572 3713 1747 
Q 3713 922 3314 415 
Q 2916 -91 2278 -91 
Q 1894 -91 1617 61 
Q 1341 213 1159 525 
L 1159 0 
L 581 0 
L 581 4863 
L 1159 4863 
L 1159 2969 
z
" transform="scale(0.015625)"/>
      <path id="DejaVuSans-59" d="M 191 3500 
L 800 3500 
L 1894 563 
L 2988 3500 
L 3597 3500 
L 2284 0 
L 1503 0 
L 191 3500 
z
" transform="scale(0.015625)"/>
     </defs>
     <use xlink:href="#DejaVuSans-37"/>
     <use xlink:href="#DejaVuSans-4b" transform="translate(61.078125 0)"/>
     <use xlink:href="#DejaVuSans-48" transform="translate(124.453125 0)"/>
     <use xlink:href="#DejaVuSans-3" transform="translate(185.984375 0)"/>
     <use xlink:href="#DejaVuSans-2f" transform="translate(217.765625 0)"/>
     <use xlink:href="#DejaVuSans-4c" transform="translate(273.484375 0)"/>
     <use xlink:href="#DejaVuSans-51" transform="translate(301.265625 0)"/>
     <use xlink:href="#DejaVuSans-48" transform="translate(364.640625 0)"/>
     <use xlink:href="#DejaVuSans-44" transform="translate(426.171875 0)"/>
     <use xlink:href="#DejaVuSans-4a" transform="translate(487.453125 0)"/>
     <use xlink:href="#DejaVuSans-48" transform="translate(550.9375 0)"/>
     <use xlink:href="#DejaVuSans-3" transform="translate(612.46875 0)"/>
     <use xlink:href="#DejaVuSans-52" transform="translate(644.25 0)"/>
     <use xlink:href="#DejaVuSans-49" transform="translate(705.4375 0)"/>
     <use xlink:href="#DejaVuSans-3" transform="translate(740.640625 0)"/>
     <use xlink:href="#DejaVuSans-30" transform="translate(772.421875 0)"/>
     <use xlink:href="#DejaVuSans-2f" transform="translate(858.703125 0)"/>
     <use xlink:href="#DejaVuSans-3" transform="translate(914.421875 0)"/>
     <use xlink:href="#DejaVuSans-24" transform="translate(946.203125 0)"/>
     <use xlink:href="#DejaVuSans-57" transform="translate(1012.859375 0)"/>
     <use xlink:href="#DejaVuSans-57" transform="translate(1052.0625 0)"/>
     <use xlink:href="#DejaVuSans-44" transform="translate(1091.265625 0)"/>
     <use xlink:href="#DejaVuSans-46" transform="translate(1152.546875 0)"/>
     <use xlink:href="#DejaVuSans-4e" transform="translate(1207.53125 0)"/>
     <use xlink:href="#DejaVuSans-56" transform="translate(1265.4375 0)"/>
     <use xlink:href="#DejaVuSans-3" transform="translate(1317.53125 0)"/>
     <use xlink:href="#DejaVuSans-af6" transform="translate(1349.3125 0)"/>
     <use xlink:href="#DejaVuSans-3" transform="translate(1449.3125 0)"/>
     <use xlink:href="#DejaVuSans-48" transform="translate(1481.09375 0)"/>
     <use xlink:href="#DejaVuSans-44" transform="translate(1542.625 0)"/>
     <use xlink:href="#DejaVuSans-46" transform="translate(1603.90625 0)"/>
     <use xlink:href="#DejaVuSans-4b" transform="translate(1658.890625 0)"/>
     <use xlink:href="#DejaVuSans-3" transform="translate(1722.265625 0)"/>
     <use xlink:href="#DejaVuSans-57" transform="translate(1754.046875 0)"/>
     <use xlink:href="#DejaVuSans-4c" transform="translate(1793.25 0)"/>
     <use xlink:href="#DejaVuSans-48" transform="translate(1821.03125 0)"/>
     <use xlink:href="#DejaVuSans-55" transform="translate(1882.5625 0)"/>
     <use xlink:href="#DejaVuSans-3" transform="translate(1923.671875 0)"/>
     <use xlink:href="#DejaVuSans-55" transform="translate(1955.453125 0)"/>
     <use xlink:href="#DejaVuSans-48" transform="translate(1994.359375 0)"/>
     <use xlink:href="#DejaVuSans-4f" transform="translate(2055.890625 0)"/>
     <use xlink:href="#DejaVuSans-44" transform="translate(2083.671875 0)"/>
     <use xlink:href="#DejaVuSans-5b" transform="translate(2144.953125 0)"/>
     <use xlink:href="#DejaVuSans-48" transform="translate(2201.0625 0)"/>
     <use xlink:href="#DejaVuSans-56" transform="translate(2262.59375 0)"/>
     <use xlink:href="#DejaVuSans-3" transform="translate(2314.6875 0)"/>
     <use xlink:href="#DejaVuSans-52" transform="translate(2346.46875 0)"/>
     <use xlink:href="#DejaVuSans-51" transform="translate(2407.65625 0)"/>
     <use xlink:href="#DejaVuSans-48" transform="translate(2471.03125 0)"/>
     <use xlink:href="#DejaVuSans-3" transform="translate(2532.5625 0)"/>
     <use xlink:href="#DejaVuSans-44" transform="translate(2564.34375 0)"/>
     <use xlink:href="#DejaVuSans-56" transform="translate(2625.625 0)"/>
     <use xlink:href="#DejaVuSans-56" transform="translate(2677.71875 0)"/>
     <use xlink:href="#DejaVuSans-58" transform="translate(2729.8125 0)"/>
     <use xlink:href="#DejaVuSans-50" transform="translate(2793.1875 0)"/>
     <use xlink:href="#DejaVuSans-53" transform="translate(2890.59375 0)"/>
     <use xlink:href="#DejaVuSans-57" transform="translate(2954.078125 0)"/>
     <use xlink:href="#DejaVuSans-4c" transform="translate(2993.28125 0)"/>
     <use xlink:href="#DejaVuSans-52" transform="translate(3021.0625 0)"/>
     <use xlink:href="#DejaVuSans-51" transform="translate(3082.25 0)"/>
     <use xlink:href="#DejaVuSans-3" transform="translate(3145.625 0)"/>
     <use xlink:href="#DejaVuSans-52" transform="translate(3177.40625 0)"/>
     <use xlink:href="#DejaVuSans-49" transform="translate(3238.59375 0)"/>
     <use xlink:href="#DejaVuSans-3" transform="translate(3273.796875 0)"/>
     <use xlink:href="#DejaVuSans-57" transform="translate(3305.578125 0)"/>
     <use xlink:href="#DejaVuSans-4b" transform="translate(3344.78125 0)"/>
     <use xlink:href="#DejaVuSans-48" transform="translate(3408.15625 0)"/>
     <use xlink:href="#DejaVuSans-3" transform="translate(3469.6875 0)"/>
     <use xlink:href="#DejaVuSans-57" transform="translate(3501.46875 0)"/>
     <use xlink:href="#DejaVuSans-4c" transform="translate(3540.671875 0)"/>
     <use xlink:href="#DejaVuSans-48" transform="translate(3568.453125 0)"/>
     <use xlink:href="#DejaVuSans-55" transform="translate(3629.984375 0)"/>
     <use xlink:href="#DejaVuSans-3" transform="translate(3671.09375 0)"/>
     <use xlink:href="#DejaVuSans-44" transform="translate(3702.875 0)"/>
     <use xlink:href="#DejaVuSans-45" transform="translate(3764.15625 0)"/>
     <use xlink:href="#DejaVuSans-52" transform="translate(3827.640625 0)"/>
     <use xlink:href="#DejaVuSans-59" transform="translate(3888.828125 0)"/>
     <use xlink:href="#DejaVuSans-48" transform="translate(3948.015625 0)"/>
    </g>
   </g>
   <g id="text_2">
    <!-- GRADIENT ACCESS   →   QUERY EFFICIENCY   →   HYBRID ADAPTATION -->
    <g style="fill: #67e8f9; opacity: 0.95" transform="translate(327.790947 416.486769) scale(0.12 -0.12)">
     <defs>
      <path id="DejaVuSans-Bold-2a" d="M 4781 347 
Q 4331 128 3847 18 
Q 3363 -91 2847 -91 
Q 1681 -91 1000 561 
Q 319 1213 319 2328 
Q 319 3456 1012 4103 
Q 1706 4750 2913 4750 
Q 3378 4750 3804 4662 
Q 4231 4575 4609 4403 
L 4609 3438 
Q 4219 3659 3833 3768 
Q 3447 3878 3059 3878 
Q 2341 3878 1952 3476 
Q 1563 3075 1563 2328 
Q 1563 1588 1938 1184 
Q 2313 781 3003 781 
Q 3191 781 3352 804 
Q 3513 828 3641 878 
L 3641 1784 
L 2906 1784 
L 2906 2591 
L 4781 2591 
L 4781 347 
z
" transform="scale(0.015625)"/>
      <path id="DejaVuSans-Bold-35" d="M 2297 2597 
Q 2675 2597 2839 2737 
Q 3003 2878 3003 3200 
Q 3003 3519 2839 3656 
Q 2675 3794 2297 3794 
L 1791 3794 
L 1791 2597 
L 2297 2597 
z
M 1791 1766 
L 1791 0 
L 588 0 
L 588 4666 
L 2425 4666 
Q 3347 4666 3776 4356 
Q 4206 4047 4206 3378 
Q 4206 2916 3982 2619 
Q 3759 2322 3309 2181 
Q 3556 2125 3751 1926 
Q 3947 1728 4147 1325 
L 4800 0 
L 3519 0 
L 2950 1159 
Q 2778 1509 2601 1637 
Q 2425 1766 2131 1766 
L 1791 1766 
z
" transform="scale(0.015625)"/>
      <path id="DejaVuSans-Bold-24" d="M 3419 850 
L 1538 850 
L 1241 0 
L 31 0 
L 1759 4666 
L 3194 4666 
L 4922 0 
L 3713 0 
L 3419 850 
z
M 1838 1716 
L 3116 1716 
L 2478 3572 
L 1838 1716 
z
" transform="scale(0.015625)"/>
      <path id="DejaVuSans-Bold-27" d="M 1791 3756 
L 1791 909 
L 2222 909 
Q 2959 909 3348 1275 
Q 3738 1641 3738 2338 
Q 3738 3031 3350 3393 
Q 2963 3756 2222 3756 
L 1791 3756 
z
M 588 4666 
L 1856 4666 
Q 2919 4666 3439 4514 
Q 3959 4363 4331 4000 
Q 4659 3684 4818 3271 
Q 4978 2859 4978 2338 
Q 4978 1809 4818 1395 
Q 4659 981 4331 666 
Q 3956 303 3431 151 
Q 2906 0 1856 0 
L 588 0 
L 588 4666 
z
" transform="scale(0.015625)"/>
      <path id="DejaVuSans-Bold-2c" d="M 588 4666 
L 1791 4666 
L 1791 0 
L 588 0 
L 588 4666 
z
" transform="scale(0.015625)"/>
      <path id="DejaVuSans-Bold-28" d="M 588 4666 
L 3834 4666 
L 3834 3756 
L 1791 3756 
L 1791 2888 
L 3713 2888 
L 3713 1978 
L 1791 1978 
L 1791 909 
L 3903 909 
L 3903 0 
L 588 0 
L 588 4666 
z
" transform="scale(0.015625)"/>
      <path id="DejaVuSans-Bold-31" d="M 588 4666 
L 1931 4666 
L 3628 1466 
L 3628 4666 
L 4769 4666 
L 4769 0 
L 3425 0 
L 1728 3200 
L 1728 0 
L 588 0 
L 588 4666 
z
" transform="scale(0.015625)"/>
      <path id="DejaVuSans-Bold-37" d="M 31 4666 
L 4331 4666 
L 4331 3756 
L 2784 3756 
L 2784 0 
L 1581 0 
L 1581 3756 
L 31 3756 
L 31 4666 
z
" transform="scale(0.015625)"/>
      <path id="DejaVuSans-Bold-3" transform="scale(0.015625)"/>
      <path id="DejaVuSans-Bold-26" d="M 4288 256 
Q 3956 84 3597 -3 
Q 3238 -91 2847 -91 
Q 1681 -91 1000 561 
Q 319 1213 319 2328 
Q 319 3447 1000 4098 
Q 1681 4750 2847 4750 
Q 3238 4750 3597 4662 
Q 3956 4575 4288 4403 
L 4288 3438 
Q 3953 3666 3628 3772 
Q 3303 3878 2944 3878 
Q 2300 3878 1931 3465 
Q 1563 3053 1563 2328 
Q 1563 1606 1931 1193 
Q 2300 781 2944 781 
Q 3303 781 3628 887 
Q 3953 994 4288 1222 
L 4288 256 
z
" transform="scale(0.015625)"/>
      <path id="DejaVuSans-Bold-36" d="M 3834 4519 
L 3834 3531 
Q 3450 3703 3084 3790 
Q 2719 3878 2394 3878 
Q 1963 3878 1756 3759 
Q 1550 3641 1550 3391 
Q 1550 3203 1689 3098 
Q 1828 2994 2194 2919 
L 2706 2816 
Q 3484 2659 3812 2340 
Q 4141 2022 4141 1434 
Q 4141 663 3683 286 
Q 3225 -91 2284 -91 
Q 1841 -91 1394 -6 
Q 947 78 500 244 
L 500 1259 
Q 947 1022 1364 901 
Q 1781 781 2169 781 
Q 2563 781 2772 912 
Q 2981 1044 2981 1288 
Q 2981 1506 2839 1625 
Q 2697 1744 2272 1838 
L 1806 1941 
Q 1106 2091 782 2419 
Q 459 2747 459 3303 
Q 459 4000 909 4375 
Q 1359 4750 2203 4750 
Q 2588 4750 2994 4692 
Q 3400 4634 3834 4519 
z
" transform="scale(0.015625)"/>
      <path id="DejaVuSans-Bold-c1c" d="M 5050 2225 
L 5050 1788 
L 3822 559 
L 3369 1013 
L 3988 1631 
L 366 1631 
L 366 2381 
L 3988 2381 
L 3369 3000 
L 3822 3453 
L 5050 2225 
z
" transform="scale(0.015625)"/>
      <path id="DejaVuSans-Bold-34" d="M 2847 -84 
L 2753 -84 
Q 1600 -84 959 553 
Q 319 1191 319 2328 
Q 319 3463 958 4106 
Q 1597 4750 2719 4750 
Q 3853 4750 4486 4112 
Q 5119 3475 5119 2328 
Q 5119 1541 4783 972 
Q 4447 403 3816 116 
L 4756 -934 
L 3609 -934 
L 2847 -84 
z
M 2719 3878 
Q 2169 3878 1866 3472 
Q 1563 3066 1563 2328 
Q 1563 1578 1859 1179 
Q 2156 781 2719 781 
Q 3272 781 3575 1187 
Q 3878 1594 3878 2328 
Q 3878 3066 3575 3472 
Q 3272 3878 2719 3878 
z
" transform="scale(0.015625)"/>
      <path id="DejaVuSans-Bold-38" d="M 588 4666 
L 1791 4666 
L 1791 1869 
Q 1791 1291 1980 1042 
Q 2169 794 2597 794 
Q 3028 794 3217 1042 
Q 3406 1291 3406 1869 
L 3406 4666 
L 4609 4666 
L 4609 1869 
Q 4609 878 4112 393 
Q 3616 -91 2597 -91 
Q 1581 -91 1084 393 
Q 588 878 588 1869 
L 588 4666 
z
" transform="scale(0.015625)"/>
      <path id="DejaVuSans-Bold-3c" d="M -63 4666 
L 1253 4666 
L 2316 3003 
L 3378 4666 
L 4697 4666 
L 2919 1966 
L 2919 0 
L 1716 0 
L 1716 1966 
L -63 4666 
z
" transform="scale(0.015625)"/>
      <path id="DejaVuSans-Bold-29" d="M 588 4666 
L 3834 4666 
L 3834 3756 
L 1791 3756 
L 1791 2888 
L 3713 2888 
L 3713 1978 
L 1791 1978 
L 1791 0 
L 588 0 
L 588 4666 
z
" transform="scale(0.015625)"/>
      <path id="DejaVuSans-Bold-2b" d="M 588 4666 
L 1791 4666 
L 1791 2888 
L 3566 2888 
L 3566 4666 
L 4769 4666 
L 4769 0 
L 3566 0 
L 3566 1978 
L 1791 1978 
L 1791 0 
L 588 0 
L 588 4666 
z
" transform="scale(0.015625)"/>
      <path id="DejaVuSans-Bold-25" d="M 2456 2859 
Q 2741 2859 2887 2984 
Q 3034 3109 3034 3353 
Q 3034 3594 2887 3720 
Q 2741 3847 2456 3847 
L 1791 3847 
L 1791 2859 
L 2456 2859 
z
M 2497 819 
Q 2859 819 3042 972 
Q 3225 1125 3225 1434 
Q 3225 1738 3044 1889 
Q 2863 2041 2497 2041 
L 1791 2041 
L 1791 819 
L 2497 819 
z
M 3616 2497 
Q 4003 2384 4215 2081 
Q 4428 1778 4428 1338 
Q 4428 663 3972 331 
Q 3516 0 2584 0 
L 588 0 
L 588 4666 
L 2394 4666 
Q 3366 4666 3802 4372 
Q 4238 4078 4238 3431 
Q 4238 3091 4078 2852 
Q 3919 2613 3616 2497 
z
" transform="scale(0.015625)"/>
      <path id="DejaVuSans-Bold-33" d="M 588 4666 
L 2584 4666 
Q 3475 4666 3951 4270 
Q 4428 3875 4428 3144 
Q 4428 2409 3951 2014 
Q 3475 1619 2584 1619 
L 1791 1619 
L 1791 0 
L 588 0 
L 588 4666 
z
M 1791 3794 
L 1791 2491 
L 2456 2491 
Q 2806 2491 2997 2661 
Q 3188 2831 3188 3144 
Q 3188 3456 2997 3625 
Q 2806 3794 2456 3794 
L 1791 3794 
z
" transform="scale(0.015625)"/>
      <path id="DejaVuSans-Bold-32" d="M 2719 3878 
Q 2169 3878 1866 3472 
Q 1563 3066 1563 2328 
Q 1563 1594 1866 1187 
Q 2169 781 2719 781 
Q 3272 781 3575 1187 
Q 3878 1594 3878 2328 
Q 3878 3066 3575 3472 
Q 3272 3878 2719 3878 
z
M 2719 4750 
Q 3844 4750 4481 4106 
Q 5119 3463 5119 2328 
Q 5119 1197 4481 553 
Q 3844 -91 2719 -91 
Q 1597 -91 958 553 
Q 319 1197 319 2328 
Q 319 3463 958 4106 
Q 1597 4750 2719 4750 
z
" transform="scale(0.015625)"/>
     </defs>
     <use xlink:href="#DejaVuSans-Bold-2a"/>
     <use xlink:href="#DejaVuSans-Bold-35" transform="translate(82.078125 0)"/>
     <use xlink:href="#DejaVuSans-Bold-24" transform="translate(159.078125 0)"/>
     <use xlink:href="#DejaVuSans-Bold-27" transform="translate(236.46875 0)"/>
     <use xlink:href="#DejaVuSans-Bold-2c" transform="translate(319.484375 0)"/>
     <use xlink:href="#DejaVuSans-Bold-28" transform="translate(356.6875 0)"/>
     <use xlink:href="#DejaVuSans-Bold-31" transform="translate(425 0)"/>
     <use xlink:href="#DejaVuSans-Bold-37" transform="translate(508.6875 0)"/>
     <use xlink:href="#DejaVuSans-Bold-3" transform="translate(576.90625 0)"/>
     <use xlink:href="#DejaVuSans-Bold-24" transform="translate(611.71875 0)"/>
     <use xlink:href="#DejaVuSans-Bold-26" transform="translate(689.109375 0)"/>
     <use xlink:href="#DejaVuSans-Bold-26" transform="translate(762.5 0)"/>
     <use xlink:href="#DejaVuSans-Bold-28" transform="translate(835.890625 0)"/>
     <use xlink:href="#DejaVuSans-Bold-36" transform="translate(904.203125 0)"/>
     <use xlink:href="#DejaVuSans-Bold-36" transform="translate(971.734375 0)"/>
     <use xlink:href="#DejaVuSans-Bold-3" transform="translate(1043.75 0)"/>
     <use xlink:href="#DejaVuSans-Bold-3" transform="translate(1078.5625 0)"/>
     <use xlink:href="#DejaVuSans-Bold-3" transform="translate(1113.375 0)"/>
     <use xlink:href="#DejaVuSans-Bold-c1c" transform="translate(1148.1875 0)"/>
     <use xlink:href="#DejaVuSans-Bold-3" transform="translate(1231.984375 0)"/>
     <use xlink:href="#DejaVuSans-Bold-3" transform="translate(1266.796875 0)"/>
     <use xlink:href="#DejaVuSans-Bold-3" transform="translate(1301.609375 0)"/>
     <use xlink:href="#DejaVuSans-Bold-34" transform="translate(1336.421875 0)"/>
     <use xlink:href="#DejaVuSans-Bold-38" transform="translate(1421.4375 0)"/>
     <use xlink:href="#DejaVuSans-Bold-28" transform="translate(1502.640625 0)"/>
     <use xlink:href="#DejaVuSans-Bold-35" transform="translate(1570.953125 0)"/>
     <use xlink:href="#DejaVuSans-Bold-3c" transform="translate(1642.484375 0)"/>
     <use xlink:href="#DejaVuSans-Bold-3" transform="translate(1714.890625 0)"/>
     <use xlink:href="#DejaVuSans-Bold-28" transform="translate(1749.703125 0)"/>
     <use xlink:href="#DejaVuSans-Bold-29" transform="translate(1818.015625 0)"/>
     <use xlink:href="#DejaVuSans-Bold-29" transform="translate(1886.328125 0)"/>
     <use xlink:href="#DejaVuSans-Bold-2c" transform="translate(1954.640625 0)"/>
     <use xlink:href="#DejaVuSans-Bold-26" transform="translate(1991.84375 0)"/>
     <use xlink:href="#DejaVuSans-Bold-2c" transform="translate(2065.234375 0)"/>
     <use xlink:href="#DejaVuSans-Bold-28" transform="translate(2102.4375 0)"/>
     <use xlink:href="#DejaVuSans-Bold-31" transform="translate(2170.75 0)"/>
     <use xlink:href="#DejaVuSans-Bold-26" transform="translate(2254.4375 0)"/>
     <use xlink:href="#DejaVuSans-Bold-3c" transform="translate(2327.828125 0)"/>
     <use xlink:href="#DejaVuSans-Bold-3" transform="translate(2400.234375 0)"/>
     <use xlink:href="#DejaVuSans-Bold-3" transform="translate(2435.046875 0)"/>
     <use xlink:href="#DejaVuSans-Bold-3" transform="translate(2469.859375 0)"/>
     <use xlink:href="#DejaVuSans-Bold-c1c" transform="translate(2504.671875 0)"/>
     <use xlink:href="#DejaVuSans-Bold-3" transform="translate(2588.46875 0)"/>
     <use xlink:href="#DejaVuSans-Bold-3" transform="translate(2623.28125 0)"/>
     <use xlink:href="#DejaVuSans-Bold-3" transform="translate(2658.09375 0)"/>
     <use xlink:href="#DejaVuSans-Bold-2b" transform="translate(2692.90625 0)"/>
     <use xlink:href="#DejaVuSans-Bold-3c" transform="translate(2776.59375 0)"/>
     <use xlink:href="#DejaVuSans-Bold-25" transform="translate(2849 0)"/>
     <use xlink:href="#DejaVuSans-Bold-35" transform="translate(2925.21875 0)"/>
     <use xlink:href="#DejaVuSans-Bold-2c" transform="translate(3002.21875 0)"/>
     <use xlink:href="#DejaVuSans-Bold-27" transform="translate(3039.421875 0)"/>
     <use xlink:href="#DejaVuSans-Bold-3" transform="translate(3122.4375 0)"/>
     <use xlink:href="#DejaVuSans-Bold-24" transform="translate(3157.25 0)"/>
     <use xlink:href="#DejaVuSans-Bold-27" transform="translate(3234.640625 0)"/>
     <use xlink:href="#DejaVuSans-Bold-24" transform="translate(3317.65625 0)"/>
     <use xlink:href="#DejaVuSans-Bold-33" transform="translate(3395.046875 0)"/>
     <use xlink:href="#DejaVuSans-Bold-37" transform="translate(3468.34375 0)"/>
     <use xlink:href="#DejaVuSans-Bold-24" transform="translate(3528.796875 0)"/>
     <use xlink:href="#DejaVuSans-Bold-37" transform="translate(3598.421875 0)"/>
     <use xlink:href="#DejaVuSans-Bold-2c" transform="translate(3666.640625 0)"/>
     <use xlink:href="#DejaVuSans-Bold-32" transform="translate(3703.84375 0)"/>
     <use xlink:href="#DejaVuSans-Bold-31" transform="translate(3788.859375 0)"/>
    </g>
   </g>
   <g id="patch_9">
    <path d="M 28.362045 185.016185 
L 204.484872 185.016185 
Q 212.676632 185.016185 212.676632 176.761662 
L 212.676632 71.516492 
Q 212.676632 63.261969 204.484872 63.261969 
L 28.362045 63.261969 
Q 20.170286 63.261969 20.170286 71.516492 
L 20.170286 176.761662 
Q 20.170286 185.016185 28.362045 185.016185 
z
" clip-path="url(#pf7475d2b6f)" style="fill: #38bdf8; opacity: 0.14; stroke: #38bdf8; stroke-width: 2; stroke-linejoin: miter"/>
   </g>
   <g id="patch_10">
    <path d="M 253.635429 185.016185 
L 429.758256 185.016185 
Q 437.950015 185.016185 437.950015 176.761662 
L 437.950015 71.516492 
Q 437.950015 63.261969 429.758256 63.261969 
L 253.635429 63.261969 
Q 245.443669 63.261969 245.443669 71.516492 
L 245.443669 176.761662 
Q 245.443669 185.016185 253.635429 185.016185 
z
" clip-path="url(#pf7475d2b6f)" style="fill: #fbbf24; opacity: 0.14; stroke: #fbbf24; stroke-width: 2; stroke-linejoin: miter"/>
   </g>
   <g id="patch_11">
    <path d="M 478.908812 185.016185 
L 655.031639 185.016185 
Q 663.223398 185.016185 663.223398 176.761662 
L 663.223398 71.516492 
Q 663.223398 63.261969 655.031639 63.261969 
L 478.908812 63.261969 
Q 470.717053 63.261969 470.717053 71.516492 
L 470.717053 176.761662 
Q 470.717053 185.016185 478.908812 185.016185 
z
" clip-path="url(#pf7475d2b6f)" style="fill: #fb7185; opacity: 0.14; stroke: #fb7185; stroke-width: 2; stroke-linejoin: miter"/>
   </g>
   <g id="patch_12">
    <path d="M 704.182195 185.016185 
L 880.305023 185.016185 
Q 888.496782 185.016185 888.496782 176.761662 
L 888.496782 71.516492 
Q 888.496782 63.261969 880.305023 63.261969 
L 704.182195 63.261969 
Q 695.990436 63.261969 695.990436 71.516492 
L 695.990436 176.761662 
Q 695.990436 185.016185 704.182195 185.016185 
z
" clip-path="url(#pf7475d2b6f)" style="fill: #fb7185; opacity: 0.14; stroke: #fb7185; stroke-width: 2; stroke-linejoin: miter"/>
   </g>
   <g id="patch_13">
    <path d="M 704.182195 391.379262 
L 880.305023 391.379262 
Q 888.496782 391.379262 888.496782 383.124738 
L 888.496782 277.879569 
Q 888.496782 269.625046 880.305023 269.625046 
L 704.182195 269.625046 
Q 695.990436 269.625046 695.990436 277.879569 
L 695.990436 383.124738 
Q 695.990436 391.379262 704.182195 391.379262 
z
" clip-path="url(#pf7475d2b6f)" style="fill: #fb7185; opacity: 0.14; stroke: #fb7185; stroke-width: 2; stroke-linejoin: miter"/>
   </g>
   <g id="patch_14">
    <path d="M 478.908812 391.379262 
L 655.031639 391.379262 
Q 663.223398 391.379262 663.223398 383.124738 
L 663.223398 277.879569 
Q 663.223398 269.625046 655.031639 269.625046 
L 478.908812 269.625046 
Q 470.717053 269.625046 470.717053 277.879569 
L 470.717053 383.124738 
Q 470.717053 391.379262 478.908812 391.379262 
z
" clip-path="url(#pf7475d2b6f)" style="fill: #fb7185; opacity: 0.14; stroke: #fb7185; stroke-width: 2; stroke-linejoin: miter"/>
   </g>
   <g id="patch_15">
    <path d="M 253.635429 391.379262 
L 429.758256 391.379262 
Q 437.950015 391.379262 437.950015 383.124738 
L 437.950015 277.879569 
Q 437.950015 269.625046 429.758256 269.625046 
L 253.635429 269.625046 
Q 245.443669 269.625046 245.443669 277.879569 
L 245.443669 383.124738 
Q 245.443669 391.379262 253.635429 391.379262 
z
" clip-path="url(#pf7475d2b6f)" style="fill: #a7f3d0; opacity: 0.14; stroke: #a7f3d0; stroke-width: 2; stroke-linejoin: miter"/>
   </g>
   <g id="text_3">
    <!-- TIER 1 · WHITE-BOX -->
    <g style="fill: #38bdf8" transform="translate(52.787131 88.025538) scale(0.115 -0.115)">
     <defs>
      <path id="DejaVuSans-Bold-14" d="M 750 831 
L 1813 831 
L 1813 3847 
L 722 3622 
L 722 4441 
L 1806 4666 
L 2950 4666 
L 2950 831 
L 4013 831 
L 4013 0 
L 750 0 
L 750 831 
z
" transform="scale(0.015625)"/>
      <path id="DejaVuSans-Bold-79" d="M 653 2828 
L 1778 2828 
L 1778 1619 
L 653 1619 
L 653 2828 
z
" transform="scale(0.015625)"/>
      <path id="DejaVuSans-Bold-3a" d="M 191 4666 
L 1344 4666 
L 2150 1275 
L 2950 4666 
L 4109 4666 
L 4909 1275 
L 5716 4666 
L 6859 4666 
L 5759 0 
L 4372 0 
L 3525 3547 
L 2688 0 
L 1300 0 
L 191 4666 
z
" transform="scale(0.015625)"/>
      <path id="DejaVuSans-Bold-10" d="M 347 2297 
L 2309 2297 
L 2309 1388 
L 347 1388 
L 347 2297 
z
" transform="scale(0.015625)"/>
      <path id="DejaVuSans-Bold-3b" d="M 3188 2381 
L 4806 0 
L 3553 0 
L 2463 1594 
L 1381 0 
L 122 0 
L 1741 2381 
L 184 4666 
L 1441 4666 
L 2463 3163 
L 3481 4666 
L 4744 4666 
L 3188 2381 
z
" transform="scale(0.015625)"/>
     </defs>
     <use xlink:href="#DejaVuSans-Bold-37"/>
     <use xlink:href="#DejaVuSans-Bold-2c" transform="translate(68.21875 0)"/>
     <use xlink:href="#DejaVuSans-Bold-28" transform="translate(105.421875 0)"/>
     <use xlink:href="#DejaVuSans-Bold-35" transform="translate(173.734375 0)"/>
     <use xlink:href="#DejaVuSans-Bold-3" transform="translate(250.734375 0)"/>
     <use xlink:href="#DejaVuSans-Bold-14" transform="translate(285.546875 0)"/>
     <use xlink:href="#DejaVuSans-Bold-3" transform="translate(355.125 0)"/>
     <use xlink:href="#DejaVuSans-Bold-79" transform="translate(389.9375 0)"/>
     <use xlink:href="#DejaVuSans-Bold-3" transform="translate(427.921875 0)"/>
     <use xlink:href="#DejaVuSans-Bold-3a" transform="translate(462.734375 0)"/>
     <use xlink:href="#DejaVuSans-Bold-2b" transform="translate(573.03125 0)"/>
     <use xlink:href="#DejaVuSans-Bold-2c" transform="translate(656.71875 0)"/>
     <use xlink:href="#DejaVuSans-Bold-37" transform="translate(693.921875 0)"/>
     <use xlink:href="#DejaVuSans-Bold-28" transform="translate(762.140625 0)"/>
     <use xlink:href="#DejaVuSans-Bold-10" transform="translate(830.453125 0)"/>
     <use xlink:href="#DejaVuSans-Bold-25" transform="translate(871.953125 0)"/>
     <use xlink:href="#DejaVuSans-Bold-32" transform="translate(948.171875 0)"/>
     <use xlink:href="#DejaVuSans-Bold-3b" transform="translate(1029.625 0)"/>
    </g>
   </g>
   <g id="text_4">
    <!-- FGSM '14 · PGD '17 -->
    <g style="fill: #e5e7eb" transform="translate(69.963209 133.253299) scale(0.096 -0.096)">
     <defs>
      <path id="DejaVuSans-29" d="M 628 4666 
L 3309 4666 
L 3309 4134 
L 1259 4134 
L 1259 2759 
L 3109 2759 
L 3109 2228 
L 1259 2228 
L 1259 0 
L 628 0 
L 628 4666 
z
" transform="scale(0.015625)"/>
      <path id="DejaVuSans-2a" d="M 3809 666 
L 3809 1919 
L 2778 1919 
L 2778 2438 
L 4434 2438 
L 4434 434 
Q 4069 175 3628 42 
Q 3188 -91 2688 -91 
Q 1594 -91 976 548 
Q 359 1188 359 2328 
Q 359 3472 976 4111 
Q 1594 4750 2688 4750 
Q 3144 4750 3555 4637 
Q 3966 4525 4313 4306 
L 4313 3634 
Q 3963 3931 3569 4081 
Q 3175 4231 2741 4231 
Q 1884 4231 1454 3753 
Q 1025 3275 1025 2328 
Q 1025 1384 1454 906 
Q 1884 428 2741 428 
Q 3075 428 3337 486 
Q 3600 544 3809 666 
z
" transform="scale(0.015625)"/>
      <path id="DejaVuSans-36" d="M 3425 4513 
L 3425 3897 
Q 3066 4069 2747 4153 
Q 2428 4238 2131 4238 
Q 1616 4238 1336 4038 
Q 1056 3838 1056 3469 
Q 1056 3159 1242 3001 
Q 1428 2844 1947 2747 
L 2328 2669 
Q 3034 2534 3370 2195 
Q 3706 1856 3706 1288 
Q 3706 609 3251 259 
Q 2797 -91 1919 -91 
Q 1588 -91 1214 -16 
Q 841 59 441 206 
L 441 856 
Q 825 641 1194 531 
Q 1563 422 1919 422 
Q 2459 422 2753 634 
Q 3047 847 3047 1241 
Q 3047 1584 2836 1778 
Q 2625 1972 2144 2069 
L 1759 2144 
Q 1053 2284 737 2584 
Q 422 2884 422 3419 
Q 422 4038 858 4394 
Q 1294 4750 2059 4750 
Q 2388 4750 2728 4690 
Q 3069 4631 3425 4513 
z
" transform="scale(0.015625)"/>
      <path id="DejaVuSans-a" d="M 1147 4666 
L 1147 2931 
L 616 2931 
L 616 4666 
L 1147 4666 
z
" transform="scale(0.015625)"/>
      <path id="DejaVuSans-14" d="M 794 531 
L 1825 531 
L 1825 4091 
L 703 3866 
L 703 4441 
L 1819 4666 
L 2450 4666 
L 2450 531 
L 3481 531 
L 3481 0 
L 794 0 
L 794 531 
z
" transform="scale(0.015625)"/>
      <path id="DejaVuSans-17" d="M 2419 4116 
L 825 1625 
L 2419 1625 
L 2419 4116 
z
M 2253 4666 
L 3047 4666 
L 3047 1625 
L 3713 1625 
L 3713 1100 
L 3047 1100 
L 3047 0 
L 2419 0 
L 2419 1100 
L 313 1100 
L 313 1709 
L 2253 4666 
z
" transform="scale(0.015625)"/>
      <path id="DejaVuSans-79" d="M 684 2619 
L 1344 2619 
L 1344 1825 
L 684 1825 
L 684 2619 
z
" transform="scale(0.015625)"/>
      <path id="DejaVuSans-33" d="M 1259 4147 
L 1259 2394 
L 2053 2394 
Q 2494 2394 2734 2622 
Q 2975 2850 2975 3272 
Q 2975 3691 2734 3919 
Q 2494 4147 2053 4147 
L 1259 4147 
z
M 628 4666 
L 2053 4666 
Q 2838 4666 3239 4311 
Q 3641 3956 3641 3272 
Q 3641 2581 3239 2228 
Q 2838 1875 2053 1875 
L 1259 1875 
L 1259 0 
L 628 0 
L 628 4666 
z
" transform="scale(0.015625)"/>
      <path id="DejaVuSans-27" d="M 1259 4147 
L 1259 519 
L 2022 519 
Q 2988 519 3436 956 
Q 3884 1394 3884 2338 
Q 3884 3275 3436 3711 
Q 2988 4147 2022 4147 
L 1259 4147 
z
M 628 4666 
L 1925 4666 
Q 3281 4666 3915 4102 
Q 4550 3538 4550 2338 
Q 4550 1131 3912 565 
Q 3275 0 1925 0 
L 628 0 
L 628 4666 
z
" transform="scale(0.015625)"/>
      <path id="DejaVuSans-1a" d="M 525 4666 
L 3525 4666 
L 3525 4397 
L 1831 0 
L 1172 0 
L 2766 4134 
L 525 4134 
L 525 4666 
z
" transform="scale(0.015625)"/>
     </defs>
     <use xlink:href="#DejaVuSans-29"/>
     <use xlink:href="#DejaVuSans-2a" transform="translate(57.515625 0)"/>
     <use xlink:href="#DejaVuSans-36" transform="translate(135 0)"/>
     <use xlink:href="#DejaVuSans-30" transform="translate(198.484375 0)"/>
     <use xlink:href="#DejaVuSans-3" transform="translate(284.765625 0)"/>
     <use xlink:href="#DejaVuSans-a" transform="translate(316.546875 0)"/>
     <use xlink:href="#DejaVuSans-14" transform="translate(344.03125 0)"/>
     <use xlink:href="#DejaVuSans-17" transform="translate(407.65625 0)"/>
     <use xlink:href="#DejaVuSans-3" transform="translate(471.28125 0)"/>
     <use xlink:href="#DejaVuSans-79" transform="translate(503.0625 0)"/>
     <use xlink:href="#DejaVuSans-3" transform="translate(534.84375 0)"/>
     <use xlink:href="#DejaVuSans-33" transform="translate(566.625 0)"/>
     <use xlink:href="#DejaVuSans-2a" transform="translate(626.921875 0)"/>
     <use xlink:href="#DejaVuSans-27" transform="translate(704.40625 0)"/>
     <use xlink:href="#DejaVuSans-3" transform="translate(781.40625 0)"/>
     <use xlink:href="#DejaVuSans-a" transform="translate(813.1875 0)"/>
     <use xlink:href="#DejaVuSans-14" transform="translate(840.671875 0)"/>
     <use xlink:href="#DejaVuSans-1a" transform="translate(904.296875 0)"/>
    </g>
    <!-- full surrogate gradients -->
    <g style="fill: #e5e7eb" transform="translate(60.192959 144.775924) scale(0.096 -0.096)">
     <defs>
      <path id="DejaVuSans-47" d="M 2906 2969 
L 2906 4863 
L 3481 4863 
L 3481 0 
L 2906 0 
L 2906 525 
Q 2725 213 2448 61 
Q 2172 -91 1784 -91 
Q 1150 -91 751 415 
Q 353 922 353 1747 
Q 353 2572 751 3078 
Q 1150 3584 1784 3584 
Q 2172 3584 2448 3432 
Q 2725 3281 2906 2969 
z
M 947 1747 
Q 947 1113 1208 752 
Q 1469 391 1925 391 
Q 2381 391 2643 752 
Q 2906 1113 2906 1747 
Q 2906 2381 2643 2742 
Q 2381 3103 1925 3103 
Q 1469 3103 1208 2742 
Q 947 2381 947 1747 
z
" transform="scale(0.015625)"/>
     </defs>
     <use xlink:href="#DejaVuSans-49"/>
     <use xlink:href="#DejaVuSans-58" transform="translate(35.203125 0)"/>
     <use xlink:href="#DejaVuSans-4f" transform="translate(98.578125 0)"/>
     <use xlink:href="#DejaVuSans-4f" transform="translate(126.359375 0)"/>
     <use xlink:href="#DejaVuSans-3" transform="translate(154.140625 0)"/>
     <use xlink:href="#DejaVuSans-56" transform="translate(185.921875 0)"/>
     <use xlink:href="#DejaVuSans-58" transform="translate(238.015625 0)"/>
     <use xlink:href="#DejaVuSans-55" transform="translate(301.390625 0)"/>
     <use xlink:href="#DejaVuSans-55" transform="translate(340.75 0)"/>
     <use xlink:href="#DejaVuSans-52" transform="translate(379.65625 0)"/>
     <use xlink:href="#DejaVuSans-4a" transform="translate(440.84375 0)"/>
     <use xlink:href="#DejaVuSans-44" transform="translate(504.328125 0)"/>
     <use xlink:href="#DejaVuSans-57" transform="translate(565.609375 0)"/>
     <use xlink:href="#DejaVuSans-48" transform="translate(604.8125 0)"/>
     <use xlink:href="#DejaVuSans-3" transform="translate(666.34375 0)"/>
     <use xlink:href="#DejaVuSans-4a" transform="translate(698.125 0)"/>
     <use xlink:href="#DejaVuSans-55" transform="translate(761.609375 0)"/>
     <use xlink:href="#DejaVuSans-44" transform="translate(802.71875 0)"/>
     <use xlink:href="#DejaVuSans-47" transform="translate(864 0)"/>
     <use xlink:href="#DejaVuSans-4c" transform="translate(927.484375 0)"/>
     <use xlink:href="#DejaVuSans-48" transform="translate(955.265625 0)"/>
     <use xlink:href="#DejaVuSans-51" transform="translate(1016.796875 0)"/>
     <use xlink:href="#DejaVuSans-57" transform="translate(1080.171875 0)"/>
     <use xlink:href="#DejaVuSans-56" transform="translate(1119.375 0)"/>
    </g>
   </g>
   <g id="text_5">
    <!-- TIER 2 · TRANSFER -->
    <g style="fill: #fbbf24" transform="translate(281.053209 88.025538) scale(0.115 -0.115)">
     <defs>
      <path id="DejaVuSans-Bold-15" d="M 1844 884 
L 3897 884 
L 3897 0 
L 506 0 
L 506 884 
L 2209 2388 
Q 2438 2594 2547 2791 
Q 2656 2988 2656 3200 
Q 2656 3528 2436 3728 
Q 2216 3928 1850 3928 
Q 1569 3928 1234 3808 
Q 900 3688 519 3450 
L 519 4475 
Q 925 4609 1322 4679 
Q 1719 4750 2100 4750 
Q 2938 4750 3402 4381 
Q 3866 4013 3866 3353 
Q 3866 2972 3669 2642 
Q 3472 2313 2841 1759 
L 1844 884 
z
" transform="scale(0.015625)"/>
     </defs>
     <use xlink:href="#DejaVuSans-Bold-37"/>
     <use xlink:href="#DejaVuSans-Bold-2c" transform="translate(68.21875 0)"/>
     <use xlink:href="#DejaVuSans-Bold-28" transform="translate(105.421875 0)"/>
     <use xlink:href="#DejaVuSans-Bold-35" transform="translate(173.734375 0)"/>
     <use xlink:href="#DejaVuSans-Bold-3" transform="translate(250.734375 0)"/>
     <use xlink:href="#DejaVuSans-Bold-15" transform="translate(285.546875 0)"/>
     <use xlink:href="#DejaVuSans-Bold-3" transform="translate(355.125 0)"/>
     <use xlink:href="#DejaVuSans-Bold-79" transform="translate(389.9375 0)"/>
     <use xlink:href="#DejaVuSans-Bold-3" transform="translate(427.921875 0)"/>
     <use xlink:href="#DejaVuSans-Bold-37" transform="translate(462.734375 0)"/>
     <use xlink:href="#DejaVuSans-Bold-35" transform="translate(530.953125 0)"/>
     <use xlink:href="#DejaVuSans-Bold-24" transform="translate(607.953125 0)"/>
     <use xlink:href="#DejaVuSans-Bold-31" transform="translate(685.34375 0)"/>
     <use xlink:href="#DejaVuSans-Bold-36" transform="translate(769.03125 0)"/>
     <use xlink:href="#DejaVuSans-Bold-29" transform="translate(841.046875 0)"/>
     <use xlink:href="#DejaVuSans-Bold-28" transform="translate(909.359375 0)"/>
     <use xlink:href="#DejaVuSans-Bold-35" transform="translate(977.671875 0)"/>
    </g>
   </g>
   <g id="text_6">
    <!-- Papernot '16 -->
    <g style="fill: #e5e7eb" transform="translate(311.372842 133.253299) scale(0.096 -0.096)">
     <defs>
      <path id="DejaVuSans-19" d="M 2113 2584 
Q 1688 2584 1439 2293 
Q 1191 2003 1191 1497 
Q 1191 994 1439 701 
Q 1688 409 2113 409 
Q 2538 409 2786 701 
Q 3034 994 3034 1497 
Q 3034 2003 2786 2293 
Q 2538 2584 2113 2584 
z
M 3366 4563 
L 3366 3988 
Q 3128 4100 2886 4159 
Q 2644 4219 2406 4219 
Q 1781 4219 1451 3797 
Q 1122 3375 1075 2522 
Q 1259 2794 1537 2939 
Q 1816 3084 2150 3084 
Q 2853 3084 3261 2657 
Q 3669 2231 3669 1497 
Q 3669 778 3244 343 
Q 2819 -91 2113 -91 
Q 1303 -91 875 529 
Q 447 1150 447 2328 
Q 447 3434 972 4092 
Q 1497 4750 2381 4750 
Q 2619 4750 2861 4703 
Q 3103 4656 3366 4563 
z
" transform="scale(0.015625)"/>
     </defs>
     <use xlink:href="#DejaVuSans-33"/>
     <use xlink:href="#DejaVuSans-44" transform="translate(55.8125 0)"/>
     <use xlink:href="#DejaVuSans-53" transform="translate(117.09375 0)"/>
     <use xlink:href="#DejaVuSans-48" transform="translate(180.578125 0)"/>
     <use xlink:href="#DejaVuSans-55" transform="translate(242.109375 0)"/>
     <use xlink:href="#DejaVuSans-51" transform="translate(281.46875 0)"/>
     <use xlink:href="#DejaVuSans-52" transform="translate(344.84375 0)"/>
     <use xlink:href="#DejaVuSans-57" transform="translate(406.03125 0)"/>
     <use xlink:href="#DejaVuSans-3" transform="translate(445.234375 0)"/>
     <use xlink:href="#DejaVuSans-a" transform="translate(477.015625 0)"/>
     <use xlink:href="#DejaVuSans-14" transform="translate(504.5 0)"/>
     <use xlink:href="#DejaVuSans-19" transform="translate(568.125 0)"/>
    </g>
    <!-- surrogate · ~0 queries -->
    <g style="fill: #e5e7eb" transform="translate(287.654842 144.775924) scale(0.096 -0.096)">
     <defs>
      <path id="DejaVuSans-61" d="M 4684 2553 
L 4684 1997 
Q 4356 1750 4076 1644 
Q 3797 1538 3494 1538 
Q 3150 1538 2694 1722 
Q 2659 1734 2644 1741 
Q 2622 1750 2575 1766 
Q 2091 1959 1797 1959 
Q 1522 1959 1253 1839 
Q 984 1719 678 1459 
L 678 2016 
Q 1006 2263 1286 2370 
Q 1566 2478 1869 2478 
Q 2213 2478 2672 2291 
Q 2703 2278 2719 2272 
Q 2744 2263 2788 2247 
Q 3272 2053 3566 2053 
Q 3834 2053 4098 2172 
Q 4363 2291 4684 2553 
z
" transform="scale(0.015625)"/>
      <path id="DejaVuSans-13" d="M 2034 4250 
Q 1547 4250 1301 3770 
Q 1056 3291 1056 2328 
Q 1056 1369 1301 889 
Q 1547 409 2034 409 
Q 2525 409 2770 889 
Q 3016 1369 3016 2328 
Q 3016 3291 2770 3770 
Q 2525 4250 2034 4250 
z
M 2034 4750 
Q 2819 4750 3233 4129 
Q 3647 3509 3647 2328 
Q 3647 1150 3233 529 
Q 2819 -91 2034 -91 
Q 1250 -91 836 529 
Q 422 1150 422 2328 
Q 422 3509 836 4129 
Q 1250 4750 2034 4750 
z
" transform="scale(0.015625)"/>
      <path id="DejaVuSans-54" d="M 947 1747 
Q 947 1113 1208 752 
Q 1469 391 1925 391 
Q 2381 391 2643 752 
Q 2906 1113 2906 1747 
Q 2906 2381 2643 2742 
Q 2381 3103 1925 3103 
Q 1469 3103 1208 2742 
Q 947 2381 947 1747 
z
M 2906 525 
Q 2725 213 2448 61 
Q 2172 -91 1784 -91 
Q 1150 -91 751 415 
Q 353 922 353 1747 
Q 353 2572 751 3078 
Q 1150 3584 1784 3584 
Q 2172 3584 2448 3432 
Q 2725 3281 2906 2969 
L 2906 3500 
L 3481 3500 
L 3481 -1331 
L 2906 -1331 
L 2906 525 
z
" transform="scale(0.015625)"/>
     </defs>
     <use xlink:href="#DejaVuSans-56"/>
     <use xlink:href="#DejaVuSans-58" transform="translate(52.09375 0)"/>
     <use xlink:href="#DejaVuSans-55" transform="translate(115.46875 0)"/>
     <use xlink:href="#DejaVuSans-55" transform="translate(154.828125 0)"/>
     <use xlink:href="#DejaVuSans-52" transform="translate(193.734375 0)"/>
     <use xlink:href="#DejaVuSans-4a" transform="translate(254.921875 0)"/>
     <use xlink:href="#DejaVuSans-44" transform="translate(318.40625 0)"/>
     <use xlink:href="#DejaVuSans-57" transform="translate(379.6875 0)"/>
     <use xlink:href="#DejaVuSans-48" transform="translate(418.890625 0)"/>
     <use xlink:href="#DejaVuSans-3" transform="translate(480.421875 0)"/>
     <use xlink:href="#DejaVuSans-79" transform="translate(512.203125 0)"/>
     <use xlink:href="#DejaVuSans-3" transform="translate(543.984375 0)"/>
     <use xlink:href="#DejaVuSans-61" transform="translate(575.765625 0)"/>
     <use xlink:href="#DejaVuSans-13" transform="translate(659.5625 0)"/>
     <use xlink:href="#DejaVuSans-3" transform="translate(723.1875 0)"/>
     <use xlink:href="#DejaVuSans-54" transform="translate(754.96875 0)"/>
     <use xlink:href="#DejaVuSans-58" transform="translate(818.453125 0)"/>
     <use xlink:href="#DejaVuSans-48" transform="translate(881.828125 0)"/>
     <use xlink:href="#DejaVuSans-55" transform="translate(943.359375 0)"/>
     <use xlink:href="#DejaVuSans-4c" transform="translate(984.46875 0)"/>
     <use xlink:href="#DejaVuSans-48" transform="translate(1012.25 0)"/>
     <use xlink:href="#DejaVuSans-56" transform="translate(1073.78125 0)"/>
    </g>
   </g>
   <g id="text_7">
    <!-- TIER 3 · LOCAL SEARCH -->
    <g style="fill: #fb7185" transform="translate(491.701827 88.025538) scale(0.115 -0.115)">
     <defs>
      <path id="DejaVuSans-Bold-16" d="M 2981 2516 
Q 3453 2394 3698 2092 
Q 3944 1791 3944 1325 
Q 3944 631 3412 270 
Q 2881 -91 1863 -91 
Q 1503 -91 1142 -33 
Q 781 25 428 141 
L 428 1069 
Q 766 900 1098 814 
Q 1431 728 1753 728 
Q 2231 728 2486 893 
Q 2741 1059 2741 1369 
Q 2741 1688 2480 1852 
Q 2219 2016 1709 2016 
L 1228 2016 
L 1228 2791 
L 1734 2791 
Q 2188 2791 2409 2933 
Q 2631 3075 2631 3366 
Q 2631 3634 2415 3781 
Q 2200 3928 1806 3928 
Q 1516 3928 1219 3862 
Q 922 3797 628 3669 
L 628 4550 
Q 984 4650 1334 4700 
Q 1684 4750 2022 4750 
Q 2931 4750 3382 4451 
Q 3834 4153 3834 3553 
Q 3834 3144 3618 2883 
Q 3403 2622 2981 2516 
z
" transform="scale(0.015625)"/>
      <path id="DejaVuSans-Bold-2f" d="M 588 4666 
L 1791 4666 
L 1791 909 
L 3903 909 
L 3903 0 
L 588 0 
L 588 4666 
z
" transform="scale(0.015625)"/>
     </defs>
     <use xlink:href="#DejaVuSans-Bold-37"/>
     <use xlink:href="#DejaVuSans-Bold-2c" transform="translate(68.21875 0)"/>
     <use xlink:href="#DejaVuSans-Bold-28" transform="translate(105.421875 0)"/>
     <use xlink:href="#DejaVuSans-Bold-35" transform="translate(173.734375 0)"/>
     <use xlink:href="#DejaVuSans-Bold-3" transform="translate(250.734375 0)"/>
     <use xlink:href="#DejaVuSans-Bold-16" transform="translate(285.546875 0)"/>
     <use xlink:href="#DejaVuSans-Bold-3" transform="translate(355.125 0)"/>
     <use xlink:href="#DejaVuSans-Bold-79" transform="translate(389.9375 0)"/>
     <use xlink:href="#DejaVuSans-Bold-3" transform="translate(427.921875 0)"/>
     <use xlink:href="#DejaVuSans-Bold-2f" transform="translate(462.734375 0)"/>
     <use xlink:href="#DejaVuSans-Bold-32" transform="translate(522.890625 0)"/>
     <use xlink:href="#DejaVuSans-Bold-26" transform="translate(607.90625 0)"/>
     <use xlink:href="#DejaVuSans-Bold-24" transform="translate(681.296875 0)"/>
     <use xlink:href="#DejaVuSans-Bold-2f" transform="translate(758.6875 0)"/>
     <use xlink:href="#DejaVuSans-Bold-3" transform="translate(822.40625 0)"/>
     <use xlink:href="#DejaVuSans-Bold-36" transform="translate(857.21875 0)"/>
     <use xlink:href="#DejaVuSans-Bold-28" transform="translate(929.234375 0)"/>
     <use xlink:href="#DejaVuSans-Bold-24" transform="translate(997.546875 0)"/>
     <use xlink:href="#DejaVuSans-Bold-35" transform="translate(1074.9375 0)"/>
     <use xlink:href="#DejaVuSans-Bold-26" transform="translate(1151.9375 0)"/>
     <use xlink:href="#DejaVuSans-Bold-2b" transform="translate(1225.328125 0)"/>
    </g>
   </g>
   <g id="text_8">
    <!-- Boundary Attack '18 -->
    <g style="fill: #e5e7eb" transform="translate(518.051476 133.253674) scale(0.096 -0.096)">
     <defs>
      <path id="DejaVuSans-25" d="M 1259 2228 
L 1259 519 
L 2272 519 
Q 2781 519 3026 730 
Q 3272 941 3272 1375 
Q 3272 1813 3026 2020 
Q 2781 2228 2272 2228 
L 1259 2228 
z
M 1259 4147 
L 1259 2741 
L 2194 2741 
Q 2656 2741 2882 2914 
Q 3109 3088 3109 3444 
Q 3109 3797 2882 3972 
Q 2656 4147 2194 4147 
L 1259 4147 
z
M 628 4666 
L 2241 4666 
Q 2963 4666 3353 4366 
Q 3744 4066 3744 3513 
Q 3744 3084 3544 2831 
Q 3344 2578 2956 2516 
Q 3422 2416 3680 2098 
Q 3938 1781 3938 1306 
Q 3938 681 3513 340 
Q 3088 0 2303 0 
L 628 0 
L 628 4666 
z
" transform="scale(0.015625)"/>
      <path id="DejaVuSans-5c" d="M 2059 -325 
Q 1816 -950 1584 -1140 
Q 1353 -1331 966 -1331 
L 506 -1331 
L 506 -850 
L 844 -850 
Q 1081 -850 1212 -737 
Q 1344 -625 1503 -206 
L 1606 56 
L 191 3500 
L 800 3500 
L 1894 763 
L 2988 3500 
L 3597 3500 
L 2059 -325 
z
" transform="scale(0.015625)"/>
      <path id="DejaVuSans-1b" d="M 2034 2216 
Q 1584 2216 1326 1975 
Q 1069 1734 1069 1313 
Q 1069 891 1326 650 
Q 1584 409 2034 409 
Q 2484 409 2743 651 
Q 3003 894 3003 1313 
Q 3003 1734 2745 1975 
Q 2488 2216 2034 2216 
z
M 1403 2484 
Q 997 2584 770 2862 
Q 544 3141 544 3541 
Q 544 4100 942 4425 
Q 1341 4750 2034 4750 
Q 2731 4750 3128 4425 
Q 3525 4100 3525 3541 
Q 3525 3141 3298 2862 
Q 3072 2584 2669 2484 
Q 3125 2378 3379 2068 
Q 3634 1759 3634 1313 
Q 3634 634 3220 271 
Q 2806 -91 2034 -91 
Q 1263 -91 848 271 
Q 434 634 434 1313 
Q 434 1759 690 2068 
Q 947 2378 1403 2484 
z
M 1172 3481 
Q 1172 3119 1398 2916 
Q 1625 2713 2034 2713 
Q 2441 2713 2670 2916 
Q 2900 3119 2900 3481 
Q 2900 3844 2670 4047 
Q 2441 4250 2034 4250 
Q 1625 4250 1398 4047 
Q 1172 3844 1172 3481 
z
" transform="scale(0.015625)"/>
     </defs>
     <use xlink:href="#DejaVuSans-25"/>
     <use xlink:href="#DejaVuSans-52" transform="translate(68.609375 0)"/>
     <use xlink:href="#DejaVuSans-58" transform="translate(129.796875 0)"/>
     <use xlink:href="#DejaVuSans-51" transform="translate(193.171875 0)"/>
     <use xlink:href="#DejaVuSans-47" transform="translate(256.546875 0)"/>
     <use xlink:href="#DejaVuSans-44" transform="translate(320.03125 0)"/>
     <use xlink:href="#DejaVuSans-55" transform="translate(381.3125 0)"/>
     <use xlink:href="#DejaVuSans-5c" transform="translate(422.421875 0)"/>
     <use xlink:href="#DejaVuSans-3" transform="translate(481.609375 0)"/>
     <use xlink:href="#DejaVuSans-24" transform="translate(513.390625 0)"/>
     <use xlink:href="#DejaVuSans-57" transform="translate(580.046875 0)"/>
     <use xlink:href="#DejaVuSans-57" transform="translate(619.25 0)"/>
     <use xlink:href="#DejaVuSans-44" transform="translate(658.453125 0)"/>
     <use xlink:href="#DejaVuSans-46" transform="translate(719.734375 0)"/>
     <use xlink:href="#DejaVuSans-4e" transform="translate(774.71875 0)"/>
     <use xlink:href="#DejaVuSans-3" transform="translate(832.625 0)"/>
     <use xlink:href="#DejaVuSans-a" transform="translate(864.40625 0)"/>
     <use xlink:href="#DejaVuSans-14" transform="translate(891.890625 0)"/>
     <use xlink:href="#DejaVuSans-1b" transform="translate(955.515625 0)"/>
    </g>
    <!-- random walk on the wall -->
    <g style="fill: #e5e7eb" transform="translate(507.881476 144.776299) scale(0.096 -0.096)">
     <defs>
      <path id="DejaVuSans-5a" d="M 269 3500 
L 844 3500 
L 1563 769 
L 2278 3500 
L 2956 3500 
L 3675 769 
L 4391 3500 
L 4966 3500 
L 4050 0 
L 3372 0 
L 2619 2869 
L 1863 0 
L 1184 0 
L 269 3500 
z
" transform="scale(0.015625)"/>
     </defs>
     <use xlink:href="#DejaVuSans-55"/>
     <use xlink:href="#DejaVuSans-44" transform="translate(41.109375 0)"/>
     <use xlink:href="#DejaVuSans-51" transform="translate(102.390625 0)"/>
     <use xlink:href="#DejaVuSans-47" transform="translate(165.765625 0)"/>
     <use xlink:href="#DejaVuSans-52" transform="translate(229.25 0)"/>
     <use xlink:href="#DejaVuSans-50" transform="translate(290.4375 0)"/>
     <use xlink:href="#DejaVuSans-3" transform="translate(387.84375 0)"/>
     <use xlink:href="#DejaVuSans-5a" transform="translate(419.625 0)"/>
     <use xlink:href="#DejaVuSans-44" transform="translate(501.40625 0)"/>
     <use xlink:href="#DejaVuSans-4f" transform="translate(562.6875 0)"/>
     <use xlink:href="#DejaVuSans-4e" transform="translate(590.46875 0)"/>
     <use xlink:href="#DejaVuSans-3" transform="translate(648.375 0)"/>
     <use xlink:href="#DejaVuSans-52" transform="translate(680.15625 0)"/>
     <use xlink:href="#DejaVuSans-51" transform="translate(741.34375 0)"/>
     <use xlink:href="#DejaVuSans-3" transform="translate(804.71875 0)"/>
     <use xlink:href="#DejaVuSans-57" transform="translate(836.5 0)"/>
     <use xlink:href="#DejaVuSans-4b" transform="translate(875.703125 0)"/>
     <use xlink:href="#DejaVuSans-48" transform="translate(939.078125 0)"/>
     <use xlink:href="#DejaVuSans-3" transform="translate(1000.609375 0)"/>
     <use xlink:href="#DejaVuSans-5a" transform="translate(1032.390625 0)"/>
     <use xlink:href="#DejaVuSans-44" transform="translate(1114.171875 0)"/>
     <use xlink:href="#DejaVuSans-4f" transform="translate(1175.453125 0)"/>
     <use xlink:href="#DejaVuSans-4f" transform="translate(1203.234375 0)"/>
    </g>
   </g>
   <g id="text_9">
    <!-- TIER 4 · PATH OPT -->
    <g style="fill: #fb7185" transform="translate(734.183882 88.025538) scale(0.115 -0.115)">
     <defs>
      <path id="DejaVuSans-Bold-17" d="M 2356 3675 
L 1038 1722 
L 2356 1722 
L 2356 3675 
z
M 2156 4666 
L 3494 4666 
L 3494 1722 
L 4159 1722 
L 4159 850 
L 3494 850 
L 3494 0 
L 2356 0 
L 2356 850 
L 288 850 
L 288 1881 
L 2156 4666 
z
" transform="scale(0.015625)"/>
     </defs>
     <use xlink:href="#DejaVuSans-Bold-37"/>
     <use xlink:href="#DejaVuSans-Bold-2c" transform="translate(68.21875 0)"/>
     <use xlink:href="#DejaVuSans-Bold-28" transform="translate(105.421875 0)"/>
     <use xlink:href="#DejaVuSans-Bold-35" transform="translate(173.734375 0)"/>
     <use xlink:href="#DejaVuSans-Bold-3" transform="translate(250.734375 0)"/>
     <use xlink:href="#DejaVuSans-Bold-17" transform="translate(285.546875 0)"/>
     <use xlink:href="#DejaVuSans-Bold-3" transform="translate(355.125 0)"/>
     <use xlink:href="#DejaVuSans-Bold-79" transform="translate(389.9375 0)"/>
     <use xlink:href="#DejaVuSans-Bold-3" transform="translate(427.921875 0)"/>
     <use xlink:href="#DejaVuSans-Bold-33" transform="translate(462.734375 0)"/>
     <use xlink:href="#DejaVuSans-Bold-24" transform="translate(526.859375 0)"/>
     <use xlink:href="#DejaVuSans-Bold-37" transform="translate(596.484375 0)"/>
     <use xlink:href="#DejaVuSans-Bold-2b" transform="translate(664.703125 0)"/>
     <use xlink:href="#DejaVuSans-Bold-3" transform="translate(748.390625 0)"/>
     <use xlink:href="#DejaVuSans-Bold-32" transform="translate(783.203125 0)"/>
     <use xlink:href="#DejaVuSans-Bold-33" transform="translate(868.21875 0)"/>
     <use xlink:href="#DejaVuSans-Bold-37" transform="translate(941.515625 0)"/>
    </g>
   </g>
   <g id="text_10">
    <!-- OPT '19 · Sign-OPT '20 -->
    <g style="fill: #e5e7eb" transform="translate(738.217359 133.253674) scale(0.096 -0.096)">
     <defs>
      <path id="DejaVuSans-32" d="M 2522 4238 
Q 1834 4238 1429 3725 
Q 1025 3213 1025 2328 
Q 1025 1447 1429 934 
Q 1834 422 2522 422 
Q 3209 422 3611 934 
Q 4013 1447 4013 2328 
Q 4013 3213 3611 3725 
Q 3209 4238 2522 4238 
z
M 2522 4750 
Q 3503 4750 4090 4092 
Q 4678 3434 4678 2328 
Q 4678 1225 4090 567 
Q 3503 -91 2522 -91 
Q 1538 -91 948 565 
Q 359 1222 359 2328 
Q 359 3434 948 4092 
Q 1538 4750 2522 4750 
z
" transform="scale(0.015625)"/>
      <path id="DejaVuSans-1c" d="M 703 97 
L 703 672 
Q 941 559 1184 500 
Q 1428 441 1663 441 
Q 2288 441 2617 861 
Q 2947 1281 2994 2138 
Q 2813 1869 2534 1725 
Q 2256 1581 1919 1581 
Q 1219 1581 811 2004 
Q 403 2428 403 3163 
Q 403 3881 828 4315 
Q 1253 4750 1959 4750 
Q 2769 4750 3195 4129 
Q 3622 3509 3622 2328 
Q 3622 1225 3098 567 
Q 2575 -91 1691 -91 
Q 1453 -91 1209 -44 
Q 966 3 703 97 
z
M 1959 2075 
Q 2384 2075 2632 2365 
Q 2881 2656 2881 3163 
Q 2881 3666 2632 3958 
Q 2384 4250 1959 4250 
Q 1534 4250 1286 3958 
Q 1038 3666 1038 3163 
Q 1038 2656 1286 2365 
Q 1534 2075 1959 2075 
z
" transform="scale(0.015625)"/>
      <path id="DejaVuSans-10" d="M 313 2009 
L 1997 2009 
L 1997 1497 
L 313 1497 
L 313 2009 
z
" transform="scale(0.015625)"/>
      <path id="DejaVuSans-15" d="M 1228 531 
L 3431 531 
L 3431 0 
L 469 0 
L 469 531 
Q 828 903 1448 1529 
Q 2069 2156 2228 2338 
Q 2531 2678 2651 2914 
Q 2772 3150 2772 3378 
Q 2772 3750 2511 3984 
Q 2250 4219 1831 4219 
Q 1534 4219 1204 4116 
Q 875 4013 500 3803 
L 500 4441 
Q 881 4594 1212 4672 
Q 1544 4750 1819 4750 
Q 2544 4750 2975 4387 
Q 3406 4025 3406 3419 
Q 3406 3131 3298 2873 
Q 3191 2616 2906 2266 
Q 2828 2175 2409 1742 
Q 1991 1309 1228 531 
z
" transform="scale(0.015625)"/>
     </defs>
     <use xlink:href="#DejaVuSans-32"/>
     <use xlink:href="#DejaVuSans-33" transform="translate(78.71875 0)"/>
     <use xlink:href="#DejaVuSans-37" transform="translate(139.015625 0)"/>
     <use xlink:href="#DejaVuSans-3" transform="translate(200.09375 0)"/>
     <use xlink:href="#DejaVuSans-a" transform="translate(231.875 0)"/>
     <use xlink:href="#DejaVuSans-14" transform="translate(259.359375 0)"/>
     <use xlink:href="#DejaVuSans-1c" transform="translate(322.984375 0)"/>
     <use xlink:href="#DejaVuSans-3" transform="translate(386.609375 0)"/>
     <use xlink:href="#DejaVuSans-79" transform="translate(418.390625 0)"/>
     <use xlink:href="#DejaVuSans-3" transform="translate(450.171875 0)"/>
     <use xlink:href="#DejaVuSans-36" transform="translate(481.953125 0)"/>
     <use xlink:href="#DejaVuSans-4c" transform="translate(545.4375 0)"/>
     <use xlink:href="#DejaVuSans-4a" transform="translate(573.21875 0)"/>
     <use xlink:href="#DejaVuSans-51" transform="translate(636.703125 0)"/>
     <use xlink:href="#DejaVuSans-10" transform="translate(700.078125 0)"/>
     <use xlink:href="#DejaVuSans-32" transform="translate(738.9375 0)"/>
     <use xlink:href="#DejaVuSans-33" transform="translate(817.65625 0)"/>
     <use xlink:href="#DejaVuSans-37" transform="translate(877.953125 0)"/>
     <use xlink:href="#DejaVuSans-3" transform="translate(939.03125 0)"/>
     <use xlink:href="#DejaVuSans-a" transform="translate(970.8125 0)"/>
     <use xlink:href="#DejaVuSans-15" transform="translate(998.296875 0)"/>
     <use xlink:href="#DejaVuSans-13" transform="translate(1061.921875 0)"/>
    </g>
    <!-- directional · sign probes -->
    <g style="fill: #e5e7eb" transform="translate(734.555109 144.776299) scale(0.096 -0.096)">
     <use xlink:href="#DejaVuSans-47"/>
     <use xlink:href="#DejaVuSans-4c" transform="translate(63.484375 0)"/>
     <use xlink:href="#DejaVuSans-55" transform="translate(91.265625 0)"/>
     <use xlink:href="#DejaVuSans-48" transform="translate(130.171875 0)"/>
     <use xlink:href="#DejaVuSans-46" transform="translate(191.703125 0)"/>
     <use xlink:href="#DejaVuSans-57" transform="translate(246.6875 0)"/>
     <use xlink:href="#DejaVuSans-4c" transform="translate(285.890625 0)"/>
     <use xlink:href="#DejaVuSans-52" transform="translate(313.671875 0)"/>
     <use xlink:href="#DejaVuSans-51" transform="translate(374.859375 0)"/>
     <use xlink:href="#DejaVuSans-44" transform="translate(438.234375 0)"/>
     <use xlink:href="#DejaVuSans-4f" transform="translate(499.515625 0)"/>
     <use xlink:href="#DejaVuSans-3" transform="translate(527.296875 0)"/>
     <use xlink:href="#DejaVuSans-79" transform="translate(559.078125 0)"/>
     <use xlink:href="#DejaVuSans-3" transform="translate(590.859375 0)"/>
     <use xlink:href="#DejaVuSans-56" transform="translate(622.640625 0)"/>
     <use xlink:href="#DejaVuSans-4c" transform="translate(674.734375 0)"/>
     <use xlink:href="#DejaVuSans-4a" transform="translate(702.515625 0)"/>
     <use xlink:href="#DejaVuSans-51" transform="translate(766 0)"/>
     <use xlink:href="#DejaVuSans-3" transform="translate(829.375 0)"/>
     <use xlink:href="#DejaVuSans-53" transform="translate(861.15625 0)"/>
     <use xlink:href="#DejaVuSans-55" transform="translate(924.640625 0)"/>
     <use xlink:href="#DejaVuSans-52" transform="translate(963.546875 0)"/>
     <use xlink:href="#DejaVuSans-45" transform="translate(1024.734375 0)"/>
     <use xlink:href="#DejaVuSans-48" transform="translate(1088.21875 0)"/>
     <use xlink:href="#DejaVuSans-56" transform="translate(1149.75 0)"/>
    </g>
   </g>
   <g id="text_11">
    <!-- TIER 5 · NORMAL EST. -->
    <g style="fill: #fb7185" transform="translate(722.368531 294.388615) scale(0.115 -0.115)">
     <defs>
      <path id="DejaVuSans-Bold-18" d="M 678 4666 
L 3669 4666 
L 3669 3781 
L 1638 3781 
L 1638 3059 
Q 1775 3097 1914 3117 
Q 2053 3138 2203 3138 
Q 3056 3138 3531 2711 
Q 4006 2284 4006 1522 
Q 4006 766 3489 337 
Q 2972 -91 2053 -91 
Q 1656 -91 1267 -14 
Q 878 63 494 219 
L 494 1166 
Q 875 947 1217 837 
Q 1559 728 1863 728 
Q 2300 728 2551 942 
Q 2803 1156 2803 1522 
Q 2803 1891 2551 2103 
Q 2300 2316 1863 2316 
Q 1603 2316 1309 2248 
Q 1016 2181 678 2041 
L 678 4666 
z
" transform="scale(0.015625)"/>
      <path id="DejaVuSans-Bold-30" d="M 588 4666 
L 2119 4666 
L 3181 2169 
L 4250 4666 
L 5778 4666 
L 5778 0 
L 4641 0 
L 4641 3413 
L 3566 897 
L 2803 897 
L 1728 3413 
L 1728 0 
L 588 0 
L 588 4666 
z
" transform="scale(0.015625)"/>
      <path id="DejaVuSans-Bold-11" d="M 653 1209 
L 1778 1209 
L 1778 0 
L 653 0 
L 653 1209 
z
" transform="scale(0.015625)"/>
     </defs>
     <use xlink:href="#DejaVuSans-Bold-37"/>
     <use xlink:href="#DejaVuSans-Bold-2c" transform="translate(68.21875 0)"/>
     <use xlink:href="#DejaVuSans-Bold-28" transform="translate(105.421875 0)"/>
     <use xlink:href="#DejaVuSans-Bold-35" transform="translate(173.734375 0)"/>
     <use xlink:href="#DejaVuSans-Bold-3" transform="translate(250.734375 0)"/>
     <use xlink:href="#DejaVuSans-Bold-18" transform="translate(285.546875 0)"/>
     <use xlink:href="#DejaVuSans-Bold-3" transform="translate(355.125 0)"/>
     <use xlink:href="#DejaVuSans-Bold-79" transform="translate(389.9375 0)"/>
     <use xlink:href="#DejaVuSans-Bold-3" transform="translate(427.921875 0)"/>
     <use xlink:href="#DejaVuSans-Bold-31" transform="translate(462.734375 0)"/>
     <use xlink:href="#DejaVuSans-Bold-32" transform="translate(546.421875 0)"/>
     <use xlink:href="#DejaVuSans-Bold-35" transform="translate(631.4375 0)"/>
     <use xlink:href="#DejaVuSans-Bold-30" transform="translate(708.4375 0)"/>
     <use xlink:href="#DejaVuSans-Bold-24" transform="translate(807.953125 0)"/>
     <use xlink:href="#DejaVuSans-Bold-2f" transform="translate(885.34375 0)"/>
     <use xlink:href="#DejaVuSans-Bold-3" transform="translate(949.0625 0)"/>
     <use xlink:href="#DejaVuSans-Bold-28" transform="translate(983.875 0)"/>
     <use xlink:href="#DejaVuSans-Bold-36" transform="translate(1052.1875 0)"/>
     <use xlink:href="#DejaVuSans-Bold-37" transform="translate(1124.203125 0)"/>
     <use xlink:href="#DejaVuSans-Bold-11" transform="translate(1177.234375 0)"/>
    </g>
   </g>
   <g id="text_12">
    <!-- HopSkipJump '20 -->
    <g style="fill: #e5e7eb" transform="translate(751.308609 339.616751) scale(0.096 -0.096)">
     <defs>
      <path id="DejaVuSans-2b" d="M 628 4666 
L 1259 4666 
L 1259 2753 
L 3553 2753 
L 3553 4666 
L 4184 4666 
L 4184 0 
L 3553 0 
L 3553 2222 
L 1259 2222 
L 1259 0 
L 628 0 
L 628 4666 
z
" transform="scale(0.015625)"/>
      <path id="DejaVuSans-2d" d="M 628 4666 
L 1259 4666 
L 1259 325 
Q 1259 -519 939 -900 
Q 619 -1281 -91 -1281 
L -331 -1281 
L -331 -750 
L -134 -750 
Q 284 -750 456 -515 
Q 628 -281 628 325 
L 628 4666 
z
" transform="scale(0.015625)"/>
     </defs>
     <use xlink:href="#DejaVuSans-2b"/>
     <use xlink:href="#DejaVuSans-52" transform="translate(75.203125 0)"/>
     <use xlink:href="#DejaVuSans-53" transform="translate(136.390625 0)"/>
     <use xlink:href="#DejaVuSans-36" transform="translate(199.875 0)"/>
     <use xlink:href="#DejaVuSans-4e" transform="translate(263.359375 0)"/>
     <use xlink:href="#DejaVuSans-4c" transform="translate(321.265625 0)"/>
     <use xlink:href="#DejaVuSans-53" transform="translate(349.046875 0)"/>
     <use xlink:href="#DejaVuSans-2d" transform="translate(412.53125 0)"/>
     <use xlink:href="#DejaVuSans-58" transform="translate(442.03125 0)"/>
     <use xlink:href="#DejaVuSans-50" transform="translate(505.40625 0)"/>
     <use xlink:href="#DejaVuSans-53" transform="translate(602.8125 0)"/>
     <use xlink:href="#DejaVuSans-3" transform="translate(666.296875 0)"/>
     <use xlink:href="#DejaVuSans-a" transform="translate(698.078125 0)"/>
     <use xlink:href="#DejaVuSans-15" transform="translate(725.5625 0)"/>
     <use xlink:href="#DejaVuSans-13" transform="translate(789.1875 0)"/>
    </g>
    <!-- Monte-Carlo normal -->
    <g style="fill: #e5e7eb" transform="translate(744.674859 351.139376) scale(0.096 -0.096)">
     <defs>
      <path id="DejaVuSans-26" d="M 4122 4306 
L 4122 3641 
Q 3803 3938 3442 4084 
Q 3081 4231 2675 4231 
Q 1875 4231 1450 3742 
Q 1025 3253 1025 2328 
Q 1025 1406 1450 917 
Q 1875 428 2675 428 
Q 3081 428 3442 575 
Q 3803 722 4122 1019 
L 4122 359 
Q 3791 134 3420 21 
Q 3050 -91 2638 -91 
Q 1578 -91 968 557 
Q 359 1206 359 2328 
Q 359 3453 968 4101 
Q 1578 4750 2638 4750 
Q 3056 4750 3426 4639 
Q 3797 4528 4122 4306 
z
" transform="scale(0.015625)"/>
     </defs>
     <use xlink:href="#DejaVuSans-30"/>
     <use xlink:href="#DejaVuSans-52" transform="translate(86.28125 0)"/>
     <use xlink:href="#DejaVuSans-51" transform="translate(147.46875 0)"/>
     <use xlink:href="#DejaVuSans-57" transform="translate(210.84375 0)"/>
     <use xlink:href="#DejaVuSans-48" transform="translate(250.046875 0)"/>
     <use xlink:href="#DejaVuSans-10" transform="translate(311.578125 0)"/>
     <use xlink:href="#DejaVuSans-26" transform="translate(347.65625 0)"/>
     <use xlink:href="#DejaVuSans-44" transform="translate(417.484375 0)"/>
     <use xlink:href="#DejaVuSans-55" transform="translate(478.765625 0)"/>
     <use xlink:href="#DejaVuSans-4f" transform="translate(519.875 0)"/>
     <use xlink:href="#DejaVuSans-52" transform="translate(547.65625 0)"/>
     <use xlink:href="#DejaVuSans-3" transform="translate(608.84375 0)"/>
     <use xlink:href="#DejaVuSans-51" transform="translate(640.625 0)"/>
     <use xlink:href="#DejaVuSans-52" transform="translate(704 0)"/>
     <use xlink:href="#DejaVuSans-55" transform="translate(765.1875 0)"/>
     <use xlink:href="#DejaVuSans-50" transform="translate(804.546875 0)"/>
     <use xlink:href="#DejaVuSans-44" transform="translate(901.953125 0)"/>
     <use xlink:href="#DejaVuSans-4f" transform="translate(963.234375 0)"/>
    </g>
   </g>
   <g id="text_13">
    <!-- TIER 6 · SUBSPACE -->
    <g style="fill: #fb7185" transform="translate(506.744366 294.388615) scale(0.115 -0.115)">
     <defs>
      <path id="DejaVuSans-Bold-19" d="M 2316 2303 
Q 2000 2303 1842 2098 
Q 1684 1894 1684 1484 
Q 1684 1075 1842 870 
Q 2000 666 2316 666 
Q 2634 666 2792 870 
Q 2950 1075 2950 1484 
Q 2950 1894 2792 2098 
Q 2634 2303 2316 2303 
z
M 3803 4544 
L 3803 3681 
Q 3506 3822 3243 3889 
Q 2981 3956 2731 3956 
Q 2194 3956 1894 3657 
Q 1594 3359 1544 2772 
Q 1750 2925 1990 3001 
Q 2231 3078 2516 3078 
Q 3231 3078 3670 2659 
Q 4109 2241 4109 1563 
Q 4109 813 3618 361 
Q 3128 -91 2303 -91 
Q 1394 -91 895 523 
Q 397 1138 397 2266 
Q 397 3422 980 4083 
Q 1563 4744 2578 4744 
Q 2900 4744 3203 4694 
Q 3506 4644 3803 4544 
z
" transform="scale(0.015625)"/>
     </defs>
     <use xlink:href="#DejaVuSans-Bold-37"/>
     <use xlink:href="#DejaVuSans-Bold-2c" transform="translate(68.21875 0)"/>
     <use xlink:href="#DejaVuSans-Bold-28" transform="translate(105.421875 0)"/>
     <use xlink:href="#DejaVuSans-Bold-35" transform="translate(173.734375 0)"/>
     <use xlink:href="#DejaVuSans-Bold-3" transform="translate(250.734375 0)"/>
     <use xlink:href="#DejaVuSans-Bold-19" transform="translate(285.546875 0)"/>
     <use xlink:href="#DejaVuSans-Bold-3" transform="translate(355.125 0)"/>
     <use xlink:href="#DejaVuSans-Bold-79" transform="translate(389.9375 0)"/>
     <use xlink:href="#DejaVuSans-Bold-3" transform="translate(427.921875 0)"/>
     <use xlink:href="#DejaVuSans-Bold-36" transform="translate(462.734375 0)"/>
     <use xlink:href="#DejaVuSans-Bold-38" transform="translate(534.75 0)"/>
     <use xlink:href="#DejaVuSans-Bold-25" transform="translate(615.953125 0)"/>
     <use xlink:href="#DejaVuSans-Bold-36" transform="translate(692.171875 0)"/>
     <use xlink:href="#DejaVuSans-Bold-33" transform="translate(764.1875 0)"/>
     <use xlink:href="#DejaVuSans-Bold-24" transform="translate(828.3125 0)"/>
     <use xlink:href="#DejaVuSans-Bold-26" transform="translate(905.703125 0)"/>
     <use xlink:href="#DejaVuSans-Bold-28" transform="translate(979.09375 0)"/>
    </g>
   </g>
   <g id="text_14">
    <!-- Triangle '22 -->
    <g style="fill: #e5e7eb" transform="translate(539.166976 339.616751) scale(0.096 -0.096)">
     <use xlink:href="#DejaVuSans-37"/>
     <use xlink:href="#DejaVuSans-55" transform="translate(46.375 0)"/>
     <use xlink:href="#DejaVuSans-4c" transform="translate(87.484375 0)"/>
     <use xlink:href="#DejaVuSans-44" transform="translate(115.265625 0)"/>
     <use xlink:href="#DejaVuSans-51" transform="translate(176.546875 0)"/>
     <use xlink:href="#DejaVuSans-4a" transform="translate(239.921875 0)"/>
     <use xlink:href="#DejaVuSans-4f" transform="translate(303.40625 0)"/>
     <use xlink:href="#DejaVuSans-48" transform="translate(331.1875 0)"/>
     <use xlink:href="#DejaVuSans-3" transform="translate(392.71875 0)"/>
     <use xlink:href="#DejaVuSans-a" transform="translate(424.5 0)"/>
     <use xlink:href="#DejaVuSans-15" transform="translate(451.984375 0)"/>
     <use xlink:href="#DejaVuSans-15" transform="translate(515.609375 0)"/>
    </g>
    <!-- law of sines · DCT -->
    <g style="fill: #e5e7eb" transform="translate(524.205976 351.139376) scale(0.096 -0.096)">
     <use xlink:href="#DejaVuSans-4f"/>
     <use xlink:href="#DejaVuSans-44" transform="translate(27.78125 0)"/>
     <use xlink:href="#DejaVuSans-5a" transform="translate(89.0625 0)"/>
     <use xlink:href="#DejaVuSans-3" transform="translate(170.84375 0)"/>
     <use xlink:href="#DejaVuSans-52" transform="translate(202.625 0)"/>
     <use xlink:href="#DejaVuSans-49" transform="translate(263.8125 0)"/>
     <use xlink:href="#DejaVuSans-3" transform="translate(299.015625 0)"/>
     <use xlink:href="#DejaVuSans-56" transform="translate(330.796875 0)"/>
     <use xlink:href="#DejaVuSans-4c" transform="translate(382.890625 0)"/>
     <use xlink:href="#DejaVuSans-51" transform="translate(410.671875 0)"/>
     <use xlink:href="#DejaVuSans-48" transform="translate(474.046875 0)"/>
     <use xlink:href="#DejaVuSans-56" transform="translate(535.578125 0)"/>
     <use xlink:href="#DejaVuSans-3" transform="translate(587.671875 0)"/>
     <use xlink:href="#DejaVuSans-79" transform="translate(619.453125 0)"/>
     <use xlink:href="#DejaVuSans-3" transform="translate(651.234375 0)"/>
     <use xlink:href="#DejaVuSans-27" transform="translate(683.015625 0)"/>
     <use xlink:href="#DejaVuSans-26" transform="translate(760.015625 0)"/>
     <use xlink:href="#DejaVuSans-37" transform="translate(829.84375 0)"/>
    </g>
   </g>
   <g id="text_15">
    <!-- TIER 7 · HYBRID FUSION -->
    <g style="fill: #a7f3d0" transform="translate(263.812194 294.388615) scale(0.115 -0.115)">
     <defs>
      <path id="DejaVuSans-Bold-1a" d="M 428 4666 
L 3944 4666 
L 3944 3988 
L 2125 0 
L 953 0 
L 2675 3781 
L 428 3781 
L 428 4666 
z
" transform="scale(0.015625)"/>
     </defs>
     <use xlink:href="#DejaVuSans-Bold-37"/>
     <use xlink:href="#DejaVuSans-Bold-2c" transform="translate(68.21875 0)"/>
     <use xlink:href="#DejaVuSans-Bold-28" transform="translate(105.421875 0)"/>
     <use xlink:href="#DejaVuSans-Bold-35" transform="translate(173.734375 0)"/>
     <use xlink:href="#DejaVuSans-Bold-3" transform="translate(250.734375 0)"/>
     <use xlink:href="#DejaVuSans-Bold-1a" transform="translate(285.546875 0)"/>
     <use xlink:href="#DejaVuSans-Bold-3" transform="translate(355.125 0)"/>
     <use xlink:href="#DejaVuSans-Bold-79" transform="translate(389.9375 0)"/>
     <use xlink:href="#DejaVuSans-Bold-3" transform="translate(427.921875 0)"/>
     <use xlink:href="#DejaVuSans-Bold-2b" transform="translate(462.734375 0)"/>
     <use xlink:href="#DejaVuSans-Bold-3c" transform="translate(546.421875 0)"/>
     <use xlink:href="#DejaVuSans-Bold-25" transform="translate(618.828125 0)"/>
     <use xlink:href="#DejaVuSans-Bold-35" transform="translate(695.046875 0)"/>
     <use xlink:href="#DejaVuSans-Bold-2c" transform="translate(772.046875 0)"/>
     <use xlink:href="#DejaVuSans-Bold-27" transform="translate(809.25 0)"/>
     <use xlink:href="#DejaVuSans-Bold-3" transform="translate(892.265625 0)"/>
     <use xlink:href="#DejaVuSans-Bold-29" transform="translate(927.078125 0)"/>
     <use xlink:href="#DejaVuSans-Bold-38" transform="translate(995.390625 0)"/>
     <use xlink:href="#DejaVuSans-Bold-36" transform="translate(1076.59375 0)"/>
     <use xlink:href="#DejaVuSans-Bold-2c" transform="translate(1148.609375 0)"/>
     <use xlink:href="#DejaVuSans-Bold-32" transform="translate(1185.8125 0)"/>
     <use xlink:href="#DejaVuSans-Bold-31" transform="translate(1270.828125 0)"/>
    </g>
   </g>
   <g id="text_16">
    <!-- Biased '19 → SQBA '24 -->
    <g style="fill: #e5e7eb" transform="translate(287.246092 339.616751) scale(0.096 -0.096)">
     <defs>
      <path id="DejaVuSans-c1c" d="M 5050 2147 
L 5050 1866 
L 3822 638 
L 3447 1013 
L 4175 1741 
L 366 1741 
L 366 2272 
L 4175 2272 
L 3447 3000 
L 3822 3375 
L 5050 2147 
z
" transform="scale(0.015625)"/>
      <path id="DejaVuSans-34" d="M 2522 4238 
Q 1834 4238 1429 3725 
Q 1025 3213 1025 2328 
Q 1025 1447 1429 934 
Q 1834 422 2522 422 
Q 3209 422 3611 934 
Q 4013 1447 4013 2328 
Q 4013 3213 3611 3725 
Q 3209 4238 2522 4238 
z
M 3406 84 
L 4238 -825 
L 3475 -825 
L 2784 -78 
Q 2681 -84 2626 -87 
Q 2572 -91 2522 -91 
Q 1538 -91 948 567 
Q 359 1225 359 2328 
Q 359 3434 948 4092 
Q 1538 4750 2522 4750 
Q 3503 4750 4090 4092 
Q 4678 3434 4678 2328 
Q 4678 1516 4351 937 
Q 4025 359 3406 84 
z
" transform="scale(0.015625)"/>
     </defs>
     <use xlink:href="#DejaVuSans-25"/>
     <use xlink:href="#DejaVuSans-4c" transform="translate(68.609375 0)"/>
     <use xlink:href="#DejaVuSans-44" transform="translate(96.390625 0)"/>
     <use xlink:href="#DejaVuSans-56" transform="translate(157.671875 0)"/>
     <use xlink:href="#DejaVuSans-48" transform="translate(209.765625 0)"/>
     <use xlink:href="#DejaVuSans-47" transform="translate(271.296875 0)"/>
     <use xlink:href="#DejaVuSans-3" transform="translate(334.78125 0)"/>
     <use xlink:href="#DejaVuSans-a" transform="translate(366.5625 0)"/>
     <use xlink:href="#DejaVuSans-14" transform="translate(394.046875 0)"/>
     <use xlink:href="#DejaVuSans-1c" transform="translate(457.671875 0)"/>
     <use xlink:href="#DejaVuSans-3" transform="translate(521.296875 0)"/>
     <use xlink:href="#DejaVuSans-c1c" transform="translate(553.078125 0)"/>
     <use xlink:href="#DejaVuSans-3" transform="translate(636.875 0)"/>
     <use xlink:href="#DejaVuSans-36" transform="translate(668.65625 0)"/>
     <use xlink:href="#DejaVuSans-34" transform="translate(732.140625 0)"/>
     <use xlink:href="#DejaVuSans-25" transform="translate(810.859375 0)"/>
     <use xlink:href="#DejaVuSans-24" transform="translate(879.46875 0)"/>
     <use xlink:href="#DejaVuSans-3" transform="translate(947.875 0)"/>
     <use xlink:href="#DejaVuSans-a" transform="translate(979.65625 0)"/>
     <use xlink:href="#DejaVuSans-15" transform="translate(1007.140625 0)"/>
     <use xlink:href="#DejaVuSans-17" transform="translate(1070.765625 0)"/>
    </g>
    <!-- surrogate + query fallback -->
    <g style="fill: #e5e7eb" transform="translate(277.475092 351.139376) scale(0.096 -0.096)">
     <defs>
      <path id="DejaVuSans-e" d="M 2944 4013 
L 2944 2272 
L 4684 2272 
L 4684 1741 
L 2944 1741 
L 2944 0 
L 2419 0 
L 2419 1741 
L 678 1741 
L 678 2272 
L 2419 2272 
L 2419 4013 
L 2944 4013 
z
" transform="scale(0.015625)"/>
     </defs>
     <use xlink:href="#DejaVuSans-56"/>
     <use xlink:href="#DejaVuSans-58" transform="translate(52.09375 0)"/>
     <use xlink:href="#DejaVuSans-55" transform="translate(115.46875 0)"/>
     <use xlink:href="#DejaVuSans-55" transform="translate(154.828125 0)"/>
     <use xlink:href="#DejaVuSans-52" transform="translate(193.734375 0)"/>
     <use xlink:href="#DejaVuSans-4a" transform="translate(254.921875 0)"/>
     <use xlink:href="#DejaVuSans-44" transform="translate(318.40625 0)"/>
     <use xlink:href="#DejaVuSans-57" transform="translate(379.6875 0)"/>
     <use xlink:href="#DejaVuSans-48" transform="translate(418.890625 0)"/>
     <use xlink:href="#DejaVuSans-3" transform="translate(480.421875 0)"/>
     <use xlink:href="#DejaVuSans-e" transform="translate(512.203125 0)"/>
     <use xlink:href="#DejaVuSans-3" transform="translate(596 0)"/>
     <use xlink:href="#DejaVuSans-54" transform="translate(627.78125 0)"/>
     <use xlink:href="#DejaVuSans-58" transform="translate(691.265625 0)"/>
     <use xlink:href="#DejaVuSans-48" transform="translate(754.640625 0)"/>
     <use xlink:href="#DejaVuSans-55" transform="translate(816.171875 0)"/>
     <use xlink:href="#DejaVuSans-5c" transform="translate(857.28125 0)"/>
     <use xlink:href="#DejaVuSans-3" transform="translate(916.46875 0)"/>
     <use xlink:href="#DejaVuSans-49" transform="translate(948.25 0)"/>
     <use xlink:href="#DejaVuSans-44" transform="translate(983.453125 0)"/>
     <use xlink:href="#DejaVuSans-4f" transform="translate(1044.734375 0)"/>
     <use xlink:href="#DejaVuSans-4f" transform="translate(1072.515625 0)"/>
     <use xlink:href="#DejaVuSans-45" transform="translate(1100.296875 0)"/>
     <use xlink:href="#DejaVuSans-44" transform="translate(1163.78125 0)"/>
     <use xlink:href="#DejaVuSans-46" transform="translate(1225.0625 0)"/>
     <use xlink:href="#DejaVuSans-4e" transform="translate(1280.046875 0)"/>
    </g>
   </g>
  </g>
 </g>
 <defs>
  <clipPath id="pf7475d2b6f">
   <rect x="7.2" y="7.2" width="907.92" height="447.12"/>
  </clipPath>
 </defs>
</svg>
