<?xml version="1.0" encoding="utf-8" standalone="no"?>
<!DOCTYPE svg PUBLIC "-//W3C//DTD SVG 1.1//EN"
  "http://www.w3.org/Graphics/SVG/1.1/DTD/svg11.dtd">
<svg xmlns:xlink="http://www.w3.org/1999/xlink" width="668.16pt" height="504.72pt" viewBox="0 0 668.16 504.72" xmlns="http://www.w3.org/2000/svg" version="1.1">
 <metadata>
  <rdf:RDF xmlns:dc="http://purl.org/dc/elements/1.1/" xmlns:cc="http://creativecommons.org/ns#" xmlns:rdf="http://www.w3.org/1999/02/22-rdf-syntax-ns#">
   <cc:Work>
    <dc:type rdf:resource="http://purl.org/dc/dcmitype/StillImage"/>
    <dc:date>2026-06-22T17:47:44.110892</dc:date>
    <dc:format>image/svg+xml</dc:format>
    <dc:creator>
     <cc:Agent>
      <dc:title>Matplotlib v3.11.0, https://matplotlib.org/</dc:title>
     </cc:Agent>
    </dc:creator>
   </cc:Work>
  </rdf:RDF>
 </metadata>
 <defs>
  <style type="text/css">*{stroke-linejoin: round; stroke-linecap: butt}</style>
 </defs>
 <g id="figure_1">
  <g id="patch_1">
   <path d="M 0 504.72 
L 668.16 504.72 
L 668.16 0 
L 0 0 
L 0 504.72 
z
" style="fill: none"/>
  </g>
  <g id="axes_1">
   <g id="patch_2">
    <path d="M 7.2 497.52 
L 660.96 497.52 
L 660.96 7.2 
L 7.2 7.2 
L 7.2 497.52 
z
" style="fill: none"/>
   </g>
   <g id="FillBetweenPolyCollection_1">
    <defs>
     <path id="m6b88cb5fca" d="M 306.353571 -7.2 
L -86.194286 -7.2 
L -86.194286 -9.605255 
L -86.194286 -12.01051 
L -86.194286 -14.415765 
L -86.194286 -16.821019 
L -86.194286 -19.226274 
L -86.194286 -21.631529 
L -86.194286 -24.036784 
L -86.194286 -26.442039 
L -86.194286 -28.847294 
L -86.194286 -31.252548 
L -86.194286 -33.657803 
L -86.194286 -36.063058 
L -86.194286 -38.468313 
L -86.194286 -40.873568 
L -86.194286 -43.278823 
L -86.194286 -45.684078 
L -86.194286 -48.089332 
L -86.194286 -50.494587 
L -86.194286 -52.899842 
L -86.194286 -55.305097 
L -86.194286 -57.710352 
L -86.194286 -60.115607 
L -86.194286 -62.520861 
L -86.194286 -64.926116 
L -86.194286 -67.331371 
L -86.194286 -69.736626 
L -86.194286 -72.141881 
L -86.194286 -74.547136 
L -86.194286 -76.952391 
L -86.194286 -79.357645 
L -86.194286 -81.7629 
L -86.194286 -84.168155 
L -86.194286 -86.57341 
L -86.194286 -88.978665 
L -86.194286 -91.38392 
L -86.194286 -93.789174 
L -86.194286 -96.194429 
L -86.194286 -98.599684 
L -86.194286 -101.004939 
L -86.194286 -103.410194 
L -86.194286 -105.815449 
L -86.194286 -108.220704 
L -86.194286 -110.625958 
L -86.194286 -113.031213 
L -86.194286 -115.436468 
L -86.194286 -117.841723 
L -86.194286 -120.246978 
L -86.194286 -122.652233 
L -86.194286 -125.057487 
L -86.194286 -127.462742 
L -86.194286 -129.867997 
L -86.194286 -132.273252 
L -86.194286 -134.678507 
L -86.194286 -137.083762 
L -86.194286 -139.489017 
L -86.194286 -141.894271 
L -86.194286 -144.299526 
L -86.194286 -146.704781 
L -86.194286 -149.110036 
L -86.194286 -151.515291 
L -86.194286 -153.920546 
L -86.194286 -156.3258 
L -86.194286 -158.731055 
L -86.194286 -161.13631 
L -86.194286 -163.541565 
L -86.194286 -165.94682 
L -86.194286 -168.352075 
L -86.194286 -170.75733 
L -86.194286 -173.162584 
L -86.194286 -175.567839 
L -86.194286 -177.973094 
L -86.194286 -180.378349 
L -86.194286 -182.783604 
L -86.194286 -185.188859 
L -86.194286 -187.594113 
L -86.194286 -189.999368 
L -86.194286 -192.404623 
L -86.194286 -194.809878 
L -86.194286 -197.215133 
L -86.194286 -199.620388 
L -86.194286 -202.025642 
L -86.194286 -204.430897 
L -86.194286 -206.836152 
L -86.194286 -209.241407 
L -86.194286 -211.646662 
L -86.194286 -214.051917 
L -86.194286 -216.457172 
L -86.194286 -218.862426 
L -86.194286 -221.267681 
L -86.194286 -223.672936 
L -86.194286 -226.078191 
L -86.194286 -228.483446 
L -86.194286 -230.888701 
L -86.194286 -233.293955 
L -86.194286 -235.69921 
L -86.194286 -238.104465 
L -86.194286 -240.50972 
L -86.194286 -242.914975 
L -86.194286 -245.32023 
L -86.194286 -247.725485 
L -86.194286 -250.130739 
L -86.194286 -252.535994 
L -86.194286 -254.941249 
L -86.194286 -257.346504 
L -86.194286 -259.751759 
L -86.194286 -262.157014 
L -86.194286 -264.562268 
L -86.194286 -266.967523 
L -86.194286 -269.372778 
L -86.194286 -271.778033 
L -86.194286 -274.183288 
L -86.194286 -276.588543 
L -86.194286 -278.993798 
L -86.194286 -281.399052 
L -86.194286 -283.804307 
L -86.194286 -286.209562 
L -86.194286 -288.614817 
L -86.194286 -291.020072 
L -86.194286 -293.425327 
L -86.194286 -295.830581 
L -86.194286 -298.235836 
L -86.194286 -300.641091 
L -86.194286 -303.046346 
L -86.194286 -305.451601 
L -86.194286 -307.856856 
L -86.194286 -310.262111 
L -86.194286 -312.667365 
L -86.194286 -315.07262 
L -86.194286 -317.477875 
L -86.194286 -319.88313 
L -86.194286 -322.288385 
L -86.194286 -324.69364 
L -86.194286 -327.098894 
L -86.194286 -329.504149 
L -86.194286 -331.909404 
L -86.194286 -334.314659 
L -86.194286 -336.719914 
L -86.194286 -339.125169 
L -86.194286 -341.530424 
L -86.194286 -343.935678 
L -86.194286 -346.340933 
L -86.194286 -348.746188 
L -86.194286 -351.151443 
L -86.194286 -353.556698 
L -86.194286 -355.961953 
L -86.194286 -358.367207 
L -86.194286 -360.772462 
L -86.194286 -363.177717 
L -86.194286 -365.582972 
L -86.194286 -367.988227 
L -86.194286 -370.393482 
L -86.194286 -372.798737 
L -86.194286 -375.203991 
L -86.194286 -377.609246 
L -86.194286 -380.014501 
L -86.194286 -382.419756 
L -86.194286 -384.825011 
L -86.194286 -387.230266 
L -86.194286 -389.63552 
L -86.194286 -392.040775 
L -86.194286 -394.44603 
L -86.194286 -396.851285 
L -86.194286 -399.25654 
L -86.194286 -401.661795 
L -86.194286 -404.06705 
L -86.194286 -406.472304 
L -86.194286 -408.877559 
L -86.194286 -411.282814 
L -86.194286 -413.688069 
L -86.194286 -416.093324 
L -86.194286 -418.498579 
L -86.194286 -420.903833 
L -86.194286 -423.309088 
L -86.194286 -425.714343 
L -86.194286 -428.119598 
L -86.194286 -430.524853 
L -86.194286 -432.930108 
L -86.194286 -435.335363 
L -86.194286 -437.740617 
L -86.194286 -440.145872 
L -86.194286 -442.551127 
L -86.194286 -444.956382 
L -86.194286 -447.361637 
L -86.194286 -449.766892 
L -86.194286 -452.172146 
L -86.194286 -454.577401 
L -86.194286 -456.982656 
L -86.194286 -459.387911 
L -86.194286 -461.793166 
L -86.194286 -464.198421 
L -86.194286 -466.603676 
L -86.194286 -469.00893 
L -86.194286 -471.414185 
L -86.194286 -473.81944 
L -86.194286 -476.224695 
L -86.194286 -478.62995 
L -86.194286 -481.035205 
L -86.194286 -483.440459 
L -86.194286 -485.845714 
L 515.761071 -485.845714 
L 515.761071 -485.845714 
L 514.708772 -483.440459 
L 513.656473 -481.035205 
L 512.604174 -478.62995 
L 511.551875 -476.224695 
L 510.499576 -473.81944 
L 509.447277 -471.414185 
L 508.394978 -469.00893 
L 507.342679 -466.603676 
L 506.29038 -464.198421 
L 505.238081 -461.793166 
L 504.185782 -459.387911 
L 503.133483 -456.982656 
L 502.081184 -454.577401 
L 501.028885 -452.172146 
L 499.976587 -449.766892 
L 498.924288 -447.361637 
L 497.871989 -444.956382 
L 496.81969 -442.551127 
L 495.767391 -440.145872 
L 494.715092 -437.740617 
L 493.662793 -435.335363 
L 492.610494 -432.930108 
L 491.558195 -430.524853 
L 490.505896 -428.119598 
L 489.453597 -425.714343 
L 488.401298 -423.309088 
L 487.348999 -420.903833 
L 486.2967 -418.498579 
L 485.244401 -416.093324 
L 484.192102 -413.688069 
L 483.139803 -411.282814 
L 482.087504 -408.877559 
L 481.035205 -406.472304 
L 479.982906 -404.06705 
L 478.930607 -401.661795 
L 477.878308 -399.25654 
L 476.826009 -396.851285 
L 475.77371 -394.44603 
L 474.721411 -392.040775 
L 473.669112 -389.63552 
L 472.616813 -387.230266 
L 471.564514 -384.825011 
L 470.512215 -382.419756 
L 469.459916 -380.014501 
L 468.407617 -377.609246 
L 467.355318 -375.203991 
L 466.303019 -372.798737 
L 465.25072 -370.393482 
L 464.198421 -367.988227 
L 463.146122 -365.582972 
L 462.093823 -363.177717 
L 461.041524 -360.772462 
L 459.989225 -358.367207 
L 458.936926 -355.961953 
L 457.884627 -353.556698 
L 456.832328 -351.151443 
L 455.780029 -348.746188 
L 454.72773 -346.340933 
L 453.675431 -343.935678 
L 452.623132 -341.530424 
L 451.570833 -339.125169 
L 450.518534 -336.719914 
L 449.466235 -334.314659 
L 448.413936 -331.909404 
L 447.361637 -329.504149 
L 446.309338 -327.098894 
L 445.257039 -324.69364 
L 444.20474 -322.288385 
L 443.152441 -319.88313 
L 442.100142 -317.477875 
L 441.047843 -315.07262 
L 439.995544 -312.667365 
L 438.943245 -310.262111 
L 437.890946 -307.856856 
L 436.838647 -305.451601 
L 435.786348 -303.046346 
L 434.734049 -300.641091 
L 433.68175 -298.235836 
L 432.629451 -295.830581 
L 431.577152 -293.425327 
L 430.524853 -291.020072 
L 429.472554 -288.614817 
L 428.420255 -286.209562 
L 427.367956 -283.804307 
L 426.315657 -281.399052 
L 425.263358 -278.993798 
L 424.211059 -276.588543 
L 423.15876 -274.183288 
L 422.106461 -271.778033 
L 421.054162 -269.372778 
L 420.001863 -266.967523 
L 418.949564 -264.562268 
L 417.897265 -262.157014 
L 416.844966 -259.751759 
L 415.792667 -257.346504 
L 414.740368 -254.941249 
L 413.688069 -252.535994 
L 412.63577 -250.130739 
L 411.583471 -247.725485 
L 410.531172 -245.32023 
L 409.478873 -242.914975 
L 408.426574 -240.50972 
L 407.374275 -238.104465 
L 406.321976 -235.69921 
L 405.269677 -233.293955 
L 404.217378 -230.888701 
L 403.165079 -228.483446 
L 402.11278 -226.078191 
L 401.060481 -223.672936 
L 400.008182 -221.267681 
L 398.955883 -218.862426 
L 397.903584 -216.457172 
L 396.851285 -214.051917 
L 395.798986 -211.646662 
L 394.746687 -209.241407 
L 393.694388 -206.836152 
L 392.642089 -204.430897 
L 391.58979 -202.025642 
L 390.537491 -199.620388 
L 389.485192 -197.215133 
L 388.432893 -194.809878 
L 387.380594 -192.404623 
L 386.328295 -189.999368 
L 385.275996 -187.594113 
L 384.223697 -185.188859 
L 383.171398 -182.783604 
L 382.119099 -180.378349 
L 381.0668 -177.973094 
L 380.014501 -175.567839 
L 378.962202 -173.162584 
L 377.909903 -170.75733 
L 376.857604 -168.352075 
L 375.805305 -165.94682 
L 374.753006 -163.541565 
L 373.700707 -161.13631 
L 372.648408 -158.731055 
L 371.596109 -156.3258 
L 370.54381 -153.920546 
L 369.491511 -151.515291 
L 368.439212 -149.110036 
L 367.386913 -146.704781 
L 366.334614 -144.299526 
L 365.282315 -141.894271 
L 364.230016 -139.489017 
L 363.177717 -137.083762 
L 362.125418 -134.678507 
L 361.073119 -132.273252 
L 360.02082 -129.867997 
L 358.968521 -127.462742 
L 357.916222 -125.057487 
L 356.863923 -122.652233 
L 355.811624 -120.246978 
L 354.759325 -117.841723 
L 353.707026 -115.436468 
L 352.654727 -113.031213 
L 351.602428 -110.625958 
L 350.550129 -108.220704 
L 349.49783 -105.815449 
L 348.445531 -103.410194 
L 347.393232 -101.004939 
L 346.340933 -98.599684 
L 345.288634 -96.194429 
L 344.236335 -93.789174 
L 343.184036 -91.38392 
L 342.131737 -88.978665 
L 341.079438 -86.57341 
L 340.027139 -84.168155 
L 338.97484 -81.7629 
L 337.922541 -79.357645 
L 336.870242 -76.952391 
L 335.817943 -74.547136 
L 334.765644 -72.141881 
L 333.713345 -69.736626 
L 332.661046 -67.331371 
L 331.608747 -64.926116 
L 330.556448 -62.520861 
L 329.504149 -60.115607 
L 328.45185 -57.710352 
L 327.399551 -55.305097 
L 326.347252 -52.899842 
L 325.294953 -50.494587 
L 324.242654 -48.089332 
L 323.190355 -45.684078 
L 322.138056 -43.278823 
L 321.085757 -40.873568 
L 320.033458 -38.468313 
L 318.981159 -36.063058 
L 317.92886 -33.657803 
L 316.876561 -31.252548 
L 315.824262 -28.847294 
L 314.771963 -26.442039 
L 313.719664 -24.036784 
L 312.667365 -21.631529 
L 311.615066 -19.226274 
L 310.562767 -16.821019 
L 309.510468 -14.415765 
L 308.458169 -12.01051 
L 307.40587 -9.605255 
L 306.353571 -7.2 
z
" style="stroke: #34d399; stroke-opacity: 0.06"/>
    </defs>
    <g clip-path="url(#pa7801fea13)">
     <use xlink:href="#m6b88cb5fca" x="0" y="504.72" style="fill: #34d399; fill-opacity: 0.06; stroke: #34d399; stroke-opacity: 0.06"/>
    </g>
   </g>
   <g id="FillBetweenPolyCollection_2">
    <defs>
     <path id="me8e0c311ad" d="M 789.377143 -7.2 
L 306.353571 -7.2 
L 307.40587 -9.605255 
L 308.458169 -12.01051 
L 309.510468 -14.415765 
L 310.562767 -16.821019 
L 311.615066 -19.226274 
L 312.667365 -21.631529 
L 313.719664 -24.036784 
L 314.771963 -26.442039 
L 315.824262 -28.847294 
L 316.876561 -31.252548 
L 317.92886 -33.657803 
L 318.981159 -36.063058 
L 320.033458 -38.468313 
L 321.085757 -40.873568 
L 322.138056 -43.278823 
L 323.190355 -45.684078 
L 324.242654 -48.089332 
L 325.294953 -50.494587 
L 326.347252 -52.899842 
L 327.399551 -55.305097 
L 328.45185 -57.710352 
L 329.504149 -60.115607 
L 330.556448 -62.520861 
L 331.608747 -64.926116 
L 332.661046 -67.331371 
L 333.713345 -69.736626 
L 334.765644 -72.141881 
L 335.817943 -74.547136 
L 336.870242 -76.952391 
L 337.922541 -79.357645 
L 338.97484 -81.7629 
L 340.027139 -84.168155 
L 341.079438 -86.57341 
L 342.131737 -88.978665 
L 343.184036 -91.38392 
L 344.236335 -93.789174 
L 345.288634 -96.194429 
L 346.340933 -98.599684 
L 347.393232 -101.004939 
L 348.445531 -103.410194 
L 349.49783 -105.815449 
L 350.550129 -108.220704 
L 351.602428 -110.625958 
L 352.654727 -113.031213 
L 353.707026 -115.436468 
L 354.759325 -117.841723 
L 355.811624 -120.246978 
L 356.863923 -122.652233 
L 357.916222 -125.057487 
L 358.968521 -127.462742 
L 360.02082 -129.867997 
L 361.073119 -132.273252 
L 362.125418 -134.678507 
L 363.177717 -137.083762 
L 364.230016 -139.489017 
L 365.282315 -141.894271 
L 366.334614 -144.299526 
L 367.386913 -146.704781 
L 368.439212 -149.110036 
L 369.491511 -151.515291 
L 370.54381 -153.920546 
L 371.596109 -156.3258 
L 372.648408 -158.731055 
L 373.700707 -161.13631 
L 374.753006 -163.541565 
L 375.805305 -165.94682 
L 376.857604 -168.352075 
L 377.909903 -170.75733 
L 378.962202 -173.162584 
L 380.014501 -175.567839 
L 381.0668 -177.973094 
L 382.119099 -180.378349 
L 383.171398 -182.783604 
L 384.223697 -185.188859 
L 385.275996 -187.594113 
L 386.328295 -189.999368 
L 387.380594 -192.404623 
L 388.432893 -194.809878 
L 389.485192 -197.215133 
L 390.537491 -199.620388 
L 391.58979 -202.025642 
L 392.642089 -204.430897 
L 393.694388 -206.836152 
L 394.746687 -209.241407 
L 395.798986 -211.646662 
L 396.851285 -214.051917 
L 397.903584 -216.457172 
L 398.955883 -218.862426 
L 400.008182 -221.267681 
L 401.060481 -223.672936 
L 402.11278 -226.078191 
L 403.165079 -228.483446 
L 404.217378 -230.888701 
L 405.269677 -233.293955 
L 406.321976 -235.69921 
L 407.374275 -238.104465 
L 408.426574 -240.50972 
L 409.478873 -242.914975 
L 410.531172 -245.32023 
L 411.583471 -247.725485 
L 412.63577 -250.130739 
L 413.688069 -252.535994 
L 414.740368 -254.941249 
L 415.792667 -257.346504 
L 416.844966 -259.751759 
L 417.897265 -262.157014 
L 418.949564 -264.562268 
L 420.001863 -266.967523 
L 421.054162 -269.372778 
L 422.106461 -271.778033 
L 423.15876 -274.183288 
L 424.211059 -276.588543 
L 425.263358 -278.993798 
L 426.315657 -281.399052 
L 427.367956 -283.804307 
L 428.420255 -286.209562 
L 429.472554 -288.614817 
L 430.524853 -291.020072 
L 431.577152 -293.425327 
L 432.629451 -295.830581 
L 433.68175 -298.235836 
L 434.734049 -300.641091 
L 435.786348 -303.046346 
L 436.838647 -305.451601 
L 437.890946 -307.856856 
L 438.943245 -310.262111 
L 439.995544 -312.667365 
L 441.047843 -315.07262 
L 442.100142 -317.477875 
L 443.152441 -319.88313 
L 444.20474 -322.288385 
L 445.257039 -324.69364 
L 446.309338 -327.098894 
L 447.361637 -329.504149 
L 448.413936 -331.909404 
L 449.466235 -334.314659 
L 450.518534 -336.719914 
L 451.570833 -339.125169 
L 452.623132 -341.530424 
L 453.675431 -343.935678 
L 454.72773 -346.340933 
L 455.780029 -348.746188 
L 456.832328 -351.151443 
L 457.884627 -353.556698 
L 458.936926 -355.961953 
L 459.989225 -358.367207 
L 461.041524 -360.772462 
L 462.093823 -363.177717 
L 463.146122 -365.582972 
L 464.198421 -367.988227 
L 465.25072 -370.393482 
L 466.303019 -372.798737 
L 467.355318 -375.203991 
L 468.407617 -377.609246 
L 469.459916 -380.014501 
L 470.512215 -382.419756 
L 471.564514 -384.825011 
L 472.616813 -387.230266 
L 473.669112 -389.63552 
L 474.721411 -392.040775 
L 475.77371 -394.44603 
L 476.826009 -396.851285 
L 477.878308 -399.25654 
L 478.930607 -401.661795 
L 479.982906 -404.06705 
L 481.035205 -406.472304 
L 482.087504 -408.877559 
L 483.139803 -411.282814 
L 484.192102 -413.688069 
L 485.244401 -416.093324 
L 486.2967 -418.498579 
L 487.348999 -420.903833 
L 488.401298 -423.309088 
L 489.453597 -425.714343 
L 490.505896 -428.119598 
L 491.558195 -430.524853 
L 492.610494 -432.930108 
L 493.662793 -435.335363 
L 494.715092 -437.740617 
L 495.767391 -440.145872 
L 496.81969 -442.551127 
L 497.871989 -444.956382 
L 498.924288 -447.361637 
L 499.976587 -449.766892 
L 501.028885 -452.172146 
L 502.081184 -454.577401 
L 503.133483 -456.982656 
L 504.185782 -459.387911 
L 505.238081 -461.793166 
L 506.29038 -464.198421 
L 507.342679 -466.603676 
L 508.394978 -469.00893 
L 509.447277 -471.414185 
L 510.499576 -473.81944 
L 511.551875 -476.224695 
L 512.604174 -478.62995 
L 513.656473 -481.035205 
L 514.708772 -483.440459 
L 515.761071 -485.845714 
L 789.377143 -485.845714 
L 789.377143 -485.845714 
L 789.377143 -483.440459 
L 789.377143 -481.035205 
L 789.377143 -478.62995 
L 789.377143 -476.224695 
L 789.377143 -473.81944 
L 789.377143 -471.414185 
L 789.377143 -469.00893 
L 789.377143 -466.603676 
L 789.377143 -464.198421 
L 789.377143 -461.793166 
L 789.377143 -459.387911 
L 789.377143 -456.982656 
L 789.377143 -454.577401 
L 789.377143 -452.172146 
L 789.377143 -449.766892 
L 789.377143 -447.361637 
L 789.377143 -444.956382 
L 789.377143 -442.551127 
L 789.377143 -440.145872 
L 789.377143 -437.740617 
L 789.377143 -435.335363 
L 789.377143 -432.930108 
L 789.377143 -430.524853 
L 789.377143 -428.119598 
L 789.377143 -425.714343 
L 789.377143 -423.309088 
L 789.377143 -420.903833 
L 789.377143 -418.498579 
L 789.377143 -416.093324 
L 789.377143 -413.688069 
L 789.377143 -411.282814 
L 789.377143 -408.877559 
L 789.377143 -406.472304 
L 789.377143 -404.06705 
L 789.377143 -401.661795 
L 789.377143 -399.25654 
L 789.377143 -396.851285 
L 789.377143 -394.44603 
L 789.377143 -392.040775 
L 789.377143 -389.63552 
L 789.377143 -387.230266 
L 789.377143 -384.825011 
L 789.377143 -382.419756 
L 789.377143 -380.014501 
L 789.377143 -377.609246 
L 789.377143 -375.203991 
L 789.377143 -372.798737 
L 789.377143 -370.393482 
L 789.377143 -367.988227 
L 789.377143 -365.582972 
L 789.377143 -363.177717 
L 789.377143 -360.772462 
L 789.377143 -358.367207 
L 789.377143 -355.961953 
L 789.377143 -353.556698 
L 789.377143 -351.151443 
L 789.377143 -348.746188 
L 789.377143 -346.340933 
L 789.377143 -343.935678 
L 789.377143 -341.530424 
L 789.377143 -339.125169 
L 789.377143 -336.719914 
L 789.377143 -334.314659 
L 789.377143 -331.909404 
L 789.377143 -329.504149 
L 789.377143 -327.098894 
L 789.377143 -324.69364 
L 789.377143 -322.288385 
L 789.377143 -319.88313 
L 789.377143 -317.477875 
L 789.377143 -315.07262 
L 789.377143 -312.667365 
L 789.377143 -310.262111 
L 789.377143 -307.856856 
L 789.377143 -305.451601 
L 789.377143 -303.046346 
L 789.377143 -300.641091 
L 789.377143 -298.235836 
L 789.377143 -295.830581 
L 789.377143 -293.425327 
L 789.377143 -291.020072 
L 789.377143 -288.614817 
L 789.377143 -286.209562 
L 789.377143 -283.804307 
L 789.377143 -281.399052 
L 789.377143 -278.993798 
L 789.377143 -276.588543 
L 789.377143 -274.183288 
L 789.377143 -271.778033 
L 789.377143 -269.372778 
L 789.377143 -266.967523 
L 789.377143 -264.562268 
L 789.377143 -262.157014 
L 789.377143 -259.751759 
L 789.377143 -257.346504 
L 789.377143 -254.941249 
L 789.377143 -252.535994 
L 789.377143 -250.130739 
L 789.377143 -247.725485 
L 789.377143 -245.32023 
L 789.377143 -242.914975 
L 789.377143 -240.50972 
L 789.377143 -238.104465 
L 789.377143 -235.69921 
L 789.377143 -233.293955 
L 789.377143 -230.888701 
L 789.377143 -228.483446 
L 789.377143 -226.078191 
L 789.377143 -223.672936 
L 789.377143 -221.267681 
L 789.377143 -218.862426 
L 789.377143 -216.457172 
L 789.377143 -214.051917 
L 789.377143 -211.646662 
L 789.377143 -209.241407 
L 789.377143 -206.836152 
L 789.377143 -204.430897 
L 789.377143 -202.025642 
L 789.377143 -199.620388 
L 789.377143 -197.215133 
L 789.377143 -194.809878 
L 789.377143 -192.404623 
L 789.377143 -189.999368 
L 789.377143 -187.594113 
L 789.377143 -185.188859 
L 789.377143 -182.783604 
L 789.377143 -180.378349 
L 789.377143 -177.973094 
L 789.377143 -175.567839 
L 789.377143 -173.162584 
L 789.377143 -170.75733 
L 789.377143 -168.352075 
L 789.377143 -165.94682 
L 789.377143 -163.541565 
L 789.377143 -161.13631 
L 789.377143 -158.731055 
L 789.377143 -156.3258 
L 789.377143 -153.920546 
L 789.377143 -151.515291 
L 789.377143 -149.110036 
L 789.377143 -146.704781 
L 789.377143 -144.299526 
L 789.377143 -141.894271 
L 789.377143 -139.489017 
L 789.377143 -137.083762 
L 789.377143 -134.678507 
L 789.377143 -132.273252 
L 789.377143 -129.867997 
L 789.377143 -127.462742 
L 789.377143 -125.057487 
L 789.377143 -122.652233 
L 789.377143 -120.246978 
L 789.377143 -117.841723 
L 789.377143 -115.436468 
L 789.377143 -113.031213 
L 789.377143 -110.625958 
L 789.377143 -108.220704 
L 789.377143 -105.815449 
L 789.377143 -103.410194 
L 789.377143 -101.004939 
L 789.377143 -98.599684 
L 789.377143 -96.194429 
L 789.377143 -93.789174 
L 789.377143 -91.38392 
L 789.377143 -88.978665 
L 789.377143 -86.57341 
L 789.377143 -84.168155 
L 789.377143 -81.7629 
L 789.377143 -79.357645 
L 789.377143 -76.952391 
L 789.377143 -74.547136 
L 789.377143 -72.141881 
L 789.377143 -69.736626 
L 789.377143 -67.331371 
L 789.377143 -64.926116 
L 789.377143 -62.520861 
L 789.377143 -60.115607 
L 789.377143 -57.710352 
L 789.377143 -55.305097 
L 789.377143 -52.899842 
L 789.377143 -50.494587 
L 789.377143 -48.089332 
L 789.377143 -45.684078 
L 789.377143 -43.278823 
L 789.377143 -40.873568 
L 789.377143 -38.468313 
L 789.377143 -36.063058 
L 789.377143 -33.657803 
L 789.377143 -31.252548 
L 789.377143 -28.847294 
L 789.377143 -26.442039 
L 789.377143 -24.036784 
L 789.377143 -21.631529 
L 789.377143 -19.226274 
L 789.377143 -16.821019 
L 789.377143 -14.415765 
L 789.377143 -12.01051 
L 789.377143 -9.605255 
L 789.377143 -7.2 
z
" style="stroke: #f87171; stroke-opacity: 0.06"/>
    </defs>
    <g clip-path="url(#pa7801fea13)">
     <use xlink:href="#me8e0c311ad" x="0" y="504.72" style="fill: #f87171; fill-opacity: 0.06; stroke: #f87171; stroke-opacity: 0.06"/>
    </g>
   </g>
   <g id="matplotlib.axis_1"/>
   <g id="matplotlib.axis_2"/>
   <g id="line2d_1">
    <path d="M 306.353571 497.52 
L 515.761071 18.874286 
L 515.761071 18.874286 
" clip-path="url(#pa7801fea13)" style="fill: none; stroke: #fb7185; stroke-opacity: 0.8; stroke-width: 2.2; stroke-linecap: square"/>
   </g>
   <g id="text_1">
    <!-- ADVERSARIAL -->
    <g style="fill: #f87171; opacity: 0.85" transform="translate(526.705714 100.594286) scale(0.11 -0.11)">
     <defs>
      <path id="DejaVuSans-Bold-24" d="M 3419 850 
L 1538 850 
L 1241 0 
L 31 0 
L 1759 4666 
L 3194 4666 
L 4922 0 
L 3713 0 
L 3419 850 
z
M 1838 1716 
L 3116 1716 
L 2478 3572 
L 1838 1716 
z
" transform="scale(0.015625)"/>
      <path id="DejaVuSans-Bold-27" d="M 1791 3756 
L 1791 909 
L 2222 909 
Q 2959 909 3348 1275 
Q 3738 1641 3738 2338 
Q 3738 3031 3350 3393 
Q 2963 3756 2222 3756 
L 1791 3756 
z
M 588 4666 
L 1856 4666 
Q 2919 4666 3439 4514 
Q 3959 4363 4331 4000 
Q 4659 3684 4818 3271 
Q 4978 2859 4978 2338 
Q 4978 1809 4818 1395 
Q 4659 981 4331 666 
Q 3956 303 3431 151 
Q 2906 0 1856 0 
L 588 0 
L 588 4666 
z
" transform="scale(0.015625)"/>
      <path id="DejaVuSans-Bold-39" d="M 31 4666 
L 1241 4666 
L 2478 1222 
L 3713 4666 
L 4922 4666 
L 3194 0 
L 1759 0 
L 31 4666 
z
" transform="scale(0.015625)"/>
      <path id="DejaVuSans-Bold-28" d="M 588 4666 
L 3834 4666 
L 3834 3756 
L 1791 3756 
L 1791 2888 
L 3713 2888 
L 3713 1978 
L 1791 1978 
L 1791 909 
L 3903 909 
L 3903 0 
L 588 0 
L 588 4666 
z
" transform="scale(0.015625)"/>
      <path id="DejaVuSans-Bold-35" d="M 2297 2597 
Q 2675 2597 2839 2737 
Q 3003 2878 3003 3200 
Q 3003 3519 2839 3656 
Q 2675 3794 2297 3794 
L 1791 3794 
L 1791 2597 
L 2297 2597 
z
M 1791 1766 
L 1791 0 
L 588 0 
L 588 4666 
L 2425 4666 
Q 3347 4666 3776 4356 
Q 4206 4047 4206 3378 
Q 4206 2916 3982 2619 
Q 3759 2322 3309 2181 
Q 3556 2125 3751 1926 
Q 3947 1728 4147 1325 
L 4800 0 
L 3519 0 
L 2950 1159 
Q 2778 1509 2601 1637 
Q 2425 1766 2131 1766 
L 1791 1766 
z
" transform="scale(0.015625)"/>
      <path id="DejaVuSans-Bold-36" d="M 3834 4519 
L 3834 3531 
Q 3450 3703 3084 3790 
Q 2719 3878 2394 3878 
Q 1963 3878 1756 3759 
Q 1550 3641 1550 3391 
Q 1550 3203 1689 3098 
Q 1828 2994 2194 2919 
L 2706 2816 
Q 3484 2659 3812 2340 
Q 4141 2022 4141 1434 
Q 4141 663 3683 286 
Q 3225 -91 2284 -91 
Q 1841 -91 1394 -6 
Q 947 78 500 244 
L 500 1259 
Q 947 1022 1364 901 
Q 1781 781 2169 781 
Q 2563 781 2772 912 
Q 2981 1044 2981 1288 
Q 2981 1506 2839 1625 
Q 2697 1744 2272 1838 
L 1806 1941 
Q 1106 2091 782 2419 
Q 459 2747 459 3303 
Q 459 4000 909 4375 
Q 1359 4750 2203 4750 
Q 2588 4750 2994 4692 
Q 3400 4634 3834 4519 
z
" transform="scale(0.015625)"/>
      <path id="DejaVuSans-Bold-2c" d="M 588 4666 
L 1791 4666 
L 1791 0 
L 588 0 
L 588 4666 
z
" transform="scale(0.015625)"/>
      <path id="DejaVuSans-Bold-2f" d="M 588 4666 
L 1791 4666 
L 1791 909 
L 3903 909 
L 3903 0 
L 588 0 
L 588 4666 
z
" transform="scale(0.015625)"/>
     </defs>
     <use xlink:href="#DejaVuSans-Bold-24"/>
     <use xlink:href="#DejaVuSans-Bold-27" transform="translate(77.390625 0)"/>
     <use xlink:href="#DejaVuSans-Bold-39" transform="translate(160.40625 0)"/>
     <use xlink:href="#DejaVuSans-Bold-28" transform="translate(237.796875 0)"/>
     <use xlink:href="#DejaVuSans-Bold-35" transform="translate(306.109375 0)"/>
     <use xlink:href="#DejaVuSans-Bold-36" transform="translate(383.109375 0)"/>
     <use xlink:href="#DejaVuSans-Bold-24" transform="translate(455.125 0)"/>
     <use xlink:href="#DejaVuSans-Bold-35" transform="translate(532.515625 0)"/>
     <use xlink:href="#DejaVuSans-Bold-2c" transform="translate(609.515625 0)"/>
     <use xlink:href="#DejaVuSans-Bold-24" transform="translate(646.71875 0)"/>
     <use xlink:href="#DejaVuSans-Bold-2f" transform="translate(724.109375 0)"/>
    </g>
   </g>
   <g id="text_2">
    <!-- BENIGN -->
    <g style="fill: #34d399; opacity: 0.85" transform="translate(42.222857 100.594286) scale(0.11 -0.11)">
     <defs>
      <path id="DejaVuSans-Bold-25" d="M 2456 2859 
Q 2741 2859 2887 2984 
Q 3034 3109 3034 3353 
Q 3034 3594 2887 3720 
Q 2741 3847 2456 3847 
L 1791 3847 
L 1791 2859 
L 2456 2859 
z
M 2497 819 
Q 2859 819 3042 972 
Q 3225 1125 3225 1434 
Q 3225 1738 3044 1889 
Q 2863 2041 2497 2041 
L 1791 2041 
L 1791 819 
L 2497 819 
z
M 3616 2497 
Q 4003 2384 4215 2081 
Q 4428 1778 4428 1338 
Q 4428 663 3972 331 
Q 3516 0 2584 0 
L 588 0 
L 588 4666 
L 2394 4666 
Q 3366 4666 3802 4372 
Q 4238 4078 4238 3431 
Q 4238 3091 4078 2852 
Q 3919 2613 3616 2497 
z
" transform="scale(0.015625)"/>
      <path id="DejaVuSans-Bold-31" d="M 588 4666 
L 1931 4666 
L 3628 1466 
L 3628 4666 
L 4769 4666 
L 4769 0 
L 3425 0 
L 1728 3200 
L 1728 0 
L 588 0 
L 588 4666 
z
" transform="scale(0.015625)"/>
      <path id="DejaVuSans-Bold-2a" d="M 4781 347 
Q 4331 128 3847 18 
Q 3363 -91 2847 -91 
Q 1681 -91 1000 561 
Q 319 1213 319 2328 
Q 319 3456 1012 4103 
Q 1706 4750 2913 4750 
Q 3378 4750 3804 4662 
Q 4231 4575 4609 4403 
L 4609 3438 
Q 4219 3659 3833 3768 
Q 3447 3878 3059 3878 
Q 2341 3878 1952 3476 
Q 1563 3075 1563 2328 
Q 1563 1588 1938 1184 
Q 2313 781 3003 781 
Q 3191 781 3352 804 
Q 3513 828 3641 878 
L 3641 1784 
L 2906 1784 
L 2906 2591 
L 4781 2591 
L 4781 347 
z
" transform="scale(0.015625)"/>
     </defs>
     <use xlink:href="#DejaVuSans-Bold-25"/>
     <use xlink:href="#DejaVuSans-Bold-28" transform="translate(76.21875 0)"/>
     <use xlink:href="#DejaVuSans-Bold-31" transform="translate(144.53125 0)"/>
     <use xlink:href="#DejaVuSans-Bold-2c" transform="translate(228.21875 0)"/>
     <use xlink:href="#DejaVuSans-Bold-2a" transform="translate(265.421875 0)"/>
     <use xlink:href="#DejaVuSans-Bold-31" transform="translate(347.5 0)"/>
    </g>
   </g>
   <g id="text_3">
    <!-- a 2-D plane is sampled in low-frequency DCT space -->
    <g style="fill: #e5e7eb; opacity: 0.9" transform="translate(147.291429 48.06) scale(0.12 -0.12)">
     <defs>
      <path id="DejaVuSans-Oblique-44" d="M 3438 1997 
L 3047 0 
L 2472 0 
L 2578 531 
Q 2325 219 2001 64 
Q 1678 -91 1281 -91 
Q 834 -91 548 182 
Q 263 456 263 884 
Q 263 1497 752 1853 
Q 1241 2209 2100 2209 
L 2900 2209 
L 2931 2363 
Q 2938 2388 2941 2417 
Q 2944 2447 2944 2509 
Q 2944 2788 2717 2942 
Q 2491 3097 2081 3097 
Q 1800 3097 1504 3025 
Q 1209 2953 897 2809 
L 997 3341 
Q 1322 3463 1633 3523 
Q 1944 3584 2234 3584 
Q 2853 3584 3176 3315 
Q 3500 3047 3500 2534 
Q 3500 2431 3484 2292 
Q 3469 2153 3438 1997 
z
M 2816 1759 
L 2241 1759 
Q 1534 1759 1195 1570 
Q 856 1381 856 984 
Q 856 709 1029 553 
Q 1203 397 1509 397 
Q 1978 397 2328 733 
Q 2678 1069 2791 1631 
L 2816 1759 
z
" transform="scale(0.015625)"/>
      <path id="DejaVuSans-Oblique-3" transform="scale(0.015625)"/>
      <path id="DejaVuSans-Oblique-15" d="M 2950 2253 
L 934 525 
L 3163 525 
L 3053 0 
L 25 0 
L 128 531 
L 2234 2338 
Q 2656 2703 2832 2979 
Q 3009 3256 3009 3547 
Q 3009 3850 2796 4040 
Q 2584 4231 2241 4231 
Q 1944 4231 1581 4125 
Q 1219 4019 806 3816 
L 922 4441 
Q 1309 4594 1662 4672 
Q 2016 4750 2316 4750 
Q 2928 4750 3301 4425 
Q 3675 4100 3675 3572 
Q 3675 3216 3497 2892 
Q 3319 2569 2950 2253 
z
" transform="scale(0.015625)"/>
      <path id="DejaVuSans-Oblique-10" d="M 391 2009 
L 2075 2009 
L 1978 1497 
L 288 1497 
L 391 2009 
z
" transform="scale(0.015625)"/>
      <path id="DejaVuSans-Oblique-27" d="M 1081 4666 
L 2438 4666 
Q 3519 4666 4070 4208 
Q 4622 3750 4622 2847 
Q 4622 2250 4412 1698 
Q 4203 1147 3834 769 
Q 3463 381 2891 190 
Q 2319 0 1538 0 
L 172 0 
L 1081 4666 
z
M 1613 4147 
L 909 519 
L 1734 519 
Q 2794 519 3375 1128 
Q 3956 1738 3956 2847 
Q 3956 3519 3581 3833 
Q 3206 4147 2406 4147 
L 1613 4147 
z
" transform="scale(0.015625)"/>
      <path id="DejaVuSans-Oblique-53" d="M 3175 2156 
Q 3175 2616 2975 2859 
Q 2775 3103 2400 3103 
Q 2144 3103 1911 2972 
Q 1678 2841 1497 2591 
Q 1319 2344 1212 1994 
Q 1106 1644 1106 1300 
Q 1106 863 1306 627 
Q 1506 391 1875 391 
Q 2147 391 2380 519 
Q 2613 647 2778 891 
Q 2956 1147 3065 1494 
Q 3175 1841 3175 2156 
z
M 1394 2969 
Q 1625 3272 1939 3428 
Q 2253 3584 2638 3584 
Q 3175 3584 3472 3232 
Q 3769 2881 3769 2247 
Q 3769 1728 3584 1258 
Q 3400 788 3053 416 
Q 2822 169 2531 39 
Q 2241 -91 1919 -91 
Q 1547 -91 1294 64 
Q 1041 219 916 525 
L 556 -1331 
L -19 -1331 
L 922 3500 
L 1497 3500 
L 1394 2969 
z
" transform="scale(0.015625)"/>
      <path id="DejaVuSans-Oblique-4f" d="M 1172 4863 
L 1747 4863 
L 800 0 
L 225 0 
L 1172 4863 
z
" transform="scale(0.015625)"/>
      <path id="DejaVuSans-Oblique-51" d="M 3566 2113 
L 3156 0 
L 2578 0 
L 2988 2091 
Q 3016 2238 3031 2350 
Q 3047 2463 3047 2528 
Q 3047 2791 2881 2937 
Q 2716 3084 2419 3084 
Q 1956 3084 1622 2776 
Q 1288 2469 1184 1941 
L 800 0 
L 225 0 
L 903 3500 
L 1478 3500 
L 1363 2950 
Q 1603 3253 1940 3418 
Q 2278 3584 2650 3584 
Q 3113 3584 3367 3334 
Q 3622 3084 3622 2631 
Q 3622 2519 3608 2391 
Q 3594 2263 3566 2113 
z
" transform="scale(0.015625)"/>
      <path id="DejaVuSans-Oblique-48" d="M 3078 2063 
Q 3088 2113 3092 2166 
Q 3097 2219 3097 2272 
Q 3097 2653 2873 2875 
Q 2650 3097 2266 3097 
Q 1838 3097 1509 2826 
Q 1181 2556 1013 2059 
L 3078 2063 
z
M 3578 1613 
L 903 1613 
Q 884 1494 878 1425 
Q 872 1356 872 1306 
Q 872 872 1139 634 
Q 1406 397 1894 397 
Q 2269 397 2603 481 
Q 2938 566 3225 728 
L 3116 159 
Q 2806 34 2476 -28 
Q 2147 -91 1806 -91 
Q 1078 -91 686 257 
Q 294 606 294 1247 
Q 294 1794 489 2264 
Q 684 2734 1063 3103 
Q 1306 3334 1642 3459 
Q 1978 3584 2356 3584 
Q 2950 3584 3301 3228 
Q 3653 2872 3653 2272 
Q 3653 2128 3634 1964 
Q 3616 1800 3578 1613 
z
" transform="scale(0.015625)"/>
      <path id="DejaVuSans-Oblique-4c" d="M 1172 4863 
L 1747 4863 
L 1606 4134 
L 1031 4134 
L 1172 4863 
z
M 909 3500 
L 1484 3500 
L 800 0 
L 225 0 
L 909 3500 
z
" transform="scale(0.015625)"/>
      <path id="DejaVuSans-Oblique-56" d="M 3200 3397 
L 3091 2853 
Q 2863 2978 2609 3040 
Q 2356 3103 2088 3103 
Q 1634 3103 1373 2948 
Q 1113 2794 1113 2528 
Q 1113 2219 1719 2053 
Q 1766 2041 1788 2034 
L 1972 1978 
Q 2547 1819 2739 1644 
Q 2931 1469 2931 1166 
Q 2931 609 2489 259 
Q 2047 -91 1331 -91 
Q 1053 -91 747 -37 
Q 441 16 72 128 
L 184 722 
Q 500 559 806 475 
Q 1113 391 1394 391 
Q 1816 391 2080 572 
Q 2344 753 2344 1031 
Q 2344 1331 1650 1516 
L 1591 1531 
L 1394 1581 
Q 956 1697 753 1886 
Q 550 2075 550 2369 
Q 550 2928 970 3256 
Q 1391 3584 2113 3584 
Q 2397 3584 2667 3537 
Q 2938 3491 3200 3397 
z
" transform="scale(0.015625)"/>
      <path id="DejaVuSans-Oblique-50" d="M 5747 2113 
L 5338 0 
L 4763 0 
L 5166 2094 
Q 5191 2228 5203 2325 
Q 5216 2422 5216 2491 
Q 5216 2772 5059 2928 
Q 4903 3084 4622 3084 
Q 4203 3084 3875 2770 
Q 3547 2456 3450 1953 
L 3066 0 
L 2491 0 
L 2900 2094 
Q 2925 2209 2937 2307 
Q 2950 2406 2950 2484 
Q 2950 2769 2794 2926 
Q 2638 3084 2363 3084 
Q 1938 3084 1609 2770 
Q 1281 2456 1184 1953 
L 800 0 
L 225 0 
L 909 3500 
L 1484 3500 
L 1375 2956 
Q 1609 3263 1923 3423 
Q 2238 3584 2597 3584 
Q 2978 3584 3223 3384 
Q 3469 3184 3519 2828 
Q 3781 3197 4126 3390 
Q 4472 3584 4856 3584 
Q 5306 3584 5551 3325 
Q 5797 3066 5797 2591 
Q 5797 2488 5784 2364 
Q 5772 2241 5747 2113 
z
" transform="scale(0.015625)"/>
      <path id="DejaVuSans-Oblique-47" d="M 2675 525 
Q 2444 222 2128 65 
Q 1813 -91 1428 -91 
Q 903 -91 598 267 
Q 294 625 294 1247 
Q 294 1766 478 2236 
Q 663 2706 1013 3078 
Q 1244 3325 1534 3454 
Q 1825 3584 2144 3584 
Q 2481 3584 2739 3421 
Q 2997 3259 3138 2956 
L 3513 4863 
L 4091 4863 
L 3144 0 
L 2566 0 
L 2675 525 
z
M 891 1350 
Q 891 897 1095 644 
Q 1300 391 1663 391 
Q 1931 391 2161 520 
Q 2391 650 2566 903 
Q 2750 1166 2856 1509 
Q 2963 1853 2963 2188 
Q 2963 2622 2758 2865 
Q 2553 3109 2194 3109 
Q 1922 3109 1687 2981 
Q 1453 2853 1288 2613 
Q 1106 2353 998 2009 
Q 891 1666 891 1350 
z
" transform="scale(0.015625)"/>
      <path id="DejaVuSans-Oblique-52" d="M 1625 -91 
Q 1009 -91 651 289 
Q 294 669 294 1325 
Q 294 1706 417 2101 
Q 541 2497 738 2766 
Q 1047 3184 1428 3384 
Q 1809 3584 2291 3584 
Q 2888 3584 3255 3212 
Q 3622 2841 3622 2241 
Q 3622 1825 3500 1412 
Q 3378 1000 3181 728 
Q 2875 309 2494 109 
Q 2113 -91 1625 -91 
z
M 891 1344 
Q 891 869 1089 633 
Q 1288 397 1691 397 
Q 2269 397 2648 901 
Q 3028 1406 3028 2181 
Q 3028 2634 2825 2865 
Q 2622 3097 2228 3097 
Q 1903 3097 1650 2945 
Q 1397 2794 1197 2484 
Q 1050 2253 970 1956 
Q 891 1659 891 1344 
z
" transform="scale(0.015625)"/>
      <path id="DejaVuSans-Oblique-5a" d="M 544 3500 
L 1113 3500 
L 1259 684 
L 2566 3500 
L 3231 3500 
L 3425 684 
L 4666 3500 
L 5241 3500 
L 3641 0 
L 2969 0 
L 2797 2900 
L 1459 0 
L 781 0 
L 544 3500 
z
" transform="scale(0.015625)"/>
      <path id="DejaVuSans-Oblique-49" d="M 3059 4863 
L 2969 4384 
L 2419 4384 
Q 2106 4384 1964 4261 
Q 1822 4138 1753 3809 
L 1691 3500 
L 2638 3500 
L 2553 3053 
L 1606 3053 
L 1013 0 
L 434 0 
L 1031 3053 
L 481 3053 
L 563 3500 
L 1113 3500 
L 1159 3744 
Q 1278 4363 1576 4613 
Q 1875 4863 2516 4863 
L 3059 4863 
z
" transform="scale(0.015625)"/>
      <path id="DejaVuSans-Oblique-55" d="M 2853 2969 
Q 2766 3016 2653 3041 
Q 2541 3066 2413 3066 
Q 1953 3066 1609 2717 
Q 1266 2369 1153 1784 
L 800 0 
L 225 0 
L 909 3500 
L 1484 3500 
L 1375 2956 
Q 1603 3259 1920 3421 
Q 2238 3584 2597 3584 
Q 2691 3584 2781 3573 
Q 2872 3563 2963 3538 
L 2853 2969 
z
" transform="scale(0.015625)"/>
      <path id="DejaVuSans-Oblique-54" d="M 2669 525 
Q 2438 222 2123 65 
Q 1809 -91 1428 -91 
Q 897 -91 595 267 
Q 294 625 294 1253 
Q 294 1759 480 2231 
Q 666 2703 1013 3078 
Q 1238 3322 1530 3453 
Q 1822 3584 2144 3584 
Q 2531 3584 2781 3431 
Q 3031 3278 3144 2969 
L 3244 3494 
L 3822 3494 
L 2888 -1319 
L 2309 -1319 
L 2669 525 
z
M 891 1338 
Q 891 875 1084 633 
Q 1278 391 1644 391 
Q 2188 391 2572 911 
Q 2956 1431 2956 2175 
Q 2956 2625 2757 2864 
Q 2559 3103 2188 3103 
Q 1916 3103 1684 2976 
Q 1453 2850 1281 2606 
Q 1100 2350 995 2006 
Q 891 1663 891 1338 
z
" transform="scale(0.015625)"/>
      <path id="DejaVuSans-Oblique-58" d="M 428 1388 
L 838 3500 
L 1416 3500 
L 1006 1409 
Q 975 1256 961 1147 
Q 947 1038 947 966 
Q 947 700 1109 554 
Q 1272 409 1569 409 
Q 2031 409 2368 721 
Q 2706 1034 2809 1563 
L 3194 3500 
L 3769 3500 
L 3091 0 
L 2516 0 
L 2631 550 
Q 2388 244 2052 76 
Q 1716 -91 1338 -91 
Q 878 -91 622 161 
Q 366 413 366 863 
Q 366 956 381 1097 
Q 397 1238 428 1388 
z
" transform="scale(0.015625)"/>
      <path id="DejaVuSans-Oblique-46" d="M 3431 3366 
L 3316 2797 
Q 3109 2947 2876 3022 
Q 2644 3097 2394 3097 
Q 2119 3097 1870 3000 
Q 1622 2903 1453 2725 
Q 1184 2453 1037 2087 
Q 891 1722 891 1331 
Q 891 859 1127 628 
Q 1363 397 1844 397 
Q 2081 397 2348 469 
Q 2616 541 2906 684 
L 2797 116 
Q 2547 13 2283 -39 
Q 2019 -91 1741 -91 
Q 1044 -91 669 257 
Q 294 606 294 1253 
Q 294 1797 489 2255 
Q 684 2713 1069 3078 
Q 1331 3328 1684 3456 
Q 2038 3584 2456 3584 
Q 2700 3584 2940 3529 
Q 3181 3475 3431 3366 
z
" transform="scale(0.015625)"/>
      <path id="DejaVuSans-Oblique-5c" d="M 1588 -325 
Q 1188 -997 936 -1164 
Q 684 -1331 294 -1331 
L -159 -1331 
L -63 -850 
L 269 -850 
Q 509 -850 678 -719 
Q 847 -588 1056 -206 
L 1234 128 
L 459 3500 
L 1069 3500 
L 1650 819 
L 3256 3500 
L 3859 3500 
L 1588 -325 
z
" transform="scale(0.015625)"/>
      <path id="DejaVuSans-Oblique-26" d="M 4447 4306 
L 4319 3641 
Q 4019 3944 3683 4091 
Q 3347 4238 2956 4238 
Q 2422 4238 2017 3981 
Q 1613 3725 1319 3200 
Q 1131 2863 1032 2486 
Q 934 2109 934 1728 
Q 934 1091 1264 756 
Q 1594 422 2222 422 
Q 2656 422 3056 561 
Q 3456 700 3834 978 
L 3688 231 
Q 3316 72 2936 -9 
Q 2556 -91 2175 -91 
Q 1278 -91 773 396 
Q 269 884 269 1753 
Q 269 2309 461 2846 
Q 653 3384 1013 3828 
Q 1394 4300 1883 4525 
Q 2372 4750 3022 4750 
Q 3422 4750 3780 4639 
Q 4138 4528 4447 4306 
z
" transform="scale(0.015625)"/>
      <path id="DejaVuSans-Oblique-37" d="M 378 4666 
L 4325 4666 
L 4225 4134 
L 2559 4134 
L 1759 0 
L 1125 0 
L 1925 4134 
L 275 4134 
L 378 4666 
z
" transform="scale(0.015625)"/>
     </defs>
     <use xlink:href="#DejaVuSans-Oblique-44"/>
     <use xlink:href="#DejaVuSans-Oblique-3" transform="translate(61.28125 0)"/>
     <use xlink:href="#DejaVuSans-Oblique-15" transform="translate(93.0625 0)"/>
     <use xlink:href="#DejaVuSans-Oblique-10" transform="translate(156.6875 0)"/>
     <use xlink:href="#DejaVuSans-Oblique-27" transform="translate(192.765625 0)"/>
     <use xlink:href="#DejaVuSans-Oblique-3" transform="translate(269.765625 0)"/>
     <use xlink:href="#DejaVuSans-Oblique-53" transform="translate(301.546875 0)"/>
     <use xlink:href="#DejaVuSans-Oblique-4f" transform="translate(365.03125 0)"/>
     <use xlink:href="#DejaVuSans-Oblique-44" transform="translate(392.8125 0)"/>
     <use xlink:href="#DejaVuSans-Oblique-51" transform="translate(454.09375 0)"/>
     <use xlink:href="#DejaVuSans-Oblique-48" transform="translate(517.46875 0)"/>
     <use xlink:href="#DejaVuSans-Oblique-3" transform="translate(579 0)"/>
     <use xlink:href="#DejaVuSans-Oblique-4c" transform="translate(610.78125 0)"/>
     <use xlink:href="#DejaVuSans-Oblique-56" transform="translate(638.5625 0)"/>
     <use xlink:href="#DejaVuSans-Oblique-3" transform="translate(690.65625 0)"/>
     <use xlink:href="#DejaVuSans-Oblique-56" transform="translate(722.4375 0)"/>
     <use xlink:href="#DejaVuSans-Oblique-44" transform="translate(774.53125 0)"/>
     <use xlink:href="#DejaVuSans-Oblique-50" transform="translate(835.8125 0)"/>
     <use xlink:href="#DejaVuSans-Oblique-53" transform="translate(933.21875 0)"/>
     <use xlink:href="#DejaVuSans-Oblique-4f" transform="translate(996.703125 0)"/>
     <use xlink:href="#DejaVuSans-Oblique-48" transform="translate(1024.484375 0)"/>
     <use xlink:href="#DejaVuSans-Oblique-47" transform="translate(1086.015625 0)"/>
     <use xlink:href="#DejaVuSans-Oblique-3" transform="translate(1149.5 0)"/>
     <use xlink:href="#DejaVuSans-Oblique-4c" transform="translate(1181.28125 0)"/>
     <use xlink:href="#DejaVuSans-Oblique-51" transform="translate(1209.0625 0)"/>
     <use xlink:href="#DejaVuSans-Oblique-3" transform="translate(1272.4375 0)"/>
     <use xlink:href="#DejaVuSans-Oblique-4f" transform="translate(1304.21875 0)"/>
     <use xlink:href="#DejaVuSans-Oblique-52" transform="translate(1332 0)"/>
     <use xlink:href="#DejaVuSans-Oblique-5a" transform="translate(1393.1875 0)"/>
     <use xlink:href="#DejaVuSans-Oblique-10" transform="translate(1474.96875 0)"/>
     <use xlink:href="#DejaVuSans-Oblique-49" transform="translate(1511.046875 0)"/>
     <use xlink:href="#DejaVuSans-Oblique-55" transform="translate(1546.25 0)"/>
     <use xlink:href="#DejaVuSans-Oblique-48" transform="translate(1587.359375 0)"/>
     <use xlink:href="#DejaVuSans-Oblique-54" transform="translate(1648.890625 0)"/>
     <use xlink:href="#DejaVuSans-Oblique-58" transform="translate(1712.375 0)"/>
     <use xlink:href="#DejaVuSans-Oblique-48" transform="translate(1775.75 0)"/>
     <use xlink:href="#DejaVuSans-Oblique-51" transform="translate(1837.28125 0)"/>
     <use xlink:href="#DejaVuSans-Oblique-46" transform="translate(1900.65625 0)"/>
     <use xlink:href="#DejaVuSans-Oblique-5c" transform="translate(1955.640625 0)"/>
     <use xlink:href="#DejaVuSans-Oblique-3" transform="translate(2014.828125 0)"/>
     <use xlink:href="#DejaVuSans-Oblique-27" transform="translate(2046.609375 0)"/>
     <use xlink:href="#DejaVuSans-Oblique-26" transform="translate(2123.609375 0)"/>
     <use xlink:href="#DejaVuSans-Oblique-37" transform="translate(2193.4375 0)"/>
     <use xlink:href="#DejaVuSans-Oblique-3" transform="translate(2254.515625 0)"/>
     <use xlink:href="#DejaVuSans-Oblique-56" transform="translate(2286.296875 0)"/>
     <use xlink:href="#DejaVuSans-Oblique-53" transform="translate(2338.390625 0)"/>
     <use xlink:href="#DejaVuSans-Oblique-44" transform="translate(2401.875 0)"/>
     <use xlink:href="#DejaVuSans-Oblique-46" transform="translate(2463.15625 0)"/>
     <use xlink:href="#DejaVuSans-Oblique-48" transform="translate(2518.140625 0)"/>
    </g>
   </g>
   <g id="text_4">
    <!-- $\delta_t$ -->
    <g style="fill: #f87171" transform="translate(283.401429 229.989342) scale(0.15 -0.15)">
     <defs>
      <path id="DejaVuSans-Oblique-348" d="M 3472 4053 
Q 3197 4272 2450 4272 
Q 1659 4272 1588 3906 
Q 1531 3619 2328 3469 
Q 2953 3353 3253 3003 
Q 3616 2581 3447 1716 
Q 3284 888 2763 400 
Q 2238 -91 1488 -91 
Q 741 -91 406 400 
Q 72 888 241 1747 
Q 363 2384 891 2900 
Q 1097 3100 1353 3213 
Q 913 3459 1000 3900 
Q 1166 4750 2544 4750 
Q 3234 4750 3566 4531 
L 3472 4053 
z
M 1753 3056 
Q 1525 2966 1306 2738 
Q 969 2384 847 1747 
Q 722 1113 919 756 
Q 1119 397 1584 397 
Q 2044 397 2381 759 
Q 2722 1122 2838 1716 
Q 2956 2338 2731 2638 
Q 2491 2959 2103 2994 
Q 1906 3013 1753 3056 
z
" transform="scale(0.015625)"/>
      <path id="DejaVuSans-Oblique-57" d="M 2706 3500 
L 2619 3053 
L 1472 3053 
L 1100 1153 
Q 1081 1047 1072 975 
Q 1063 903 1063 863 
Q 1063 663 1183 572 
Q 1303 481 1569 481 
L 2150 481 
L 2053 0 
L 1503 0 
Q 991 0 739 200 
Q 488 400 488 806 
Q 488 878 497 964 
Q 506 1050 525 1153 
L 897 3053 
L 409 3053 
L 500 3500 
L 978 3500 
L 1172 4494 
L 1747 4494 
L 1556 3500 
L 2706 3500 
z
" transform="scale(0.015625)"/>
     </defs>
     <use xlink:href="#DejaVuSans-Oblique-348" transform="translate(0 0.78125)"/>
     <use xlink:href="#DejaVuSans-Oblique-57" transform="translate(61.181641 -14.218701) scale(0.7)"/>
    </g>
   </g>
   <g id="text_5">
    <!-- $\delta_{t+1}\;&lt;\;\delta_t$ -->
    <g style="fill: #a7f3d0" transform="translate(244.257143 331.879576) scale(0.14 -0.14)">
     <defs>
      <path id="DejaVuSans-e" d="M 2944 4013 
L 2944 2272 
L 4684 2272 
L 4684 1741 
L 2944 1741 
L 2944 0 
L 2419 0 
L 2419 1741 
L 678 1741 
L 678 2272 
L 2419 2272 
L 2419 4013 
L 2944 4013 
z
" transform="scale(0.015625)"/>
      <path id="DejaVuSans-14" d="M 794 531 
L 1825 531 
L 1825 4091 
L 703 3866 
L 703 4441 
L 1819 4666 
L 2450 4666 
L 2450 531 
L 3481 531 
L 3481 0 
L 794 0 
L 794 531 
z
" transform="scale(0.015625)"/>
      <path id="DejaVuSans-1f" d="M 4684 3150 
L 1459 2003 
L 4684 863 
L 4684 294 
L 678 1747 
L 678 2266 
L 4684 3719 
L 4684 3150 
z
" transform="scale(0.015625)"/>
     </defs>
     <use xlink:href="#DejaVuSans-Oblique-348" transform="translate(0 0.78125)"/>
     <use xlink:href="#DejaVuSans-Oblique-57" transform="translate(61.181641 -14.218701) scale(0.7)"/>
     <use xlink:href="#DejaVuSans-e" transform="translate(102.265625 -14.218701) scale(0.7)"/>
     <use xlink:href="#DejaVuSans-14" transform="translate(174.555664 -14.218701) scale(0.7)"/>
     <use xlink:href="#DejaVuSans-1f" transform="translate(268.367729 0.78125)"/>
     <use xlink:href="#DejaVuSans-Oblique-348" transform="translate(398.69835 0.78125)"/>
     <use xlink:href="#DejaVuSans-Oblique-57" transform="translate(459.87999 -14.218701) scale(0.7)"/>
    </g>
   </g>
   <g id="text_6">
    <!-- rotate by ±β -->
    <g style="fill: #38bdf8" transform="translate(450.822857 243.618331) scale(0.11 -0.11)">
     <defs>
      <path id="DejaVuSans-Bold-55" d="M 3138 2547 
Q 2991 2616 2845 2648 
Q 2700 2681 2553 2681 
Q 2122 2681 1889 2404 
Q 1656 2128 1656 1613 
L 1656 0 
L 538 0 
L 538 3500 
L 1656 3500 
L 1656 2925 
Q 1872 3269 2151 3426 
Q 2431 3584 2822 3584 
Q 2878 3584 2943 3579 
Q 3009 3575 3134 3559 
L 3138 2547 
z
" transform="scale(0.015625)"/>
      <path id="DejaVuSans-Bold-52" d="M 2203 2784 
Q 1831 2784 1636 2517 
Q 1441 2250 1441 1747 
Q 1441 1244 1636 976 
Q 1831 709 2203 709 
Q 2569 709 2762 976 
Q 2956 1244 2956 1747 
Q 2956 2250 2762 2517 
Q 2569 2784 2203 2784 
z
M 2203 3584 
Q 3106 3584 3614 3096 
Q 4122 2609 4122 1747 
Q 4122 884 3614 396 
Q 3106 -91 2203 -91 
Q 1297 -91 786 396 
Q 275 884 275 1747 
Q 275 2609 786 3096 
Q 1297 3584 2203 3584 
z
" transform="scale(0.015625)"/>
      <path id="DejaVuSans-Bold-57" d="M 1759 4494 
L 1759 3500 
L 2913 3500 
L 2913 2700 
L 1759 2700 
L 1759 1216 
Q 1759 972 1856 886 
Q 1953 800 2241 800 
L 2816 800 
L 2816 0 
L 1856 0 
Q 1194 0 917 276 
Q 641 553 641 1216 
L 641 2700 
L 84 2700 
L 84 3500 
L 641 3500 
L 641 4494 
L 1759 4494 
z
" transform="scale(0.015625)"/>
      <path id="DejaVuSans-Bold-44" d="M 2106 1575 
Q 1756 1575 1579 1456 
Q 1403 1338 1403 1106 
Q 1403 894 1545 773 
Q 1688 653 1941 653 
Q 2256 653 2472 879 
Q 2688 1106 2688 1447 
L 2688 1575 
L 2106 1575 
z
M 3816 1997 
L 3816 0 
L 2688 0 
L 2688 519 
Q 2463 200 2181 54 
Q 1900 -91 1497 -91 
Q 953 -91 614 226 
Q 275 544 275 1050 
Q 275 1666 698 1953 
Q 1122 2241 2028 2241 
L 2688 2241 
L 2688 2328 
Q 2688 2594 2478 2717 
Q 2269 2841 1825 2841 
Q 1466 2841 1156 2769 
Q 847 2697 581 2553 
L 581 3406 
Q 941 3494 1303 3539 
Q 1666 3584 2028 3584 
Q 2975 3584 3395 3211 
Q 3816 2838 3816 1997 
z
" transform="scale(0.015625)"/>
      <path id="DejaVuSans-Bold-48" d="M 4031 1759 
L 4031 1441 
L 1416 1441 
Q 1456 1047 1700 850 
Q 1944 653 2381 653 
Q 2734 653 3104 758 
Q 3475 863 3866 1075 
L 3866 213 
Q 3469 63 3072 -14 
Q 2675 -91 2278 -91 
Q 1328 -91 801 392 
Q 275 875 275 1747 
Q 275 2603 792 3093 
Q 1309 3584 2216 3584 
Q 3041 3584 3536 3087 
Q 4031 2591 4031 1759 
z
M 2881 2131 
Q 2881 2450 2695 2645 
Q 2509 2841 2209 2841 
Q 1884 2841 1681 2658 
Q 1478 2475 1428 2131 
L 2881 2131 
z
" transform="scale(0.015625)"/>
      <path id="DejaVuSans-Bold-3" transform="scale(0.015625)"/>
      <path id="DejaVuSans-Bold-45" d="M 2400 722 
Q 2759 722 2948 984 
Q 3138 1247 3138 1747 
Q 3138 2247 2948 2509 
Q 2759 2772 2400 2772 
Q 2041 2772 1848 2508 
Q 1656 2244 1656 1747 
Q 1656 1250 1848 986 
Q 2041 722 2400 722 
z
M 1656 2988 
Q 1888 3294 2169 3439 
Q 2450 3584 2816 3584 
Q 3463 3584 3878 3070 
Q 4294 2556 4294 1747 
Q 4294 938 3878 423 
Q 3463 -91 2816 -91 
Q 2450 -91 2169 54 
Q 1888 200 1656 506 
L 1656 0 
L 538 0 
L 538 4863 
L 1656 4863 
L 1656 2988 
z
" transform="scale(0.015625)"/>
      <path id="DejaVuSans-Bold-5c" d="M 78 3500 
L 1197 3500 
L 2138 1125 
L 2938 3500 
L 4056 3500 
L 2584 -331 
Q 2363 -916 2067 -1148 
Q 1772 -1381 1288 -1381 
L 641 -1381 
L 641 -647 
L 991 -647 
Q 1275 -647 1404 -556 
Q 1534 -466 1606 -231 
L 1638 -134 
L 78 3500 
z
" transform="scale(0.015625)"/>
      <path id="DejaVuSans-Bold-73" d="M 3053 4013 
L 3053 2906 
L 4684 2906 
L 4684 2169 
L 3053 2169 
L 3053 1063 
L 2309 1063 
L 2309 2169 
L 678 2169 
L 678 2906 
L 2309 2906 
L 2309 4013 
L 3053 4013 
z
M 678 744 
L 4684 744 
L 4684 0 
L 678 0 
L 678 744 
z
" transform="scale(0.015625)"/>
      <path id="DejaVuSans-Bold-346" d="M 2575 3038 
Q 2772 3309 2772 3503 
Q 2772 3769 2648 3948 
Q 2525 4128 2241 4128 
Q 1900 4128 1778 3864 
Q 1656 3600 1656 3103 
L 1656 1747 
Q 1656 1250 1848 986 
Q 2041 722 2400 722 
Q 2800 722 2953 934 
Q 3106 1147 3106 1275 
Q 3106 1722 2738 1988 
Q 2538 2122 1988 2134 
L 1988 2847 
Q 2497 2925 2575 3038 
z
M 538 -1331 
L 538 3044 
Q 538 3922 969 4369 
Q 1325 4741 1672 4845 
Q 2019 4950 2259 4950 
Q 2500 4947 2538 4941 
Q 3178 4841 3538 4438 
Q 3788 4163 3788 3600 
Q 3788 3313 3616 3053 
Q 3406 2734 3094 2709 
Q 3556 2584 3844 2322 
Q 4294 1919 4294 1288 
Q 4294 731 3903 320 
Q 3513 -91 2809 -91 
Q 2106 -91 1656 506 
L 1656 -1331 
L 538 -1331 
z
" transform="scale(0.015625)"/>
     </defs>
     <use xlink:href="#DejaVuSans-Bold-55"/>
     <use xlink:href="#DejaVuSans-Bold-52" transform="translate(49.3125 0)"/>
     <use xlink:href="#DejaVuSans-Bold-57" transform="translate(118.015625 0)"/>
     <use xlink:href="#DejaVuSans-Bold-44" transform="translate(165.8125 0)"/>
     <use xlink:href="#DejaVuSans-Bold-57" transform="translate(233.296875 0)"/>
     <use xlink:href="#DejaVuSans-Bold-48" transform="translate(281.09375 0)"/>
     <use xlink:href="#DejaVuSans-Bold-3" transform="translate(348.921875 0)"/>
     <use xlink:href="#DejaVuSans-Bold-45" transform="translate(383.734375 0)"/>
     <use xlink:href="#DejaVuSans-Bold-5c" transform="translate(455.3125 0)"/>
     <use xlink:href="#DejaVuSans-Bold-3" transform="translate(520.5 0)"/>
     <use xlink:href="#DejaVuSans-Bold-73" transform="translate(555.3125 0)"/>
     <use xlink:href="#DejaVuSans-Bold-346" transform="translate(639.109375 0)"/>
    </g>
   </g>
   <g id="text_7">
    <!-- $\beta$ -->
    <g style="fill: #fbbf24" transform="translate(208.387953 298.438344) scale(0.13 -0.13)">
     <defs>
      <path id="DejaVuSans-Oblique-346" d="M 872 216 
L 572 -1331 
L -6 -1331 
L 928 3478 
Q 1206 4903 2538 4903 
Q 3888 4903 3659 3700 
Q 3503 2844 2894 2531 
Q 3713 2250 3553 1416 
Q 3272 -69 1759 -66 
Q 1097 -63 872 216 
z
M 1019 966 
Q 1259 422 1875 425 
Q 2775 425 2966 1406 
Q 3138 2288 1675 2219 
L 1778 2750 
Q 2909 2731 3106 3750 
Q 3241 4438 2509 4434 
Q 1691 4434 1503 3459 
L 1019 966 
z
" transform="scale(0.015625)"/>
     </defs>
     <use xlink:href="#DejaVuSans-Oblique-346" transform="translate(0 0.390625)"/>
    </g>
   </g>
   <g id="text_8">
    <!-- $\alpha$ -->
    <g style="fill: #fbbf24" transform="translate(428.178564 338.077374) scale(0.13 -0.13)">
     <defs>
      <path id="DejaVuSans-Oblique-345" d="M 2619 1628 
L 2622 2350 
Q 2625 3088 2069 3091 
Q 1653 3094 1394 2747 
Q 1069 2319 959 1747 
Q 825 1059 994 731 
Q 1169 397 1547 397 
Q 1966 397 2319 1063 
L 2619 1628 
z
M 2166 3578 
Q 3141 3594 3128 2584 
Q 3128 2584 3616 3500 
L 4128 3500 
L 3119 1603 
L 3109 919 
Q 3109 766 3194 638 
Q 3291 488 3391 488 
L 3669 488 
L 3575 0 
L 3228 0 
Q 2934 0 2722 263 
Q 2622 394 2619 669 
Q 2416 334 2066 50 
Q 1900 -81 1453 -78 
Q 722 -72 456 397 
Q 184 884 353 1747 
Q 534 2675 1009 3097 
Q 1544 3569 2166 3578 
z
" transform="scale(0.015625)"/>
     </defs>
     <use xlink:href="#DejaVuSans-Oblique-345" transform="translate(0 0.84375)"/>
    </g>
   </g>
   <g id="text_9">
    <!-- $x_0$  (benign) -->
    <g style="fill: #67e8f9" transform="translate(53.617143 343.165678) scale(0.125 -0.125)">
     <defs>
      <path id="DejaVuSans-Oblique-5b" d="M 3841 3500 
L 2234 1784 
L 3219 0 
L 2559 0 
L 1819 1388 
L 531 0 
L -166 0 
L 1556 1844 
L 641 3500 
L 1300 3500 
L 1972 2234 
L 3144 3500 
L 3841 3500 
z
" transform="scale(0.015625)"/>
      <path id="DejaVuSans-13" d="M 2034 4250 
Q 1547 4250 1301 3770 
Q 1056 3291 1056 2328 
Q 1056 1369 1301 889 
Q 1547 409 2034 409 
Q 2525 409 2770 889 
Q 3016 1369 3016 2328 
Q 3016 3291 2770 3770 
Q 2525 4250 2034 4250 
z
M 2034 4750 
Q 2819 4750 3233 4129 
Q 3647 3509 3647 2328 
Q 3647 1150 3233 529 
Q 2819 -91 2034 -91 
Q 1250 -91 836 529 
Q 422 1150 422 2328 
Q 422 3509 836 4129 
Q 1250 4750 2034 4750 
z
" transform="scale(0.015625)"/>
      <path id="DejaVuSans-Bold-b" d="M 2413 -844 
L 1484 -844 
Q 1006 -72 778 623 
Q 550 1319 550 2003 
Q 550 2688 779 3389 
Q 1009 4091 1484 4856 
L 2413 4856 
Q 2013 4116 1813 3408 
Q 1613 2700 1613 2009 
Q 1613 1319 1811 609 
Q 2009 -100 2413 -844 
z
" transform="scale(0.015625)"/>
      <path id="DejaVuSans-Bold-51" d="M 4056 2131 
L 4056 0 
L 2931 0 
L 2931 347 
L 2931 1631 
Q 2931 2084 2911 2256 
Q 2891 2428 2841 2509 
Q 2775 2619 2662 2680 
Q 2550 2741 2406 2741 
Q 2056 2741 1856 2470 
Q 1656 2200 1656 1722 
L 1656 0 
L 538 0 
L 538 3500 
L 1656 3500 
L 1656 2988 
Q 1909 3294 2193 3439 
Q 2478 3584 2822 3584 
Q 3428 3584 3742 3212 
Q 4056 2841 4056 2131 
z
" transform="scale(0.015625)"/>
      <path id="DejaVuSans-Bold-4c" d="M 538 3500 
L 1656 3500 
L 1656 0 
L 538 0 
L 538 3500 
z
M 538 4863 
L 1656 4863 
L 1656 3950 
L 538 3950 
L 538 4863 
z
" transform="scale(0.015625)"/>
      <path id="DejaVuSans-Bold-4a" d="M 2919 594 
Q 2688 288 2409 144 
Q 2131 0 1766 0 
Q 1125 0 706 504 
Q 288 1009 288 1791 
Q 288 2575 706 3076 
Q 1125 3578 1766 3578 
Q 2131 3578 2409 3434 
Q 2688 3291 2919 2981 
L 2919 3500 
L 4044 3500 
L 4044 353 
Q 4044 -491 3511 -936 
Q 2978 -1381 1966 -1381 
Q 1638 -1381 1331 -1331 
Q 1025 -1281 716 -1178 
L 716 -306 
Q 1009 -475 1290 -558 
Q 1572 -641 1856 -641 
Q 2406 -641 2662 -400 
Q 2919 -159 2919 353 
L 2919 594 
z
M 2181 2772 
Q 1834 2772 1640 2515 
Q 1447 2259 1447 1791 
Q 1447 1309 1634 1061 
Q 1822 813 2181 813 
Q 2531 813 2725 1069 
Q 2919 1325 2919 1791 
Q 2919 2259 2725 2515 
Q 2531 2772 2181 2772 
z
" transform="scale(0.015625)"/>
      <path id="DejaVuSans-Bold-c" d="M 513 -844 
Q 913 -100 1113 609 
Q 1313 1319 1313 2009 
Q 1313 2700 1113 3408 
Q 913 4116 513 4856 
L 1441 4856 
Q 1916 4091 2145 3389 
Q 2375 2688 2375 2003 
Q 2375 1319 2147 623 
Q 1919 -72 1441 -844 
L 513 -844 
z
" transform="scale(0.015625)"/>
     </defs>
     <use xlink:href="#DejaVuSans-Oblique-5b" transform="translate(0 0.015625)"/>
     <use xlink:href="#DejaVuSans-13" transform="translate(59.179688 -14.984326) scale(0.7)"/>
     <use xlink:href="#DejaVuSans-Bold-3" transform="translate(106.450195 0.015625)"/>
     <use xlink:href="#DejaVuSans-Bold-3" transform="translate(141.264648 0.015625)"/>
     <use xlink:href="#DejaVuSans-Bold-b" transform="translate(176.079102 0.015625)"/>
     <use xlink:href="#DejaVuSans-Bold-45" transform="translate(221.782227 0.015625)"/>
     <use xlink:href="#DejaVuSans-Bold-48" transform="translate(293.364258 0.015625)"/>
     <use xlink:href="#DejaVuSans-Bold-51" transform="translate(361.186523 0.015625)"/>
     <use xlink:href="#DejaVuSans-Bold-4c" transform="translate(432.37793 0.015625)"/>
     <use xlink:href="#DejaVuSans-Bold-4a" transform="translate(466.655273 0.015625)"/>
     <use xlink:href="#DejaVuSans-Bold-51" transform="translate(538.237305 0.015625)"/>
     <use xlink:href="#DejaVuSans-Bold-c" transform="translate(609.428711 0.015625)"/>
    </g>
   </g>
   <g id="text_10">
    <!-- $x_t^{adv}$ -->
    <g style="fill: #f87171" transform="translate(455.492571 187.836714) scale(0.13 -0.13)">
     <defs>
      <path id="DejaVuSans-Oblique-59" d="M 459 3500 
L 1069 3500 
L 1581 525 
L 3256 3500 
L 3866 3500 
L 1875 0 
L 1100 0 
L 459 3500 
z
" transform="scale(0.015625)"/>
     </defs>
     <use xlink:href="#DejaVuSans-Oblique-5b" transform="translate(0 0.065625)"/>
     <use xlink:href="#DejaVuSans-Oblique-44" transform="translate(63.645833 44.810938) scale(0.7)"/>
     <use xlink:href="#DejaVuSans-Oblique-47" transform="translate(106.541341 44.810938) scale(0.7)"/>
     <use xlink:href="#DejaVuSans-Oblique-59" transform="translate(150.974935 44.810938) scale(0.7)"/>
     <use xlink:href="#DejaVuSans-Oblique-57" transform="translate(59.179688 -30.3375) scale(0.7)"/>
    </g>
   </g>
   <g id="text_11">
    <!-- $x_{t+1}^{adv}$ -->
    <g style="fill: #a7f3d0" transform="translate(414.632571 294.526429) scale(0.13 -0.13)">
     <use xlink:href="#DejaVuSans-Oblique-5b" transform="translate(0 0.065625)"/>
     <use xlink:href="#DejaVuSans-Oblique-44" transform="translate(63.645833 44.810938) scale(0.7)"/>
     <use xlink:href="#DejaVuSans-Oblique-47" transform="translate(106.541341 44.810938) scale(0.7)"/>
     <use xlink:href="#DejaVuSans-Oblique-59" transform="translate(150.974935 44.810938) scale(0.7)"/>
     <use xlink:href="#DejaVuSans-Oblique-57" transform="translate(59.179688 -32.21875) scale(0.7)"/>
     <use xlink:href="#DejaVuSans-e" transform="translate(100.263672 -32.21875) scale(0.7)"/>
     <use xlink:href="#DejaVuSans-14" transform="translate(172.553711 -32.21875) scale(0.7)"/>
    </g>
   </g>
   <g id="text_12">
    <!-- $\delta_{t+1} = \delta_t \cdot \dfrac{\sin(\alpha+\beta)}{\sin(\alpha)}$ -->
    <g style="fill: #e5e7eb" transform="translate(357.428571 366.184286) scale(0.15 -0.15)">
     <defs>
      <path id="DejaVuSans-20" d="M 678 2906 
L 4684 2906 
L 4684 2381 
L 678 2381 
L 678 2906 
z
M 678 1631 
L 4684 1631 
L 4684 1100 
L 678 1100 
L 678 1631 
z
" transform="scale(0.015625)"/>
      <path id="DejaVuSans-d4f" d="M 684 2619 
L 1344 2619 
L 1344 1825 
L 684 1825 
L 684 2619 
z
" transform="scale(0.015625)"/>
      <path id="DejaVuSans-56" d="M 2834 3397 
L 2834 2853 
Q 2591 2978 2328 3040 
Q 2066 3103 1784 3103 
Q 1356 3103 1142 2972 
Q 928 2841 928 2578 
Q 928 2378 1081 2264 
Q 1234 2150 1697 2047 
L 1894 2003 
Q 2506 1872 2764 1633 
Q 3022 1394 3022 966 
Q 3022 478 2636 193 
Q 2250 -91 1575 -91 
Q 1294 -91 989 -36 
Q 684 19 347 128 
L 347 722 
Q 666 556 975 473 
Q 1284 391 1588 391 
Q 1994 391 2212 530 
Q 2431 669 2431 922 
Q 2431 1156 2273 1281 
Q 2116 1406 1581 1522 
L 1381 1569 
Q 847 1681 609 1914 
Q 372 2147 372 2553 
Q 372 3047 722 3315 
Q 1072 3584 1716 3584 
Q 2034 3584 2315 3537 
Q 2597 3491 2834 3397 
z
" transform="scale(0.015625)"/>
      <path id="DejaVuSans-4c" d="M 603 3500 
L 1178 3500 
L 1178 0 
L 603 0 
L 603 3500 
z
M 603 4863 
L 1178 4863 
L 1178 4134 
L 603 4134 
L 603 4863 
z
" transform="scale(0.015625)"/>
      <path id="DejaVuSans-51" d="M 3513 2113 
L 3513 0 
L 2938 0 
L 2938 2094 
Q 2938 2591 2744 2837 
Q 2550 3084 2163 3084 
Q 1697 3084 1428 2787 
Q 1159 2491 1159 1978 
L 1159 0 
L 581 0 
L 581 3500 
L 1159 3500 
L 1159 2956 
Q 1366 3272 1645 3428 
Q 1925 3584 2291 3584 
Q 2894 3584 3203 3211 
Q 3513 2838 3513 2113 
z
" transform="scale(0.015625)"/>
      <path id="DejaVuSans-b" d="M 1984 4856 
Q 1566 4138 1362 3434 
Q 1159 2731 1159 2009 
Q 1159 1288 1364 580 
Q 1569 -128 1984 -844 
L 1484 -844 
Q 1016 -109 783 600 
Q 550 1309 550 2009 
Q 550 2706 781 3412 
Q 1013 4119 1484 4856 
L 1984 4856 
z
" transform="scale(0.015625)"/>
      <path id="DejaVuSans-c" d="M 513 4856 
L 1013 4856 
Q 1481 4119 1714 3412 
Q 1947 2706 1947 2009 
Q 1947 1309 1714 600 
Q 1481 -109 1013 -844 
L 513 -844 
Q 928 -128 1133 580 
Q 1338 1288 1338 2009 
Q 1338 2731 1133 3434 
Q 928 4138 513 4856 
z
" transform="scale(0.015625)"/>
     </defs>
     <use xlink:href="#DejaVuSans-Oblique-348" transform="translate(0 0.69043)"/>
     <use xlink:href="#DejaVuSans-Oblique-57" transform="translate(61.181641 -14.309521) scale(0.7)"/>
     <use xlink:href="#DejaVuSans-e" transform="translate(102.265625 -14.309521) scale(0.7)"/>
     <use xlink:href="#DejaVuSans-14" transform="translate(174.555664 -14.309521) scale(0.7)"/>
     <use xlink:href="#DejaVuSans-20" transform="translate(241.308594 0.69043)"/>
     <use xlink:href="#DejaVuSans-Oblique-348" transform="translate(344.580078 0.69043)"/>
     <use xlink:href="#DejaVuSans-Oblique-57" transform="translate(405.761719 -14.309521) scale(0.7)"/>
     <use xlink:href="#DejaVuSans-d4f" transform="translate(455.424805 0.69043)"/>
     <use xlink:href="#DejaVuSans-56" transform="translate(512.944336 75.390625)"/>
     <use xlink:href="#DejaVuSans-4c" transform="translate(565.043945 75.390625)"/>
     <use xlink:href="#DejaVuSans-51" transform="translate(592.827148 75.390625)"/>
     <use xlink:href="#DejaVuSans-b" transform="translate(656.206055 75.390625)"/>
     <use xlink:href="#DejaVuSans-Oblique-345" transform="translate(695.219727 75.390625)"/>
     <use xlink:href="#DejaVuSans-e" transform="translate(780.620117 75.390625)"/>
     <use xlink:href="#DejaVuSans-Oblique-346" transform="translate(883.891602 75.390625)"/>
     <use xlink:href="#DejaVuSans-c" transform="translate(947.709961 75.390625)"/>
     <use xlink:href="#DejaVuSans-56" transform="translate(605.944336 -74.909668)"/>
     <use xlink:href="#DejaVuSans-4c" transform="translate(658.043945 -74.909668)"/>
     <use xlink:href="#DejaVuSans-51" transform="translate(685.827148 -74.909668)"/>
     <use xlink:href="#DejaVuSans-b" transform="translate(749.206055 -74.909668)"/>
     <use xlink:href="#DejaVuSans-Oblique-345" transform="translate(788.219727 -74.909668)"/>
     <use xlink:href="#DejaVuSans-c" transform="translate(854.137695 -74.909668)"/>
     <path d="M 512.944336 22.56543 
L 512.944336 28.81543 
L 986.723633 28.81543 
L 986.723633 22.56543 
L 512.944336 22.56543 
z
"/>
    </g>
   </g>
   <g id="text_13">
    <!-- build a triangle from two adversarial points near the boundary -->
    <g style="fill: #38bdf8" transform="translate(171.807429 410.291844) scale(0.125 -0.125)">
     <defs>
      <path id="DejaVuSans-Bold-58" d="M 500 1363 
L 500 3500 
L 1625 3500 
L 1625 3150 
Q 1625 2866 1622 2436 
Q 1619 2006 1619 1863 
Q 1619 1441 1641 1255 
Q 1663 1069 1716 984 
Q 1784 875 1895 815 
Q 2006 756 2150 756 
Q 2500 756 2700 1025 
Q 2900 1294 2900 1772 
L 2900 3500 
L 4019 3500 
L 4019 0 
L 2900 0 
L 2900 506 
Q 2647 200 2364 54 
Q 2081 -91 1741 -91 
Q 1134 -91 817 281 
Q 500 653 500 1363 
z
" transform="scale(0.015625)"/>
      <path id="DejaVuSans-Bold-4f" d="M 538 4863 
L 1656 4863 
L 1656 0 
L 538 0 
L 538 4863 
z
" transform="scale(0.015625)"/>
      <path id="DejaVuSans-Bold-47" d="M 2919 2988 
L 2919 4863 
L 4044 4863 
L 4044 0 
L 2919 0 
L 2919 506 
Q 2688 197 2409 53 
Q 2131 -91 1766 -91 
Q 1119 -91 703 423 
Q 288 938 288 1747 
Q 288 2556 703 3070 
Q 1119 3584 1766 3584 
Q 2128 3584 2408 3439 
Q 2688 3294 2919 2988 
z
M 2181 722 
Q 2541 722 2730 984 
Q 2919 1247 2919 1747 
Q 2919 2247 2730 2509 
Q 2541 2772 2181 2772 
Q 1825 2772 1636 2509 
Q 1447 2247 1447 1747 
Q 1447 1247 1636 984 
Q 1825 722 2181 722 
z
" transform="scale(0.015625)"/>
      <path id="DejaVuSans-Bold-49" d="M 2841 4863 
L 2841 4128 
L 2222 4128 
Q 1984 4128 1890 4042 
Q 1797 3956 1797 3744 
L 1797 3500 
L 2753 3500 
L 2753 2700 
L 1797 2700 
L 1797 0 
L 678 0 
L 678 2700 
L 122 2700 
L 122 3500 
L 678 3500 
L 678 3744 
Q 678 4316 997 4589 
Q 1316 4863 1984 4863 
L 2841 4863 
z
" transform="scale(0.015625)"/>
      <path id="DejaVuSans-Bold-50" d="M 3781 2919 
Q 3994 3244 4286 3414 
Q 4578 3584 4928 3584 
Q 5531 3584 5847 3212 
Q 6163 2841 6163 2131 
L 6163 0 
L 5038 0 
L 5038 1825 
Q 5041 1866 5042 1909 
Q 5044 1953 5044 2034 
Q 5044 2406 4934 2573 
Q 4825 2741 4581 2741 
Q 4263 2741 4089 2478 
Q 3916 2216 3909 1719 
L 3909 0 
L 2784 0 
L 2784 1825 
Q 2784 2406 2684 2573 
Q 2584 2741 2328 2741 
Q 2006 2741 1831 2477 
Q 1656 2213 1656 1722 
L 1656 0 
L 531 0 
L 531 3500 
L 1656 3500 
L 1656 2988 
Q 1863 3284 2130 3434 
Q 2397 3584 2719 3584 
Q 3081 3584 3359 3409 
Q 3638 3234 3781 2919 
z
" transform="scale(0.015625)"/>
      <path id="DejaVuSans-Bold-5a" d="M 225 3500 
L 1313 3500 
L 1900 1088 
L 2491 3500 
L 3425 3500 
L 4013 1113 
L 4603 3500 
L 5691 3500 
L 4769 0 
L 3547 0 
L 2956 2406 
L 2369 0 
L 1147 0 
L 225 3500 
z
" transform="scale(0.015625)"/>
      <path id="DejaVuSans-Bold-59" d="M 97 3500 
L 1216 3500 
L 2088 1081 
L 2956 3500 
L 4078 3500 
L 2700 0 
L 1472 0 
L 97 3500 
z
" transform="scale(0.015625)"/>
      <path id="DejaVuSans-Bold-56" d="M 3272 3391 
L 3272 2541 
Q 2913 2691 2578 2766 
Q 2244 2841 1947 2841 
Q 1628 2841 1473 2761 
Q 1319 2681 1319 2516 
Q 1319 2381 1436 2309 
Q 1553 2238 1856 2203 
L 2053 2175 
Q 2913 2066 3209 1816 
Q 3506 1566 3506 1031 
Q 3506 472 3093 190 
Q 2681 -91 1863 -91 
Q 1516 -91 1145 -36 
Q 775 19 384 128 
L 384 978 
Q 719 816 1070 734 
Q 1422 653 1784 653 
Q 2113 653 2278 743 
Q 2444 834 2444 1013 
Q 2444 1163 2330 1236 
Q 2216 1309 1875 1350 
L 1678 1375 
Q 931 1469 631 1722 
Q 331 1975 331 2491 
Q 331 3047 712 3315 
Q 1094 3584 1881 3584 
Q 2191 3584 2531 3537 
Q 2872 3491 3272 3391 
z
" transform="scale(0.015625)"/>
      <path id="DejaVuSans-Bold-53" d="M 1656 506 
L 1656 -1331 
L 538 -1331 
L 538 3500 
L 1656 3500 
L 1656 2988 
Q 1888 3294 2169 3439 
Q 2450 3584 2816 3584 
Q 3463 3584 3878 3070 
Q 4294 2556 4294 1747 
Q 4294 938 3878 423 
Q 3463 -91 2816 -91 
Q 2450 -91 2169 54 
Q 1888 200 1656 506 
z
M 2400 2772 
Q 2041 2772 1848 2508 
Q 1656 2244 1656 1747 
Q 1656 1250 1848 986 
Q 2041 722 2400 722 
Q 2759 722 2948 984 
Q 3138 1247 3138 1747 
Q 3138 2247 2948 2509 
Q 2759 2772 2400 2772 
z
" transform="scale(0.015625)"/>
      <path id="DejaVuSans-Bold-4b" d="M 4056 2131 
L 4056 0 
L 2931 0 
L 2931 347 
L 2931 1625 
Q 2931 2084 2911 2256 
Q 2891 2428 2841 2509 
Q 2775 2619 2662 2680 
Q 2550 2741 2406 2741 
Q 2056 2741 1856 2470 
Q 1656 2200 1656 1722 
L 1656 0 
L 538 0 
L 538 4863 
L 1656 4863 
L 1656 2988 
Q 1909 3294 2193 3439 
Q 2478 3584 2822 3584 
Q 3428 3584 3742 3212 
Q 4056 2841 4056 2131 
z
" transform="scale(0.015625)"/>
     </defs>
     <use xlink:href="#DejaVuSans-Bold-45"/>
     <use xlink:href="#DejaVuSans-Bold-58" transform="translate(71.578125 0)"/>
     <use xlink:href="#DejaVuSans-Bold-4c" transform="translate(142.765625 0)"/>
     <use xlink:href="#DejaVuSans-Bold-4f" transform="translate(177.046875 0)"/>
     <use xlink:href="#DejaVuSans-Bold-47" transform="translate(211.328125 0)"/>
     <use xlink:href="#DejaVuSans-Bold-3" transform="translate(282.90625 0)"/>
     <use xlink:href="#DejaVuSans-Bold-44" transform="translate(317.71875 0)"/>
     <use xlink:href="#DejaVuSans-Bold-3" transform="translate(385.203125 0)"/>
     <use xlink:href="#DejaVuSans-Bold-57" transform="translate(420.015625 0)"/>
     <use xlink:href="#DejaVuSans-Bold-55" transform="translate(467.8125 0)"/>
     <use xlink:href="#DejaVuSans-Bold-4c" transform="translate(517.125 0)"/>
     <use xlink:href="#DejaVuSans-Bold-44" transform="translate(551.40625 0)"/>
     <use xlink:href="#DejaVuSans-Bold-51" transform="translate(618.890625 0)"/>
     <use xlink:href="#DejaVuSans-Bold-4a" transform="translate(690.078125 0)"/>
     <use xlink:href="#DejaVuSans-Bold-4f" transform="translate(761.65625 0)"/>
     <use xlink:href="#DejaVuSans-Bold-48" transform="translate(795.9375 0)"/>
     <use xlink:href="#DejaVuSans-Bold-3" transform="translate(863.765625 0)"/>
     <use xlink:href="#DejaVuSans-Bold-49" transform="translate(898.578125 0)"/>
     <use xlink:href="#DejaVuSans-Bold-55" transform="translate(942.078125 0)"/>
     <use xlink:href="#DejaVuSans-Bold-52" transform="translate(991.390625 0)"/>
     <use xlink:href="#DejaVuSans-Bold-50" transform="translate(1060.09375 0)"/>
     <use xlink:href="#DejaVuSans-Bold-3" transform="translate(1164.296875 0)"/>
     <use xlink:href="#DejaVuSans-Bold-57" transform="translate(1199.109375 0)"/>
     <use xlink:href="#DejaVuSans-Bold-5a" transform="translate(1246.90625 0)"/>
     <use xlink:href="#DejaVuSans-Bold-52" transform="translate(1339.296875 0)"/>
     <use xlink:href="#DejaVuSans-Bold-3" transform="translate(1408 0)"/>
     <use xlink:href="#DejaVuSans-Bold-44" transform="translate(1442.8125 0)"/>
     <use xlink:href="#DejaVuSans-Bold-47" transform="translate(1510.296875 0)"/>
     <use xlink:href="#DejaVuSans-Bold-59" transform="translate(1581.875 0)"/>
     <use xlink:href="#DejaVuSans-Bold-48" transform="translate(1647.0625 0)"/>
     <use xlink:href="#DejaVuSans-Bold-55" transform="translate(1714.890625 0)"/>
     <use xlink:href="#DejaVuSans-Bold-56" transform="translate(1764.203125 0)"/>
     <use xlink:href="#DejaVuSans-Bold-44" transform="translate(1823.71875 0)"/>
     <use xlink:href="#DejaVuSans-Bold-55" transform="translate(1891.203125 0)"/>
     <use xlink:href="#DejaVuSans-Bold-4c" transform="translate(1940.515625 0)"/>
     <use xlink:href="#DejaVuSans-Bold-44" transform="translate(1974.796875 0)"/>
     <use xlink:href="#DejaVuSans-Bold-4f" transform="translate(2042.28125 0)"/>
     <use xlink:href="#DejaVuSans-Bold-3" transform="translate(2076.5625 0)"/>
     <use xlink:href="#DejaVuSans-Bold-53" transform="translate(2111.375 0)"/>
     <use xlink:href="#DejaVuSans-Bold-52" transform="translate(2182.953125 0)"/>
     <use xlink:href="#DejaVuSans-Bold-4c" transform="translate(2251.65625 0)"/>
     <use xlink:href="#DejaVuSans-Bold-51" transform="translate(2285.9375 0)"/>
     <use xlink:href="#DejaVuSans-Bold-57" transform="translate(2357.125 0)"/>
     <use xlink:href="#DejaVuSans-Bold-56" transform="translate(2404.921875 0)"/>
     <use xlink:href="#DejaVuSans-Bold-3" transform="translate(2464.4375 0)"/>
     <use xlink:href="#DejaVuSans-Bold-51" transform="translate(2499.25 0)"/>
     <use xlink:href="#DejaVuSans-Bold-48" transform="translate(2570.4375 0)"/>
     <use xlink:href="#DejaVuSans-Bold-44" transform="translate(2638.265625 0)"/>
     <use xlink:href="#DejaVuSans-Bold-55" transform="translate(2705.75 0)"/>
     <use xlink:href="#DejaVuSans-Bold-3" transform="translate(2755.0625 0)"/>
     <use xlink:href="#DejaVuSans-Bold-57" transform="translate(2789.875 0)"/>
     <use xlink:href="#DejaVuSans-Bold-4b" transform="translate(2837.671875 0)"/>
     <use xlink:href="#DejaVuSans-Bold-48" transform="translate(2908.859375 0)"/>
     <use xlink:href="#DejaVuSans-Bold-3" transform="translate(2976.6875 0)"/>
     <use xlink:href="#DejaVuSans-Bold-45" transform="translate(3011.5 0)"/>
     <use xlink:href="#DejaVuSans-Bold-52" transform="translate(3083.078125 0)"/>
     <use xlink:href="#DejaVuSans-Bold-58" transform="translate(3151.78125 0)"/>
     <use xlink:href="#DejaVuSans-Bold-51" transform="translate(3222.96875 0)"/>
     <use xlink:href="#DejaVuSans-Bold-47" transform="translate(3294.15625 0)"/>
     <use xlink:href="#DejaVuSans-Bold-44" transform="translate(3365.734375 0)"/>
     <use xlink:href="#DejaVuSans-Bold-55" transform="translate(3433.21875 0)"/>
     <use xlink:href="#DejaVuSans-Bold-5c" transform="translate(3482.53125 0)"/>
    </g>
   </g>
   <g id="text_14">
    <!-- law of sines  ⇒  the new side  $\delta_{t+1}$  is provably shorter -->
    <g style="fill: #a7f3d0" transform="translate(171.807429 446.483107) scale(0.125 -0.125)">
     <defs>
      <path id="DejaVuSans-Bold-c5c" d="M 4128 1772 
L 4363 2006 
L 4128 2241 
L 366 2241 
L 366 2741 
L 3628 2741 
L 3369 3000 
L 3822 3453 
L 5050 2225 
L 5050 1788 
L 3822 559 
L 3369 1013 
L 3628 1272 
L 366 1272 
L 366 1772 
L 4128 1772 
z
" transform="scale(0.015625)"/>
     </defs>
     <use xlink:href="#DejaVuSans-Bold-4f" transform="translate(0 0.015625)"/>
     <use xlink:href="#DejaVuSans-Bold-44" transform="translate(34.277344 0.015625)"/>
     <use xlink:href="#DejaVuSans-Bold-5a" transform="translate(101.757812 0.015625)"/>
     <use xlink:href="#DejaVuSans-Bold-3" transform="translate(194.140625 0.015625)"/>
     <use xlink:href="#DejaVuSans-Bold-52" transform="translate(228.955078 0.015625)"/>
     <use xlink:href="#DejaVuSans-Bold-49" transform="translate(297.65625 0.015625)"/>
     <use xlink:href="#DejaVuSans-Bold-3" transform="translate(341.162109 0.015625)"/>
     <use xlink:href="#DejaVuSans-Bold-56" transform="translate(375.976562 0.015625)"/>
     <use xlink:href="#DejaVuSans-Bold-4c" transform="translate(435.498047 0.015625)"/>
     <use xlink:href="#DejaVuSans-Bold-51" transform="translate(469.775391 0.015625)"/>
     <use xlink:href="#DejaVuSans-Bold-48" transform="translate(540.966797 0.015625)"/>
     <use xlink:href="#DejaVuSans-Bold-56" transform="translate(608.789062 0.015625)"/>
     <use xlink:href="#DejaVuSans-Bold-3" transform="translate(668.310547 0.015625)"/>
     <use xlink:href="#DejaVuSans-Bold-3" transform="translate(703.125 0.015625)"/>
     <use xlink:href="#DejaVuSans-Bold-c5c" transform="translate(737.939453 0.015625)"/>
     <use xlink:href="#DejaVuSans-Bold-3" transform="translate(821.728516 0.015625)"/>
     <use xlink:href="#DejaVuSans-Bold-3" transform="translate(856.542969 0.015625)"/>
     <use xlink:href="#DejaVuSans-Bold-57" transform="translate(891.357422 0.015625)"/>
     <use xlink:href="#DejaVuSans-Bold-4b" transform="translate(939.160156 0.015625)"/>
     <use xlink:href="#DejaVuSans-Bold-48" transform="translate(1010.351562 0.015625)"/>
     <use xlink:href="#DejaVuSans-Bold-3" transform="translate(1078.173828 0.015625)"/>
     <use xlink:href="#DejaVuSans-Bold-51" transform="translate(1112.988281 0.015625)"/>
     <use xlink:href="#DejaVuSans-Bold-48" transform="translate(1184.179688 0.015625)"/>
     <use xlink:href="#DejaVuSans-Bold-5a" transform="translate(1252.001953 0.015625)"/>
     <use xlink:href="#DejaVuSans-Bold-3" transform="translate(1344.384766 0.015625)"/>
     <use xlink:href="#DejaVuSans-Bold-56" transform="translate(1379.199219 0.015625)"/>
     <use xlink:href="#DejaVuSans-Bold-4c" transform="translate(1438.720703 0.015625)"/>
     <use xlink:href="#DejaVuSans-Bold-47" transform="translate(1472.998047 0.015625)"/>
     <use xlink:href="#DejaVuSans-Bold-48" transform="translate(1544.580078 0.015625)"/>
     <use xlink:href="#DejaVuSans-Bold-3" transform="translate(1612.402344 0.015625)"/>
     <use xlink:href="#DejaVuSans-Bold-3" transform="translate(1647.216797 0.015625)"/>
     <use xlink:href="#DejaVuSans-Oblique-348" transform="translate(1682.03125 0.015625)"/>
     <use xlink:href="#DejaVuSans-Oblique-57" transform="translate(1743.212891 -14.984326) scale(0.7)"/>
     <use xlink:href="#DejaVuSans-e" transform="translate(1784.296875 -14.984326) scale(0.7)"/>
     <use xlink:href="#DejaVuSans-14" transform="translate(1856.586914 -14.984326) scale(0.7)"/>
     <use xlink:href="#DejaVuSans-Bold-3" transform="translate(1903.857422 0.015625)"/>
     <use xlink:href="#DejaVuSans-Bold-3" transform="translate(1938.671875 0.015625)"/>
     <use xlink:href="#DejaVuSans-Bold-4c" transform="translate(1973.486328 0.015625)"/>
     <use xlink:href="#DejaVuSans-Bold-56" transform="translate(2007.763672 0.015625)"/>
     <use xlink:href="#DejaVuSans-Bold-3" transform="translate(2067.285156 0.015625)"/>
     <use xlink:href="#DejaVuSans-Bold-53" transform="translate(2102.099609 0.015625)"/>
     <use xlink:href="#DejaVuSans-Bold-55" transform="translate(2173.681641 0.015625)"/>
     <use xlink:href="#DejaVuSans-Bold-52" transform="translate(2222.998047 0.015625)"/>
     <use xlink:href="#DejaVuSans-Bold-59" transform="translate(2291.699219 0.015625)"/>
     <use xlink:href="#DejaVuSans-Bold-44" transform="translate(2356.884766 0.015625)"/>
     <use xlink:href="#DejaVuSans-Bold-45" transform="translate(2424.365234 0.015625)"/>
     <use xlink:href="#DejaVuSans-Bold-4f" transform="translate(2495.947266 0.015625)"/>
     <use xlink:href="#DejaVuSans-Bold-5c" transform="translate(2530.224609 0.015625)"/>
     <use xlink:href="#DejaVuSans-Bold-3" transform="translate(2595.410156 0.015625)"/>
     <use xlink:href="#DejaVuSans-Bold-56" transform="translate(2630.224609 0.015625)"/>
     <use xlink:href="#DejaVuSans-Bold-4b" transform="translate(2689.746094 0.015625)"/>
     <use xlink:href="#DejaVuSans-Bold-52" transform="translate(2760.9375 0.015625)"/>
     <use xlink:href="#DejaVuSans-Bold-55" transform="translate(2829.638672 0.015625)"/>
     <use xlink:href="#DejaVuSans-Bold-57" transform="translate(2878.955078 0.015625)"/>
     <use xlink:href="#DejaVuSans-Bold-48" transform="translate(2926.757812 0.015625)"/>
     <use xlink:href="#DejaVuSans-Bold-55" transform="translate(2994.580078 0.015625)"/>
    </g>
   </g>
   <g id="text_15">
    <!-- only 2 queries per step — no gradient estimation at all -->
    <g style="fill: #fbbf24" transform="translate(171.807429 482.672416) scale(0.125 -0.125)">
     <defs>
      <path id="DejaVuSans-Bold-15" d="M 1844 884 
L 3897 884 
L 3897 0 
L 506 0 
L 506 884 
L 2209 2388 
Q 2438 2594 2547 2791 
Q 2656 2988 2656 3200 
Q 2656 3528 2436 3728 
Q 2216 3928 1850 3928 
Q 1569 3928 1234 3808 
Q 900 3688 519 3450 
L 519 4475 
Q 925 4609 1322 4679 
Q 1719 4750 2100 4750 
Q 2938 4750 3402 4381 
Q 3866 4013 3866 3353 
Q 3866 2972 3669 2642 
Q 3472 2313 2841 1759 
L 1844 884 
z
" transform="scale(0.015625)"/>
      <path id="DejaVuSans-Bold-54" d="M 2181 2772 
Q 1825 2772 1636 2509 
Q 1447 2247 1447 1747 
Q 1447 1247 1636 984 
Q 1825 722 2181 722 
Q 2541 722 2730 984 
Q 2919 1247 2919 1747 
Q 2919 2247 2730 2509 
Q 2541 2772 2181 2772 
z
M 2919 506 
Q 2688 197 2409 53 
Q 2131 -91 1766 -91 
Q 1119 -91 703 423 
Q 288 938 288 1747 
Q 288 2556 703 3067 
Q 1119 3578 1766 3578 
Q 2131 3578 2409 3434 
Q 2688 3291 2919 2981 
L 2919 3500 
L 4044 3500 
L 4044 -1331 
L 2919 -1331 
L 2919 506 
z
" transform="scale(0.015625)"/>
      <path id="DejaVuSans-Bold-af6" d="M 344 2156 
L 6056 2156 
L 6056 1350 
L 344 1350 
L 344 2156 
z
" transform="scale(0.015625)"/>
     </defs>
     <use xlink:href="#DejaVuSans-Bold-52"/>
     <use xlink:href="#DejaVuSans-Bold-51" transform="translate(68.703125 0)"/>
     <use xlink:href="#DejaVuSans-Bold-4f" transform="translate(139.890625 0)"/>
     <use xlink:href="#DejaVuSans-Bold-5c" transform="translate(174.171875 0)"/>
     <use xlink:href="#DejaVuSans-Bold-3" transform="translate(239.359375 0)"/>
     <use xlink:href="#DejaVuSans-Bold-15" transform="translate(274.171875 0)"/>
     <use xlink:href="#DejaVuSans-Bold-3" transform="translate(343.75 0)"/>
     <use xlink:href="#DejaVuSans-Bold-54" transform="translate(378.5625 0)"/>
     <use xlink:href="#DejaVuSans-Bold-58" transform="translate(450.140625 0)"/>
     <use xlink:href="#DejaVuSans-Bold-48" transform="translate(521.328125 0)"/>
     <use xlink:href="#DejaVuSans-Bold-55" transform="translate(589.15625 0)"/>
     <use xlink:href="#DejaVuSans-Bold-4c" transform="translate(638.46875 0)"/>
     <use xlink:href="#DejaVuSans-Bold-48" transform="translate(672.75 0)"/>
     <use xlink:href="#DejaVuSans-Bold-56" transform="translate(740.578125 0)"/>
     <use xlink:href="#DejaVuSans-Bold-3" transform="translate(800.09375 0)"/>
     <use xlink:href="#DejaVuSans-Bold-53" transform="translate(834.90625 0)"/>
     <use xlink:href="#DejaVuSans-Bold-48" transform="translate(906.484375 0)"/>
     <use xlink:href="#DejaVuSans-Bold-55" transform="translate(974.3125 0)"/>
     <use xlink:href="#DejaVuSans-Bold-3" transform="translate(1023.625 0)"/>
     <use xlink:href="#DejaVuSans-Bold-56" transform="translate(1058.4375 0)"/>
     <use xlink:href="#DejaVuSans-Bold-57" transform="translate(1117.953125 0)"/>
     <use xlink:href="#DejaVuSans-Bold-48" transform="translate(1165.75 0)"/>
     <use xlink:href="#DejaVuSans-Bold-53" transform="translate(1233.578125 0)"/>
     <use xlink:href="#DejaVuSans-Bold-3" transform="translate(1305.15625 0)"/>
     <use xlink:href="#DejaVuSans-Bold-af6" transform="translate(1339.96875 0)"/>
     <use xlink:href="#DejaVuSans-Bold-3" transform="translate(1439.96875 0)"/>
     <use xlink:href="#DejaVuSans-Bold-51" transform="translate(1474.78125 0)"/>
     <use xlink:href="#DejaVuSans-Bold-52" transform="translate(1545.96875 0)"/>
     <use xlink:href="#DejaVuSans-Bold-3" transform="translate(1614.671875 0)"/>
     <use xlink:href="#DejaVuSans-Bold-4a" transform="translate(1649.484375 0)"/>
     <use xlink:href="#DejaVuSans-Bold-55" transform="translate(1721.0625 0)"/>
     <use xlink:href="#DejaVuSans-Bold-44" transform="translate(1770.375 0)"/>
     <use xlink:href="#DejaVuSans-Bold-47" transform="translate(1837.859375 0)"/>
     <use xlink:href="#DejaVuSans-Bold-4c" transform="translate(1909.4375 0)"/>
     <use xlink:href="#DejaVuSans-Bold-48" transform="translate(1943.71875 0)"/>
     <use xlink:href="#DejaVuSans-Bold-51" transform="translate(2011.546875 0)"/>
     <use xlink:href="#DejaVuSans-Bold-57" transform="translate(2082.734375 0)"/>
     <use xlink:href="#DejaVuSans-Bold-3" transform="translate(2130.53125 0)"/>
     <use xlink:href="#DejaVuSans-Bold-48" transform="translate(2165.34375 0)"/>
     <use xlink:href="#DejaVuSans-Bold-56" transform="translate(2233.171875 0)"/>
     <use xlink:href="#DejaVuSans-Bold-57" transform="translate(2292.6875 0)"/>
     <use xlink:href="#DejaVuSans-Bold-4c" transform="translate(2340.484375 0)"/>
     <use xlink:href="#DejaVuSans-Bold-50" transform="translate(2374.765625 0)"/>
     <use xlink:href="#DejaVuSans-Bold-44" transform="translate(2478.96875 0)"/>
     <use xlink:href="#DejaVuSans-Bold-57" transform="translate(2546.453125 0)"/>
     <use xlink:href="#DejaVuSans-Bold-4c" transform="translate(2594.25 0)"/>
     <use xlink:href="#DejaVuSans-Bold-52" transform="translate(2628.53125 0)"/>
     <use xlink:href="#DejaVuSans-Bold-51" transform="translate(2697.234375 0)"/>
     <use xlink:href="#DejaVuSans-Bold-3" transform="translate(2768.421875 0)"/>
     <use xlink:href="#DejaVuSans-Bold-44" transform="translate(2803.234375 0)"/>
     <use xlink:href="#DejaVuSans-Bold-57" transform="translate(2870.71875 0)"/>
     <use xlink:href="#DejaVuSans-Bold-3" transform="translate(2918.515625 0)"/>
     <use xlink:href="#DejaVuSans-Bold-44" transform="translate(2953.328125 0)"/>
     <use xlink:href="#DejaVuSans-Bold-4f" transform="translate(3020.8125 0)"/>
     <use xlink:href="#DejaVuSans-Bold-4f" transform="translate(3055.09375 0)"/>
    </g>
   </g>
   <g id="line2d_2">
    <path d="M 147.291429 310.731429 
L 439.148571 193.988571 
" clip-path="url(#pa7801fea13)" style="fill: none; stroke: #f87171; stroke-width: 3; stroke-linecap: square"/>
   </g>
   <g id="line2d_3">
    <path d="M 147.291429 310.731429 
L 398.288571 287.382857 
" clip-path="url(#pa7801fea13)" style="fill: none; stroke: #a7f3d0; stroke-width: 3; stroke-linecap: square"/>
   </g>
   <g id="line2d_4">
    <path d="M 439.148571 193.988571 
L 398.288571 287.382857 
" clip-path="url(#pa7801fea13)" style="fill: none; stroke-dasharray: 12,7.2; stroke-dashoffset: 0; stroke: #38bdf8; stroke-width: 2.4"/>
   </g>
   <g id="patch_3">
    <path d="M 196.693856 306.135854 
C 196.473364 303.765574 196.082573 301.414233 195.524512 299.100057 
C 194.96645 296.785881 194.242563 294.514866 193.358463 292.304615 
" clip-path="url(#pa7801fea13)" style="fill: none; stroke: #fbbf24; stroke-width: 2.2; stroke-linejoin: miter"/>
   </g>
   <g id="patch_4">
    <path d="M 415.835847 247.274798 
C 408.858578 244.222243 401.204049 243.04254 393.631465 243.852699 
C 386.058882 244.662857 378.827163 247.435176 372.653577 251.894685 
C 366.479992 256.354194 361.575625 262.348416 358.42691 269.282821 
C 355.278196 276.217227 353.992794 283.854717 354.698195 291.437776 
" clip-path="url(#pa7801fea13)" style="fill: none; stroke: #fbbf24; stroke-width: 2.2; stroke-linejoin: miter"/>
   </g>
   <g id="PathCollection_1">
    <defs>
     <path id="ma37c5a359a" d="M 0 6.324555 
C 1.677292 6.324555 3.286112 5.65816 4.472136 4.472136 
C 5.65816 3.286112 6.324555 1.677292 6.324555 0 
C 6.324555 -1.677292 5.65816 -3.286112 4.472136 -4.472136 
C 3.286112 -5.65816 1.677292 -6.324555 0 -6.324555 
C -1.677292 -6.324555 -3.286112 -5.65816 -4.472136 -4.472136 
C -5.65816 -3.286112 -6.324555 -1.677292 -6.324555 0 
C -6.324555 1.677292 -5.65816 3.286112 -4.472136 4.472136 
C -3.286112 5.65816 -1.677292 6.324555 0 6.324555 
z
" style="stroke: #0b1020; stroke-width: 1.5"/>
    </defs>
    <g clip-path="url(#pa7801fea13)">
     <use xlink:href="#ma37c5a359a" x="439.148571" y="193.988571" style="fill: #f87171; stroke: #0b1020; stroke-width: 1.5"/>
    </g>
   </g>
   <g id="PathCollection_2">
    <defs>
     <path id="m7ad8fda897" d="M 0 6.519202 
C 1.728913 6.519202 3.387246 5.832298 4.609772 4.609772 
C 5.832298 3.387246 6.519202 1.728913 6.519202 0 
C 6.519202 -1.728913 5.832298 -3.387246 4.609772 -4.609772 
C 3.387246 -5.832298 1.728913 -6.519202 0 -6.519202 
C -1.728913 -6.519202 -3.387246 -5.832298 -4.609772 -4.609772 
C -5.832298 -3.387246 -6.519202 -1.728913 -6.519202 0 
C -6.519202 1.728913 -5.832298 3.387246 -4.609772 4.609772 
C -3.387246 5.832298 -1.728913 6.519202 0 6.519202 
z
" style="stroke: #0b1020; stroke-width: 1.5"/>
    </defs>
    <g clip-path="url(#pa7801fea13)">
     <use xlink:href="#m7ad8fda897" x="398.288571" y="287.382857" style="fill: #a7f3d0; stroke: #0b1020; stroke-width: 1.5"/>
    </g>
   </g>
   <g id="PathCollection_3">
    <defs>
     <path id="meb52433dde" d="M 0 -12.649111 
L -2.839902 -3.90879 
L -12.030019 -3.90879 
L -4.595058 1.493025 
L -7.434961 10.233345 
L -0 4.83153 
L 7.434961 10.233345 
L 4.595058 1.493025 
L 12.030019 -3.90879 
L 2.839902 -3.90879 
z
" style="stroke: #0b1020; stroke-width: 1.5"/>
    </defs>
    <g clip-path="url(#pa7801fea13)">
     <use xlink:href="#meb52433dde" x="147.291429" y="310.731429" style="fill: #67e8f9; stroke: #0b1020; stroke-width: 1.5"/>
    </g>
   </g>
   <g id="PathCollection_4">
    <defs>
     <path id="mba8e7eb06f" d="M 0 11.83216 
C 3.137925 11.83216 6.147752 10.585449 8.3666 8.3666 
C 10.585449 6.147752 11.83216 3.137925 11.83216 0 
C 11.83216 -3.137925 10.585449 -6.147752 8.3666 -8.3666 
C 6.147752 -10.585449 3.137925 -11.83216 0 -11.83216 
C -3.137925 -11.83216 -6.147752 -10.585449 -8.3666 -8.3666 
C -10.585449 -6.147752 -11.83216 -3.137925 -11.83216 0 
C -11.83216 3.137925 -10.585449 6.147752 -8.3666 8.3666 
C -6.147752 10.585449 -3.137925 11.83216 0 11.83216 
z
" style="stroke: #0b1020; stroke-width: 2"/>
    </defs>
    <g clip-path="url(#pa7801fea13)">
     <use xlink:href="#mba8e7eb06f" x="147.291429" y="407.044286" style="fill: #38bdf8; stroke: #0b1020; stroke-width: 2"/>
    </g>
   </g>
   <g id="PathCollection_5">
    <defs>
     <path id="m418e6f0553" d="M 0 11.83216 
C 3.137925 11.83216 6.147752 10.585449 8.3666 8.3666 
C 10.585449 6.147752 11.83216 3.137925 11.83216 0 
C 11.83216 -3.137925 10.585449 -6.147752 8.3666 -8.3666 
C 6.147752 -10.585449 3.137925 -11.83216 0 -11.83216 
C -3.137925 -11.83216 -6.147752 -10.585449 -8.3666 -8.3666 
C -10.585449 -6.147752 -11.83216 -3.137925 -11.83216 0 
C -11.83216 3.137925 -10.585449 6.147752 -8.3666 8.3666 
C -6.147752 10.585449 -3.137925 11.83216 0 11.83216 
z
" style="stroke: #0b1020; stroke-width: 2"/>
    </defs>
    <g clip-path="url(#pa7801fea13)">
     <use xlink:href="#m418e6f0553" x="147.291429" y="443.234571" style="fill: #a7f3d0; stroke: #0b1020; stroke-width: 2"/>
    </g>
   </g>
   <g id="PathCollection_6">
    <defs>
     <path id="m45bc3ac7e8" d="M 0 11.83216 
C 3.137925 11.83216 6.147752 10.585449 8.3666 8.3666 
C 10.585449 6.147752 11.83216 3.137925 11.83216 0 
C 11.83216 -3.137925 10.585449 -6.147752 8.3666 -8.3666 
C 6.147752 -10.585449 3.137925 -11.83216 0 -11.83216 
C -3.137925 -11.83216 -6.147752 -10.585449 -8.3666 -8.3666 
C -10.585449 -6.147752 -11.83216 -3.137925 -11.83216 0 
C -11.83216 3.137925 -10.585449 6.147752 -8.3666 8.3666 
C -6.147752 10.585449 -3.137925 11.83216 0 11.83216 
z
" style="stroke: #0b1020; stroke-width: 2"/>
    </defs>
    <g clip-path="url(#pa7801fea13)">
     <use xlink:href="#m45bc3ac7e8" x="147.291429" y="479.424857" style="fill: #fbbf24; stroke: #0b1020; stroke-width: 2"/>
    </g>
   </g>
   <g id="text_16">
    <!-- 1 -->
    <g style="fill: #0b1020" transform="translate(142.42096 410.681004) scale(0.14 -0.14)">
     <defs>
      <path id="DejaVuSans-Bold-14" d="M 750 831 
L 1813 831 
L 1813 3847 
L 722 3622 
L 722 4441 
L 1806 4666 
L 2950 4666 
L 2950 831 
L 4013 831 
L 4013 0 
L 750 0 
L 750 831 
z
" transform="scale(0.015625)"/>
     </defs>
     <use xlink:href="#DejaVuSans-Bold-14"/>
    </g>
   </g>
   <g id="text_17">
    <!-- 2 -->
    <g style="fill: #0b1020" transform="translate(142.42096 446.87129) scale(0.14 -0.14)">
     <use xlink:href="#DejaVuSans-Bold-15"/>
    </g>
   </g>
   <g id="text_18">
    <!-- 3 -->
    <g style="fill: #0b1020" transform="translate(142.42096 483.061576) scale(0.14 -0.14)">
     <defs>
      <path id="DejaVuSans-Bold-16" d="M 2981 2516 
Q 3453 2394 3698 2092 
Q 3944 1791 3944 1325 
Q 3944 631 3412 270 
Q 2881 -91 1863 -91 
Q 1503 -91 1142 -33 
Q 781 25 428 141 
L 428 1069 
Q 766 900 1098 814 
Q 1431 728 1753 728 
Q 2231 728 2486 893 
Q 2741 1059 2741 1369 
Q 2741 1688 2480 1852 
Q 2219 2016 1709 2016 
L 1228 2016 
L 1228 2791 
L 1734 2791 
Q 2188 2791 2409 2933 
Q 2631 3075 2631 3366 
Q 2631 3634 2415 3781 
Q 2200 3928 1806 3928 
Q 1516 3928 1219 3862 
Q 922 3797 628 3669 
L 628 4550 
Q 984 4650 1334 4700 
Q 1684 4750 2022 4750 
Q 2931 4750 3382 4451 
Q 3834 4153 3834 3553 
Q 3834 3144 3618 2883 
Q 3403 2622 2981 2516 
z
" transform="scale(0.015625)"/>
     </defs>
     <use xlink:href="#DejaVuSans-Bold-16"/>
    </g>
   </g>
  </g>
 </g>
 <defs>
  <clipPath id="pa7801fea13">
   <rect x="7.2" y="7.2" width="653.76" height="490.32"/>
  </clipPath>
 </defs>
</svg>
